<?xml version="1.0" encoding="UTF-8" standalone="no"?>
<!DOCTYPE svg PUBLIC "-//W3C//DTD SVG 1.1//EN"
 "http://www.w3.org/Graphics/SVG/1.1/DTD/svg11.dtd">
<!-- Generated by graphviz version 14.1.2 (20260124.0452)
 -->
<!-- Title: ChoiceChain Pages: 1 -->
<svg width="233pt" height="423pt"
 viewBox="0.00 0.00 233.00 423.00" xmlns="http://www.w3.org/2000/svg" xmlns:xlink="http://www.w3.org/1999/xlink">
<g id="graph0" class="graph" transform="scale(1 1) rotate(0) translate(28.8 394.3)">
<title>ChoiceChain</title>
<polygon fill="white" stroke="none" points="-28.8,28.8 -28.8,-394.3 204.05,-394.3 204.05,28.8 -28.8,28.8"/>
<!-- __init__ -->
<g id="node1" class="node">
<title>__init__</title>
<ellipse fill="#1a1a2e" stroke="black" cx="128.25" cy="-356.5" rx="9" ry="9"/>
</g>
<!-- C1 -->
<g id="node2" class="node">
<title>C1</title>
<polygon fill="#fff8e1" stroke="#f9ab00" points="128.25,-310.5 101.25,-292.5 128.25,-274.5 155.25,-292.5 128.25,-310.5"/>
<text xml:space="preserve" text-anchor="middle" x="128.25" y="-288.05" font-family="Helvetica,sans-Serif" font-size="11.00">C1</text>
</g>
<!-- __init__&#45;&gt;C1 -->
<g id="edge1" class="edge">
<title>__init__&#45;&gt;C1</title>
<path fill="none" stroke="#5f6368" d="M128.25,-347.14C128.25,-340.7 128.25,-331.41 128.25,-322.35"/>
<polygon fill="#5f6368" stroke="#5f6368" points="131.75,-322.37 128.25,-312.37 124.75,-322.37 131.75,-322.37"/>
</g>
<!-- C2 -->
<g id="node3" class="node">
<title>C2</title>
<polygon fill="#fff8e1" stroke="#f9ab00" points="96.25,-219 69.25,-201 96.25,-183 123.25,-201 96.25,-219"/>
<text xml:space="preserve" text-anchor="middle" x="96.25" y="-196.55" font-family="Helvetica,sans-Serif" font-size="11.00">C2</text>
</g>
<!-- C1&#45;&gt;C2 -->
<g id="edge2" class="edge">
<title>C1&#45;&gt;C2</title>
<path fill="none" stroke="#5f6368" d="M116.88,-281.7C110.3,-275.27 102.57,-266.27 98.75,-256.5 95.47,-248.13 94.28,-238.48 94.08,-229.65"/>
<polygon fill="#5f6368" stroke="#5f6368" points="97.58,-229.89 94.29,-219.82 90.58,-229.74 97.58,-229.89"/>
<text xml:space="preserve" text-anchor="middle" x="122" y="-247.95" font-family="Helvetica,sans-Serif" font-size="9.00">[hasConfig]</text>
<text xml:space="preserve" text-anchor="middle" x="122" y="-238.2" font-family="Helvetica,sans-Serif" font-size="9.00">/ init1</text>
</g>
<!-- Fault -->
<g id="node7" class="node">
<title>Fault</title>
<path fill="#e8f0fe" stroke="#4285f4" d="M163.25,-127.5C163.25,-127.5 133.25,-127.5 133.25,-127.5 127.25,-127.5 121.25,-121.5 121.25,-115.5 121.25,-115.5 121.25,-103.5 121.25,-103.5 121.25,-97.5 127.25,-91.5 133.25,-91.5 133.25,-91.5 163.25,-91.5 163.25,-91.5 169.25,-91.5 175.25,-97.5 175.25,-103.5 175.25,-103.5 175.25,-115.5 175.25,-115.5 175.25,-121.5 169.25,-127.5 163.25,-127.5"/>
<text xml:space="preserve" text-anchor="middle" x="148.25" y="-105.05" font-family="Helvetica,sans-Serif" font-size="11.00">Fault</text>
</g>
<!-- C1&#45;&gt;Fault -->
<g id="edge3" class="edge">
<title>C1&#45;&gt;Fault</title>
<path fill="none" stroke="#5f6368" d="M135.94,-279.03C139.5,-272.56 143.35,-264.38 145.25,-256.5 154.85,-216.64 153.52,-168.88 151.24,-139.1"/>
<polygon fill="#5f6368" stroke="#5f6368" points="154.74,-139.06 150.39,-129.4 147.77,-139.66 154.74,-139.06"/>
<text xml:space="preserve" text-anchor="middle" x="161.49" y="-197.32" font-family="Helvetica,sans-Serif" font-size="9.00">else</text>
</g>
<!-- C3 -->
<g id="node4" class="node">
<title>C3</title>
<polygon fill="#fff8e1" stroke="#f9ab00" points="66.25,-127.5 39.25,-109.5 66.25,-91.5 93.25,-109.5 66.25,-127.5"/>
<text xml:space="preserve" text-anchor="middle" x="66.25" y="-105.05" font-family="Helvetica,sans-Serif" font-size="11.00">C3</text>
</g>
<!-- C2&#45;&gt;C3 -->
<g id="edge4" class="edge">
<title>C2&#45;&gt;C3</title>
<path fill="none" stroke="#5f6368" d="M84.87,-190.22C78.3,-183.8 70.63,-174.8 67,-165 63.83,-156.46 62.94,-146.64 63.06,-137.7"/>
<polygon fill="#5f6368" stroke="#5f6368" points="66.55,-137.98 63.65,-127.79 59.57,-137.57 66.55,-137.98"/>
<text xml:space="preserve" text-anchor="middle" x="86.12" y="-156.45" font-family="Helvetica,sans-Serif" font-size="9.00">[isReady]</text>
<text xml:space="preserve" text-anchor="middle" x="86.12" y="-146.7" font-family="Helvetica,sans-Serif" font-size="9.00">/ init2</text>
</g>
<!-- C2&#45;&gt;Fault -->
<g id="edge5" class="edge">
<title>C2&#45;&gt;Fault</title>
<path fill="none" stroke="#5f6368" d="M103.48,-187.56C110.97,-174.67 122.9,-154.13 132.57,-137.49"/>
<polygon fill="#5f6368" stroke="#5f6368" points="135.47,-139.46 137.47,-129.05 129.42,-135.94 135.47,-139.46"/>
<text xml:space="preserve" text-anchor="middle" x="135.53" y="-151.57" font-family="Helvetica,sans-Serif" font-size="9.00">else</text>
</g>
<!-- Running -->
<g id="node5" class="node">
<title>Running</title>
<path fill="#e8f0fe" stroke="#4285f4" d="M44.5,-36C44.5,-36 12,-36 12,-36 6,-36 0,-30 0,-24 0,-24 0,-12 0,-12 0,-6 6,0 12,0 12,0 44.5,0 44.5,0 50.5,0 56.5,-6 56.5,-12 56.5,-12 56.5,-24 56.5,-24 56.5,-30 50.5,-36 44.5,-36"/>
<text xml:space="preserve" text-anchor="middle" x="28.25" y="-13.55" font-family="Helvetica,sans-Serif" font-size="11.00">Running</text>
</g>
<!-- C3&#45;&gt;Running -->
<g id="edge6" class="edge">
<title>C3&#45;&gt;Running</title>
<path fill="none" stroke="#5f6368" d="M52.95,-100.19C44.38,-94 33.94,-84.71 29,-73.5 25.52,-65.61 24.43,-56.44 24.45,-47.89"/>
<polygon fill="#5f6368" stroke="#5f6368" points="27.95,-48.13 25.03,-37.94 20.96,-47.72 27.95,-48.13"/>
<text xml:space="preserve" text-anchor="middle" x="55.62" y="-64.95" font-family="Helvetica,sans-Serif" font-size="9.00">[hasNetwork]</text>
<text xml:space="preserve" text-anchor="middle" x="55.62" y="-55.2" font-family="Helvetica,sans-Serif" font-size="9.00">/ init3</text>
</g>
<!-- Offline -->
<g id="node6" class="node">
<title>Offline</title>
<path fill="#e8f0fe" stroke="#4285f4" d="M119.25,-36C119.25,-36 89.25,-36 89.25,-36 83.25,-36 77.25,-30 77.25,-24 77.25,-24 77.25,-12 77.25,-12 77.25,-6 83.25,0 89.25,0 89.25,0 119.25,0 119.25,0 125.25,0 131.25,-6 131.25,-12 131.25,-12 131.25,-24 131.25,-24 131.25,-30 125.25,-36 119.25,-36"/>
<text xml:space="preserve" text-anchor="middle" x="104.25" y="-13.55" font-family="Helvetica,sans-Serif" font-size="11.00">Offline</text>
</g>
<!-- C3&#45;&gt;Offline -->
<g id="edge7" class="edge">
<title>C3&#45;&gt;Offline</title>
<path fill="none" stroke="#5f6368" d="M72.47,-95.27C75.49,-88.74 79.13,-80.74 82.25,-73.5 85.95,-64.9 89.83,-55.46 93.27,-46.89"/>
<polygon fill="#5f6368" stroke="#5f6368" points="96.5,-48.26 96.95,-37.67 89.99,-45.66 96.5,-48.26"/>
<text xml:space="preserve" text-anchor="middle" x="98.97" y="-60.08" font-family="Helvetica,sans-Serif" font-size="9.00">else</text>
</g>
</g>
</svg>
