<?xml version="1.0" encoding="UTF-8" standalone="no"?>
<!DOCTYPE svg PUBLIC "-//W3C//DTD SVG 1.1//EN"
 "http://www.w3.org/Graphics/SVG/1.1/DTD/svg11.dtd">
<!-- Generated by graphviz version 14.1.2 (20260124.0452)
 -->
<!-- Title: ChoiceChain Pages: 1 -->
<svg width="321pt" height="580pt"
 viewBox="0.00 0.00 321.00 580.00" xmlns="http://www.w3.org/2000/svg" xmlns:xlink="http://www.w3.org/1999/xlink">
<g id="graph0" class="graph" transform="scale(1 1) rotate(0) translate(28.8 550.8)">
<title>ChoiceChain</title>
<polygon fill="white" stroke="none" points="-28.8,28.8 -28.8,-550.8 292.68,-550.8 292.68,28.8 -28.8,28.8"/>
<!-- __init__ -->
<g id="node1" class="node">
<title>__init__</title>
<ellipse fill="#1a1a2e" stroke="black" cx="199.88" cy="-513" rx="9" ry="9"/>
</g>
<!-- C1 -->
<g id="node2" class="node">
<title>C1</title>
<polygon fill="#fff8e1" stroke="#f9ab00" points="199.88,-468 172.88,-450 199.88,-432 226.88,-450 199.88,-468"/>
<text xml:space="preserve" text-anchor="middle" x="199.88" y="-445.55" font-family="Helvetica,sans-Serif" font-size="11.00" fill="#1a1a2e">C1</text>
</g>
<!-- __init__&#45;&gt;C1 -->
<g id="edge1" class="edge">
<title>__init__&#45;&gt;C1</title>
<path fill="none" stroke="#5f6368" d="M199.88,-503.52C199.88,-497.31 199.88,-488.49 199.88,-479.84"/>
<polygon fill="#5f6368" stroke="#5f6368" points="203.38,-479.94 199.88,-469.94 196.38,-479.94 203.38,-479.94"/>
</g>
<!-- __e0 -->
<g id="node8" class="node">
<title>__e0</title>
<text xml:space="preserve" text-anchor="start" x="125.38" y="-374.32" font-family="Helvetica,sans-Serif" font-size="9.00" fill="#1a1a2e">[ hasConfig ] / init1</text>
</g>
<!-- C1&#45;&gt;__e0 -->
<g id="edge2" class="edge">
<title>C1&#45;&gt;__e0</title>
<path fill="none" stroke="#5f6368" d="M193.09,-436.16C187.12,-424.87 178.39,-408.36 171.85,-395.98"/>
</g>
<!-- __e1 -->
<g id="node9" class="node">
<title>__e1</title>
<text xml:space="preserve" text-anchor="start" x="227.88" y="-303.32" font-family="Helvetica,sans-Serif" font-weight="bold" font-size="9.00" fill="#1a1a2e">else</text>
</g>
<!-- C1&#45;&gt;__e1 -->
<g id="edge4" class="edge">
<title>C1&#45;&gt;__e1</title>
<path fill="none" stroke="#5f6368" d="M205.06,-435.19C208.93,-424.57 214.16,-409.49 217.88,-396 224.72,-371.17 230.55,-341.88 233.88,-323.87"/>
</g>
<!-- C2 -->
<g id="node3" class="node">
<title>C2</title>
<polygon fill="#fff8e1" stroke="#f9ab00" points="162.88,-324 135.88,-306 162.88,-288 189.88,-306 162.88,-324"/>
<text xml:space="preserve" text-anchor="middle" x="162.88" y="-301.55" font-family="Helvetica,sans-Serif" font-size="11.00" fill="#1a1a2e">C2</text>
</g>
<!-- __e2 -->
<g id="node10" class="node">
<title>__e2</title>
<text xml:space="preserve" text-anchor="start" x="62.5" y="-230.32" font-family="Helvetica,sans-Serif" font-size="9.00" fill="#1a1a2e">[ isReady ] / init2</text>
</g>
<!-- C2&#45;&gt;__e2 -->
<g id="edge6" class="edge">
<title>C2&#45;&gt;__e2</title>
<path fill="none" stroke="#5f6368" d="M152.7,-294.37C141.86,-283.05 124.56,-264.97 111.9,-251.74"/>
</g>
<!-- __e3 -->
<g id="node11" class="node">
<title>__e3</title>
<text xml:space="preserve" text-anchor="start" x="172.88" y="-231.32" font-family="Helvetica,sans-Serif" font-weight="bold" font-size="9.00" fill="#1a1a2e">else</text>
</g>
<!-- C2&#45;&gt;__e3 -->
<g id="edge8" class="edge">
<title>C2&#45;&gt;__e3</title>
<path fill="none" stroke="#5f6368" d="M166.9,-290.15C169.95,-278.92 174.15,-263.48 177.32,-251.79"/>
</g>
<!-- C3 -->
<g id="node4" class="node">
<title>C3</title>
<polygon fill="#fff8e1" stroke="#f9ab00" points="95.88,-180 68.88,-162 95.87,-144 122.88,-162 95.88,-180"/>
<text xml:space="preserve" text-anchor="middle" x="95.88" y="-157.55" font-family="Helvetica,sans-Serif" font-size="11.00" fill="#1a1a2e">C3</text>
</g>
<!-- __e4 -->
<g id="node12" class="node">
<title>__e4</title>
<text xml:space="preserve" text-anchor="start" x="8" y="-86.33" font-family="Helvetica,sans-Serif" font-size="9.00" fill="#1a1a2e">[ hasNetwork ] / init3</text>
</g>
<!-- C3&#45;&gt;__e4 -->
<g id="edge10" class="edge">
<title>C3&#45;&gt;__e4</title>
<path fill="none" stroke="#5f6368" d="M87.9,-149.13C80.31,-137.81 68.8,-120.67 60.24,-107.93"/>
</g>
<!-- __e5 -->
<g id="node13" class="node">
<title>__e5</title>
<text xml:space="preserve" text-anchor="start" x="133.88" y="-87.33" font-family="Helvetica,sans-Serif" font-weight="bold" font-size="9.00" fill="#1a1a2e">else</text>
</g>
<!-- C3&#45;&gt;__e5 -->
<g id="edge12" class="edge">
<title>C3&#45;&gt;__e5</title>
<path fill="none" stroke="#5f6368" d="M103.85,-149.13C111.44,-137.81 122.95,-120.67 131.51,-107.93"/>
</g>
<!-- Running -->
<g id="node5" class="node">
<title>Running</title>
<path fill="#e8f0fe" stroke="#4285f4" d="M65.12,-36C65.12,-36 32.62,-36 32.62,-36 26.62,-36 20.62,-30 20.62,-24 20.62,-24 20.62,-12 20.62,-12 20.62,-6 26.62,0 32.62,0 32.62,0 65.12,0 65.12,0 71.12,0 77.12,-6 77.12,-12 77.12,-12 77.12,-24 77.12,-24 77.12,-30 71.12,-36 65.12,-36"/>
<text xml:space="preserve" text-anchor="middle" x="48.88" y="-13.55" font-family="Helvetica,sans-Serif" font-size="11.00" fill="#1a1a2e">Running</text>
</g>
<!-- Offline -->
<g id="node6" class="node">
<title>Offline</title>
<path fill="#e8f0fe" stroke="#4285f4" d="M157.88,-36C157.88,-36 127.88,-36 127.88,-36 121.88,-36 115.88,-30 115.88,-24 115.88,-24 115.88,-12 115.88,-12 115.88,-6 121.88,0 127.88,0 127.88,0 157.88,0 157.88,0 163.88,0 169.88,-6 169.88,-12 169.88,-12 169.88,-24 169.88,-24 169.88,-30 163.88,-36 157.88,-36"/>
<text xml:space="preserve" text-anchor="middle" x="142.88" y="-13.55" font-family="Helvetica,sans-Serif" font-size="11.00" fill="#1a1a2e">Offline</text>
</g>
<!-- Fault -->
<g id="node7" class="node">
<title>Fault</title>
<path fill="#e8f0fe" stroke="#4285f4" d="M223.88,-180C223.88,-180 193.88,-180 193.88,-180 187.88,-180 181.88,-174 181.88,-168 181.88,-168 181.88,-156 181.88,-156 181.88,-150 187.88,-144 193.88,-144 193.88,-144 223.88,-144 223.88,-144 229.88,-144 235.88,-150 235.88,-156 235.88,-156 235.88,-168 235.88,-168 235.88,-174 229.88,-180 223.88,-180"/>
<text xml:space="preserve" text-anchor="middle" x="208.88" y="-157.55" font-family="Helvetica,sans-Serif" font-size="11.00" fill="#1a1a2e">Fault</text>
</g>
<!-- __e0&#45;&gt;C2 -->
<g id="edge3" class="edge">
<title>__e0&#45;&gt;C2</title>
<path fill="none" stroke="#5f6368" d="M162.88,-360.05C162.88,-352.68 162.88,-343.84 162.88,-335.51"/>
<polygon fill="#5f6368" stroke="#5f6368" points="166.38,-335.79 162.88,-325.79 159.38,-335.79 166.38,-335.79"/>
</g>
<!-- __e1&#45;&gt;Fault -->
<g id="edge5" class="edge">
<title>__e1&#45;&gt;Fault</title>
<path fill="none" stroke="#5f6368" d="M233.55,-288.15C228.84,-264.26 220.16,-220.23 214.45,-191.28"/>
<polygon fill="#5f6368" stroke="#5f6368" points="217.94,-190.89 212.57,-181.75 211.07,-192.24 217.94,-190.89"/>
</g>
<!-- __e2&#45;&gt;C3 -->
<g id="edge7" class="edge">
<title>__e2&#45;&gt;C3</title>
<path fill="none" stroke="#5f6368" d="M95.88,-216.05C95.88,-208.68 95.88,-199.84 95.88,-191.51"/>
<polygon fill="#5f6368" stroke="#5f6368" points="99.38,-191.79 95.88,-181.79 92.38,-191.79 99.38,-191.79"/>
</g>
<!-- __e3&#45;&gt;Fault -->
<g id="edge9" class="edge">
<title>__e3&#45;&gt;Fault</title>
<path fill="none" stroke="#5f6368" d="M188.41,-216.05C191.32,-208.52 194.82,-199.44 198.1,-190.94"/>
<polygon fill="#5f6368" stroke="#5f6368" points="201.33,-192.28 201.67,-181.69 194.8,-189.76 201.33,-192.28"/>
</g>
<!-- __e4&#45;&gt;Running -->
<g id="edge11" class="edge">
<title>__e4&#45;&gt;Running</title>
<path fill="none" stroke="#5f6368" d="M48.88,-72.05C48.88,-64.68 48.88,-55.84 48.88,-47.51"/>
<polygon fill="#5f6368" stroke="#5f6368" points="52.38,-47.79 48.88,-37.79 45.38,-47.79 52.38,-47.79"/>
</g>
<!-- __e5&#45;&gt;Offline -->
<g id="edge13" class="edge">
<title>__e5&#45;&gt;Offline</title>
<path fill="none" stroke="#5f6368" d="M142.88,-72.05C142.88,-64.68 142.88,-55.84 142.88,-47.51"/>
<polygon fill="#5f6368" stroke="#5f6368" points="146.38,-47.79 142.88,-37.79 139.38,-47.79 146.38,-47.79"/>
</g>
</g>
</svg>
