<?xml version="1.0" encoding="UTF-8" standalone="no"?>
<!DOCTYPE svg PUBLIC "-//W3C//DTD SVG 1.1//EN"
 "http://www.w3.org/Graphics/SVG/1.1/DTD/svg11.dtd">
<!-- Generated by graphviz version 14.1.2 (20260124.0452)
 -->
<!-- Title: DeepNesting Pages: 1 -->
<svg width="461pt" height="467pt"
 viewBox="0.00 0.00 461.00 467.00" xmlns="http://www.w3.org/2000/svg" xmlns:xlink="http://www.w3.org/1999/xlink">
<g id="graph0" class="graph" transform="scale(1 1) rotate(0) translate(28.8 438.11)">
<title>DeepNesting</title>
<polygon fill="white" stroke="none" points="-28.8,28.8 -28.8,-438.11 431.8,-438.11 431.8,28.8 -28.8,28.8"/>
<g id="clust1" class="cluster">
<title>cluster_L1</title>
<path fill="#f8f9fa" stroke="#5f6368" d="M193,-209C193,-209 329,-209 329,-209 335,-209 341,-215 341,-221 341,-221 341,-384 341,-384 341,-390 335,-396 329,-396 329,-396 193,-396 193,-396 187,-396 181,-390 181,-384 181,-384 181,-221 181,-221 181,-215 187,-209 193,-209"/>
<text xml:space="preserve" text-anchor="middle" x="261" y="-378.7" font-family="Helvetica,sans-Serif" font-size="14.00">L1</text>
</g>
<g id="clust2" class="cluster">
<title>cluster_L1.L2</title>
<path fill="#f8f9fa" stroke="#5f6368" d="M227,-217C227,-217 321,-217 321,-217 327,-217 333,-223 333,-229 333,-229 333,-353 333,-353 333,-359 327,-365 321,-365 321,-365 227,-365 227,-365 221,-365 215,-359 215,-353 215,-353 215,-229 215,-229 215,-223 221,-217 227,-217"/>
<text xml:space="preserve" text-anchor="middle" x="274" y="-347.7" font-family="Helvetica,sans-Serif" font-size="14.00">L2</text>
</g>
<!-- __init__ -->
<g id="node1" class="node">
<title>__init__</title>
<ellipse fill="#1a1a2e" stroke="black" cx="68" cy="-316" rx="9" ry="9"/>
</g>
<!-- L1 -->
<g id="node7" class="node">
<title>L1</title>
<ellipse fill="none" stroke="black" cx="68" cy="-243" rx="27" ry="18"/>
<text xml:space="preserve" text-anchor="middle" x="68" y="-238.55" font-family="Helvetica,sans-Serif" font-size="11.00">L1</text>
</g>
<!-- __init__&#45;&gt;L1 -->
<g id="edge1" class="edge">
<title>__init__&#45;&gt;L1</title>
<path fill="none" stroke="#5f6368" d="M68,-306.58C68,-298.17 68,-284.78 68,-272.53"/>
<polygon fill="#5f6368" stroke="#5f6368" points="71.5,-272.86 68,-262.86 64.5,-272.86 71.5,-272.86"/>
</g>
<!-- L1.L2.L3 -->
<g id="node2" class="node">
<title>L1.L2.L3</title>
<path fill="#e8f0fe" stroke="#4285f4" d="M265,-261C265,-261 235,-261 235,-261 229,-261 223,-255 223,-249 223,-249 223,-237 223,-237 223,-231 229,-225 235,-225 235,-225 265,-225 265,-225 271,-225 277,-231 277,-237 277,-237 277,-249 277,-249 277,-255 271,-261 265,-261"/>
<text xml:space="preserve" text-anchor="middle" x="250" y="-238.55" font-family="Helvetica,sans-Serif" font-size="11.00" fill="#1a1a2e">L3</text>
</g>
<!-- L1.L2.L3&#45;&gt;L1.L2.L3 -->
<g id="edge2" class="edge">
<title>L1.L2.L3&#45;&gt;L1.L2.L3</title>
<path fill="none" stroke="#5f6368" d="M277.24,-249.84C287.02,-249.98 295,-247.71 295,-243 295,-240.35 292.48,-238.47 288.53,-237.36"/>
<polygon fill="#5f6368" stroke="#5f6368" points="289.06,-233.9 278.75,-236.32 288.32,-240.86 289.06,-233.9"/>
<text xml:space="preserve" text-anchor="start" x="295" y="-240.32" font-family="Helvetica,sans-Serif" font-weight="bold" font-size="9.00" fill="#1a1a2e">go</text>
<text xml:space="preserve" text-anchor="start" x="305.5" y="-240.32" font-family="Helvetica,sans-Serif" font-size="9.00" fill="#1a1a2e"> / log</text>
</g>
<!-- __e0 -->
<g id="node8" class="node">
<title>__e0</title>
<text xml:space="preserve" text-anchor="start" x="209.75" y="-161.32" font-family="Helvetica,sans-Serif" font-weight="bold" font-size="9.00" fill="#1a1a2e">up</text>
</g>
<!-- L1.L2.L3&#45;&gt;__e0 -->
<g id="edge3" class="edge">
<title>L1.L2.L3&#45;&gt;__e0</title>
<path fill="none" stroke="#5f6368" d="M242.06,-224.53C236.25,-211.75 228.41,-194.51 222.67,-181.87"/>
</g>
<!-- L1.L2.Done -->
<g id="node3" class="node">
<title>L1.L2.Done</title>
<path fill="#e8f0fe" stroke="#4285f4" d="M267,-334C267,-334 237,-334 237,-334 231,-334 225,-328 225,-322 225,-322 225,-310 225,-310 225,-304 231,-298 237,-298 237,-298 267,-298 267,-298 273,-298 279,-304 279,-310 279,-310 279,-322 279,-322 279,-328 273,-334 267,-334"/>
<text xml:space="preserve" text-anchor="middle" x="252" y="-311.55" font-family="Helvetica,sans-Serif" font-size="11.00" fill="#1a1a2e">Done</text>
</g>
<!-- __e1 -->
<g id="node9" class="node">
<title>__e1</title>
<text xml:space="preserve" text-anchor="start" x="364.75" y="-313.32" font-family="Helvetica,sans-Serif" font-weight="bold" font-size="9.00" fill="#1a1a2e">reset</text>
</g>
<!-- L1.L2.Done&#45;&gt;__e1 -->
<g id="edge5" class="edge">
<title>L1.L2.Done&#45;&gt;__e1</title>
<path fill="none" stroke="#5f6368" d="M254.4,-334.39C258.5,-356.92 269.33,-393.54 297,-405 313.84,-411.97 326.42,-410.84 337,-396 351.09,-376.25 362.56,-350.63 369.33,-333.78"/>
</g>
<!-- L1.L2.__init__ -->
<g id="node4" class="node">
<title>L1.L2.__init__</title>
<ellipse fill="#1a1a2e" stroke="black" cx="306" cy="-316" rx="9" ry="9"/>
</g>
<!-- L1.L2.__init__&#45;&gt;L1.L2.L3 -->
<g id="edge7" class="edge">
<title>L1.L2.__init__&#45;&gt;L1.L2.L3</title>
<path fill="none" stroke="#5f6368" d="M300.63,-308.19C293.78,-299.51 281.53,-283.98 270.8,-270.37"/>
<polygon fill="#5f6368" stroke="#5f6368" points="273.57,-268.23 264.63,-262.55 268.07,-272.57 273.57,-268.23"/>
</g>
<!-- L1.__init__ -->
<g id="node5" class="node">
<title>L1.__init__</title>
<ellipse fill="#1a1a2e" stroke="black" cx="198" cy="-316" rx="9" ry="9"/>
</g>
<!-- L1.L2 -->
<g id="node10" class="node">
<title>L1.L2</title>
<ellipse fill="none" stroke="black" cx="140" cy="-243" rx="27" ry="18"/>
<text xml:space="preserve" text-anchor="middle" x="140" y="-238.55" font-family="Helvetica,sans-Serif" font-size="11.00">L1.L2</text>
</g>
<!-- L1.__init__&#45;&gt;L1.L2 -->
<g id="edge8" class="edge">
<title>L1.__init__&#45;&gt;L1.L2</title>
<path fill="none" stroke="#5f6368" d="M192.65,-308.45C185.19,-299.32 171.29,-282.31 159.64,-268.05"/>
<polygon fill="#5f6368" stroke="#5f6368" points="162.4,-265.89 153.36,-260.36 156.98,-270.32 162.4,-265.89"/>
</g>
<!-- Top -->
<g id="node6" class="node">
<title>Top</title>
<path fill="#e8f0fe" stroke="#4285f4" d="M42,-109C42,-109 12,-109 12,-109 6,-109 0,-103 0,-97 0,-97 0,-85 0,-85 0,-79 6,-73 12,-73 12,-73 42,-73 42,-73 48,-73 54,-79 54,-85 54,-85 54,-97 54,-97 54,-103 48,-109 42,-109"/>
<text xml:space="preserve" text-anchor="middle" x="27" y="-86.55" font-family="Helvetica,sans-Serif" font-size="11.00" fill="#1a1a2e">Top</text>
</g>
<!-- __e3 -->
<g id="node12" class="node">
<title>__e3</title>
<text xml:space="preserve" text-anchor="start" x="33" y="-15.32" font-family="Helvetica,sans-Serif" font-weight="bold" font-size="9.00" fill="#1a1a2e">reset</text>
<text xml:space="preserve" text-anchor="start" x="55.5" y="-15.32" font-family="Helvetica,sans-Serif" font-size="9.00" fill="#1a1a2e"> / log</text>
</g>
<!-- Top&#45;&gt;__e3 -->
<g id="edge11" class="edge">
<title>Top&#45;&gt;__e3</title>
<path fill="none" stroke="#5f6368" d="M33.54,-72.81C37.84,-61.49 43.45,-46.73 47.71,-35.54"/>
</g>
<!-- __e2 -->
<g id="node11" class="node">
<title>__e2</title>
<text xml:space="preserve" text-anchor="start" x="21.75" y="-161.32" font-family="Helvetica,sans-Serif" font-weight="bold" font-size="9.00" fill="#1a1a2e">up</text>
</g>
<!-- L1&#45;&gt;__e2 -->
<g id="edge9" class="edge">
<title>L1&#45;&gt;__e2</title>
<path fill="none" stroke="#5f6368" d="M59.3,-225.67C52.44,-212.78 42.9,-194.86 35.97,-181.84"/>
</g>
<!-- __e0&#45;&gt;L1.L2.Done -->
<g id="edge4" class="edge">
<title>__e0&#45;&gt;L1.L2.Done</title>
<path fill="none" stroke="#5f6368" d="M211.73,-181.77C208.62,-201.3 205.55,-234.3 214,-261 217.08,-270.74 222.63,-280.24 228.54,-288.49"/>
<polygon fill="#5f6368" stroke="#5f6368" points="225.72,-290.57 234.61,-296.35 231.26,-286.29 225.72,-290.57"/>
</g>
<!-- __e1&#45;&gt;L1.L2.L3 -->
<g id="edge6" class="edge">
<title>__e1&#45;&gt;L1.L2.L3</title>
<path fill="none" stroke="#5f6368" d="M349.28,-299.94C331.19,-289.75 307.06,-276.15 287.11,-264.91"/>
<polygon fill="#5f6368" stroke="#5f6368" points="288.87,-261.88 278.44,-260.02 285.43,-267.98 288.87,-261.88"/>
</g>
<!-- __e2&#45;&gt;Top -->
<g id="edge10" class="edge">
<title>__e2&#45;&gt;Top</title>
<path fill="none" stroke="#5f6368" d="M27,-146.17C27,-138.56 27,-129.35 27,-120.7"/>
<polygon fill="#5f6368" stroke="#5f6368" points="30.5,-120.96 27,-110.96 23.5,-120.96 30.5,-120.96"/>
</g>
<!-- __e3&#45;&gt;L1 -->
<g id="edge12" class="edge">
<title>__e3&#45;&gt;L1</title>
<path fill="none" stroke="#5f6368" d="M57.43,-35.95C59.43,-46.55 61.78,-60.51 63,-73 67.8,-122.18 68.45,-179.75 68.33,-213.42"/>
<polygon fill="#5f6368" stroke="#5f6368" points="64.83,-213.14 68.27,-223.16 71.83,-213.19 64.83,-213.14"/>
</g>
</g>
</svg>
