<?xml version="1.0" encoding="UTF-8" standalone="no"?>
<!DOCTYPE svg PUBLIC "-//W3C//DTD SVG 1.1//EN"
 "http://www.w3.org/Graphics/SVG/1.1/DTD/svg11.dtd">
<!-- Generated by graphviz version 14.1.2 (20260124.0452)
 -->
<!-- Title: DeepNesting Pages: 1 -->
<svg width="343pt" height="334pt"
 viewBox="0.00 0.00 343.00 334.00" xmlns="http://www.w3.org/2000/svg" xmlns:xlink="http://www.w3.org/1999/xlink">
<g id="graph0" class="graph" transform="scale(1 1) rotate(0) translate(28.8 305.3)">
<title>DeepNesting</title>
<polygon fill="white" stroke="none" points="-28.8,28.8 -28.8,-305.3 313.8,-305.3 313.8,28.8 -28.8,28.8"/>
<g id="clust1" class="cluster">
<title>cluster_L1</title>
<path fill="#f8f9fa" stroke="#5f6368" d="M88,-8C88,-8 211,-8 211,-8 217,-8 223,-14 223,-20 223,-20 223,-256.5 223,-256.5 223,-262.5 217,-268.5 211,-268.5 211,-268.5 88,-268.5 88,-268.5 82,-268.5 76,-262.5 76,-256.5 76,-256.5 76,-20 76,-20 76,-14 82,-8 88,-8"/>
<text xml:space="preserve" text-anchor="middle" x="149.5" y="-251.2" font-family="Helvetica,sans-Serif" font-size="14.00">L1</text>
</g>
<g id="clust2" class="cluster">
<title>cluster_L1.L2</title>
<path fill="#f8f9fa" stroke="#5f6368" d="M96,-16C96,-16 177,-16 177,-16 183,-16 189,-22 189,-28 189,-28 189,-225.5 189,-225.5 189,-231.5 183,-237.5 177,-237.5 177,-237.5 96,-237.5 96,-237.5 90,-237.5 84,-231.5 84,-225.5 84,-225.5 84,-28 84,-28 84,-22 90,-16 96,-16"/>
<text xml:space="preserve" text-anchor="middle" x="136.5" y="-220.2" font-family="Helvetica,sans-Serif" font-size="14.00">L2</text>
</g>
<!-- __init__ -->
<g id="node1" class="node">
<title>__init__</title>
<ellipse fill="#1a1a2e" stroke="black" cx="27" cy="-197.5" rx="9" ry="9"/>
</g>
<!-- L1 -->
<g id="node7" class="node">
<title>L1</title>
<ellipse fill="none" stroke="black" cx="27" cy="-133.5" rx="27" ry="18"/>
<text xml:space="preserve" text-anchor="middle" x="27" y="-129.05" font-family="Helvetica,sans-Serif" font-size="11.00">L1</text>
</g>
<!-- __init__&#45;&gt;L1 -->
<g id="edge1" class="edge">
<title>__init__&#45;&gt;L1</title>
<path fill="none" stroke="#5f6368" d="M27,-188.14C27,-181.7 27,-172.41 27,-163.35"/>
<polygon fill="#5f6368" stroke="#5f6368" points="30.5,-163.37 27,-153.37 23.5,-163.37 30.5,-163.37"/>
</g>
<!-- L1.L2.L3 -->
<g id="node2" class="node">
<title>L1.L2.L3</title>
<path fill="#e8f0fe" stroke="#4285f4" d="M134,-151.5C134,-151.5 104,-151.5 104,-151.5 98,-151.5 92,-145.5 92,-139.5 92,-139.5 92,-127.5 92,-127.5 92,-121.5 98,-115.5 104,-115.5 104,-115.5 134,-115.5 134,-115.5 140,-115.5 146,-121.5 146,-127.5 146,-127.5 146,-139.5 146,-139.5 146,-145.5 140,-151.5 134,-151.5"/>
<text xml:space="preserve" text-anchor="middle" x="119" y="-129.05" font-family="Helvetica,sans-Serif" font-size="11.00">L3</text>
</g>
<!-- L1.L2.L3&#45;&gt;L1.L2.L3 -->
<g id="edge2" class="edge">
<title>L1.L2.L3&#45;&gt;L1.L2.L3</title>
<path fill="none" stroke="#5f6368" d="M146.24,-140.34C156.02,-140.48 164,-138.21 164,-133.5 164,-130.85 161.48,-128.97 157.53,-127.86"/>
<polygon fill="#5f6368" stroke="#5f6368" points="158.06,-124.4 147.75,-126.82 157.32,-131.36 158.06,-124.4"/>
<text xml:space="preserve" text-anchor="middle" x="172.62" y="-134.7" font-family="Helvetica,sans-Serif" font-size="9.00">go</text>
<text xml:space="preserve" text-anchor="middle" x="172.62" y="-124.95" font-family="Helvetica,sans-Serif" font-size="9.00">/ log</text>
</g>
<!-- L1.L2.Done -->
<g id="node3" class="node">
<title>L1.L2.Done</title>
<path fill="#e8f0fe" stroke="#4285f4" d="M148,-60C148,-60 118,-60 118,-60 112,-60 106,-54 106,-48 106,-48 106,-36 106,-36 106,-30 112,-24 118,-24 118,-24 148,-24 148,-24 154,-24 160,-30 160,-36 160,-36 160,-48 160,-48 160,-54 154,-60 148,-60"/>
<text xml:space="preserve" text-anchor="middle" x="133" y="-37.55" font-family="Helvetica,sans-Serif" font-size="11.00">Done</text>
</g>
<!-- L1.L2.L3&#45;&gt;L1.L2.Done -->
<g id="edge3" class="edge">
<title>L1.L2.L3&#45;&gt;L1.L2.Done</title>
<path fill="none" stroke="#5f6368" d="M115.31,-115.1C113.64,-104.29 112.62,-90.18 115.5,-78 116.08,-75.53 116.87,-73.03 117.79,-70.57"/>
<polygon fill="#5f6368" stroke="#5f6368" points="120.92,-72.14 121.81,-61.58 114.53,-69.28 120.92,-72.14"/>
<text xml:space="preserve" text-anchor="middle" x="120.75" y="-84.08" font-family="Helvetica,sans-Serif" font-size="9.00">up</text>
</g>
<!-- L1.L2.Done&#45;&gt;L1.L2.L3 -->
<g id="edge4" class="edge">
<title>L1.L2.Done&#45;&gt;L1.L2.L3</title>
<path fill="none" stroke="#5f6368" d="M131.1,-60.23C129.84,-70.97 128.04,-85.07 126,-97.5 125.66,-99.57 125.29,-101.7 124.9,-103.84"/>
<polygon fill="#5f6368" stroke="#5f6368" points="121.47,-103.13 123.02,-113.61 128.35,-104.45 121.47,-103.13"/>
<text xml:space="preserve" text-anchor="middle" x="138.99" y="-84.08" font-family="Helvetica,sans-Serif" font-size="9.00">reset</text>
</g>
<!-- L1.L2.__init__ -->
<g id="node4" class="node">
<title>L1.L2.__init__</title>
<ellipse fill="#1a1a2e" stroke="black" cx="119" cy="-197.5" rx="9" ry="9"/>
</g>
<!-- L1.L2.__init__&#45;&gt;L1.L2.L3 -->
<g id="edge5" class="edge">
<title>L1.L2.__init__&#45;&gt;L1.L2.L3</title>
<path fill="none" stroke="#5f6368" d="M119,-188.14C119,-181.7 119,-172.41 119,-163.35"/>
<polygon fill="#5f6368" stroke="#5f6368" points="122.5,-163.37 119,-153.37 115.5,-163.37 122.5,-163.37"/>
</g>
<!-- L1.__init__ -->
<g id="node5" class="node">
<title>L1.__init__</title>
<ellipse fill="#1a1a2e" stroke="black" cx="206" cy="-197.5" rx="9" ry="9"/>
</g>
<!-- L1.L2 -->
<g id="node8" class="node">
<title>L1.L2</title>
<ellipse fill="none" stroke="black" cx="258" cy="-133.5" rx="27" ry="18"/>
<text xml:space="preserve" text-anchor="middle" x="258" y="-129.05" font-family="Helvetica,sans-Serif" font-size="11.00">L1.L2</text>
</g>
<!-- L1.__init__&#45;&gt;L1.L2 -->
<g id="edge6" class="edge">
<title>L1.__init__&#45;&gt;L1.L2</title>
<path fill="none" stroke="#5f6368" d="M211.56,-189.86C217.85,-182.37 228.44,-169.75 237.92,-158.44"/>
<polygon fill="#5f6368" stroke="#5f6368" points="240.46,-160.86 244.21,-150.95 235.1,-156.36 240.46,-160.86"/>
</g>
<!-- Top -->
<g id="node6" class="node">
<title>Top</title>
<path fill="#e8f0fe" stroke="#4285f4" d="M42,-60C42,-60 12,-60 12,-60 6,-60 0,-54 0,-48 0,-48 0,-36 0,-36 0,-30 6,-24 12,-24 12,-24 42,-24 42,-24 48,-24 54,-30 54,-36 54,-36 54,-48 54,-48 54,-54 48,-60 42,-60"/>
<text xml:space="preserve" text-anchor="middle" x="27" y="-37.55" font-family="Helvetica,sans-Serif" font-size="11.00">Top</text>
</g>
<!-- Top&#45;&gt;L1 -->
<g id="edge8" class="edge">
<title>Top&#45;&gt;L1</title>
<path fill="none" stroke="#5f6368" d="M27,-60.2C27,-72.57 27,-89.54 27,-103.92"/>
<polygon fill="#5f6368" stroke="#5f6368" points="23.5,-103.73 27,-113.73 30.5,-103.73 23.5,-103.73"/>
<text xml:space="preserve" text-anchor="middle" x="37.12" y="-88.95" font-family="Helvetica,sans-Serif" font-size="9.00">reset</text>
<text xml:space="preserve" text-anchor="middle" x="37.12" y="-79.2" font-family="Helvetica,sans-Serif" font-size="9.00">/ log</text>
</g>
<!-- L1&#45;&gt;Top -->
<g id="edge7" class="edge">
<title>L1&#45;&gt;Top</title>
<path fill="none" stroke="#5f6368" d="M20.28,-115.68C18.33,-110 16.47,-103.56 15.5,-97.5 14.13,-88.94 14.13,-86.56 15.5,-78 15.87,-75.68 16.37,-73.31 16.96,-70.94"/>
<polygon fill="#5f6368" stroke="#5f6368" points="20.23,-72.21 19.72,-61.63 13.52,-70.22 20.23,-72.21"/>
<text xml:space="preserve" text-anchor="middle" x="20.75" y="-84.08" font-family="Helvetica,sans-Serif" font-size="9.00">up</text>
</g>
</g>
</svg>
