<?xml version="1.0" encoding="UTF-8" standalone="no"?>
<!DOCTYPE svg PUBLIC "-//W3C//DTD SVG 1.1//EN"
 "http://www.w3.org/Graphics/SVG/1.1/DTD/svg11.dtd">
<!-- Generated by graphviz version 14.1.2 (20260124.0452)
 -->
<!-- Title: DeploySequence Pages: 1 -->
<svg width="1092pt" height="513pt"
 viewBox="0.00 0.00 1092.00 513.00" xmlns="http://www.w3.org/2000/svg" xmlns:xlink="http://www.w3.org/1999/xlink">
<g id="graph0" class="graph" transform="scale(1 1) rotate(0) translate(28.8 484.55)">
<title>DeploySequence</title>
<polygon fill="white" stroke="none" points="-28.8,28.8 -28.8,-484.55 1063.17,-484.55 1063.17,28.8 -28.8,28.8"/>
<g id="clust1" class="cluster">
<title>cluster_Deploying</title>
<path fill="#f8f9fa" stroke="#5f6368" d="M783.25,-372.75C783.25,-372.75 973.25,-372.75 973.25,-372.75 979.25,-372.75 985.25,-378.75 985.25,-384.75 985.25,-384.75 985.25,-435.75 985.25,-435.75 985.25,-441.75 979.25,-447.75 973.25,-447.75 973.25,-447.75 783.25,-447.75 783.25,-447.75 777.25,-447.75 771.25,-441.75 771.25,-435.75 771.25,-435.75 771.25,-384.75 771.25,-384.75 771.25,-378.75 777.25,-372.75 783.25,-372.75"/>
<text xml:space="preserve" text-anchor="middle" x="878.25" y="-430.45" font-family="Helvetica,sans-Serif" font-size="14.00">Deploying</text>
</g>
<g id="clust2" class="cluster">
<title>cluster_Nominal</title>
<path fill="#f8f9fa" stroke="#5f6368" d="M393.25,-136C393.25,-136 623.25,-136 623.25,-136 629.25,-136 635.25,-142 635.25,-148 635.25,-148 635.25,-288.75 635.25,-288.75 635.25,-294.75 629.25,-300.75 623.25,-300.75 623.25,-300.75 393.25,-300.75 393.25,-300.75 387.25,-300.75 381.25,-294.75 381.25,-288.75 381.25,-288.75 381.25,-148 381.25,-148 381.25,-142 387.25,-136 393.25,-136"/>
<text xml:space="preserve" text-anchor="middle" x="508.25" y="-283.45" font-family="Helvetica,sans-Serif" font-size="14.00">Nominal</text>
</g>
<!-- __init__ -->
<g id="node1" class="node">
<title>__init__</title>
<ellipse fill="#1a1a2e" stroke="black" cx="52.25" cy="-398.75" rx="9" ry="9"/>
</g>
<!-- Stowed -->
<g id="node2" class="node">
<title>Stowed</title>
<path fill="#e8f0fe" stroke="#4285f4" d="M67.25,-344.75C67.25,-344.75 37.25,-344.75 37.25,-344.75 31.25,-344.75 25.25,-338.75 25.25,-332.75 25.25,-332.75 25.25,-320.75 25.25,-320.75 25.25,-314.75 31.25,-308.75 37.25,-308.75 37.25,-308.75 67.25,-308.75 67.25,-308.75 73.25,-308.75 79.25,-314.75 79.25,-320.75 79.25,-320.75 79.25,-332.75 79.25,-332.75 79.25,-338.75 73.25,-344.75 67.25,-344.75"/>
<text xml:space="preserve" text-anchor="middle" x="52.25" y="-322.3" font-family="Helvetica,sans-Serif" font-size="11.00" fill="#1a1a2e">Stowed</text>
</g>
<!-- __init__&#45;&gt;Stowed -->
<g id="edge1" class="edge">
<title>__init__&#45;&gt;Stowed</title>
<path fill="none" stroke="#5f6368" d="M52.25,-389.45C52.25,-381.3 52.25,-368.4 52.25,-356.49"/>
<polygon fill="#5f6368" stroke="#5f6368" points="55.75,-356.65 52.25,-346.65 48.75,-356.65 55.75,-356.65"/>
</g>
<!-- __e0 -->
<g id="node11" class="node">
<title>__e0</title>
<text xml:space="preserve" text-anchor="start" x="8" y="-240.2" font-family="Helvetica,sans-Serif" font-weight="bold" font-size="9.00" fill="#1a1a2e">deploy</text>
<text xml:space="preserve" text-anchor="start" x="36.5" y="-240.2" font-family="Helvetica,sans-Serif" font-size="9.00" fill="#1a1a2e"> / releaseLatch</text>
</g>
<!-- Stowed&#45;&gt;__e0 -->
<g id="edge2" class="edge">
<title>Stowed&#45;&gt;__e0</title>
<path fill="none" stroke="#5f6368" d="M52.25,-308.39C52.25,-294.3 52.25,-274.58 52.25,-260.65"/>
</g>
<!-- Deploying.Extending -->
<g id="node3" class="node">
<title>Deploying.Extending</title>
<path fill="#e8f0fe" stroke="#4285f4" d="M929.25,-416.75C929.25,-416.75 889.25,-416.75 889.25,-416.75 883.25,-416.75 877.25,-410.75 877.25,-404.75 877.25,-404.75 877.25,-392.75 877.25,-392.75 877.25,-386.75 883.25,-380.75 889.25,-380.75 889.25,-380.75 929.25,-380.75 929.25,-380.75 935.25,-380.75 941.25,-386.75 941.25,-392.75 941.25,-392.75 941.25,-404.75 941.25,-404.75 941.25,-410.75 935.25,-416.75 929.25,-416.75"/>
<text xml:space="preserve" text-anchor="middle" x="909.25" y="-394.3" font-family="Helvetica,sans-Serif" font-size="11.00" fill="#1a1a2e">Extending</text>
</g>
<!-- __e1 -->
<g id="node13" class="node">
<title>__e1</title>
<text xml:space="preserve" text-anchor="start" x="882.25" y="-324.07" font-family="Helvetica,sans-Serif" font-weight="bold" font-size="9.00" fill="#1a1a2e">healthCheck</text>
</g>
<!-- Deploying.Extending&#45;&gt;__e1 -->
<g id="edge4" class="edge">
<title>Deploying.Extending&#45;&gt;__e1</title>
<path fill="none" stroke="#5f6368" d="M909.25,-380.45C909.25,-369.43 909.25,-355.25 909.25,-344.37"/>
</g>
<!-- Deploying.Check -->
<g id="node4" class="node">
<title>Deploying.Check</title>
<polygon fill="#fff8e1" stroke="#f9ab00" points="819.25,-416.75 779.49,-398.75 819.25,-380.75 859.01,-398.75 819.25,-416.75"/>
<text xml:space="preserve" text-anchor="middle" x="819.25" y="-394.3" font-family="Helvetica,sans-Serif" font-size="11.00" fill="#1a1a2e">Check</text>
</g>
<!-- __e2 -->
<g id="node14" class="node">
<title>__e2</title>
<text xml:space="preserve" text-anchor="start" x="615.88" y="-323.07" font-family="Helvetica,sans-Serif" font-size="9.00" fill="#1a1a2e">[ boomExtended ] / startComms</text>
</g>
<!-- Deploying.Check&#45;&gt;__e2 -->
<g id="edge6" class="edge">
<title>Deploying.Check&#45;&gt;__e2</title>
<path fill="none" stroke="#5f6368" d="M800.95,-388.6C778.71,-377.48 740.75,-358.5 713.13,-344.69"/>
</g>
<!-- __e3 -->
<g id="node16" class="node">
<title>__e3</title>
<text xml:space="preserve" text-anchor="start" x="776.25" y="-324.07" font-family="Helvetica,sans-Serif" font-weight="bold" font-size="9.00" fill="#1a1a2e">else</text>
<text xml:space="preserve" text-anchor="start" x="794.25" y="-324.07" font-family="Helvetica,sans-Serif" font-size="9.00" fill="#1a1a2e"> / retryDeploy</text>
</g>
<!-- Deploying.Check&#45;&gt;__e3 -->
<g id="edge8" class="edge">
<title>Deploying.Check&#45;&gt;__e3</title>
<path fill="none" stroke="#5f6368" d="M817.59,-381.16C816.49,-370.16 815.05,-355.78 813.95,-344.71"/>
</g>
<!-- Deploying.__init__ -->
<g id="node5" class="node">
<title>Deploying.__init__</title>
<ellipse fill="#1a1a2e" stroke="black" cx="968.25" cy="-398.75" rx="9" ry="9"/>
</g>
<!-- __e4 -->
<g id="node17" class="node">
<title>__e4</title>
<text xml:space="preserve" text-anchor="start" x="970.12" y="-323.07" font-family="Helvetica,sans-Serif" font-size="9.00" fill="#1a1a2e">/ extendBoom</text>
</g>
<!-- Deploying.__init__&#45;&gt;__e4 -->
<g id="edge10" class="edge">
<title>Deploying.__init__&#45;&gt;__e4</title>
<path fill="none" stroke="#5f6368" d="M971.58,-389.99C976.24,-379.1 984.86,-358.99 991.04,-344.58"/>
</g>
<!-- Nominal.Active -->
<g id="node6" class="node">
<title>Nominal.Active</title>
<path fill="#e8f0fe" stroke="#4285f4" d="M431.25,-180C431.25,-180 401.25,-180 401.25,-180 395.25,-180 389.25,-174 389.25,-168 389.25,-168 389.25,-156 389.25,-156 389.25,-150 395.25,-144 401.25,-144 401.25,-144 431.25,-144 431.25,-144 437.25,-144 443.25,-150 443.25,-156 443.25,-156 443.25,-168 443.25,-168 443.25,-174 437.25,-180 431.25,-180"/>
<text xml:space="preserve" text-anchor="middle" x="416.25" y="-157.55" font-family="Helvetica,sans-Serif" font-size="11.00" fill="#1a1a2e">Active</text>
</g>
<!-- __e6 -->
<g id="node19" class="node">
<title>__e6</title>
<text xml:space="preserve" text-anchor="start" x="444.25" y="-87.33" font-family="Helvetica,sans-Serif" font-weight="bold" font-size="9.00" fill="#1a1a2e">healthCheck</text>
</g>
<!-- Nominal.Active&#45;&gt;__e6 -->
<g id="edge14" class="edge">
<title>Nominal.Active&#45;&gt;__e6</title>
<path fill="none" stroke="#5f6368" d="M429.85,-143.7C438.5,-132.68 449.64,-118.5 458.19,-107.62"/>
</g>
<!-- __e7 -->
<g id="node20" class="node">
<title>__e7</title>
<text xml:space="preserve" text-anchor="start" x="332.25" y="-87.33" font-family="Helvetica,sans-Serif" font-weight="bold" font-size="9.00" fill="#1a1a2e">abort</text>
<text xml:space="preserve" text-anchor="start" x="354.75" y="-87.33" font-family="Helvetica,sans-Serif" font-size="9.00" fill="#1a1a2e"> / logAnomaly</text>
</g>
<!-- Nominal.Active&#45;&gt;__e7 -->
<g id="edge16" class="edge">
<title>Nominal.Active&#45;&gt;__e7</title>
<path fill="none" stroke="#5f6368" d="M405.13,-143.7C398.05,-132.68 388.93,-118.5 381.94,-107.62"/>
</g>
<!-- Nominal.Verify -->
<g id="node7" class="node">
<title>Nominal.Verify</title>
<polygon fill="#fff8e1" stroke="#f9ab00" points="462.25,-260.88 425.68,-242.88 462.25,-224.88 498.82,-242.88 462.25,-260.88"/>
<text xml:space="preserve" text-anchor="middle" x="462.25" y="-238.43" font-family="Helvetica,sans-Serif" font-size="11.00" fill="#1a1a2e">Verify</text>
</g>
<!-- __e8 -->
<g id="node21" class="node">
<title>__e8</title>
<text xml:space="preserve" text-anchor="start" x="130.62" y="-239.2" font-family="Helvetica,sans-Serif" font-size="9.00" fill="#1a1a2e">[ diagnosticPass ]</text>
</g>
<!-- Nominal.Verify&#45;&gt;__e8 -->
<g id="edge18" class="edge">
<title>Nominal.Verify&#45;&gt;__e8</title>
<path fill="none" stroke="#5f6368" d="M455.59,-258.01C447.18,-274.66 430.87,-299.74 407.25,-304.75 387.69,-308.9 246.81,-308.9 227.25,-304.75 203.79,-299.77 185.94,-277.11 175.78,-260.65"/>
</g>
<!-- __e9 -->
<g id="node22" class="node">
<title>__e9</title>
<text xml:space="preserve" text-anchor="start" x="651.5" y="-159.32" font-family="Helvetica,sans-Serif" font-weight="bold" font-size="9.00" fill="#1a1a2e">else</text>
<text xml:space="preserve" text-anchor="start" x="669.5" y="-159.32" font-family="Helvetica,sans-Serif" font-size="9.00" fill="#1a1a2e"> / logAnomaly</text>
</g>
<!-- Nominal.Verify&#45;&gt;__e9 -->
<g id="edge20" class="edge">
<title>Nominal.Verify&#45;&gt;__e9</title>
<path fill="none" stroke="#5f6368" d="M477.53,-232.03C486.26,-226.73 497.57,-220.39 508.25,-216 564.09,-193.03 581.59,-197.91 639.25,-180 640.71,-179.55 642.2,-179.08 643.69,-178.6"/>
</g>
<!-- Nominal.Degraded -->
<g id="node8" class="node">
<title>Nominal.Degraded</title>
<path fill="#e8f0fe" stroke="#4285f4" d="M615.38,-269.75C615.38,-269.75 529.12,-269.75 529.12,-269.75 523.12,-269.75 517.12,-263.75 517.12,-257.75 517.12,-257.75 517.12,-228 517.12,-228 517.12,-222 523.12,-216 529.12,-216 529.12,-216 615.38,-216 615.38,-216 621.38,-216 627.38,-222 627.38,-228 627.38,-228 627.38,-257.75 627.38,-257.75 627.38,-263.75 621.38,-269.75 615.38,-269.75"/>
<text xml:space="preserve" text-anchor="start" x="548.25" y="-251.3" font-family="Helvetica,sans-Serif" font-size="11.00" fill="#1a1a2e">Degraded</text>
<text xml:space="preserve" text-anchor="start" x="529.12" y="-226.2" font-family="Helvetica,sans-Serif" font-weight="bold" font-size="9.00" fill="#1a1a2e">entry</text>
<text xml:space="preserve" text-anchor="start" x="551.62" y="-226.2" font-family="Helvetica,sans-Serif" font-size="9.00" fill="#1a1a2e"> / runDiagnostic</text>
<polygon fill="#4285f4" stroke="#4285f4" points="525.12,-237.75 525.12,-237.75 619.38,-237.75 619.38,-237.75 525.12,-237.75"/>
</g>
<!-- __e10 -->
<g id="node23" class="node">
<title>__e10</title>
<text xml:space="preserve" text-anchor="start" x="235.5" y="-240.2" font-family="Helvetica,sans-Serif" font-weight="bold" font-size="9.00" fill="#1a1a2e">healthCheck</text>
<text xml:space="preserve" text-anchor="start" x="289.5" y="-240.2" font-family="Helvetica,sans-Serif" font-size="9.00" fill="#1a1a2e"> [ diagnosticPass ]</text>
</g>
<!-- Nominal.Degraded&#45;&gt;__e10 -->
<g id="edge22" class="edge">
<title>Nominal.Degraded&#45;&gt;__e10</title>
<path fill="none" stroke="#5f6368" d="M546.1,-269.99C535.07,-280.47 521.69,-292.01 508.25,-300.75 504.58,-303.14 503.53,-303.84 499.25,-304.75 474.69,-309.96 410.81,-309.96 386.25,-304.75 357.78,-298.71 331.51,-276.81 315.45,-260.77"/>
</g>
<!-- __e11 -->
<g id="node24" class="node">
<title>__e11</title>
<text xml:space="preserve" text-anchor="start" x="759.25" y="-159.32" font-family="Helvetica,sans-Serif" font-weight="bold" font-size="9.00" fill="#1a1a2e">abort</text>
<text xml:space="preserve" text-anchor="start" x="781.75" y="-159.32" font-family="Helvetica,sans-Serif" font-size="9.00" fill="#1a1a2e"> / logAnomaly</text>
</g>
<!-- Nominal.Degraded&#45;&gt;__e11 -->
<g id="edge24" class="edge">
<title>Nominal.Degraded&#45;&gt;__e11</title>
<path fill="none" stroke="#5f6368" d="M627.66,-219.2C630.56,-218.1 633.44,-217.03 636.25,-216 674.75,-201.94 719.01,-187.58 751.52,-177.36"/>
</g>
<!-- Nominal.__init__ -->
<g id="node9" class="node">
<title>Nominal.__init__</title>
<ellipse fill="#1a1a2e" stroke="black" cx="398.25" cy="-242.88" rx="9" ry="9"/>
</g>
<!-- Nominal.__init__&#45;&gt;Nominal.Active -->
<g id="edge26" class="edge">
<title>Nominal.__init__&#45;&gt;Nominal.Active</title>
<path fill="none" stroke="#5f6368" d="M400.11,-233.73C402.38,-223.76 406.36,-206.33 409.8,-191.27"/>
<polygon fill="#5f6368" stroke="#5f6368" points="413.13,-192.38 411.95,-181.85 406.31,-190.82 413.13,-192.38"/>
</g>
<!-- Safe -->
<g id="node10" class="node">
<title>Safe</title>
<path fill="#e8f0fe" stroke="#4285f4" d="M386.25,-36C386.25,-36 356.25,-36 356.25,-36 350.25,-36 344.25,-30 344.25,-24 344.25,-24 344.25,-12 344.25,-12 344.25,-6 350.25,0 356.25,0 356.25,0 386.25,0 386.25,0 392.25,0 398.25,-6 398.25,-12 398.25,-12 398.25,-24 398.25,-24 398.25,-30 392.25,-36 386.25,-36"/>
<text xml:space="preserve" text-anchor="middle" x="371.25" y="-13.55" font-family="Helvetica,sans-Serif" font-size="11.00" fill="#1a1a2e">Safe</text>
</g>
<!-- Deploying -->
<g id="node12" class="node">
<title>Deploying</title>
<ellipse fill="none" stroke="black" cx="104.25" cy="-162" rx="38.49" ry="18"/>
<text xml:space="preserve" text-anchor="middle" x="104.25" y="-157.55" font-family="Helvetica,sans-Serif" font-size="11.00">Deploying</text>
</g>
<!-- __e0&#45;&gt;Deploying -->
<g id="edge3" class="edge">
<title>__e0&#45;&gt;Deploying</title>
<path fill="none" stroke="#5f6368" d="M63.28,-225.15C70.17,-214.69 79.2,-201 87.02,-189.13"/>
<polygon fill="#5f6368" stroke="#5f6368" points="89.82,-191.24 92.4,-180.97 83.98,-187.39 89.82,-191.24"/>
</g>
<!-- __e5 -->
<g id="node18" class="node">
<title>__e5</title>
<text xml:space="preserve" text-anchor="start" x="168.25" y="-87.33" font-family="Helvetica,sans-Serif" font-weight="bold" font-size="9.00" fill="#1a1a2e">abort</text>
<text xml:space="preserve" text-anchor="start" x="190.75" y="-87.33" font-family="Helvetica,sans-Serif" font-size="9.00" fill="#1a1a2e"> / logAnomaly</text>
</g>
<!-- Deploying&#45;&gt;__e5 -->
<g id="edge12" class="edge">
<title>Deploying&#45;&gt;__e5</title>
<path fill="none" stroke="#5f6368" d="M125.09,-146.83C141.67,-135.57 164.91,-119.77 182.44,-107.86"/>
</g>
<!-- __e1&#45;&gt;Deploying.Check -->
<g id="edge5" class="edge">
<title>__e1&#45;&gt;Deploying.Check</title>
<path fill="none" stroke="#5f6368" d="M887.58,-344.61C873.89,-355.25 856.22,-369 842.27,-379.84"/>
<polygon fill="#5f6368" stroke="#5f6368" points="840.25,-376.98 834.51,-385.88 844.55,-382.51 840.25,-376.98"/>
</g>
<!-- Nominal -->
<g id="node15" class="node">
<title>Nominal</title>
<ellipse fill="none" stroke="black" cx="679.25" cy="-242.88" rx="33.52" ry="18"/>
<text xml:space="preserve" text-anchor="middle" x="679.25" y="-238.43" font-family="Helvetica,sans-Serif" font-size="11.00">Nominal</text>
</g>
<!-- __e2&#45;&gt;Nominal -->
<g id="edge7" class="edge">
<title>__e2&#45;&gt;Nominal</title>
<path fill="none" stroke="#5f6368" d="M679.25,-308.79C679.25,-298.32 679.25,-284.62 679.25,-272.51"/>
<polygon fill="#5f6368" stroke="#5f6368" points="682.75,-272.61 679.25,-262.61 675.75,-272.61 682.75,-272.61"/>
</g>
<!-- __e3&#45;&gt;Deploying.Extending -->
<g id="edge9" class="edge">
<title>__e3&#45;&gt;Deploying.Extending</title>
<path fill="none" stroke="#5f6368" d="M835.62,-344.61C847.71,-353.34 862.69,-364.15 875.97,-373.73"/>
<polygon fill="#5f6368" stroke="#5f6368" points="873.89,-376.55 884.05,-379.56 877.98,-370.87 873.89,-376.55"/>
</g>
<!-- __e4&#45;&gt;Deploying.Extending -->
<g id="edge11" class="edge">
<title>__e4&#45;&gt;Deploying.Extending</title>
<path fill="none" stroke="#5f6368" d="M976.81,-344.61C965.82,-353.26 952.24,-363.94 940.14,-373.45"/>
<polygon fill="#5f6368" stroke="#5f6368" points="938.14,-370.58 932.44,-379.51 942.46,-376.08 938.14,-370.58"/>
</g>
<!-- __e5&#45;&gt;Safe -->
<g id="edge13" class="edge">
<title>__e5&#45;&gt;Safe</title>
<path fill="none" stroke="#5f6368" d="M246.95,-72.05C273.24,-60.83 307.53,-46.2 333.43,-35.14"/>
<polygon fill="#5f6368" stroke="#5f6368" points="334.75,-38.38 342.58,-31.24 332.01,-31.94 334.75,-38.38"/>
</g>
<!-- __e6&#45;&gt;Nominal.Verify -->
<g id="edge15" class="edge">
<title>__e6&#45;&gt;Nominal.Verify</title>
<path fill="none" stroke="#5f6368" d="M470.25,-107.72C468.73,-133.26 465.8,-182.3 463.94,-213.48"/>
<polygon fill="#5f6368" stroke="#5f6368" points="460.46,-213.16 463.36,-223.35 467.44,-213.58 460.46,-213.16"/>
</g>
<!-- __e7&#45;&gt;Safe -->
<g id="edge17" class="edge">
<title>__e7&#45;&gt;Safe</title>
<path fill="none" stroke="#5f6368" d="M371.25,-72.05C371.25,-64.68 371.25,-55.84 371.25,-47.51"/>
<polygon fill="#5f6368" stroke="#5f6368" points="374.75,-47.79 371.25,-37.79 367.75,-47.79 374.75,-47.79"/>
</g>
<!-- __e8&#45;&gt;Nominal.Active -->
<g id="edge19" class="edge">
<title>__e8&#45;&gt;Nominal.Active</title>
<path fill="none" stroke="#5f6368" d="M197.7,-224.97C204.38,-221.74 211.46,-218.57 218.25,-216 272.17,-195.6 337.14,-179.8 377.58,-170.94"/>
<polygon fill="#5f6368" stroke="#5f6368" points="378.29,-174.37 387.33,-168.84 376.81,-167.52 378.29,-174.37"/>
</g>
<!-- __e9&#45;&gt;Nominal.Degraded -->
<g id="edge21" class="edge">
<title>__e9&#45;&gt;Nominal.Degraded</title>
<path fill="none" stroke="#5f6368" d="M663.27,-179.98C650.74,-188.5 635.13,-199.12 620.39,-209.14"/>
<polygon fill="#5f6368" stroke="#5f6368" points="618.43,-206.24 612.13,-214.76 622.37,-212.03 618.43,-206.24"/>
</g>
<!-- __e10&#45;&gt;Nominal.Active -->
<g id="edge23" class="edge">
<title>__e10&#45;&gt;Nominal.Active</title>
<path fill="none" stroke="#5f6368" d="M324.35,-224.95C340.86,-213.83 362.7,-199.1 380.94,-186.8"/>
<polygon fill="#5f6368" stroke="#5f6368" points="382.79,-189.78 389.13,-181.28 378.88,-183.97 382.79,-189.78"/>
</g>
<!-- __e11&#45;&gt;Safe -->
<g id="edge25" class="edge">
<title>__e11&#45;&gt;Safe</title>
<path fill="none" stroke="#5f6368" d="M762.05,-144.12C755.52,-141.28 748.72,-138.46 742.25,-136 622.87,-90.7 477.47,-48.5 409.59,-29.52"/>
<polygon fill="#5f6368" stroke="#5f6368" points="410.64,-26.18 400.07,-26.87 408.77,-32.93 410.64,-26.18"/>
</g>
</g>
</svg>
