<?xml version="1.0" encoding="UTF-8" standalone="no"?>
<!DOCTYPE svg PUBLIC "-//W3C//DTD SVG 1.1//EN"
 "http://www.w3.org/Graphics/SVG/1.1/DTD/svg11.dtd">
<!-- Generated by graphviz version 14.1.2 (20260124.0452)
 -->
<!-- Title: DeploySequence Pages: 1 -->
<svg width="611pt" height="473pt"
 viewBox="0.00 0.00 611.00 473.00" xmlns="http://www.w3.org/2000/svg" xmlns:xlink="http://www.w3.org/1999/xlink">
<g id="graph0" class="graph" transform="scale(1 1) rotate(0) translate(28.8 443.8)">
<title>DeploySequence</title>
<polygon fill="white" stroke="none" points="-28.8,28.8 -28.8,-443.8 582.29,-443.8 582.29,28.8 -28.8,28.8"/>
<g id="clust1" class="cluster">
<title>cluster_Deploying</title>
<path fill="#f8f9fa" stroke="#5f6368" d="M396.49,-176.75C396.49,-176.75 533.49,-176.75 533.49,-176.75 539.49,-176.75 545.49,-182.75 545.49,-188.75 545.49,-188.75 545.49,-395 545.49,-395 545.49,-401 539.49,-407 533.49,-407 533.49,-407 396.49,-407 396.49,-407 390.49,-407 384.49,-401 384.49,-395 384.49,-395 384.49,-188.75 384.49,-188.75 384.49,-182.75 390.49,-176.75 396.49,-176.75"/>
<text xml:space="preserve" text-anchor="middle" x="464.99" y="-389.7" font-family="Helvetica,sans-Serif" font-size="14.00">Deploying</text>
</g>
<g id="clust2" class="cluster">
<title>cluster_Nominal</title>
<path fill="#f8f9fa" stroke="#5f6368" d="M106.49,-83.5C106.49,-83.5 329.49,-83.5 329.49,-83.5 335.49,-83.5 341.49,-89.5 341.49,-95.5 341.49,-95.5 341.49,-395 341.49,-395 341.49,-401 335.49,-407 329.49,-407 329.49,-407 106.49,-407 106.49,-407 100.49,-407 94.49,-401 94.49,-395 94.49,-395 94.49,-95.5 94.49,-95.5 94.49,-89.5 100.49,-83.5 106.49,-83.5"/>
<text xml:space="preserve" text-anchor="middle" x="217.99" y="-389.7" font-family="Helvetica,sans-Serif" font-size="14.00">Nominal</text>
</g>
<!-- __init__ -->
<g id="node1" class="node">
<title>__init__</title>
<ellipse fill="#1a1a2e" stroke="black" cx="28.49" cy="-294.25" rx="9" ry="9"/>
</g>
<!-- Stowed -->
<g id="node2" class="node">
<title>Stowed</title>
<path fill="#e8f0fe" stroke="#4285f4" d="M43.49,-220.75C43.49,-220.75 13.49,-220.75 13.49,-220.75 7.49,-220.75 1.49,-214.75 1.49,-208.75 1.49,-208.75 1.49,-196.75 1.49,-196.75 1.49,-190.75 7.49,-184.75 13.49,-184.75 13.49,-184.75 43.49,-184.75 43.49,-184.75 49.49,-184.75 55.49,-190.75 55.49,-196.75 55.49,-196.75 55.49,-208.75 55.49,-208.75 55.49,-214.75 49.49,-220.75 43.49,-220.75"/>
<text xml:space="preserve" text-anchor="middle" x="28.49" y="-198.3" font-family="Helvetica,sans-Serif" font-size="11.00">Stowed</text>
</g>
<!-- __init__&#45;&gt;Stowed -->
<g id="edge1" class="edge">
<title>__init__&#45;&gt;Stowed</title>
<path fill="none" stroke="#5f6368" d="M28.49,-284.99C28.49,-273.13 28.49,-250.7 28.49,-232.41"/>
<polygon fill="#5f6368" stroke="#5f6368" points="31.99,-232.65 28.49,-222.65 24.99,-232.65 31.99,-232.65"/>
</g>
<!-- Deploying -->
<g id="node11" class="node">
<title>Deploying</title>
<ellipse fill="none" stroke="black" cx="38.49" cy="-110.38" rx="38.49" ry="18"/>
<text xml:space="preserve" text-anchor="middle" x="38.49" y="-105.92" font-family="Helvetica,sans-Serif" font-size="11.00">Deploying</text>
</g>
<!-- Stowed&#45;&gt;Deploying -->
<g id="edge2" class="edge">
<title>Stowed&#45;&gt;Deploying</title>
<path fill="none" stroke="#5f6368" d="M29.47,-184.53C30.17,-173.79 31.26,-159.69 32.74,-147.25 33.03,-144.76 33.38,-142.17 33.74,-139.58"/>
<polygon fill="#5f6368" stroke="#5f6368" points="37.16,-140.4 35.22,-129.98 30.24,-139.34 37.16,-140.4"/>
<text xml:space="preserve" text-anchor="middle" x="61.61" y="-158.2" font-family="Helvetica,sans-Serif" font-size="9.00">deploy</text>
<text xml:space="preserve" text-anchor="middle" x="61.61" y="-148.45" font-family="Helvetica,sans-Serif" font-size="9.00">/ releaseLatch</text>
</g>
<!-- Deploying.Extending -->
<g id="node3" class="node">
<title>Deploying.Extending</title>
<path fill="#e8f0fe" stroke="#4285f4" d="M472.49,-312.25C472.49,-312.25 432.49,-312.25 432.49,-312.25 426.49,-312.25 420.49,-306.25 420.49,-300.25 420.49,-300.25 420.49,-288.25 420.49,-288.25 420.49,-282.25 426.49,-276.25 432.49,-276.25 432.49,-276.25 472.49,-276.25 472.49,-276.25 478.49,-276.25 484.49,-282.25 484.49,-288.25 484.49,-288.25 484.49,-300.25 484.49,-300.25 484.49,-306.25 478.49,-312.25 472.49,-312.25"/>
<text xml:space="preserve" text-anchor="middle" x="452.49" y="-289.8" font-family="Helvetica,sans-Serif" font-size="11.00">Extending</text>
</g>
<!-- Deploying.Check -->
<g id="node4" class="node">
<title>Deploying.Check</title>
<polygon fill="#fff8e1" stroke="#f9ab00" points="461.49,-220.75 421.73,-202.75 461.49,-184.75 501.24,-202.75 461.49,-220.75"/>
<text xml:space="preserve" text-anchor="middle" x="461.49" y="-198.3" font-family="Helvetica,sans-Serif" font-size="11.00">Check</text>
</g>
<!-- Deploying.Extending&#45;&gt;Deploying.Check -->
<g id="edge3" class="edge">
<title>Deploying.Extending&#45;&gt;Deploying.Check</title>
<path fill="none" stroke="#5f6368" d="M425.6,-275.98C420,-270.99 414.85,-265.03 411.74,-258.25 408.12,-250.37 407.74,-246.44 411.74,-238.75 416.2,-230.15 423.85,-223.23 431.83,-217.87"/>
<polygon fill="#5f6368" stroke="#5f6368" points="433.42,-221 440.23,-212.89 429.85,-214.98 433.42,-221"/>
<text xml:space="preserve" text-anchor="middle" x="437.61" y="-244.82" font-family="Helvetica,sans-Serif" font-size="9.00">healthCheck</text>
</g>
<!-- Deploying.Check&#45;&gt;Deploying.Extending -->
<g id="edge5" class="edge">
<title>Deploying.Check&#45;&gt;Deploying.Extending</title>
<path fill="none" stroke="#5f6368" d="M463.68,-220.06C464.75,-230.94 465.44,-245.52 463.49,-258.25 463.15,-260.47 462.69,-262.74 462.16,-265.01"/>
<polygon fill="#5f6368" stroke="#5f6368" points="458.8,-264.02 459.45,-274.59 465.54,-265.92 458.8,-264.02"/>
<text xml:space="preserve" text-anchor="middle" x="490.6" y="-249.7" font-family="Helvetica,sans-Serif" font-size="9.00">else</text>
<text xml:space="preserve" text-anchor="middle" x="490.6" y="-239.95" font-family="Helvetica,sans-Serif" font-size="9.00">/ retryDeploy</text>
</g>
<!-- Nominal -->
<g id="node12" class="node">
<title>Nominal</title>
<ellipse fill="none" stroke="black" cx="461.49" cy="-110.38" rx="33.52" ry="18"/>
<text xml:space="preserve" text-anchor="middle" x="461.49" y="-105.92" font-family="Helvetica,sans-Serif" font-size="11.00">Nominal</text>
</g>
<!-- Deploying.Check&#45;&gt;Nominal -->
<g id="edge4" class="edge">
<title>Deploying.Check&#45;&gt;Nominal</title>
<path fill="none" stroke="#5f6368" d="M461.49,-184.32C461.49,-171.82 461.49,-154.69 461.49,-140.17"/>
<polygon fill="#5f6368" stroke="#5f6368" points="464.99,-140.26 461.49,-130.26 457.99,-140.26 464.99,-140.26"/>
<text xml:space="preserve" text-anchor="middle" x="494.86" y="-158.2" font-family="Helvetica,sans-Serif" font-size="9.00">[boomExtended]</text>
<text xml:space="preserve" text-anchor="middle" x="494.86" y="-148.45" font-family="Helvetica,sans-Serif" font-size="9.00">/ startComms</text>
</g>
<!-- Deploying.__init__ -->
<g id="node5" class="node">
<title>Deploying.__init__</title>
<ellipse fill="#1a1a2e" stroke="black" cx="452.49" cy="-367" rx="9" ry="9"/>
</g>
<!-- Deploying.__init__&#45;&gt;Deploying.Extending -->
<g id="edge6" class="edge">
<title>Deploying.__init__&#45;&gt;Deploying.Extending</title>
<path fill="none" stroke="#5f6368" d="M452.49,-357.61C452.49,-349.23 452.49,-335.88 452.49,-323.68"/>
<polygon fill="#5f6368" stroke="#5f6368" points="455.99,-324.05 452.49,-314.05 448.99,-324.05 455.99,-324.05"/>
<text xml:space="preserve" text-anchor="middle" x="480.61" y="-331.45" font-family="Helvetica,sans-Serif" font-size="9.00">/ extendBoom</text>
</g>
<!-- Nominal.Active -->
<g id="node6" class="node">
<title>Nominal.Active</title>
<path fill="#e8f0fe" stroke="#4285f4" d="M246.49,-312.25C246.49,-312.25 216.49,-312.25 216.49,-312.25 210.49,-312.25 204.49,-306.25 204.49,-300.25 204.49,-300.25 204.49,-288.25 204.49,-288.25 204.49,-282.25 210.49,-276.25 216.49,-276.25 216.49,-276.25 246.49,-276.25 246.49,-276.25 252.49,-276.25 258.49,-282.25 258.49,-288.25 258.49,-288.25 258.49,-300.25 258.49,-300.25 258.49,-306.25 252.49,-312.25 246.49,-312.25"/>
<text xml:space="preserve" text-anchor="middle" x="231.49" y="-289.8" font-family="Helvetica,sans-Serif" font-size="11.00">Active</text>
</g>
<!-- Nominal.Verify -->
<g id="node7" class="node">
<title>Nominal.Verify</title>
<polygon fill="#fff8e1" stroke="#f9ab00" points="139.49,-220.75 102.92,-202.75 139.49,-184.75 176.05,-202.75 139.49,-220.75"/>
<text xml:space="preserve" text-anchor="middle" x="139.49" y="-198.3" font-family="Helvetica,sans-Serif" font-size="11.00">Verify</text>
</g>
<!-- Nominal.Active&#45;&gt;Nominal.Verify -->
<g id="edge8" class="edge">
<title>Nominal.Active&#45;&gt;Nominal.Verify</title>
<path fill="none" stroke="#5f6368" d="M204.24,-293.04C178.29,-291.21 140.5,-283.92 121.74,-258.25 114.78,-248.73 118.07,-236.34 123.6,-225.79"/>
<polygon fill="#5f6368" stroke="#5f6368" points="126.56,-227.66 128.8,-217.3 120.59,-224 126.56,-227.66"/>
<text xml:space="preserve" text-anchor="middle" x="147.61" y="-244.82" font-family="Helvetica,sans-Serif" font-size="9.00">healthCheck</text>
</g>
<!-- Safe -->
<g id="node10" class="node">
<title>Safe</title>
<path fill="#e8f0fe" stroke="#4285f4" d="M200.49,-36C200.49,-36 170.49,-36 170.49,-36 164.49,-36 158.49,-30 158.49,-24 158.49,-24 158.49,-12 158.49,-12 158.49,-6 164.49,0 170.49,0 170.49,0 200.49,0 200.49,0 206.49,0 212.49,-6 212.49,-12 212.49,-12 212.49,-24 212.49,-24 212.49,-30 206.49,-36 200.49,-36"/>
<text xml:space="preserve" text-anchor="middle" x="185.49" y="-13.55" font-family="Helvetica,sans-Serif" font-size="11.00">Safe</text>
</g>
<!-- Nominal.Active&#45;&gt;Safe -->
<g id="edge9" class="edge">
<title>Nominal.Active&#45;&gt;Safe</title>
<path fill="none" stroke="#5f6368" d="M258.86,-284.9C286.82,-274.74 328.72,-254.61 347.49,-220.75 356.97,-203.65 354.26,-195.09 347.49,-176.75 322.61,-109.4 297.07,-100.63 242.49,-54 236.29,-48.71 229.22,-43.69 222.21,-39.2"/>
<polygon fill="#5f6368" stroke="#5f6368" points="224.42,-36.45 214.06,-34.2 220.75,-42.41 224.42,-36.45"/>
<text xml:space="preserve" text-anchor="middle" x="370.08" y="-158.2" font-family="Helvetica,sans-Serif" font-size="9.00">abort</text>
<text xml:space="preserve" text-anchor="middle" x="370.08" y="-148.45" font-family="Helvetica,sans-Serif" font-size="9.00">/ logAnomaly</text>
</g>
<!-- Nominal.Verify&#45;&gt;Nominal.Active -->
<g id="edge10" class="edge">
<title>Nominal.Verify&#45;&gt;Nominal.Active</title>
<path fill="none" stroke="#5f6368" d="M151.32,-215.27C165.06,-228.63 188.09,-251.04 205.96,-268.41"/>
<polygon fill="#5f6368" stroke="#5f6368" points="203.05,-270.47 212.66,-274.94 207.93,-265.46 203.05,-270.47"/>
<text xml:space="preserve" text-anchor="middle" x="227.1" y="-244.82" font-family="Helvetica,sans-Serif" font-size="9.00">[diagnosticPass]</text>
</g>
<!-- Nominal.Degraded -->
<g id="node8" class="node">
<title>Nominal.Degraded</title>
<path fill="#e8f0fe" stroke="#4285f4" d="M225.49,-129.25C225.49,-129.25 145.49,-129.25 145.49,-129.25 139.49,-129.25 133.49,-123.25 133.49,-117.25 133.49,-117.25 133.49,-103.5 133.49,-103.5 133.49,-97.5 139.49,-91.5 145.49,-91.5 145.49,-91.5 225.49,-91.5 225.49,-91.5 231.49,-91.5 237.49,-97.5 237.49,-103.5 237.49,-103.5 237.49,-117.25 237.49,-117.25 237.49,-123.25 231.49,-129.25 225.49,-129.25"/>
<text xml:space="preserve" text-anchor="start" x="159.99" y="-113.8" font-family="Helvetica,sans-Serif" font-weight="bold" font-size="11.00">Degraded</text>
<text xml:space="preserve" text-anchor="start" x="143.49" y="-98.7" font-family="Helvetica,sans-Serif" font-size="9.00">entry / runDiagnostic</text>
<polygon fill="#4285f4" stroke="#4285f4" points="141.49,-109.25 141.49,-109.25 229.49,-109.25 229.49,-109.25 141.49,-109.25"/>
</g>
<!-- Nominal.Verify&#45;&gt;Nominal.Degraded -->
<g id="edge11" class="edge">
<title>Nominal.Verify&#45;&gt;Nominal.Degraded</title>
<path fill="none" stroke="#5f6368" d="M141.84,-185.78C143.97,-174.52 147.77,-159.36 154.24,-147.25 155.86,-144.21 157.78,-141.22 159.86,-138.33"/>
<polygon fill="#5f6368" stroke="#5f6368" points="162.43,-140.72 165.93,-130.72 156.96,-136.35 162.43,-140.72"/>
<text xml:space="preserve" text-anchor="middle" x="180.86" y="-158.2" font-family="Helvetica,sans-Serif" font-size="9.00">else</text>
<text xml:space="preserve" text-anchor="middle" x="180.86" y="-148.45" font-family="Helvetica,sans-Serif" font-size="9.00">/ logAnomaly</text>
</g>
<!-- Nominal.Degraded&#45;&gt;Nominal.Active -->
<g id="edge12" class="edge">
<title>Nominal.Degraded&#45;&gt;Nominal.Active</title>
<path fill="none" stroke="#5f6368" d="M197.99,-129.44C201.42,-134.97 204.91,-141.2 207.49,-147.25 220.73,-178.31 205.35,-194.62 226.74,-220.75 238.25,-234.83 253.86,-223.32 263.49,-238.75 269.23,-247.97 265.75,-258.21 259.32,-267.3"/>
<polygon fill="#5f6368" stroke="#5f6368" points="256.81,-264.84 253.1,-274.76 262.19,-269.32 256.81,-264.84"/>
<text xml:space="preserve" text-anchor="middle" x="287.11" y="-199.07" font-family="Helvetica,sans-Serif" font-size="9.00">healthCheck [diagnosticPass]</text>
</g>
<!-- Nominal.Degraded&#45;&gt;Safe -->
<g id="edge13" class="edge">
<title>Nominal.Degraded&#45;&gt;Safe</title>
<path fill="none" stroke="#5f6368" d="M185.49,-91.09C185.49,-78.59 185.49,-61.79 185.49,-47.55"/>
<polygon fill="#5f6368" stroke="#5f6368" points="188.99,-47.86 185.49,-37.86 181.99,-47.86 188.99,-47.86"/>
<text xml:space="preserve" text-anchor="middle" x="212.11" y="-64.95" font-family="Helvetica,sans-Serif" font-size="9.00">abort</text>
<text xml:space="preserve" text-anchor="middle" x="212.11" y="-55.2" font-family="Helvetica,sans-Serif" font-size="9.00">/ logAnomaly</text>
</g>
<!-- Nominal.__init__ -->
<g id="node9" class="node">
<title>Nominal.__init__</title>
<ellipse fill="#1a1a2e" stroke="black" cx="231.49" cy="-367" rx="9" ry="9"/>
</g>
<!-- Nominal.__init__&#45;&gt;Nominal.Active -->
<g id="edge14" class="edge">
<title>Nominal.__init__&#45;&gt;Nominal.Active</title>
<path fill="none" stroke="#5f6368" d="M231.49,-357.61C231.49,-349.23 231.49,-335.88 231.49,-323.68"/>
<polygon fill="#5f6368" stroke="#5f6368" points="234.99,-324.05 231.49,-314.05 227.99,-324.05 234.99,-324.05"/>
</g>
<!-- Deploying&#45;&gt;Safe -->
<g id="edge7" class="edge">
<title>Deploying&#45;&gt;Safe</title>
<path fill="none" stroke="#5f6368" d="M60.97,-95.47C79.11,-84.25 105.3,-68.09 128.24,-54 134.77,-49.99 141.73,-45.72 148.47,-41.6"/>
<polygon fill="#5f6368" stroke="#5f6368" points="150.1,-44.7 156.81,-36.5 146.45,-38.73 150.1,-44.7"/>
<text xml:space="preserve" text-anchor="middle" x="154.86" y="-64.95" font-family="Helvetica,sans-Serif" font-size="9.00">abort</text>
<text xml:space="preserve" text-anchor="middle" x="154.86" y="-55.2" font-family="Helvetica,sans-Serif" font-size="9.00">/ logAnomaly</text>
</g>
</g>
</svg>
