<?xml version="1.0" encoding="UTF-8" standalone="no"?>
<!DOCTYPE svg PUBLIC "-//W3C//DTD SVG 1.1//EN"
 "http://www.w3.org/Graphics/SVG/1.1/DTD/svg11.dtd">
<!-- Generated by graphviz version 14.1.2 (20260124.0452)
 -->
<!-- Title: EntryExit Pages: 1 -->
<svg width="155pt" height="399pt"
 viewBox="0.00 0.00 155.00 399.00" xmlns="http://www.w3.org/2000/svg" xmlns:xlink="http://www.w3.org/1999/xlink">
<g id="graph0" class="graph" transform="scale(1 1) rotate(0) translate(28.8 370.3)">
<title>EntryExit</title>
<polygon fill="white" stroke="none" points="-28.8,28.8 -28.8,-370.3 125.92,-370.3 125.92,28.8 -28.8,28.8"/>
<!-- __init__ -->
<g id="node1" class="node">
<title>__init__</title>
<ellipse fill="#1a1a2e" stroke="black" cx="70.12" cy="-332.5" rx="9" ry="9"/>
</g>
<!-- Idle -->
<g id="node2" class="node">
<title>Idle</title>
<path fill="#e8f0fe" stroke="#4285f4" d="M85.12,-287.5C85.12,-287.5 55.12,-287.5 55.12,-287.5 49.12,-287.5 43.12,-281.5 43.12,-275.5 43.12,-275.5 43.12,-263.5 43.12,-263.5 43.12,-257.5 49.12,-251.5 55.12,-251.5 55.12,-251.5 85.12,-251.5 85.12,-251.5 91.12,-251.5 97.12,-257.5 97.12,-263.5 97.12,-263.5 97.12,-275.5 97.12,-275.5 97.12,-281.5 91.12,-287.5 85.12,-287.5"/>
<text xml:space="preserve" text-anchor="middle" x="70.12" y="-265.05" font-family="Helvetica,sans-Serif" font-size="11.00" fill="#1a1a2e">Idle</text>
</g>
<!-- __init__&#45;&gt;Idle -->
<g id="edge1" class="edge">
<title>__init__&#45;&gt;Idle</title>
<path fill="none" stroke="#5f6368" d="M70.12,-323.02C70.12,-316.81 70.12,-307.99 70.12,-299.34"/>
<polygon fill="#5f6368" stroke="#5f6368" points="73.63,-299.44 70.13,-289.44 66.63,-299.44 73.63,-299.44"/>
</g>
<!-- __e0 -->
<g id="node4" class="node">
<title>__e0</title>
<text xml:space="preserve" text-anchor="start" x="22.25" y="-194.82" font-family="Helvetica,sans-Serif" font-weight="bold" font-size="9.00" fill="#1a1a2e">start</text>
<text xml:space="preserve" text-anchor="start" x="42.5" y="-194.82" font-family="Helvetica,sans-Serif" font-size="9.00" fill="#1a1a2e"> / log</text>
</g>
<!-- Idle&#45;&gt;__e0 -->
<g id="edge2" class="edge">
<title>Idle&#45;&gt;__e0</title>
<path fill="none" stroke="#5f6368" d="M63.2,-251.2C58.8,-240.18 53.13,-226 48.77,-215.12"/>
</g>
<!-- Running -->
<g id="node3" class="node">
<title>Running</title>
<path fill="#e8f0fe" stroke="#4285f4" d="M62.25,-143.5C62.25,-143.5 12,-143.5 12,-143.5 6,-143.5 0,-137.5 0,-131.5 0,-131.5 0,-84 0,-84 0,-78 6,-72 12,-72 12,-72 62.25,-72 62.25,-72 68.25,-72 74.25,-78 74.25,-84 74.25,-84 74.25,-131.5 74.25,-131.5 74.25,-137.5 68.25,-143.5 62.25,-143.5"/>
<text xml:space="preserve" text-anchor="start" x="16.88" y="-125.05" font-family="Helvetica,sans-Serif" font-size="11.00" fill="#1a1a2e">Running</text>
<text xml:space="preserve" text-anchor="start" x="12" y="-99.95" font-family="Helvetica,sans-Serif" font-weight="bold" font-size="9.00" fill="#1a1a2e">entry</text>
<text xml:space="preserve" text-anchor="start" x="34.5" y="-99.95" font-family="Helvetica,sans-Serif" font-size="9.00" fill="#1a1a2e"> / open</text>
<text xml:space="preserve" text-anchor="start" x="12" y="-82.2" font-family="Helvetica,sans-Serif" font-weight="bold" font-size="9.00" fill="#1a1a2e">exit</text>
<text xml:space="preserve" text-anchor="start" x="27.75" y="-82.2" font-family="Helvetica,sans-Serif" font-size="9.00" fill="#1a1a2e"> / close</text>
<polygon fill="#4285f4" stroke="#4285f4" points="8,-111.5 8,-111.5 66.25,-111.5 66.25,-111.5 8,-111.5"/>
</g>
<!-- __e1 -->
<g id="node5" class="node">
<title>__e1</title>
<text xml:space="preserve" text-anchor="start" x="50" y="-15.32" font-family="Helvetica,sans-Serif" font-weight="bold" font-size="9.00" fill="#1a1a2e">stop</text>
<text xml:space="preserve" text-anchor="start" x="68.75" y="-15.32" font-family="Helvetica,sans-Serif" font-size="9.00" fill="#1a1a2e"> / log</text>
</g>
<!-- Running&#45;&gt;__e1 -->
<g id="edge4" class="edge">
<title>Running&#45;&gt;__e1</title>
<path fill="none" stroke="#5f6368" d="M49.96,-71.56C54.48,-59.17 59.35,-45.81 63.05,-35.66"/>
</g>
<!-- __e0&#45;&gt;Running -->
<g id="edge3" class="edge">
<title>__e0&#45;&gt;Running</title>
<path fill="none" stroke="#5f6368" d="M41.16,-179.58C40.76,-172.52 40.27,-163.93 39.77,-155.21"/>
<polygon fill="#5f6368" stroke="#5f6368" points="43.27,-155.07 39.21,-145.29 36.28,-155.47 43.27,-155.07"/>
</g>
<!-- __e1&#45;&gt;Idle -->
<g id="edge5" class="edge">
<title>__e1&#45;&gt;Idle</title>
<path fill="none" stroke="#5f6368" d="M74.8,-35.96C77.95,-46.26 81.53,-59.73 83.12,-72 90.83,-131.35 81.92,-201.41 75.51,-239.79"/>
<polygon fill="#5f6368" stroke="#5f6368" points="72.07,-239.14 73.81,-249.59 78.97,-240.34 72.07,-239.14"/>
</g>
</g>
</svg>
