<?xml version="1.0" encoding="UTF-8" standalone="no"?>
<!DOCTYPE svg PUBLIC "-//W3C//DTD SVG 1.1//EN"
 "http://www.w3.org/Graphics/SVG/1.1/DTD/svg11.dtd">
<!-- Generated by graphviz version 14.1.2 (20260124.0452)
 -->
<!-- Title: FanOut Pages: 1 -->
<svg width="638pt" height="364pt"
 viewBox="0.00 0.00 638.00 364.00" xmlns="http://www.w3.org/2000/svg" xmlns:xlink="http://www.w3.org/1999/xlink">
<g id="graph0" class="graph" transform="scale(1 1) rotate(0) translate(28.8 334.8)">
<title>FanOut</title>
<polygon fill="white" stroke="none" points="-28.8,28.8 -28.8,-334.8 609.5,-334.8 609.5,28.8 -28.8,28.8"/>
<!-- __init__ -->
<g id="node1" class="node">
<title>__init__</title>
<ellipse fill="#1a1a2e" stroke="black" cx="282.5" cy="-297" rx="9" ry="9"/>
</g>
<!-- Center -->
<g id="node2" class="node">
<title>Center</title>
<path fill="#e8f0fe" stroke="#4285f4" d="M297.5,-252C297.5,-252 267.5,-252 267.5,-252 261.5,-252 255.5,-246 255.5,-240 255.5,-240 255.5,-228 255.5,-228 255.5,-222 261.5,-216 267.5,-216 267.5,-216 297.5,-216 297.5,-216 303.5,-216 309.5,-222 309.5,-228 309.5,-228 309.5,-240 309.5,-240 309.5,-246 303.5,-252 297.5,-252"/>
<text xml:space="preserve" text-anchor="middle" x="282.5" y="-229.55" font-family="Helvetica,sans-Serif" font-size="11.00" fill="#1a1a2e">Center</text>
</g>
<!-- __init__&#45;&gt;Center -->
<g id="edge1" class="edge">
<title>__init__&#45;&gt;Center</title>
<path fill="none" stroke="#5f6368" d="M282.5,-287.52C282.5,-281.31 282.5,-272.49 282.5,-263.84"/>
<polygon fill="#5f6368" stroke="#5f6368" points="286,-263.94 282.5,-253.94 279,-263.94 286,-263.94"/>
</g>
<!-- __e0 -->
<g id="node7" class="node">
<title>__e0</title>
<text xml:space="preserve" text-anchor="start" x="33.5" y="-159.32" font-family="Helvetica,sans-Serif" font-weight="bold" font-size="9.00" fill="#1a1a2e">weather</text>
<text xml:space="preserve" text-anchor="start" x="68" y="-159.32" font-family="Helvetica,sans-Serif" font-size="9.00" fill="#1a1a2e"> [ hot ] / log</text>
</g>
<!-- Center&#45;&gt;__e0 -->
<g id="edge2" class="edge">
<title>Center&#45;&gt;__e0</title>
<path fill="none" stroke="#5f6368" d="M255.05,-223.85C220.58,-212.36 160.93,-192.48 119.23,-178.58"/>
</g>
<!-- __e1 -->
<g id="node8" class="node">
<title>__e1</title>
<text xml:space="preserve" text-anchor="start" x="145.25" y="-159.32" font-family="Helvetica,sans-Serif" font-weight="bold" font-size="9.00" fill="#1a1a2e">weather</text>
<text xml:space="preserve" text-anchor="start" x="179.75" y="-159.32" font-family="Helvetica,sans-Serif" font-size="9.00" fill="#1a1a2e"> [ cold ] / log</text>
</g>
<!-- Center&#45;&gt;__e1 -->
<g id="edge4" class="edge">
<title>Center&#45;&gt;__e1</title>
<path fill="none" stroke="#5f6368" d="M258.77,-215.7C243.78,-204.77 224.5,-190.71 209.63,-179.86"/>
</g>
<!-- __e2 -->
<g id="node9" class="node">
<title>__e2</title>
<text xml:space="preserve" text-anchor="start" x="337.88" y="-159.32" font-family="Helvetica,sans-Serif" font-weight="bold" font-size="9.00" fill="#1a1a2e">weather</text>
<text xml:space="preserve" text-anchor="start" x="372.38" y="-159.32" font-family="Helvetica,sans-Serif" font-size="9.00" fill="#1a1a2e"> [ windy ] / log</text>
</g>
<!-- Center&#45;&gt;__e2 -->
<g id="edge6" class="edge">
<title>Center&#45;&gt;__e2</title>
<path fill="none" stroke="#5f6368" d="M307.48,-215.52C323.1,-204.58 343.11,-190.58 358.53,-179.78"/>
</g>
<!-- __e3 -->
<g id="node10" class="node">
<title>__e3</title>
<text xml:space="preserve" text-anchor="start" x="460.75" y="-159.32" font-family="Helvetica,sans-Serif" font-weight="bold" font-size="9.00" fill="#1a1a2e">weather</text>
<text xml:space="preserve" text-anchor="start" x="495.25" y="-159.32" font-family="Helvetica,sans-Serif" font-size="9.00" fill="#1a1a2e"> [ rainy ] / log</text>
</g>
<!-- Center&#45;&gt;__e3 -->
<g id="edge8" class="edge">
<title>Center&#45;&gt;__e3</title>
<path fill="none" stroke="#5f6368" d="M309.6,-224.42C345.22,-213.14 408.47,-193.1 453.03,-178.99"/>
</g>
<!-- Hot -->
<g id="node3" class="node">
<title>Hot</title>
<path fill="#e8f0fe" stroke="#4285f4" d="M77.5,-108C77.5,-108 47.5,-108 47.5,-108 41.5,-108 35.5,-102 35.5,-96 35.5,-96 35.5,-84 35.5,-84 35.5,-78 41.5,-72 47.5,-72 47.5,-72 77.5,-72 77.5,-72 83.5,-72 89.5,-78 89.5,-84 89.5,-84 89.5,-96 89.5,-96 89.5,-102 83.5,-108 77.5,-108"/>
<text xml:space="preserve" text-anchor="middle" x="62.5" y="-85.55" font-family="Helvetica,sans-Serif" font-size="11.00" fill="#1a1a2e">Hot</text>
</g>
<!-- __e4 -->
<g id="node11" class="node">
<title>__e4</title>
<text xml:space="preserve" text-anchor="start" x="18.25" y="-15.32" font-family="Helvetica,sans-Serif" font-weight="bold" font-size="9.00" fill="#1a1a2e">weather</text>
</g>
<!-- Hot&#45;&gt;__e4 -->
<g id="edge10" class="edge">
<title>Hot&#45;&gt;__e4</title>
<path fill="none" stroke="#5f6368" d="M55.83,-71.7C51.58,-60.68 46.11,-46.5 41.91,-35.62"/>
</g>
<!-- Cold -->
<g id="node4" class="node">
<title>Cold</title>
<path fill="#e8f0fe" stroke="#4285f4" d="M212.5,-108C212.5,-108 182.5,-108 182.5,-108 176.5,-108 170.5,-102 170.5,-96 170.5,-96 170.5,-84 170.5,-84 170.5,-78 176.5,-72 182.5,-72 182.5,-72 212.5,-72 212.5,-72 218.5,-72 224.5,-78 224.5,-84 224.5,-84 224.5,-96 224.5,-96 224.5,-102 218.5,-108 212.5,-108"/>
<text xml:space="preserve" text-anchor="middle" x="197.5" y="-85.55" font-family="Helvetica,sans-Serif" font-size="11.00" fill="#1a1a2e">Cold</text>
</g>
<!-- __e5 -->
<g id="node12" class="node">
<title>__e5</title>
<text xml:space="preserve" text-anchor="start" x="196.25" y="-15.32" font-family="Helvetica,sans-Serif" font-weight="bold" font-size="9.00" fill="#1a1a2e">weather</text>
</g>
<!-- Cold&#45;&gt;__e5 -->
<g id="edge12" class="edge">
<title>Cold&#45;&gt;__e5</title>
<path fill="none" stroke="#5f6368" d="M201.46,-71.7C203.97,-60.68 207.22,-46.5 209.7,-35.62"/>
</g>
<!-- Windy -->
<g id="node5" class="node">
<title>Windy</title>
<path fill="#e8f0fe" stroke="#4285f4" d="M384.5,-108C384.5,-108 354.5,-108 354.5,-108 348.5,-108 342.5,-102 342.5,-96 342.5,-96 342.5,-84 342.5,-84 342.5,-78 348.5,-72 354.5,-72 354.5,-72 384.5,-72 384.5,-72 390.5,-72 396.5,-78 396.5,-84 396.5,-84 396.5,-96 396.5,-96 396.5,-102 390.5,-108 384.5,-108"/>
<text xml:space="preserve" text-anchor="middle" x="369.5" y="-85.55" font-family="Helvetica,sans-Serif" font-size="11.00" fill="#1a1a2e">Windy</text>
</g>
<!-- __e6 -->
<g id="node13" class="node">
<title>__e6</title>
<text xml:space="preserve" text-anchor="start" x="318.25" y="-15.32" font-family="Helvetica,sans-Serif" font-weight="bold" font-size="9.00" fill="#1a1a2e">weather</text>
</g>
<!-- Windy&#45;&gt;__e6 -->
<g id="edge14" class="edge">
<title>Windy&#45;&gt;__e6</title>
<path fill="none" stroke="#5f6368" d="M361.1,-71.7C355.75,-60.68 348.86,-46.5 343.58,-35.62"/>
</g>
<!-- Rainy -->
<g id="node6" class="node">
<title>Rainy</title>
<path fill="#e8f0fe" stroke="#4285f4" d="M530.5,-108C530.5,-108 500.5,-108 500.5,-108 494.5,-108 488.5,-102 488.5,-96 488.5,-96 488.5,-84 488.5,-84 488.5,-78 494.5,-72 500.5,-72 500.5,-72 530.5,-72 530.5,-72 536.5,-72 542.5,-78 542.5,-84 542.5,-84 542.5,-96 542.5,-96 542.5,-102 536.5,-108 530.5,-108"/>
<text xml:space="preserve" text-anchor="middle" x="515.5" y="-85.55" font-family="Helvetica,sans-Serif" font-size="11.00" fill="#1a1a2e">Rainy</text>
</g>
<!-- __e7 -->
<g id="node14" class="node">
<title>__e7</title>
<text xml:space="preserve" text-anchor="start" x="531.25" y="-15.32" font-family="Helvetica,sans-Serif" font-weight="bold" font-size="9.00" fill="#1a1a2e">weather</text>
</g>
<!-- Rainy&#45;&gt;__e7 -->
<g id="edge16" class="edge">
<title>Rainy&#45;&gt;__e7</title>
<path fill="none" stroke="#5f6368" d="M523.66,-71.7C528.85,-60.68 535.54,-46.5 540.67,-35.62"/>
</g>
<!-- __e0&#45;&gt;Hot -->
<g id="edge3" class="edge">
<title>__e0&#45;&gt;Hot</title>
<path fill="none" stroke="#5f6368" d="M70.08,-144.05C69.03,-136.68 67.77,-127.84 66.57,-119.51"/>
<polygon fill="#5f6368" stroke="#5f6368" points="70.06,-119.18 65.18,-109.77 63.13,-120.17 70.06,-119.18"/>
</g>
<!-- __e1&#45;&gt;Cold -->
<g id="edge5" class="edge">
<title>__e1&#45;&gt;Cold</title>
<path fill="none" stroke="#5f6368" d="M189.16,-144.05C190.32,-136.68 191.71,-127.84 193.02,-119.51"/>
<polygon fill="#5f6368" stroke="#5f6368" points="196.46,-120.19 194.55,-109.77 189.54,-119.11 196.46,-120.19"/>
</g>
<!-- __e2&#45;&gt;Windy -->
<g id="edge7" class="edge">
<title>__e2&#45;&gt;Windy</title>
<path fill="none" stroke="#5f6368" d="M379.36,-144.05C377.99,-136.68 376.34,-127.84 374.8,-119.51"/>
<polygon fill="#5f6368" stroke="#5f6368" points="378.25,-118.96 372.99,-109.76 371.37,-120.23 378.25,-118.96"/>
</g>
<!-- __e3&#45;&gt;Rainy -->
<g id="edge9" class="edge">
<title>__e3&#45;&gt;Rainy</title>
<path fill="none" stroke="#5f6368" d="M506.41,-144.05C507.67,-136.68 509.19,-127.84 510.61,-119.51"/>
<polygon fill="#5f6368" stroke="#5f6368" points="514.04,-120.21 512.28,-109.77 507.15,-119.03 514.04,-120.21"/>
</g>
<!-- __e4&#45;&gt;Center -->
<g id="edge11" class="edge">
<title>__e4&#45;&gt;Center</title>
<path fill="none" stroke="#5f6368" d="M26.36,-35.82C10.34,-67.82 -17.95,-138 16.5,-180 44.82,-214.51 177.12,-226.98 243.83,-231.12"/>
<polygon fill="#5f6368" stroke="#5f6368" points="243.4,-234.6 253.59,-231.69 243.81,-227.61 243.4,-234.6"/>
</g>
<!-- __e5&#45;&gt;Center -->
<g id="edge13" class="edge">
<title>__e5&#45;&gt;Center</title>
<path fill="none" stroke="#5f6368" d="M220.09,-35.61C224.13,-46 229.32,-59.71 233.5,-72 249.27,-118.31 265.37,-172.92 274.63,-205.15"/>
<polygon fill="#5f6368" stroke="#5f6368" points="271.19,-205.85 277.3,-214.51 277.92,-203.93 271.19,-205.85"/>
</g>
<!-- __e6&#45;&gt;Center -->
<g id="edge15" class="edge">
<title>__e6&#45;&gt;Center</title>
<path fill="none" stroke="#5f6368" d="M331.31,-35.94C322.22,-72.61 300.65,-159.71 289.48,-204.83"/>
<polygon fill="#5f6368" stroke="#5f6368" points="286.12,-203.83 287.11,-214.38 292.92,-205.51 286.12,-203.83"/>
</g>
<!-- __e7&#45;&gt;Center -->
<g id="edge17" class="edge">
<title>__e7&#45;&gt;Center</title>
<path fill="none" stroke="#5f6368" d="M557.06,-35.87C572,-67.96 598.08,-138.29 563.5,-180 533.18,-216.58 391.08,-228.09 321.33,-231.57"/>
<polygon fill="#5f6368" stroke="#5f6368" points="321.33,-228.06 311.5,-232.02 321.65,-235.06 321.33,-228.06"/>
</g>
</g>
</svg>
