<?xml version="1.0" encoding="UTF-8" standalone="no"?>
<!DOCTYPE svg PUBLIC "-//W3C//DTD SVG 1.1//EN"
 "http://www.w3.org/Graphics/SVG/1.1/DTD/svg11.dtd">
<!-- Generated by graphviz version 14.1.2 (20260124.0452)
 -->
<!-- Title: FanOut Pages: 1 -->
<svg width="568pt" height="240pt"
 viewBox="0.00 0.00 568.00 240.00" xmlns="http://www.w3.org/2000/svg" xmlns:xlink="http://www.w3.org/1999/xlink">
<g id="graph0" class="graph" transform="scale(1 1) rotate(0) translate(28.8 211.3)">
<title>FanOut</title>
<polygon fill="white" stroke="none" points="-28.8,28.8 -28.8,-211.3 539.03,-211.3 539.03,28.8 -28.8,28.8"/>
<!-- __init__ -->
<g id="node1" class="node">
<title>__init__</title>
<ellipse fill="#1a1a2e" stroke="black" cx="242.72" cy="-173.5" rx="9" ry="9"/>
</g>
<!-- Center -->
<g id="node2" class="node">
<title>Center</title>
<path fill="#e8f0fe" stroke="#4285f4" d="M257.72,-127.5C257.72,-127.5 227.72,-127.5 227.72,-127.5 221.72,-127.5 215.72,-121.5 215.72,-115.5 215.72,-115.5 215.72,-103.5 215.72,-103.5 215.72,-97.5 221.72,-91.5 227.72,-91.5 227.72,-91.5 257.72,-91.5 257.72,-91.5 263.72,-91.5 269.72,-97.5 269.72,-103.5 269.72,-103.5 269.72,-115.5 269.72,-115.5 269.72,-121.5 263.72,-127.5 257.72,-127.5"/>
<text xml:space="preserve" text-anchor="middle" x="242.72" y="-105.05" font-family="Helvetica,sans-Serif" font-size="11.00">Center</text>
</g>
<!-- __init__&#45;&gt;Center -->
<g id="edge1" class="edge">
<title>__init__&#45;&gt;Center</title>
<path fill="none" stroke="#5f6368" d="M242.72,-164.14C242.72,-157.7 242.72,-148.41 242.72,-139.35"/>
<polygon fill="#5f6368" stroke="#5f6368" points="246.22,-139.37 242.72,-129.37 239.22,-139.37 246.22,-139.37"/>
</g>
<!-- Hot -->
<g id="node3" class="node">
<title>Hot</title>
<path fill="#e8f0fe" stroke="#4285f4" d="M70.72,-36C70.72,-36 40.72,-36 40.72,-36 34.72,-36 28.72,-30 28.72,-24 28.72,-24 28.72,-12 28.72,-12 28.72,-6 34.72,0 40.72,0 40.72,0 70.72,0 70.72,0 76.72,0 82.72,-6 82.72,-12 82.72,-12 82.72,-24 82.72,-24 82.72,-30 76.72,-36 70.72,-36"/>
<text xml:space="preserve" text-anchor="middle" x="55.72" y="-13.55" font-family="Helvetica,sans-Serif" font-size="11.00">Hot</text>
</g>
<!-- Center&#45;&gt;Hot -->
<g id="edge2" class="edge">
<title>Center&#45;&gt;Hot</title>
<path fill="none" stroke="#5f6368" d="M215.28,-108.75C158.52,-108.62 31.23,-104.77 4.22,-73.5 -6.07,-61.59 4.84,-48.77 19.23,-38.56"/>
<polygon fill="#5f6368" stroke="#5f6368" points="20.72,-41.77 27.21,-33.4 16.91,-35.89 20.72,-41.77"/>
<text xml:space="preserve" text-anchor="middle" x="30.47" y="-64.95" font-family="Helvetica,sans-Serif" font-size="9.00">weather [hot]</text>
<text xml:space="preserve" text-anchor="middle" x="30.47" y="-55.2" font-family="Helvetica,sans-Serif" font-size="9.00">/ log</text>
</g>
<!-- Cold -->
<g id="node4" class="node">
<title>Cold</title>
<path fill="#e8f0fe" stroke="#4285f4" d="M172.72,-36C172.72,-36 142.72,-36 142.72,-36 136.72,-36 130.72,-30 130.72,-24 130.72,-24 130.72,-12 130.72,-12 130.72,-6 136.72,0 142.72,0 142.72,0 172.72,0 172.72,0 178.72,0 184.72,-6 184.72,-12 184.72,-12 184.72,-24 184.72,-24 184.72,-30 178.72,-36 172.72,-36"/>
<text xml:space="preserve" text-anchor="middle" x="157.72" y="-13.55" font-family="Helvetica,sans-Serif" font-size="11.00">Cold</text>
</g>
<!-- Center&#45;&gt;Cold -->
<g id="edge3" class="edge">
<title>Center&#45;&gt;Cold</title>
<path fill="none" stroke="#5f6368" d="M215.65,-108.03C190.35,-105.97 153.84,-98.5 135.72,-73.5 129.74,-65.25 131.77,-55.14 136.48,-45.88"/>
<polygon fill="#5f6368" stroke="#5f6368" points="139.32,-47.93 141.58,-37.58 133.36,-44.26 139.32,-47.93"/>
<text xml:space="preserve" text-anchor="middle" x="164.22" y="-64.95" font-family="Helvetica,sans-Serif" font-size="9.00">weather [cold]</text>
<text xml:space="preserve" text-anchor="middle" x="164.22" y="-55.2" font-family="Helvetica,sans-Serif" font-size="9.00">/ log</text>
</g>
<!-- Windy -->
<g id="node5" class="node">
<title>Windy</title>
<path fill="#e8f0fe" stroke="#4285f4" d="M328.72,-36C328.72,-36 298.72,-36 298.72,-36 292.72,-36 286.72,-30 286.72,-24 286.72,-24 286.72,-12 286.72,-12 286.72,-6 292.72,0 298.72,0 298.72,0 328.72,0 328.72,0 334.72,0 340.72,-6 340.72,-12 340.72,-12 340.72,-24 340.72,-24 340.72,-30 334.72,-36 328.72,-36"/>
<text xml:space="preserve" text-anchor="middle" x="313.72" y="-13.55" font-family="Helvetica,sans-Serif" font-size="11.00">Windy</text>
</g>
<!-- Center&#45;&gt;Windy -->
<g id="edge4" class="edge">
<title>Center&#45;&gt;Windy</title>
<path fill="none" stroke="#5f6368" d="M250.01,-91.02C255.19,-79.79 262.82,-65.25 271.97,-54 274.77,-50.55 277.96,-47.18 281.29,-43.99"/>
<polygon fill="#5f6368" stroke="#5f6368" points="283.47,-46.74 288.6,-37.46 278.81,-41.51 283.47,-46.74"/>
<text xml:space="preserve" text-anchor="middle" x="303.84" y="-64.95" font-family="Helvetica,sans-Serif" font-size="9.00">weather [windy]</text>
<text xml:space="preserve" text-anchor="middle" x="303.84" y="-55.2" font-family="Helvetica,sans-Serif" font-size="9.00">/ log</text>
</g>
<!-- Rainy -->
<g id="node6" class="node">
<title>Rainy</title>
<path fill="#e8f0fe" stroke="#4285f4" d="M469.72,-36C469.72,-36 439.72,-36 439.72,-36 433.72,-36 427.72,-30 427.72,-24 427.72,-24 427.72,-12 427.72,-12 427.72,-6 433.72,0 439.72,0 439.72,0 469.72,0 469.72,0 475.72,0 481.72,-6 481.72,-12 481.72,-12 481.72,-24 481.72,-24 481.72,-30 475.72,-36 469.72,-36"/>
<text xml:space="preserve" text-anchor="middle" x="454.72" y="-13.55" font-family="Helvetica,sans-Serif" font-size="11.00">Rainy</text>
</g>
<!-- Center&#45;&gt;Rainy -->
<g id="edge5" class="edge">
<title>Center&#45;&gt;Rainy</title>
<path fill="none" stroke="#5f6368" d="M270.12,-104.28C297.91,-99.33 341.68,-89.68 376.72,-73.5 393.78,-65.62 411.08,-53.98 425.03,-43.48"/>
<polygon fill="#5f6368" stroke="#5f6368" points="427.15,-46.27 432.92,-37.38 422.87,-40.73 427.15,-46.27"/>
<text xml:space="preserve" text-anchor="middle" x="438.36" y="-64.95" font-family="Helvetica,sans-Serif" font-size="9.00">weather [rainy]</text>
<text xml:space="preserve" text-anchor="middle" x="438.36" y="-55.2" font-family="Helvetica,sans-Serif" font-size="9.00">/ log</text>
</g>
<!-- Hot&#45;&gt;Center -->
<g id="edge6" class="edge">
<title>Hot&#45;&gt;Center</title>
<path fill="none" stroke="#5f6368" d="M63.87,-36.32C70.5,-48.53 81,-64.3 94.72,-73.5 127.38,-95.41 172.14,-103.68 203.87,-106.75"/>
<polygon fill="#5f6368" stroke="#5f6368" points="203.57,-110.24 213.82,-107.57 204.15,-103.26 203.57,-110.24"/>
<text xml:space="preserve" text-anchor="middle" x="111.22" y="-60.08" font-family="Helvetica,sans-Serif" font-size="9.00">weather</text>
</g>
<!-- Cold&#45;&gt;Center -->
<g id="edge7" class="edge">
<title>Cold&#45;&gt;Center</title>
<path fill="none" stroke="#5f6368" d="M175.31,-36.3C180.93,-41.9 187.13,-48.17 192.72,-54 201.6,-63.28 211.18,-73.62 219.55,-82.79"/>
<polygon fill="#5f6368" stroke="#5f6368" points="216.81,-84.98 226.12,-90.02 221.99,-80.27 216.81,-84.98"/>
<text xml:space="preserve" text-anchor="middle" x="227.31" y="-60.08" font-family="Helvetica,sans-Serif" font-size="9.00">weather</text>
</g>
<!-- Windy&#45;&gt;Center -->
<g id="edge8" class="edge">
<title>Windy&#45;&gt;Center</title>
<path fill="none" stroke="#5f6368" d="M329.07,-36.43C337.01,-47.64 343.56,-62.17 335.72,-73.5 323.49,-91.17 301.14,-99.93 281.42,-104.27"/>
<polygon fill="#5f6368" stroke="#5f6368" points="280.89,-100.81 271.7,-106.07 282.17,-107.69 280.89,-100.81"/>
<text xml:space="preserve" text-anchor="middle" x="355.74" y="-60.08" font-family="Helvetica,sans-Serif" font-size="9.00">weather</text>
</g>
<!-- Rainy&#45;&gt;Center -->
<g id="edge9" class="edge">
<title>Rainy&#45;&gt;Center</title>
<path fill="none" stroke="#5f6368" d="M468.38,-36.42C475.75,-48.05 481.68,-63.07 472.72,-73.5 448.52,-101.66 340.47,-107.42 281.47,-108.44"/>
<polygon fill="#5f6368" stroke="#5f6368" points="281.49,-104.94 271.54,-108.56 281.58,-111.94 281.49,-104.94"/>
<text xml:space="preserve" text-anchor="middle" x="493.73" y="-60.08" font-family="Helvetica,sans-Serif" font-size="9.00">weather</text>
</g>
</g>
</svg>
