<?xml version="1.0" encoding="UTF-8" standalone="no"?>
<!DOCTYPE svg PUBLIC "-//W3C//DTD SVG 1.1//EN"
 "http://www.w3.org/Graphics/SVG/1.1/DTD/svg11.dtd">
<!-- Generated by graphviz version 14.1.2 (20260124.0452)
 -->
<!-- Title: SelfLoops Pages: 1 -->
<svg width="375pt" height="295pt"
 viewBox="0.00 0.00 375.00 295.00" xmlns="http://www.w3.org/2000/svg" xmlns:xlink="http://www.w3.org/1999/xlink">
<g id="graph0" class="graph" transform="scale(1 1) rotate(0) translate(28.8 265.8)">
<title>SelfLoops</title>
<polygon fill="white" stroke="none" points="-28.8,28.8 -28.8,-265.8 346.05,-265.8 346.05,28.8 -28.8,28.8"/>
<!-- __init__ -->
<g id="node1" class="node">
<title>__init__</title>
<ellipse fill="#1a1a2e" stroke="black" cx="27" cy="-228" rx="9" ry="9"/>
</g>
<!-- Busy -->
<g id="node2" class="node">
<title>Busy</title>
<path fill="#e8f0fe" stroke="#4285f4" d="M42,-182C42,-182 12,-182 12,-182 6,-182 0,-176 0,-170 0,-170 0,-158 0,-158 0,-152 6,-146 12,-146 12,-146 42,-146 42,-146 48,-146 54,-152 54,-158 54,-158 54,-170 54,-170 54,-176 48,-182 42,-182"/>
<text xml:space="preserve" text-anchor="middle" x="27" y="-159.55" font-family="Helvetica,sans-Serif" font-size="11.00" fill="#1a1a2e">Busy</text>
</g>
<!-- __init__&#45;&gt;Busy -->
<g id="edge1" class="edge">
<title>__init__&#45;&gt;Busy</title>
<path fill="none" stroke="#5f6368" d="M27,-218.64C27,-212.2 27,-202.91 27,-193.85"/>
<polygon fill="#5f6368" stroke="#5f6368" points="30.5,-193.87 27,-183.87 23.5,-193.87 30.5,-193.87"/>
</g>
<!-- Busy&#45;&gt;Busy -->
<g id="edge2" class="edge">
<title>Busy&#45;&gt;Busy</title>
<path fill="none" stroke="#5f6368" d="M54.24,-166.28C64.02,-166.33 72,-165.57 72,-164 72,-163.12 69.48,-162.49 65.53,-162.12"/>
<polygon fill="#5f6368" stroke="#5f6368" points="65.87,-158.63 55.75,-161.77 65.62,-165.63 65.87,-158.63"/>
<text xml:space="preserve" text-anchor="start" x="72" y="-161.32" font-family="Helvetica,sans-Serif" font-weight="bold" font-size="9.00" fill="#1a1a2e">tick</text>
<text xml:space="preserve" text-anchor="start" x="87.75" y="-161.32" font-family="Helvetica,sans-Serif" font-size="9.00" fill="#1a1a2e"> [ ok ] / process</text>
</g>
<!-- Busy&#45;&gt;Busy -->
<g id="edge3" class="edge">
<title>Busy&#45;&gt;Busy</title>
<path fill="none" stroke="#5f6368" d="M54.44,-167.4C91.35,-169.71 147.75,-168.57 147.75,-164 147.75,-159.87 101.83,-158.55 65.74,-160.02"/>
<polygon fill="#5f6368" stroke="#5f6368" points="65.76,-156.51 55.95,-160.52 66.12,-163.5 65.76,-156.51"/>
<text xml:space="preserve" text-anchor="start" x="147.75" y="-161.32" font-family="Helvetica,sans-Serif" font-weight="bold" font-size="9.00" fill="#1a1a2e">ping</text>
<text xml:space="preserve" text-anchor="start" x="165.75" y="-161.32" font-family="Helvetica,sans-Serif" font-size="9.00" fill="#1a1a2e"> / validate</text>
</g>
<!-- Busy&#45;&gt;Busy -->
<g id="edge4" class="edge">
<title>Busy&#45;&gt;Busy</title>
<path fill="none" stroke="#5f6368" d="M54.18,-168.24C106.19,-172.79 204.75,-171.38 204.75,-164 204.75,-157.13 119.2,-155.43 65.45,-158.91"/>
<polygon fill="#5f6368" stroke="#5f6368" points="65.4,-155.41 55.69,-159.65 65.92,-162.39 65.4,-155.41"/>
<text xml:space="preserve" text-anchor="start" x="204.75" y="-161.32" font-family="Helvetica,sans-Serif" font-weight="bold" font-size="9.00" fill="#1a1a2e">poll</text>
<text xml:space="preserve" text-anchor="start" x="219.75" y="-161.32" font-family="Helvetica,sans-Serif" font-size="9.00" fill="#1a1a2e"> / retry, process</text>
</g>
<!-- __e0 -->
<g id="node4" class="node">
<title>__e0</title>
<text xml:space="preserve" text-anchor="start" x="19.12" y="-88.33" font-family="Helvetica,sans-Serif" font-weight="bold" font-size="9.00" fill="#1a1a2e">tick</text>
</g>
<!-- Busy&#45;&gt;__e0 -->
<g id="edge5" class="edge">
<title>Busy&#45;&gt;__e0</title>
<path fill="none" stroke="#5f6368" d="M27,-145.81C27,-134.49 27,-119.73 27,-108.54"/>
</g>
<!-- Done -->
<g id="node3" class="node">
<title>Done</title>
<path fill="#e8f0fe" stroke="#4285f4" d="M42,-36C42,-36 12,-36 12,-36 6,-36 0,-30 0,-24 0,-24 0,-12 0,-12 0,-6 6,0 12,0 12,0 42,0 42,0 48,0 54,-6 54,-12 54,-12 54,-24 54,-24 54,-30 48,-36 42,-36"/>
<text xml:space="preserve" text-anchor="middle" x="27" y="-13.55" font-family="Helvetica,sans-Serif" font-size="11.00" fill="#1a1a2e">Done</text>
</g>
<!-- __e0&#45;&gt;Done -->
<g id="edge6" class="edge">
<title>__e0&#45;&gt;Done</title>
<path fill="none" stroke="#5f6368" d="M27,-73.17C27,-65.56 27,-56.35 27,-47.7"/>
<polygon fill="#5f6368" stroke="#5f6368" points="30.5,-47.96 27,-37.96 23.5,-47.96 30.5,-47.96"/>
</g>
</g>
</svg>
