<?xml version="1.0" encoding="UTF-8" standalone="no"?>
<!DOCTYPE svg PUBLIC "-//W3C//DTD SVG 1.1//EN"
 "http://www.w3.org/Graphics/SVG/1.1/DTD/svg11.dtd">
<!-- Generated by graphviz version 14.1.2 (20260124.0452)
 -->
<!-- Title: SelfLoops Pages: 1 -->
<svg width="298pt" height="230pt"
 viewBox="0.00 0.00 298.00 230.00" xmlns="http://www.w3.org/2000/svg" xmlns:xlink="http://www.w3.org/1999/xlink">
<g id="graph0" class="graph" transform="scale(1 1) rotate(0) translate(28.8 201.55)">
<title>SelfLoops</title>
<polygon fill="white" stroke="none" points="-28.8,28.8 -28.8,-201.55 269.55,-201.55 269.55,28.8 -28.8,28.8"/>
<!-- __init__ -->
<g id="node1" class="node">
<title>__init__</title>
<ellipse fill="#1a1a2e" stroke="black" cx="27" cy="-163.75" rx="9" ry="9"/>
</g>
<!-- Busy -->
<g id="node2" class="node">
<title>Busy</title>
<path fill="#e8f0fe" stroke="#4285f4" d="M42,-117.75C42,-117.75 12,-117.75 12,-117.75 6,-117.75 0,-111.75 0,-105.75 0,-105.75 0,-93.75 0,-93.75 0,-87.75 6,-81.75 12,-81.75 12,-81.75 42,-81.75 42,-81.75 48,-81.75 54,-87.75 54,-93.75 54,-93.75 54,-105.75 54,-105.75 54,-111.75 48,-117.75 42,-117.75"/>
<text xml:space="preserve" text-anchor="middle" x="27" y="-95.3" font-family="Helvetica,sans-Serif" font-size="11.00">Busy</text>
</g>
<!-- __init__&#45;&gt;Busy -->
<g id="edge1" class="edge">
<title>__init__&#45;&gt;Busy</title>
<path fill="none" stroke="#5f6368" d="M27,-154.39C27,-147.95 27,-138.66 27,-129.6"/>
<polygon fill="#5f6368" stroke="#5f6368" points="30.5,-129.62 27,-119.62 23.5,-129.62 30.5,-129.62"/>
</g>
<!-- Busy&#45;&gt;Busy -->
<g id="edge2" class="edge">
<title>Busy&#45;&gt;Busy</title>
<path fill="none" stroke="#5f6368" d="M54.24,-102.03C64.02,-102.08 72,-101.32 72,-99.75 72,-98.87 69.48,-98.24 65.53,-97.87"/>
<polygon fill="#5f6368" stroke="#5f6368" points="65.87,-94.38 55.75,-97.52 65.62,-101.38 65.87,-94.38"/>
<text xml:space="preserve" text-anchor="middle" x="90.38" y="-100.95" font-family="Helvetica,sans-Serif" font-size="9.00">tick [ok]</text>
<text xml:space="preserve" text-anchor="middle" x="90.38" y="-91.2" font-family="Helvetica,sans-Serif" font-size="9.00">/ process</text>
</g>
<!-- Busy&#45;&gt;Busy -->
<g id="edge3" class="edge">
<title>Busy&#45;&gt;Busy</title>
<path fill="none" stroke="#5f6368" d="M54.42,-103.62C79.38,-105.27 108.75,-103.98 108.75,-99.75 108.75,-96.15 87.45,-94.68 65.72,-95.34"/>
<polygon fill="#5f6368" stroke="#5f6368" points="65.76,-91.84 55.93,-95.81 66.09,-98.83 65.76,-91.84"/>
<text xml:space="preserve" text-anchor="middle" x="127.12" y="-100.95" font-family="Helvetica,sans-Serif" font-size="9.00">ping</text>
<text xml:space="preserve" text-anchor="middle" x="127.12" y="-91.2" font-family="Helvetica,sans-Serif" font-size="9.00">/ validate</text>
</g>
<!-- Busy&#45;&gt;Busy -->
<g id="edge4" class="edge">
<title>Busy&#45;&gt;Busy</title>
<path fill="none" stroke="#5f6368" d="M54.32,-104.63C91.59,-108.38 145.5,-106.75 145.5,-99.75 145.5,-93.43 101.61,-91.49 65.65,-93.92"/>
<polygon fill="#5f6368" stroke="#5f6368" points="65.5,-90.42 55.83,-94.74 66.08,-97.4 65.5,-90.42"/>
<text xml:space="preserve" text-anchor="middle" x="175.12" y="-100.95" font-family="Helvetica,sans-Serif" font-size="9.00">poll</text>
<text xml:space="preserve" text-anchor="middle" x="175.12" y="-91.2" font-family="Helvetica,sans-Serif" font-size="9.00">/ retry, process</text>
</g>
<!-- Done -->
<g id="node3" class="node">
<title>Done</title>
<path fill="#e8f0fe" stroke="#4285f4" d="M42,-36C42,-36 12,-36 12,-36 6,-36 0,-30 0,-24 0,-24 0,-12 0,-12 0,-6 6,0 12,0 12,0 42,0 42,0 48,0 54,-6 54,-12 54,-12 54,-24 54,-24 54,-30 48,-36 42,-36"/>
<text xml:space="preserve" text-anchor="middle" x="27" y="-13.55" font-family="Helvetica,sans-Serif" font-size="11.00">Done</text>
</g>
<!-- Busy&#45;&gt;Done -->
<g id="edge5" class="edge">
<title>Busy&#45;&gt;Done</title>
<path fill="none" stroke="#5f6368" d="M27,-81.45C27,-71.52 27,-58.81 27,-47.45"/>
<polygon fill="#5f6368" stroke="#5f6368" points="30.5,-47.78 27,-37.78 23.5,-47.78 30.5,-47.78"/>
<text xml:space="preserve" text-anchor="middle" x="33.75" y="-55.2" font-family="Helvetica,sans-Serif" font-size="9.00">tick</text>
</g>
</g>
</svg>
