<?xml version="1.0" encoding="UTF-8" standalone="no"?>
<!DOCTYPE svg PUBLIC "-//W3C//DTD SVG 1.1//EN"
 "http://www.w3.org/Graphics/SVG/1.1/DTD/svg11.dtd">
<!-- Generated by graphviz version 14.1.2 (20260124.0452)
 -->
<!-- Title: SimpleChoice Pages: 1 -->
<svg width="197pt" height="292pt"
 viewBox="0.00 0.00 197.00 292.00" xmlns="http://www.w3.org/2000/svg" xmlns:xlink="http://www.w3.org/1999/xlink">
<g id="graph0" class="graph" transform="scale(1 1) rotate(0) translate(28.8 262.8)">
<title>SimpleChoice</title>
<polygon fill="white" stroke="none" points="-28.8,28.8 -28.8,-262.8 168.3,-262.8 168.3,28.8 -28.8,28.8"/>
<!-- __init__ -->
<g id="node1" class="node">
<title>__init__</title>
<ellipse fill="#1a1a2e" stroke="black" cx="72.5" cy="-225" rx="9" ry="9"/>
</g>
<!-- Check -->
<g id="node2" class="node">
<title>Check</title>
<polygon fill="#fff8e1" stroke="#f9ab00" points="72.5,-180 32.74,-162 72.5,-144 112.26,-162 72.5,-180"/>
<text xml:space="preserve" text-anchor="middle" x="72.5" y="-157.55" font-family="Helvetica,sans-Serif" font-size="11.00" fill="#1a1a2e">Check</text>
</g>
<!-- __init__&#45;&gt;Check -->
<g id="edge1" class="edge">
<title>__init__&#45;&gt;Check</title>
<path fill="none" stroke="#5f6368" d="M72.5,-215.52C72.5,-209.31 72.5,-200.49 72.5,-191.84"/>
<polygon fill="#5f6368" stroke="#5f6368" points="76,-191.94 72.5,-181.94 69,-191.94 76,-191.94"/>
</g>
<!-- __e0 -->
<g id="node5" class="node">
<title>__e0</title>
<text xml:space="preserve" text-anchor="start" x="8" y="-86.33" font-family="Helvetica,sans-Serif" font-size="9.00" fill="#1a1a2e">[ ready ] / init</text>
</g>
<!-- Check&#45;&gt;__e0 -->
<g id="edge2" class="edge">
<title>Check&#45;&gt;__e0</title>
<path fill="none" stroke="#5f6368" d="M64.79,-147.17C58.49,-135.85 49.55,-119.81 42.84,-107.76"/>
</g>
<!-- __e1 -->
<g id="node6" class="node">
<title>__e1</title>
<text xml:space="preserve" text-anchor="start" x="103.5" y="-87.33" font-family="Helvetica,sans-Serif" font-weight="bold" font-size="9.00" fill="#1a1a2e">else</text>
</g>
<!-- Check&#45;&gt;__e1 -->
<g id="edge4" class="edge">
<title>Check&#45;&gt;__e1</title>
<path fill="none" stroke="#5f6368" d="M80.4,-147.17C86.87,-135.85 96.04,-119.81 102.92,-107.76"/>
</g>
<!-- Go -->
<g id="node3" class="node">
<title>Go</title>
<path fill="#e8f0fe" stroke="#4285f4" d="M48.5,-36C48.5,-36 18.5,-36 18.5,-36 12.5,-36 6.5,-30 6.5,-24 6.5,-24 6.5,-12 6.5,-12 6.5,-6 12.5,0 18.5,0 18.5,0 48.5,0 48.5,0 54.5,0 60.5,-6 60.5,-12 60.5,-12 60.5,-24 60.5,-24 60.5,-30 54.5,-36 48.5,-36"/>
<text xml:space="preserve" text-anchor="middle" x="33.5" y="-13.55" font-family="Helvetica,sans-Serif" font-size="11.00" fill="#1a1a2e">Go</text>
</g>
<!-- Wait -->
<g id="node4" class="node">
<title>Wait</title>
<path fill="#e8f0fe" stroke="#4285f4" d="M127.5,-36C127.5,-36 97.5,-36 97.5,-36 91.5,-36 85.5,-30 85.5,-24 85.5,-24 85.5,-12 85.5,-12 85.5,-6 91.5,0 97.5,0 97.5,0 127.5,0 127.5,0 133.5,0 139.5,-6 139.5,-12 139.5,-12 139.5,-24 139.5,-24 139.5,-30 133.5,-36 127.5,-36"/>
<text xml:space="preserve" text-anchor="middle" x="112.5" y="-13.55" font-family="Helvetica,sans-Serif" font-size="11.00" fill="#1a1a2e">Wait</text>
</g>
<!-- __e0&#45;&gt;Go -->
<g id="edge3" class="edge">
<title>__e0&#45;&gt;Go</title>
<path fill="none" stroke="#5f6368" d="M33.5,-72.05C33.5,-64.68 33.5,-55.84 33.5,-47.51"/>
<polygon fill="#5f6368" stroke="#5f6368" points="37,-47.79 33.5,-37.79 30,-47.79 37,-47.79"/>
</g>
<!-- __e1&#45;&gt;Wait -->
<g id="edge5" class="edge">
<title>__e1&#45;&gt;Wait</title>
<path fill="none" stroke="#5f6368" d="M112.5,-72.05C112.5,-64.68 112.5,-55.84 112.5,-47.51"/>
<polygon fill="#5f6368" stroke="#5f6368" points="116,-47.79 112.5,-37.79 109,-47.79 116,-47.79"/>
</g>
</g>
</svg>
