<?xml version="1.0" encoding="UTF-8" standalone="no"?>
<!DOCTYPE svg PUBLIC "-//W3C//DTD SVG 1.1//EN"
 "http://www.w3.org/Graphics/SVG/1.1/DTD/svg11.dtd">
<!-- Generated by graphviz version 14.1.2 (20260124.0452)
 -->
<!-- Title: Spaghetti Pages: 1 -->
<svg width="272pt" height="423pt"
 viewBox="0.00 0.00 272.00 423.00" xmlns="http://www.w3.org/2000/svg" xmlns:xlink="http://www.w3.org/1999/xlink">
<g id="graph0" class="graph" transform="scale(1 1) rotate(0) translate(28.8 394.3)">
<title>Spaghetti</title>
<polygon fill="white" stroke="none" points="-28.8,28.8 -28.8,-394.3 243.51,-394.3 243.51,28.8 -28.8,28.8"/>
<!-- __init__ -->
<g id="node1" class="node">
<title>__init__</title>
<ellipse fill="#1a1a2e" stroke="black" cx="161.92" cy="-356.5" rx="9" ry="9"/>
</g>
<!-- S1 -->
<g id="node2" class="node">
<title>S1</title>
<path fill="#e8f0fe" stroke="#4285f4" d="M176.92,-310.5C176.92,-310.5 146.92,-310.5 146.92,-310.5 140.92,-310.5 134.92,-304.5 134.92,-298.5 134.92,-298.5 134.92,-286.5 134.92,-286.5 134.92,-280.5 140.92,-274.5 146.92,-274.5 146.92,-274.5 176.92,-274.5 176.92,-274.5 182.92,-274.5 188.92,-280.5 188.92,-286.5 188.92,-286.5 188.92,-298.5 188.92,-298.5 188.92,-304.5 182.92,-310.5 176.92,-310.5"/>
<text xml:space="preserve" text-anchor="middle" x="161.92" y="-288.05" font-family="Helvetica,sans-Serif" font-size="11.00">S1</text>
</g>
<!-- __init__&#45;&gt;S1 -->
<g id="edge1" class="edge">
<title>__init__&#45;&gt;S1</title>
<path fill="none" stroke="#5f6368" d="M161.92,-347.14C161.92,-340.7 161.92,-331.41 161.92,-322.35"/>
<polygon fill="#5f6368" stroke="#5f6368" points="165.42,-322.37 161.92,-312.37 158.42,-322.37 165.42,-322.37"/>
</g>
<!-- S2 -->
<g id="node3" class="node">
<title>S2</title>
<path fill="#e8f0fe" stroke="#4285f4" d="M87.92,-219C87.92,-219 57.92,-219 57.92,-219 51.92,-219 45.92,-213 45.92,-207 45.92,-207 45.92,-195 45.92,-195 45.92,-189 51.92,-183 57.92,-183 57.92,-183 87.92,-183 87.92,-183 93.92,-183 99.92,-189 99.92,-195 99.92,-195 99.92,-207 99.92,-207 99.92,-213 93.92,-219 87.92,-219"/>
<text xml:space="preserve" text-anchor="middle" x="72.92" y="-196.55" font-family="Helvetica,sans-Serif" font-size="11.00">S2</text>
</g>
<!-- S1&#45;&gt;S2 -->
<g id="edge2" class="edge">
<title>S1&#45;&gt;S2</title>
<path fill="none" stroke="#5f6368" d="M134.58,-288.16C114.75,-284.17 89.15,-275.47 75.67,-256.5 70.4,-249.09 68.7,-239.58 68.62,-230.58"/>
<polygon fill="#5f6368" stroke="#5f6368" points="72.11,-230.97 69.21,-220.78 65.12,-230.55 72.11,-230.97"/>
<text xml:space="preserve" text-anchor="middle" x="84.29" y="-247.95" font-family="Helvetica,sans-Serif" font-size="9.00">a [g]</text>
<text xml:space="preserve" text-anchor="middle" x="84.29" y="-238.2" font-family="Helvetica,sans-Serif" font-size="9.00">/ log</text>
</g>
<!-- S3 -->
<g id="node4" class="node">
<title>S3</title>
<path fill="#e8f0fe" stroke="#4285f4" d="M120.92,-36C120.92,-36 90.92,-36 90.92,-36 84.92,-36 78.92,-30 78.92,-24 78.92,-24 78.92,-12 78.92,-12 78.92,-6 84.92,0 90.92,0 90.92,0 120.92,0 120.92,0 126.92,0 132.92,-6 132.92,-12 132.92,-12 132.92,-24 132.92,-24 132.92,-30 126.92,-36 120.92,-36"/>
<text xml:space="preserve" text-anchor="middle" x="105.92" y="-13.55" font-family="Helvetica,sans-Serif" font-size="11.00">S3</text>
</g>
<!-- S1&#45;&gt;S3 -->
<g id="edge3" class="edge">
<title>S1&#45;&gt;S3</title>
<path fill="none" stroke="#5f6368" d="M173.59,-274.04C176.58,-268.65 179.39,-262.53 180.92,-256.5 184.61,-241.98 178.71,-201.31 175.92,-183 166.77,-122.97 161.24,-106.61 130.92,-54 129.31,-51.21 127.53,-48.37 125.69,-45.57"/>
<polygon fill="#5f6368" stroke="#5f6368" points="128.75,-43.84 120.19,-37.61 123,-47.82 128.75,-43.84"/>
<text xml:space="preserve" text-anchor="middle" x="181.48" y="-156.45" font-family="Helvetica,sans-Serif" font-size="9.00">b</text>
<text xml:space="preserve" text-anchor="middle" x="181.48" y="-146.7" font-family="Helvetica,sans-Serif" font-size="9.00">/ log</text>
</g>
<!-- S4 -->
<g id="node5" class="node">
<title>S4</title>
<path fill="#e8f0fe" stroke="#4285f4" d="M126.92,-127.5C126.92,-127.5 96.92,-127.5 96.92,-127.5 90.92,-127.5 84.92,-121.5 84.92,-115.5 84.92,-115.5 84.92,-103.5 84.92,-103.5 84.92,-97.5 90.92,-91.5 96.92,-91.5 96.92,-91.5 126.92,-91.5 126.92,-91.5 132.92,-91.5 138.92,-97.5 138.92,-103.5 138.92,-103.5 138.92,-115.5 138.92,-115.5 138.92,-121.5 132.92,-127.5 126.92,-127.5"/>
<text xml:space="preserve" text-anchor="middle" x="111.92" y="-105.05" font-family="Helvetica,sans-Serif" font-size="11.00">S4</text>
</g>
<!-- S1&#45;&gt;S4 -->
<g id="edge4" class="edge">
<title>S1&#45;&gt;S4</title>
<path fill="none" stroke="#5f6368" d="M164.86,-274C168.78,-245.21 172.83,-186.89 149.92,-145.5 148.04,-142.1 145.71,-138.85 143.13,-135.8"/>
<polygon fill="#5f6368" stroke="#5f6368" points="145.89,-133.62 136.44,-128.83 140.84,-138.47 145.89,-133.62"/>
<text xml:space="preserve" text-anchor="middle" x="169.85" y="-197.32" font-family="Helvetica,sans-Serif" font-size="9.00">c</text>
</g>
<!-- S2&#45;&gt;S1 -->
<g id="edge5" class="edge">
<title>S2&#45;&gt;S1</title>
<path fill="none" stroke="#5f6368" d="M86.53,-219.36C95.51,-230.41 107.76,-244.79 119.67,-256.5 123.11,-259.88 126.84,-263.29 130.61,-266.59"/>
<polygon fill="#5f6368" stroke="#5f6368" points="128.33,-269.24 138.22,-273.04 132.85,-263.9 128.33,-269.24"/>
<text xml:space="preserve" text-anchor="middle" x="122.29" y="-243.07" font-family="Helvetica,sans-Serif" font-size="9.00">a</text>
</g>
<!-- S2&#45;&gt;S3 -->
<g id="edge6" class="edge">
<title>S2&#45;&gt;S3</title>
<path fill="none" stroke="#5f6368" d="M48.47,-182.72C41.77,-177.42 34.75,-171.31 28.92,-165 5.48,-139.63 -6.42,-124.54 3.67,-91.5 9.54,-72.28 13.58,-66.98 28.92,-54 40.33,-44.34 54.84,-36.83 68.18,-31.29"/>
<polygon fill="#5f6368" stroke="#5f6368" points="69.08,-34.69 77.13,-27.81 66.55,-28.17 69.08,-34.69"/>
<text xml:space="preserve" text-anchor="middle" x="12.29" y="-110.7" font-family="Helvetica,sans-Serif" font-size="9.00">b [g]</text>
<text xml:space="preserve" text-anchor="middle" x="12.29" y="-100.95" font-family="Helvetica,sans-Serif" font-size="9.00">/ log</text>
</g>
<!-- S2&#45;&gt;S4 -->
<g id="edge7" class="edge">
<title>S2&#45;&gt;S4</title>
<path fill="none" stroke="#5f6368" d="M80.44,-182.74C85.94,-170.11 93.52,-152.72 99.87,-138.16"/>
<polygon fill="#5f6368" stroke="#5f6368" points="103.03,-139.66 103.82,-129.09 96.61,-136.86 103.03,-139.66"/>
<text xml:space="preserve" text-anchor="middle" x="104.54" y="-156.45" font-family="Helvetica,sans-Serif" font-size="9.00">c</text>
<text xml:space="preserve" text-anchor="middle" x="104.54" y="-146.7" font-family="Helvetica,sans-Serif" font-size="9.00">/ log</text>
</g>
<!-- S3&#45;&gt;S1 -->
<g id="edge8" class="edge">
<title>S3&#45;&gt;S1</title>
<path fill="none" stroke="#5f6368" d="M131.08,-36.42C137.65,-41.63 144.42,-47.66 149.92,-54 179.49,-88.08 184.76,-101.31 193.92,-145.5 217.96,-261.49 201.65,-242.38 195.92,-256.5 194.62,-259.69 192.88,-262.76 190.86,-265.65"/>
<polygon fill="#5f6368" stroke="#5f6368" points="188.38,-263.17 184.68,-273.1 193.76,-267.64 188.38,-263.17"/>
<text xml:space="preserve" text-anchor="middle" x="206.08" y="-156.45" font-family="Helvetica,sans-Serif" font-size="9.00">a</text>
<text xml:space="preserve" text-anchor="middle" x="206.08" y="-146.7" font-family="Helvetica,sans-Serif" font-size="9.00">/ log</text>
</g>
<!-- S3&#45;&gt;S2 -->
<g id="edge9" class="edge">
<title>S3&#45;&gt;S2</title>
<path fill="none" stroke="#5f6368" d="M94.7,-36.33C86.22,-50.52 75.28,-71.45 70.67,-91.5 64.53,-118.15 66.08,-149.45 68.57,-171.57"/>
<polygon fill="#5f6368" stroke="#5f6368" points="65.07,-171.84 69.81,-181.32 72.02,-170.96 65.07,-171.84"/>
<text xml:space="preserve" text-anchor="middle" x="73.29" y="-105.83" font-family="Helvetica,sans-Serif" font-size="9.00">b</text>
</g>
<!-- S3&#45;&gt;S4 -->
<g id="edge10" class="edge">
<title>S3&#45;&gt;S4</title>
<path fill="none" stroke="#5f6368" d="M107.07,-36.2C107.9,-48.57 109.04,-65.54 110,-79.92"/>
<polygon fill="#5f6368" stroke="#5f6368" points="106.5,-79.99 110.66,-89.73 113.48,-79.52 106.5,-79.99"/>
<text xml:space="preserve" text-anchor="middle" x="118.08" y="-64.95" font-family="Helvetica,sans-Serif" font-size="9.00">c [g]</text>
<text xml:space="preserve" text-anchor="middle" x="118.08" y="-55.2" font-family="Helvetica,sans-Serif" font-size="9.00">/ log</text>
</g>
<!-- S4&#45;&gt;S1 -->
<g id="edge11" class="edge">
<title>S4&#45;&gt;S1</title>
<path fill="none" stroke="#5f6368" d="M116.7,-127.8C125.35,-159.12 143.67,-225.45 154.15,-263.36"/>
<polygon fill="#5f6368" stroke="#5f6368" points="150.68,-263.98 156.72,-272.69 157.43,-262.12 150.68,-263.98"/>
<text xml:space="preserve" text-anchor="middle" x="150.51" y="-197.32" font-family="Helvetica,sans-Serif" font-size="9.00">a [g]</text>
</g>
<!-- S4&#45;&gt;S2 -->
<g id="edge12" class="edge">
<title>S4&#45;&gt;S2</title>
<path fill="none" stroke="#5f6368" d="M92.79,-127.9C88.12,-133.11 83.62,-139.15 80.67,-145.5 77,-153.39 74.96,-162.57 73.86,-171.11"/>
<polygon fill="#5f6368" stroke="#5f6368" points="70.37,-170.8 72.98,-181.07 77.34,-171.42 70.37,-170.8"/>
<text xml:space="preserve" text-anchor="middle" x="83.29" y="-151.57" font-family="Helvetica,sans-Serif" font-size="9.00">b</text>
</g>
<!-- S4&#45;&gt;S3 -->
<g id="edge13" class="edge">
<title>S4&#45;&gt;S3</title>
<path fill="none" stroke="#5f6368" d="M104.35,-91.01C102.33,-85.51 100.43,-79.35 99.42,-73.5 97.96,-65.08 98.32,-55.86 99.41,-47.45"/>
<polygon fill="#5f6368" stroke="#5f6368" points="102.83,-48.19 101.06,-37.74 95.93,-47.01 102.83,-48.19"/>
<text xml:space="preserve" text-anchor="middle" x="101.67" y="-60.08" font-family="Helvetica,sans-Serif" font-size="9.00">c</text>
</g>
</g>
</svg>
