<?xml version="1.0" encoding="UTF-8" standalone="no"?>
<!DOCTYPE svg PUBLIC "-//W3C//DTD SVG 1.1//EN"
 "http://www.w3.org/Graphics/SVG/1.1/DTD/svg11.dtd">
<!-- Generated by graphviz version 14.1.2 (20260124.0452)
 -->
<!-- Title: Spaghetti Pages: 1 -->
<svg width="512pt" height="652pt"
 viewBox="0.00 0.00 512.00 652.00" xmlns="http://www.w3.org/2000/svg" xmlns:xlink="http://www.w3.org/1999/xlink">
<g id="graph0" class="graph" transform="scale(1 1) rotate(0) translate(28.8 622.8)">
<title>Spaghetti</title>
<polygon fill="white" stroke="none" points="-28.8,28.8 -28.8,-622.8 482.8,-622.8 482.8,28.8 -28.8,28.8"/>
<!-- __init__ -->
<g id="node1" class="node">
<title>__init__</title>
<ellipse fill="#1a1a2e" stroke="black" cx="318" cy="-585" rx="9" ry="9"/>
</g>
<!-- S1 -->
<g id="node2" class="node">
<title>S1</title>
<path fill="#e8f0fe" stroke="#4285f4" d="M333,-540C333,-540 303,-540 303,-540 297,-540 291,-534 291,-528 291,-528 291,-516 291,-516 291,-510 297,-504 303,-504 303,-504 333,-504 333,-504 339,-504 345,-510 345,-516 345,-516 345,-528 345,-528 345,-534 339,-540 333,-540"/>
<text xml:space="preserve" text-anchor="middle" x="318" y="-517.55" font-family="Helvetica,sans-Serif" font-size="11.00" fill="#1a1a2e">S1</text>
</g>
<!-- __init__&#45;&gt;S1 -->
<g id="edge1" class="edge">
<title>__init__&#45;&gt;S1</title>
<path fill="none" stroke="#5f6368" d="M318,-575.52C318,-569.31 318,-560.49 318,-551.84"/>
<polygon fill="#5f6368" stroke="#5f6368" points="321.5,-551.94 318,-541.94 314.5,-551.94 321.5,-551.94"/>
</g>
<!-- __e0 -->
<g id="node6" class="node">
<title>__e0</title>
<text xml:space="preserve" text-anchor="start" x="141.38" y="-447.32" font-family="Helvetica,sans-Serif" font-weight="bold" font-size="9.00" fill="#1a1a2e">a</text>
<text xml:space="preserve" text-anchor="start" x="146.62" y="-447.32" font-family="Helvetica,sans-Serif" font-size="9.00" fill="#1a1a2e"> [ g ] / log</text>
</g>
<!-- S1&#45;&gt;__e0 -->
<g id="edge2" class="edge">
<title>S1&#45;&gt;__e0</title>
<path fill="none" stroke="#5f6368" d="M290.83,-508.81C262.72,-496.19 219.01,-476.58 190.44,-463.76"/>
</g>
<!-- __e1 -->
<g id="node7" class="node">
<title>__e1</title>
<text xml:space="preserve" text-anchor="start" x="270.62" y="-375.32" font-family="Helvetica,sans-Serif" font-weight="bold" font-size="9.00" fill="#1a1a2e">b</text>
<text xml:space="preserve" text-anchor="start" x="275.88" y="-375.32" font-family="Helvetica,sans-Serif" font-size="9.00" fill="#1a1a2e"> / log</text>
</g>
<!-- S1&#45;&gt;__e1 -->
<g id="edge4" class="edge">
<title>S1&#45;&gt;__e1</title>
<path fill="none" stroke="#5f6368" d="M313.71,-503.59C306.92,-476.04 293.78,-422.75 287.11,-395.67"/>
</g>
<!-- __e2 -->
<g id="node8" class="node">
<title>__e2</title>
<text xml:space="preserve" text-anchor="start" x="391.38" y="-231.32" font-family="Helvetica,sans-Serif" font-weight="bold" font-size="9.00" fill="#1a1a2e">c</text>
</g>
<!-- S1&#45;&gt;__e2 -->
<g id="edge6" class="edge">
<title>S1&#45;&gt;__e2</title>
<path fill="none" stroke="#5f6368" d="M331.5,-503.8C338.65,-493.86 346.96,-480.82 352,-468 382.21,-391.1 390.87,-291.32 393.2,-252"/>
</g>
<!-- S2 -->
<g id="node3" class="node">
<title>S2</title>
<path fill="#e8f0fe" stroke="#4285f4" d="M162,-396C162,-396 132,-396 132,-396 126,-396 120,-390 120,-384 120,-384 120,-372 120,-372 120,-366 126,-360 132,-360 132,-360 162,-360 162,-360 168,-360 174,-366 174,-372 174,-372 174,-384 174,-384 174,-390 168,-396 162,-396"/>
<text xml:space="preserve" text-anchor="middle" x="147" y="-373.55" font-family="Helvetica,sans-Serif" font-size="11.00" fill="#1a1a2e">S2</text>
</g>
<!-- __e3 -->
<g id="node9" class="node">
<title>__e3</title>
<text xml:space="preserve" text-anchor="start" x="24.38" y="-303.32" font-family="Helvetica,sans-Serif" font-weight="bold" font-size="9.00" fill="#1a1a2e">a</text>
</g>
<!-- S2&#45;&gt;__e3 -->
<g id="edge8" class="edge">
<title>S2&#45;&gt;__e3</title>
<path fill="none" stroke="#5f6368" d="M119.77,-361.12C99.99,-349.58 73.36,-334.05 53.71,-322.58"/>
</g>
<!-- __e4 -->
<g id="node10" class="node">
<title>__e4</title>
<text xml:space="preserve" text-anchor="start" x="204.38" y="-303.32" font-family="Helvetica,sans-Serif" font-weight="bold" font-size="9.00" fill="#1a1a2e">b</text>
<text xml:space="preserve" text-anchor="start" x="209.62" y="-303.32" font-family="Helvetica,sans-Serif" font-size="9.00" fill="#1a1a2e"> [ g ] / log</text>
</g>
<!-- S2&#45;&gt;__e4 -->
<g id="edge10" class="edge">
<title>S2&#45;&gt;__e4</title>
<path fill="none" stroke="#5f6368" d="M166.28,-359.7C178.46,-348.77 194.12,-334.71 206.21,-323.86"/>
</g>
<!-- __e5 -->
<g id="node11" class="node">
<title>__e5</title>
<text xml:space="preserve" text-anchor="start" x="169.62" y="-231.32" font-family="Helvetica,sans-Serif" font-weight="bold" font-size="9.00" fill="#1a1a2e">c</text>
<text xml:space="preserve" text-anchor="start" x="174.88" y="-231.32" font-family="Helvetica,sans-Serif" font-size="9.00" fill="#1a1a2e"> / log</text>
</g>
<!-- S2&#45;&gt;__e5 -->
<g id="edge12" class="edge">
<title>S2&#45;&gt;__e5</title>
<path fill="none" stroke="#5f6368" d="M151.29,-359.59C158.08,-332.04 171.22,-278.75 177.89,-251.67"/>
</g>
<!-- S3 -->
<g id="node4" class="node">
<title>S3</title>
<path fill="#e8f0fe" stroke="#4285f4" d="M284,-252C284,-252 254,-252 254,-252 248,-252 242,-246 242,-240 242,-240 242,-228 242,-228 242,-222 248,-216 254,-216 254,-216 284,-216 284,-216 290,-216 296,-222 296,-228 296,-228 296,-240 296,-240 296,-246 290,-252 284,-252"/>
<text xml:space="preserve" text-anchor="middle" x="269" y="-229.55" font-family="Helvetica,sans-Serif" font-size="11.00" fill="#1a1a2e">S3</text>
</g>
<!-- __e6 -->
<g id="node12" class="node">
<title>__e6</title>
<text xml:space="preserve" text-anchor="start" x="348.62" y="-159.32" font-family="Helvetica,sans-Serif" font-weight="bold" font-size="9.00" fill="#1a1a2e">a</text>
<text xml:space="preserve" text-anchor="start" x="353.88" y="-159.32" font-family="Helvetica,sans-Serif" font-size="9.00" fill="#1a1a2e"> / log</text>
</g>
<!-- S3&#45;&gt;__e6 -->
<g id="edge14" class="edge">
<title>S3&#45;&gt;__e6</title>
<path fill="none" stroke="#5f6368" d="M291.74,-215.7C306.11,-204.77 324.58,-190.71 338.84,-179.86"/>
</g>
<!-- __e7 -->
<g id="node13" class="node">
<title>__e7</title>
<text xml:space="preserve" text-anchor="start" x="172.38" y="-159.32" font-family="Helvetica,sans-Serif" font-weight="bold" font-size="9.00" fill="#1a1a2e">b</text>
</g>
<!-- S3&#45;&gt;__e7 -->
<g id="edge16" class="edge">
<title>S3&#45;&gt;__e7</title>
<path fill="none" stroke="#5f6368" d="M245.76,-215.7C231.08,-204.77 212.21,-190.71 197.64,-179.86"/>
</g>
<!-- __e8 -->
<g id="node14" class="node">
<title>__e8</title>
<text xml:space="preserve" text-anchor="start" x="266.38" y="-159.32" font-family="Helvetica,sans-Serif" font-weight="bold" font-size="9.00" fill="#1a1a2e">c</text>
<text xml:space="preserve" text-anchor="start" x="271.62" y="-159.32" font-family="Helvetica,sans-Serif" font-size="9.00" fill="#1a1a2e"> [ g ] / log</text>
</g>
<!-- S3&#45;&gt;__e8 -->
<g id="edge18" class="edge">
<title>S3&#45;&gt;__e8</title>
<path fill="none" stroke="#5f6368" d="M273.45,-215.7C276.28,-204.68 279.93,-190.5 282.73,-179.62"/>
</g>
<!-- S4 -->
<g id="node5" class="node">
<title>S4</title>
<path fill="#e8f0fe" stroke="#4285f4" d="M301,-108C301,-108 271,-108 271,-108 265,-108 259,-102 259,-96 259,-96 259,-84 259,-84 259,-78 265,-72 271,-72 271,-72 301,-72 301,-72 307,-72 313,-78 313,-84 313,-84 313,-96 313,-96 313,-102 307,-108 301,-108"/>
<text xml:space="preserve" text-anchor="middle" x="286" y="-85.55" font-family="Helvetica,sans-Serif" font-size="11.00" fill="#1a1a2e">S4</text>
</g>
<!-- __e9 -->
<g id="node15" class="node">
<title>__e9</title>
<text xml:space="preserve" text-anchor="start" x="395.12" y="-15.32" font-family="Helvetica,sans-Serif" font-weight="bold" font-size="9.00" fill="#1a1a2e">a</text>
<text xml:space="preserve" text-anchor="start" x="400.38" y="-15.32" font-family="Helvetica,sans-Serif" font-size="9.00" fill="#1a1a2e"> [ g ]</text>
</g>
<!-- S4&#45;&gt;__e9 -->
<g id="edge20" class="edge">
<title>S4&#45;&gt;__e9</title>
<path fill="none" stroke="#5f6368" d="M313.23,-73.12C333.01,-61.58 359.64,-46.05 379.29,-34.58"/>
</g>
<!-- __e10 -->
<g id="node16" class="node">
<title>__e10</title>
<text xml:space="preserve" text-anchor="start" x="145.38" y="-15.32" font-family="Helvetica,sans-Serif" font-weight="bold" font-size="9.00" fill="#1a1a2e">b</text>
</g>
<!-- S4&#45;&gt;__e10 -->
<g id="edge22" class="edge">
<title>S4&#45;&gt;__e10</title>
<path fill="none" stroke="#5f6368" d="M258.74,-75.17C234.39,-62.82 198.93,-44.83 174.74,-32.56"/>
</g>
<!-- __e11 -->
<g id="node17" class="node">
<title>__e11</title>
<text xml:space="preserve" text-anchor="start" x="255.38" y="-15.32" font-family="Helvetica,sans-Serif" font-weight="bold" font-size="9.00" fill="#1a1a2e">c</text>
</g>
<!-- S4&#45;&gt;__e11 -->
<g id="edge24" class="edge">
<title>S4&#45;&gt;__e11</title>
<path fill="none" stroke="#5f6368" d="M279.08,-71.7C274.67,-60.68 269,-46.5 264.65,-35.62"/>
</g>
<!-- __e0&#45;&gt;S2 -->
<g id="edge3" class="edge">
<title>__e0&#45;&gt;S2</title>
<path fill="none" stroke="#5f6368" d="M158.37,-432.05C156.79,-424.68 154.89,-415.84 153.11,-407.51"/>
<polygon fill="#5f6368" stroke="#5f6368" points="156.54,-406.8 151.02,-397.76 149.69,-408.27 156.54,-406.8"/>
</g>
<!-- __e1&#45;&gt;S3 -->
<g id="edge5" class="edge">
<title>__e1&#45;&gt;S3</title>
<path fill="none" stroke="#5f6368" d="M281.34,-360.15C278.99,-336.37 274.68,-292.62 271.83,-263.67"/>
<polygon fill="#5f6368" stroke="#5f6368" points="275.32,-263.38 270.85,-253.77 268.35,-264.07 275.32,-263.38"/>
</g>
<!-- __e2&#45;&gt;S4 -->
<g id="edge7" class="edge">
<title>__e2&#45;&gt;S4</title>
<path fill="none" stroke="#5f6368" d="M399.83,-216.13C405.3,-197.06 410.77,-165.84 397,-144 381.19,-118.94 349.91,-105.47 324.58,-98.4"/>
<polygon fill="#5f6368" stroke="#5f6368" points="325.45,-95.01 314.9,-95.95 323.73,-101.79 325.45,-95.01"/>
</g>
<!-- __e3&#45;&gt;S1 -->
<g id="edge9" class="edge">
<title>__e3&#45;&gt;S1</title>
<path fill="none" stroke="#5f6368" d="M32.34,-323.78C43.69,-356.67 73.38,-429.71 124,-468 169.97,-502.77 237.33,-514.74 279.37,-518.85"/>
<polygon fill="#5f6368" stroke="#5f6368" points="279.01,-522.33 289.27,-519.71 279.61,-515.36 279.01,-522.33"/>
</g>
<!-- __e4&#45;&gt;S3 -->
<g id="edge11" class="edge">
<title>__e4&#45;&gt;S3</title>
<path fill="none" stroke="#5f6368" d="M235.65,-288.05C240.6,-280.18 246.61,-270.62 252.16,-261.79"/>
<polygon fill="#5f6368" stroke="#5f6368" points="254.98,-263.89 257.34,-253.56 249.05,-260.16 254.98,-263.89"/>
</g>
<!-- __e5&#45;&gt;S4 -->
<g id="edge13" class="edge">
<title>__e5&#45;&gt;S4</title>
<path fill="none" stroke="#5f6368" d="M163.39,-216.04C145.29,-197.44 122.72,-167.17 139,-144 163.38,-109.3 212.8,-97.21 247.59,-93.06"/>
<polygon fill="#5f6368" stroke="#5f6368" points="247.66,-96.57 257.26,-92.09 246.96,-89.61 247.66,-96.57"/>
</g>
<!-- __e6&#45;&gt;S1 -->
<g id="edge15" class="edge">
<title>__e6&#45;&gt;S1</title>
<path fill="none" stroke="#5f6368" d="M356.46,-179.91C349.75,-206.37 338,-259.3 338,-305 338,-379 338,-379 338,-379 338,-418.65 330.26,-463.92 324.41,-492.47"/>
<polygon fill="#5f6368" stroke="#5f6368" points="321.01,-491.63 322.36,-502.14 327.86,-493.08 321.01,-491.63"/>
</g>
<!-- __e7&#45;&gt;S2 -->
<g id="edge17" class="edge">
<title>__e7&#45;&gt;S2</title>
<path fill="none" stroke="#5f6368" d="M162.99,-179.74C156.58,-189.74 149.33,-202.99 146,-216 134.46,-261.14 138.37,-315.76 142.51,-348.38"/>
<polygon fill="#5f6368" stroke="#5f6368" points="139.03,-348.8 143.86,-358.23 145.97,-347.85 139.03,-348.8"/>
</g>
<!-- __e8&#45;&gt;S4 -->
<g id="edge19" class="edge">
<title>__e8&#45;&gt;S4</title>
<path fill="none" stroke="#5f6368" d="M286.76,-144.05C286.65,-136.68 286.53,-127.84 286.41,-119.51"/>
<polygon fill="#5f6368" stroke="#5f6368" points="289.91,-119.74 286.27,-109.79 282.91,-119.84 289.91,-119.74"/>
</g>
<!-- __e9&#45;&gt;S1 -->
<g id="edge21" class="edge">
<title>__e9&#45;&gt;S1</title>
<path fill="none" stroke="#5f6368" d="M415.71,-35.86C429.74,-61.85 454,-113.64 454,-161 454,-379 454,-379 454,-379 454,-436.31 395.51,-479.52 355.24,-502.48"/>
<polygon fill="#5f6368" stroke="#5f6368" points="353.59,-499.39 346.52,-507.28 356.97,-505.53 353.59,-499.39"/>
</g>
<!-- __e10&#45;&gt;S2 -->
<g id="edge23" class="edge">
<title>__e10&#45;&gt;S2</title>
<path fill="none" stroke="#5f6368" d="M134.32,-35.75C114.99,-61.18 82,-111.79 82,-161 82,-235 82,-235 82,-235 82,-278.47 107.49,-323.18 126.55,-350.53"/>
<polygon fill="#5f6368" stroke="#5f6368" points="123.64,-352.49 132.33,-358.56 129.32,-348.4 123.64,-352.49"/>
</g>
<!-- __e11&#45;&gt;S3 -->
<g id="edge25" class="edge">
<title>__e11&#45;&gt;S3</title>
<path fill="none" stroke="#5f6368" d="M254.52,-35.62C248.94,-65 239.51,-127.95 249,-180 250.54,-188.42 253.34,-197.23 256.37,-205.21"/>
<polygon fill="#5f6368" stroke="#5f6368" points="253.1,-206.46 260.12,-214.39 259.58,-203.81 253.1,-206.46"/>
</g>
</g>
</svg>
