<?xml version="1.0" encoding="UTF-8" standalone="no"?>
<!DOCTYPE svg PUBLIC "-//W3C//DTD SVG 1.1//EN"
 "http://www.w3.org/Graphics/SVG/1.1/DTD/svg11.dtd">
<!-- Generated by graphviz version 14.1.2 (20260124.0452)
 -->
<!-- Title: Thermostat Pages: 1 -->
<svg width="690pt" height="435pt"
 viewBox="0.00 0.00 690.00 435.00" xmlns="http://www.w3.org/2000/svg" xmlns:xlink="http://www.w3.org/1999/xlink">
<g id="graph0" class="graph" transform="scale(1 1) rotate(0) translate(28.8 406.55)">
<title>Thermostat</title>
<polygon fill="white" stroke="none" points="-28.8,28.8 -28.8,-406.55 661.69,-406.55 661.69,28.8 -28.8,28.8"/>
<!-- __init__ -->
<g id="node1" class="node">
<title>__init__</title>
<ellipse fill="#1a1a2e" stroke="black" cx="249.6" cy="-368.75" rx="9" ry="9"/>
</g>
<!-- Idle -->
<g id="node2" class="node">
<title>Idle</title>
<path fill="#e8f0fe" stroke="#4285f4" d="M264.6,-314C264.6,-314 234.6,-314 234.6,-314 228.6,-314 222.6,-308 222.6,-302 222.6,-302 222.6,-290 222.6,-290 222.6,-284 228.6,-278 234.6,-278 234.6,-278 264.6,-278 264.6,-278 270.6,-278 276.6,-284 276.6,-290 276.6,-290 276.6,-302 276.6,-302 276.6,-308 270.6,-314 264.6,-314"/>
<text xml:space="preserve" text-anchor="middle" x="249.6" y="-291.55" font-family="Helvetica,sans-Serif" font-size="11.00">Idle</text>
</g>
<!-- __init__&#45;&gt;Idle -->
<g id="edge1" class="edge">
<title>__init__&#45;&gt;Idle</title>
<path fill="none" stroke="#5f6368" d="M249.6,-359.36C249.6,-350.98 249.6,-337.63 249.6,-325.43"/>
<polygon fill="#5f6368" stroke="#5f6368" points="253.1,-325.8 249.6,-315.8 246.1,-325.8 253.1,-325.8"/>
<text xml:space="preserve" text-anchor="middle" x="278.48" y="-333.2" font-family="Helvetica,sans-Serif" font-size="9.00">/ logTransition</text>
</g>
<!-- Heating -->
<g id="node3" class="node">
<title>Heating</title>
<path fill="#e8f0fe" stroke="#4285f4" d="M150.85,-222.5C150.85,-222.5 78.35,-222.5 78.35,-222.5 72.35,-222.5 66.35,-216.5 66.35,-210.5 66.35,-210.5 66.35,-196.75 66.35,-196.75 66.35,-190.75 72.35,-184.75 78.35,-184.75 78.35,-184.75 150.85,-184.75 150.85,-184.75 156.85,-184.75 162.85,-190.75 162.85,-196.75 162.85,-196.75 162.85,-210.5 162.85,-210.5 162.85,-216.5 156.85,-222.5 150.85,-222.5"/>
<text xml:space="preserve" text-anchor="start" x="94.35" y="-207.05" font-family="Helvetica,sans-Serif" font-weight="bold" font-size="11.00">Heating</text>
<text xml:space="preserve" text-anchor="start" x="76.35" y="-191.95" font-family="Helvetica,sans-Serif" font-size="9.00">entry / startHeating</text>
<polygon fill="#4285f4" stroke="#4285f4" points="74.35,-202.5 74.35,-202.5 154.85,-202.5 154.85,-202.5 74.35,-202.5"/>
</g>
<!-- Idle&#45;&gt;Heating -->
<g id="edge2" class="edge">
<title>Idle&#45;&gt;Heating</title>
<path fill="none" stroke="#5f6368" d="M222.12,-291.7C186.92,-286.84 128.91,-276.53 115.85,-260 110.21,-252.87 108.57,-243.45 108.74,-234.4"/>
<polygon fill="#5f6368" stroke="#5f6368" points="112.22,-234.75 109.68,-224.46 105.25,-234.09 112.22,-234.75"/>
<text xml:space="preserve" text-anchor="middle" x="171.73" y="-251.45" font-family="Helvetica,sans-Serif" font-size="9.00">tempReading [tooCold]</text>
<text xml:space="preserve" text-anchor="middle" x="171.73" y="-241.7" font-family="Helvetica,sans-Serif" font-size="9.00">/ startHeating, logTransition</text>
</g>
<!-- Cooling -->
<g id="node4" class="node">
<title>Cooling</title>
<path fill="#e8f0fe" stroke="#4285f4" d="M280.85,-129.25C280.85,-129.25 208.35,-129.25 208.35,-129.25 202.35,-129.25 196.35,-123.25 196.35,-117.25 196.35,-117.25 196.35,-103.5 196.35,-103.5 196.35,-97.5 202.35,-91.5 208.35,-91.5 208.35,-91.5 280.85,-91.5 280.85,-91.5 286.85,-91.5 292.85,-97.5 292.85,-103.5 292.85,-103.5 292.85,-117.25 292.85,-117.25 292.85,-123.25 286.85,-129.25 280.85,-129.25"/>
<text xml:space="preserve" text-anchor="start" x="223.98" y="-113.8" font-family="Helvetica,sans-Serif" font-weight="bold" font-size="11.00">Cooling</text>
<text xml:space="preserve" text-anchor="start" x="206.35" y="-98.7" font-family="Helvetica,sans-Serif" font-size="9.00">entry / startCooling</text>
<polygon fill="#4285f4" stroke="#4285f4" points="204.35,-109.25 204.35,-109.25 284.85,-109.25 284.85,-109.25 204.35,-109.25"/>
</g>
<!-- Idle&#45;&gt;Cooling -->
<g id="edge3" class="edge">
<title>Idle&#45;&gt;Cooling</title>
<path fill="none" stroke="#5f6368" d="M276.89,-290.44C297.51,-285.8 325.44,-276.81 344.6,-260 385.68,-223.97 427.41,-190.17 393.6,-147.25 382.37,-133 340.81,-123.75 304.43,-118.22"/>
<polygon fill="#5f6368" stroke="#5f6368" points="305.24,-114.8 294.84,-116.83 304.24,-121.73 305.24,-114.8"/>
<text xml:space="preserve" text-anchor="middle" x="461.39" y="-204.82" font-family="Helvetica,sans-Serif" font-size="9.00">tempReading [tooHot]</text>
<text xml:space="preserve" text-anchor="middle" x="461.39" y="-195.07" font-family="Helvetica,sans-Serif" font-size="9.00">/ startCooling, logTransition</text>
</g>
<!-- Off -->
<g id="node5" class="node">
<title>Off</title>
<path fill="#e8f0fe" stroke="#4285f4" d="M48.6,-36C48.6,-36 18.6,-36 18.6,-36 12.6,-36 6.6,-30 6.6,-24 6.6,-24 6.6,-12 6.6,-12 6.6,-6 12.6,0 18.6,0 18.6,0 48.6,0 48.6,0 54.6,0 60.6,-6 60.6,-12 60.6,-12 60.6,-24 60.6,-24 60.6,-30 54.6,-36 48.6,-36"/>
<text xml:space="preserve" text-anchor="middle" x="33.6" y="-13.55" font-family="Helvetica,sans-Serif" font-size="11.00">Off</text>
</g>
<!-- Idle&#45;&gt;Off -->
<g id="edge4" class="edge">
<title>Idle&#45;&gt;Off</title>
<path fill="none" stroke="#5f6368" d="M222.21,-292C192.12,-287.89 142.98,-278.78 104.6,-260 50.67,-233.61 28.52,-222.75 6.85,-166.75 -8.65,-126.69 6.88,-76.99 19.92,-46.66"/>
<polygon fill="#5f6368" stroke="#5f6368" points="23,-48.35 23.93,-37.79 16.62,-45.46 23,-48.35"/>
<text xml:space="preserve" text-anchor="middle" x="26.73" y="-153.32" font-family="Helvetica,sans-Serif" font-size="9.00">shutdown</text>
</g>
<!-- Heating&#45;&gt;Idle -->
<g id="edge6" class="edge">
<title>Heating&#45;&gt;Idle</title>
<path fill="none" stroke="#5f6368" d="M163.31,-210.52C185.24,-215.39 210.09,-224.27 227.6,-240.5 235.05,-247.4 240.03,-257.18 243.34,-266.54"/>
<polygon fill="#5f6368" stroke="#5f6368" points="239.97,-267.5 246.17,-276.1 246.69,-265.52 239.97,-267.5"/>
<text xml:space="preserve" text-anchor="middle" x="290.4" y="-251.45" font-family="Helvetica,sans-Serif" font-size="9.00">tempReading</text>
<text xml:space="preserve" text-anchor="middle" x="290.4" y="-241.7" font-family="Helvetica,sans-Serif" font-size="9.00">/ stopHvac, logTransition</text>
</g>
<!-- Heating&#45;&gt;Cooling -->
<g id="edge5" class="edge">
<title>Heating&#45;&gt;Cooling</title>
<path fill="none" stroke="#5f6368" d="M83.72,-184.27C69.56,-173.54 57.93,-159.69 68.1,-147.25 82.74,-129.34 139.42,-120.15 184.65,-115.58"/>
<polygon fill="#5f6368" stroke="#5f6368" points="184.74,-119.09 194.36,-114.66 184.08,-112.12 184.74,-119.09"/>
<text xml:space="preserve" text-anchor="middle" x="145.35" y="-158.2" font-family="Helvetica,sans-Serif" font-size="9.00">tempReading [tooHot]</text>
<text xml:space="preserve" text-anchor="middle" x="145.35" y="-148.45" font-family="Helvetica,sans-Serif" font-size="9.00">/ stopHvac, startCooling, logTransition</text>
</g>
<!-- Heating&#45;&gt;Off -->
<g id="edge7" class="edge">
<title>Heating&#45;&gt;Off</title>
<path fill="none" stroke="#5f6368" d="M78.2,-184.36C71.45,-179.48 65.12,-173.61 60.6,-166.75 36.79,-130.61 32.5,-79.23 32.44,-47.56"/>
<polygon fill="#5f6368" stroke="#5f6368" points="35.93,-47.63 32.57,-37.58 28.94,-47.53 35.93,-47.63"/>
<text xml:space="preserve" text-anchor="middle" x="64.4" y="-111.58" font-family="Helvetica,sans-Serif" font-size="9.00">shutdown</text>
<text xml:space="preserve" text-anchor="middle" x="64.4" y="-101.83" font-family="Helvetica,sans-Serif" font-size="9.00">/ stopHvac</text>
</g>
<!-- Cooling&#45;&gt;Idle -->
<g id="edge9" class="edge">
<title>Cooling&#45;&gt;Idle</title>
<path fill="none" stroke="#5f6368" d="M293.17,-116.87C365.33,-126.18 495.2,-147.75 521.6,-184.75 581.44,-268.62 377.05,-288.78 288.51,-293.55"/>
<polygon fill="#5f6368" stroke="#5f6368" points="288.4,-290.05 278.59,-294.04 288.75,-297.04 288.4,-290.05"/>
<text xml:space="preserve" text-anchor="middle" x="582.64" y="-204.82" font-family="Helvetica,sans-Serif" font-size="9.00">tempReading</text>
<text xml:space="preserve" text-anchor="middle" x="582.64" y="-195.07" font-family="Helvetica,sans-Serif" font-size="9.00">/ stopHvac, logTransition</text>
</g>
<!-- Cooling&#45;&gt;Heating -->
<g id="edge8" class="edge">
<title>Cooling&#45;&gt;Heating</title>
<path fill="none" stroke="#5f6368" d="M241.5,-129.58C238.56,-141.62 232.98,-156.95 222.6,-166.75 209.22,-179.39 191.27,-187.58 173.86,-192.88"/>
<polygon fill="#5f6368" stroke="#5f6368" points="173.3,-189.41 164.59,-195.43 175.16,-196.16 173.3,-189.41"/>
<text xml:space="preserve" text-anchor="middle" x="312.44" y="-158.2" font-family="Helvetica,sans-Serif" font-size="9.00">tempReading [tooCold]</text>
<text xml:space="preserve" text-anchor="middle" x="312.44" y="-148.45" font-family="Helvetica,sans-Serif" font-size="9.00">/ stopHvac, startHeating, logTransition</text>
</g>
<!-- Cooling&#45;&gt;Off -->
<g id="edge10" class="edge">
<title>Cooling&#45;&gt;Off</title>
<path fill="none" stroke="#5f6368" d="M201.9,-91.09C163.54,-74.66 107.77,-50.77 71.09,-35.06"/>
<polygon fill="#5f6368" stroke="#5f6368" points="72.79,-31.98 62.22,-31.26 70.03,-38.41 72.79,-31.98"/>
<text xml:space="preserve" text-anchor="middle" x="179.37" y="-64.95" font-family="Helvetica,sans-Serif" font-size="9.00">shutdown</text>
<text xml:space="preserve" text-anchor="middle" x="179.37" y="-55.2" font-family="Helvetica,sans-Serif" font-size="9.00">/ stopHvac</text>
</g>
</g>
</svg>
