<?xml version="1.0" encoding="UTF-8" standalone="no"?>
<!DOCTYPE svg PUBLIC "-//W3C//DTD SVG 1.1//EN"
 "http://www.w3.org/Graphics/SVG/1.1/DTD/svg11.dtd">
<!-- Generated by graphviz version 14.1.2 (20260124.0452)
 -->
<!-- Title: Thermostat Pages: 1 -->
<svg width="788pt" height="687pt"
 viewBox="0.00 0.00 788.00 687.00" xmlns="http://www.w3.org/2000/svg" xmlns:xlink="http://www.w3.org/1999/xlink">
<g id="graph0" class="graph" transform="scale(1 1) rotate(0) translate(28.8 658.3)">
<title>Thermostat</title>
<polygon fill="white" stroke="none" points="-28.8,28.8 -28.8,-658.3 759.3,-658.3 759.3,28.8 -28.8,28.8"/>
<!-- __init__ -->
<g id="node1" class="node">
<title>__init__</title>
<ellipse fill="#1a1a2e" stroke="black" cx="453.88" cy="-620.5" rx="9" ry="9"/>
</g>
<!-- __e0 -->
<g id="node6" class="node">
<title>__e0</title>
<text xml:space="preserve" text-anchor="start" x="425" y="-553.83" font-family="Helvetica,sans-Serif" font-size="9.00" fill="#1a1a2e">/ logTransition</text>
</g>
<!-- __init__&#45;&gt;__e0 -->
<g id="edge1" class="edge">
<title>__init__&#45;&gt;__e0</title>
<path fill="none" stroke="#5f6368" d="M453.88,-611.02C453.88,-601.85 453.88,-587 453.88,-575.43"/>
</g>
<!-- Idle -->
<g id="node2" class="node">
<title>Idle</title>
<path fill="#e8f0fe" stroke="#4285f4" d="M468.88,-503.5C468.88,-503.5 438.88,-503.5 438.88,-503.5 432.88,-503.5 426.88,-497.5 426.88,-491.5 426.88,-491.5 426.88,-479.5 426.88,-479.5 426.88,-473.5 432.88,-467.5 438.88,-467.5 438.88,-467.5 468.88,-467.5 468.88,-467.5 474.88,-467.5 480.88,-473.5 480.88,-479.5 480.88,-479.5 480.88,-491.5 480.88,-491.5 480.88,-497.5 474.88,-503.5 468.88,-503.5"/>
<text xml:space="preserve" text-anchor="middle" x="453.88" y="-481.05" font-family="Helvetica,sans-Serif" font-size="11.00" fill="#1a1a2e">Idle</text>
</g>
<!-- __e1 -->
<g id="node7" class="node">
<title>__e1</title>
<text xml:space="preserve" text-anchor="start" x="346.62" y="-410.82" font-family="Helvetica,sans-Serif" font-weight="bold" font-size="9.00" fill="#1a1a2e">tempReading</text>
<text xml:space="preserve" text-anchor="start" x="403.62" y="-410.82" font-family="Helvetica,sans-Serif" font-size="9.00" fill="#1a1a2e"> [ tooCold ] / startHeating, logTransition</text>
</g>
<!-- Idle&#45;&gt;__e1 -->
<g id="edge3" class="edge">
<title>Idle&#45;&gt;__e1</title>
<path fill="none" stroke="#5f6368" d="M453.88,-467.2C453.88,-456.18 453.88,-442 453.88,-431.12"/>
</g>
<!-- __e2 -->
<g id="node8" class="node">
<title>__e2</title>
<text xml:space="preserve" text-anchor="start" x="144.25" y="-329.95" font-family="Helvetica,sans-Serif" font-weight="bold" font-size="9.00" fill="#1a1a2e">tempReading</text>
<text xml:space="preserve" text-anchor="start" x="201.25" y="-329.95" font-family="Helvetica,sans-Serif" font-size="9.00" fill="#1a1a2e"> [ tooHot ] / startCooling, logTransition</text>
</g>
<!-- Idle&#45;&gt;__e2 -->
<g id="edge5" class="edge">
<title>Idle&#45;&gt;__e2</title>
<path fill="none" stroke="#5f6368" d="M426.55,-476.96C400.05,-468.74 359.6,-453.71 329.88,-431.5 299.31,-408.66 273.06,-371.99 259.26,-350.62"/>
</g>
<!-- __e3 -->
<g id="node9" class="node">
<title>__e3</title>
<text xml:space="preserve" text-anchor="start" x="681.25" y="-168.2" font-family="Helvetica,sans-Serif" font-weight="bold" font-size="9.00" fill="#1a1a2e">shutdown</text>
</g>
<!-- Idle&#45;&gt;__e3 -->
<g id="edge7" class="edge">
<title>Idle&#45;&gt;__e3</title>
<path fill="none" stroke="#5f6368" d="M481.19,-480.22C512.88,-474.09 565.31,-460.22 600.88,-431.5 666.81,-378.25 678.53,-351.22 701.88,-269.75 709.79,-242.14 707.25,-208.33 704.62,-188.54"/>
</g>
<!-- Heating -->
<g id="node3" class="node">
<title>Heating</title>
<path fill="#e8f0fe" stroke="#4285f4" d="M493.25,-359.5C493.25,-359.5 414.5,-359.5 414.5,-359.5 408.5,-359.5 402.5,-353.5 402.5,-347.5 402.5,-347.5 402.5,-317.75 402.5,-317.75 402.5,-311.75 408.5,-305.75 414.5,-305.75 414.5,-305.75 493.25,-305.75 493.25,-305.75 499.25,-305.75 505.25,-311.75 505.25,-317.75 505.25,-317.75 505.25,-347.5 505.25,-347.5 505.25,-353.5 499.25,-359.5 493.25,-359.5"/>
<text xml:space="preserve" text-anchor="start" x="435.12" y="-341.05" font-family="Helvetica,sans-Serif" font-size="11.00" fill="#1a1a2e">Heating</text>
<text xml:space="preserve" text-anchor="start" x="414.5" y="-315.95" font-family="Helvetica,sans-Serif" font-weight="bold" font-size="9.00" fill="#1a1a2e">entry</text>
<text xml:space="preserve" text-anchor="start" x="437" y="-315.95" font-family="Helvetica,sans-Serif" font-size="9.00" fill="#1a1a2e"> / startHeating</text>
<polygon fill="#4285f4" stroke="#4285f4" points="410.5,-327.5 410.5,-327.5 497.25,-327.5 497.25,-327.5 410.5,-327.5"/>
</g>
<!-- __e4 -->
<g id="node10" class="node">
<title>__e4</title>
<text xml:space="preserve" text-anchor="start" x="162.88" y="-249.07" font-family="Helvetica,sans-Serif" font-weight="bold" font-size="9.00" fill="#1a1a2e">tempReading</text>
<text xml:space="preserve" text-anchor="start" x="219.88" y="-249.07" font-family="Helvetica,sans-Serif" font-size="9.00" fill="#1a1a2e"> [ tooHot ] / stopHvac, startCooling, logTransition</text>
</g>
<!-- Heating&#45;&gt;__e4 -->
<g id="edge9" class="edge">
<title>Heating&#45;&gt;__e4</title>
<path fill="none" stroke="#5f6368" d="M402.12,-306.88C376.79,-294.78 346.95,-280.51 324.26,-269.67"/>
</g>
<!-- __e5 -->
<g id="node11" class="node">
<title>__e5</title>
<text xml:space="preserve" text-anchor="start" x="525" y="-249.07" font-family="Helvetica,sans-Serif" font-weight="bold" font-size="9.00" fill="#1a1a2e">tempReading</text>
<text xml:space="preserve" text-anchor="start" x="582" y="-249.07" font-family="Helvetica,sans-Serif" font-size="9.00" fill="#1a1a2e"> / stopHvac, logTransition</text>
</g>
<!-- Heating&#45;&gt;__e5 -->
<g id="edge11" class="edge">
<title>Heating&#45;&gt;__e5</title>
<path fill="none" stroke="#5f6368" d="M504.16,-305.36C526.63,-293.62 552.48,-280.12 572.36,-269.73"/>
</g>
<!-- __e6 -->
<g id="node12" class="node">
<title>__e6</title>
<text xml:space="preserve" text-anchor="start" x="532.75" y="-168.2" font-family="Helvetica,sans-Serif" font-weight="bold" font-size="9.00" fill="#1a1a2e">shutdown</text>
<text xml:space="preserve" text-anchor="start" x="574" y="-168.2" font-family="Helvetica,sans-Serif" font-size="9.00" fill="#1a1a2e"> / stopHvac</text>
</g>
<!-- Heating&#45;&gt;__e6 -->
<g id="edge13" class="edge">
<title>Heating&#45;&gt;__e6</title>
<path fill="none" stroke="#5f6368" d="M465.49,-305.26C475.22,-284.7 490.32,-255.99 507.88,-233.75 521.33,-216.71 539.68,-200.31 553.93,-188.69"/>
</g>
<!-- Cooling -->
<g id="node4" class="node">
<title>Cooling</title>
<path fill="#e8f0fe" stroke="#4285f4" d="M284.25,-197.75C284.25,-197.75 205.5,-197.75 205.5,-197.75 199.5,-197.75 193.5,-191.75 193.5,-185.75 193.5,-185.75 193.5,-156 193.5,-156 193.5,-150 199.5,-144 205.5,-144 205.5,-144 284.25,-144 284.25,-144 290.25,-144 296.25,-150 296.25,-156 296.25,-156 296.25,-185.75 296.25,-185.75 296.25,-191.75 290.25,-197.75 284.25,-197.75"/>
<text xml:space="preserve" text-anchor="start" x="226.5" y="-179.3" font-family="Helvetica,sans-Serif" font-size="11.00" fill="#1a1a2e">Cooling</text>
<text xml:space="preserve" text-anchor="start" x="205.5" y="-154.2" font-family="Helvetica,sans-Serif" font-weight="bold" font-size="9.00" fill="#1a1a2e">entry</text>
<text xml:space="preserve" text-anchor="start" x="228" y="-154.2" font-family="Helvetica,sans-Serif" font-size="9.00" fill="#1a1a2e"> / startCooling</text>
<polygon fill="#4285f4" stroke="#4285f4" points="201.5,-165.75 201.5,-165.75 288.25,-165.75 288.25,-165.75 201.5,-165.75"/>
</g>
<!-- __e7 -->
<g id="node13" class="node">
<title>__e7</title>
<text xml:space="preserve" text-anchor="start" x="322.25" y="-87.33" font-family="Helvetica,sans-Serif" font-weight="bold" font-size="9.00" fill="#1a1a2e">tempReading</text>
<text xml:space="preserve" text-anchor="start" x="379.25" y="-87.33" font-family="Helvetica,sans-Serif" font-size="9.00" fill="#1a1a2e"> [ tooCold ] / stopHvac, startHeating, logTransition</text>
</g>
<!-- Cooling&#45;&gt;__e7 -->
<g id="edge15" class="edge">
<title>Cooling&#45;&gt;__e7</title>
<path fill="none" stroke="#5f6368" d="M296.59,-150.07C330.56,-137.07 374.52,-120.24 406.82,-107.87"/>
</g>
<!-- __e8 -->
<g id="node14" class="node">
<title>__e8</title>
<text xml:space="preserve" text-anchor="start" x="8" y="-87.33" font-family="Helvetica,sans-Serif" font-weight="bold" font-size="9.00" fill="#1a1a2e">tempReading</text>
<text xml:space="preserve" text-anchor="start" x="65" y="-87.33" font-family="Helvetica,sans-Serif" font-size="9.00" fill="#1a1a2e"> / stopHvac, logTransition</text>
</g>
<!-- Cooling&#45;&gt;__e8 -->
<g id="edge17" class="edge">
<title>Cooling&#45;&gt;__e8</title>
<path fill="none" stroke="#5f6368" d="M193.03,-143.83C169.45,-131.98 142.23,-118.31 121.39,-107.84"/>
</g>
<!-- __e9 -->
<g id="node15" class="node">
<title>__e9</title>
<text xml:space="preserve" text-anchor="start" x="201.75" y="-87.33" font-family="Helvetica,sans-Serif" font-weight="bold" font-size="9.00" fill="#1a1a2e">shutdown</text>
<text xml:space="preserve" text-anchor="start" x="243" y="-87.33" font-family="Helvetica,sans-Serif" font-size="9.00" fill="#1a1a2e"> / stopHvac</text>
</g>
<!-- Cooling&#45;&gt;__e9 -->
<g id="edge19" class="edge">
<title>Cooling&#45;&gt;__e9</title>
<path fill="none" stroke="#5f6368" d="M244.88,-143.61C244.88,-131.78 244.88,-118.16 244.88,-107.75"/>
</g>
<!-- Off -->
<g id="node5" class="node">
<title>Off</title>
<path fill="#e8f0fe" stroke="#4285f4" d="M630.88,-36C630.88,-36 600.88,-36 600.88,-36 594.88,-36 588.88,-30 588.88,-24 588.88,-24 588.88,-12 588.88,-12 588.88,-6 594.88,0 600.88,0 600.88,0 630.88,0 630.88,0 636.88,0 642.88,-6 642.88,-12 642.88,-12 642.88,-24 642.88,-24 642.88,-30 636.88,-36 630.88,-36"/>
<text xml:space="preserve" text-anchor="middle" x="615.88" y="-13.55" font-family="Helvetica,sans-Serif" font-size="11.00" fill="#1a1a2e">Off</text>
</g>
<!-- __e0&#45;&gt;Idle -->
<g id="edge2" class="edge">
<title>__e0&#45;&gt;Idle</title>
<path fill="none" stroke="#5f6368" d="M453.88,-539.55C453.88,-532.18 453.88,-523.34 453.88,-515.01"/>
<polygon fill="#5f6368" stroke="#5f6368" points="457.38,-515.29 453.88,-505.29 450.38,-515.29 457.38,-515.29"/>
</g>
<!-- __e1&#45;&gt;Heating -->
<g id="edge4" class="edge">
<title>__e1&#45;&gt;Heating</title>
<path fill="none" stroke="#5f6368" d="M453.88,-395.77C453.88,-388.62 453.88,-379.96 453.88,-371.4"/>
<polygon fill="#5f6368" stroke="#5f6368" points="457.38,-371.46 453.88,-361.46 450.38,-371.46 457.38,-371.46"/>
</g>
<!-- __e2&#45;&gt;Cooling -->
<g id="edge6" class="edge">
<title>__e2&#45;&gt;Cooling</title>
<path fill="none" stroke="#5f6368" d="M199.77,-314.74C179.29,-304.98 157.59,-290.45 145.88,-269.75 138,-255.82 138.12,-247.74 145.88,-233.75 154.38,-218.41 168.45,-206.37 183.35,-197.15"/>
<polygon fill="#5f6368" stroke="#5f6368" points="184.96,-200.26 191.89,-192.25 181.48,-194.19 184.96,-200.26"/>
</g>
<!-- __e3&#45;&gt;Off -->
<g id="edge8" class="edge">
<title>__e3&#45;&gt;Off</title>
<path fill="none" stroke="#5f6368" d="M692.34,-153.15C677.57,-127.23 649,-77.12 631.27,-46.02"/>
<polygon fill="#5f6368" stroke="#5f6368" points="634.46,-44.53 626.46,-37.58 628.38,-48 634.46,-44.53"/>
</g>
<!-- __e4&#45;&gt;Cooling -->
<g id="edge10" class="edge">
<title>__e4&#45;&gt;Cooling</title>
<path fill="none" stroke="#5f6368" d="M279.54,-234.02C275.33,-226.47 270.17,-217.22 265.14,-208.2"/>
<polygon fill="#5f6368" stroke="#5f6368" points="268.23,-206.55 260.3,-199.52 262.11,-209.96 268.23,-206.55"/>
</g>
<!-- __e5&#45;&gt;Idle -->
<g id="edge12" class="edge">
<title>__e5&#45;&gt;Idle</title>
<path fill="none" stroke="#5f6368" d="M607.32,-269.59C611.34,-303.91 615.51,-382.84 577.88,-431.5 557.23,-458.19 520.52,-471.63 492.38,-478.27"/>
<polygon fill="#5f6368" stroke="#5f6368" points="491.83,-474.81 482.79,-480.33 493.3,-481.66 491.83,-474.81"/>
</g>
<!-- __e6&#45;&gt;Off -->
<g id="edge14" class="edge">
<title>__e6&#45;&gt;Off</title>
<path fill="none" stroke="#5f6368" d="M582.21,-152.97C586.69,-140.63 592.63,-123.42 596.88,-108 602.4,-87.95 607.26,-64.99 610.69,-47.41"/>
<polygon fill="#5f6368" stroke="#5f6368" points="614.11,-48.17 612.54,-37.69 607.23,-46.86 614.11,-48.17"/>
</g>
<!-- __e7&#45;&gt;Heating -->
<g id="edge16" class="edge">
<title>__e7&#45;&gt;Heating</title>
<path fill="none" stroke="#5f6368" d="M451.08,-107.79C451.56,-146.17 452.75,-241.04 453.41,-294.13"/>
<polygon fill="#5f6368" stroke="#5f6368" points="449.9,-293.95 453.53,-303.9 456.9,-293.86 449.9,-293.95"/>
</g>
<!-- __e8&#45;&gt;Idle -->
<g id="edge18" class="edge">
<title>__e8&#45;&gt;Idle</title>
<path fill="none" stroke="#5f6368" d="M88.05,-107.79C88.34,-136.9 88.88,-198.61 88.88,-250.75 88.88,-333.62 88.88,-333.62 88.88,-333.62 88.88,-403.66 321.25,-457.99 415.18,-477.08"/>
<polygon fill="#5f6368" stroke="#5f6368" points="414.46,-480.51 424.96,-479.04 415.84,-473.65 414.46,-480.51"/>
</g>
<!-- __e9&#45;&gt;Off -->
<g id="edge20" class="edge">
<title>__e9&#45;&gt;Off</title>
<path fill="none" stroke="#5f6368" d="M295.84,-74.16C298.89,-73.39 301.92,-72.67 304.88,-72 402.08,-50.01 518.23,-32.5 577.28,-24.22"/>
<polygon fill="#5f6368" stroke="#5f6368" points="577.72,-27.69 587.14,-22.85 576.76,-20.76 577.72,-27.69"/>
</g>
</g>
</svg>
