<?xml version="1.0" encoding="UTF-8" standalone="no"?>
<!DOCTYPE svg PUBLIC "-//W3C//DTD SVG 1.1//EN"
 "http://www.w3.org/Graphics/SVG/1.1/DTD/svg11.dtd">
<!-- Generated by graphviz version 14.1.2 (20260124.0452)
 -->
<!-- Title: Toggle Pages: 1 -->
<svg width="139pt" height="364pt"
 viewBox="0.00 0.00 139.00 364.00" xmlns="http://www.w3.org/2000/svg" xmlns:xlink="http://www.w3.org/1999/xlink">
<g id="graph0" class="graph" transform="scale(1 1) rotate(0) translate(28.8 334.8)">
<title>Toggle</title>
<polygon fill="white" stroke="none" points="-28.8,28.8 -28.8,-334.8 109.8,-334.8 109.8,28.8 -28.8,28.8"/>
<!-- __init__ -->
<g id="node1" class="node">
<title>__init__</title>
<ellipse fill="#1a1a2e" stroke="black" cx="54" cy="-297" rx="9" ry="9"/>
</g>
<!-- Off -->
<g id="node2" class="node">
<title>Off</title>
<path fill="#e8f0fe" stroke="#4285f4" d="M69,-252C69,-252 39,-252 39,-252 33,-252 27,-246 27,-240 27,-240 27,-228 27,-228 27,-222 33,-216 39,-216 39,-216 69,-216 69,-216 75,-216 81,-222 81,-228 81,-228 81,-240 81,-240 81,-246 75,-252 69,-252"/>
<text xml:space="preserve" text-anchor="middle" x="54" y="-229.55" font-family="Helvetica,sans-Serif" font-size="11.00" fill="#1a1a2e">Off</text>
</g>
<!-- __init__&#45;&gt;Off -->
<g id="edge1" class="edge">
<title>__init__&#45;&gt;Off</title>
<path fill="none" stroke="#5f6368" d="M54,-287.52C54,-281.31 54,-272.49 54,-263.84"/>
<polygon fill="#5f6368" stroke="#5f6368" points="57.5,-263.94 54,-253.94 50.5,-263.94 57.5,-263.94"/>
</g>
<!-- __e0 -->
<g id="node4" class="node">
<title>__e0</title>
<text xml:space="preserve" text-anchor="start" x="20.62" y="-159.32" font-family="Helvetica,sans-Serif" font-weight="bold" font-size="9.00" fill="#1a1a2e">flip</text>
</g>
<!-- Off&#45;&gt;__e0 -->
<g id="edge2" class="edge">
<title>Off&#45;&gt;__e0</title>
<path fill="none" stroke="#5f6368" d="M47.33,-215.7C43.08,-204.68 37.61,-190.5 33.41,-179.62"/>
</g>
<!-- On -->
<g id="node3" class="node">
<title>On</title>
<path fill="#e8f0fe" stroke="#4285f4" d="M42,-108C42,-108 12,-108 12,-108 6,-108 0,-102 0,-96 0,-96 0,-84 0,-84 0,-78 6,-72 12,-72 12,-72 42,-72 42,-72 48,-72 54,-78 54,-84 54,-84 54,-96 54,-96 54,-102 48,-108 42,-108"/>
<text xml:space="preserve" text-anchor="middle" x="27" y="-85.55" font-family="Helvetica,sans-Serif" font-size="11.00" fill="#1a1a2e">On</text>
</g>
<!-- __e1 -->
<g id="node5" class="node">
<title>__e1</title>
<text xml:space="preserve" text-anchor="start" x="47.62" y="-15.32" font-family="Helvetica,sans-Serif" font-weight="bold" font-size="9.00" fill="#1a1a2e">flip</text>
</g>
<!-- On&#45;&gt;__e1 -->
<g id="edge4" class="edge">
<title>On&#45;&gt;__e1</title>
<path fill="none" stroke="#5f6368" d="M33.67,-71.7C37.92,-60.68 43.39,-46.5 47.59,-35.62"/>
</g>
<!-- __e0&#45;&gt;On -->
<g id="edge3" class="edge">
<title>__e0&#45;&gt;On</title>
<path fill="none" stroke="#5f6368" d="M27,-144.05C27,-136.68 27,-127.84 27,-119.51"/>
<polygon fill="#5f6368" stroke="#5f6368" points="30.5,-119.79 27,-109.79 23.5,-119.79 30.5,-119.79"/>
</g>
<!-- __e1&#45;&gt;Off -->
<g id="edge5" class="edge">
<title>__e1&#45;&gt;Off</title>
<path fill="none" stroke="#5f6368" d="M57.56,-35.62C59.6,-46.02 61.97,-59.72 63,-72 67.03,-119.83 67.03,-132.17 63,-180 62.32,-188.03 61.08,-196.67 59.73,-204.6"/>
<polygon fill="#5f6368" stroke="#5f6368" points="56.29,-203.95 57.93,-214.42 63.17,-205.21 56.29,-203.95"/>
</g>
</g>
</svg>
