<?xml version="1.0" encoding="UTF-8" standalone="no"?>
<!DOCTYPE svg PUBLIC "-//W3C//DTD SVG 1.1//EN"
 "http://www.w3.org/Graphics/SVG/1.1/DTD/svg11.dtd">
<!-- Generated by graphviz version 14.1.2 (20260124.0452)
 -->
<!-- Title: DnsStack Pages: 1 -->
<svg width="318pt" height="104pt"
 viewBox="0.00 0.00 318.00 104.00" xmlns="http://www.w3.org/2000/svg" xmlns:xlink="http://www.w3.org/1999/xlink">
<g id="graph0" class="graph" transform="scale(1 1) rotate(0) translate(28.8 75.3)">
<title>DnsStack</title>
<polygon fill="white" stroke="none" points="-28.8,28.8 -28.8,-75.3 289.05,-75.3 289.05,28.8 -28.8,28.8"/>
<!-- dns_client -->
<g id="node1" class="node">
<title>dns_client</title>
<path fill="#6baaaf" stroke="none" d="M12,0C12,0 99.25,0 99.25,0 105.25,0 111.25,-6 111.25,-12 111.25,-12 111.25,-34.5 111.25,-34.5 111.25,-40.5 105.25,-46.5 99.25,-46.5 99.25,-46.5 12,-46.5 12,-46.5 6,-46.5 0,-40.5 0,-34.5 0,-34.5 0,-12 0,-12 0,-6 6,0 12,0"/>
<polygon fill="#5b9aa0" stroke="none" points="1,-25.5 1,-45.5 110.25,-45.5 110.25,-25.5 1,-25.5"/>
<text xml:space="preserve" text-anchor="start" x="5" y="-32.05" font-family="Helvetica,sans-Serif" font-weight="bold" font-size="11.00" fill="white">dns_client</text>
<text xml:space="preserve" text-anchor="start" x="21" y="-9.38" font-family="Helvetica,sans-Serif" font-size="10.00" fill="white">happy_eyeballs</text>
<text xml:space="preserve" text-anchor="start" x="96.5" y="-6.3" font-family="Helvetica,sans-Serif" font-size="16.00" fill="#3d6f74">●</text>
<path fill="none" stroke="#4a8a90" d="M12,0C12,0 99.25,0 99.25,0 105.25,0 111.25,-6 111.25,-12 111.25,-12 111.25,-34.5 111.25,-34.5 111.25,-40.5 105.25,-46.5 99.25,-46.5 99.25,-46.5 12,-46.5 12,-46.5 6,-46.5 0,-40.5 0,-34.5 0,-34.5 0,-12 0,-12 0,-6 6,0 12,0"/>
</g>
<!-- happy_eyeballs -->
<g id="node2" class="node">
<title>happy_eyeballs</title>
<path fill="#6baaaf" stroke="none" d="M181.25,0C181.25,0 248.25,0 248.25,0 254.25,0 260.25,-6 260.25,-12 260.25,-12 260.25,-34.5 260.25,-34.5 260.25,-40.5 254.25,-46.5 248.25,-46.5 248.25,-46.5 181.25,-46.5 181.25,-46.5 175.25,-46.5 169.25,-40.5 169.25,-34.5 169.25,-34.5 169.25,-12 169.25,-12 169.25,-6 175.25,0 181.25,0"/>
<polygon fill="#5b9aa0" stroke="none" points="170.25,-25.5 170.25,-45.5 259.25,-45.5 259.25,-25.5 170.25,-25.5"/>
<text xml:space="preserve" text-anchor="start" x="174.25" y="-32.05" font-family="Helvetica,sans-Serif" font-weight="bold" font-size="11.00" fill="white">happy_eyeballs</text>
<text xml:space="preserve" text-anchor="start" x="176.22" y="-6.3" font-family="Helvetica,sans-Serif" font-size="16.00" fill="#3d6f74">●</text>
<text xml:space="preserve" text-anchor="start" x="195.94" y="-9.38" font-family="Helvetica,sans-Serif" font-size="10.00" fill="white">provide</text>
<path fill="none" stroke="#4a8a90" d="M181.25,0C181.25,0 248.25,0 248.25,0 254.25,0 260.25,-6 260.25,-12 260.25,-12 260.25,-34.5 260.25,-34.5 260.25,-40.5 254.25,-46.5 248.25,-46.5 248.25,-46.5 181.25,-46.5 181.25,-46.5 175.25,-46.5 169.25,-40.5 169.25,-34.5 169.25,-34.5 169.25,-12 169.25,-12 169.25,-6 175.25,0 181.25,0"/>
</g>
<!-- dns_client&#45;&gt;happy_eyeballs -->
<g id="edge1" class="edge">
<title>dns_client:happy_eyeballs_out&#45;&gt;happy_eyeballs:provide_in</title>
<path fill="none" stroke="#4a8a90" d="M111.25,-13.25C134.01,-13.25 141.7,-13.25 160.92,-13.25"/>
<polygon fill="#4a8a90" stroke="#4a8a90" points="160.74,-15.7 167.74,-13.25 160.74,-10.8 160.74,-15.7"/>
</g>
</g>
</svg>
