<?xml version="1.0" encoding="UTF-8" standalone="no"?>
<!DOCTYPE svg PUBLIC "-//W3C//DTD SVG 1.1//EN"
 "http://www.w3.org/Graphics/SVG/1.1/DTD/svg11.dtd">
<!-- Generated by graphviz version 14.1.2 (20260124.0452)
 -->
<!-- Title: FatWebsite Pages: 1 -->
<svg width="1460pt" height="643pt"
 viewBox="0.00 0.00 1460.00 643.00" xmlns="http://www.w3.org/2000/svg" xmlns:xlink="http://www.w3.org/1999/xlink">
<g id="graph0" class="graph" transform="scale(1 1) rotate(0) translate(28.8 614.3)">
<title>FatWebsite</title>
<polygon fill="white" stroke="none" points="-28.8,28.8 -28.8,-614.3 1431.05,-614.3 1431.05,28.8 -28.8,28.8"/>
<!-- server -->
<g id="node1" class="node">
<title>server</title>
<path fill="#6baaaf" stroke="none" d="M12,-438.5C12,-438.5 55.75,-438.5 55.75,-438.5 61.75,-438.5 67.75,-444.5 67.75,-450.5 67.75,-450.5 67.75,-522 67.75,-522 67.75,-528 61.75,-534 55.75,-534 55.75,-534 12,-534 12,-534 6,-534 0,-528 0,-522 0,-522 0,-450.5 0,-450.5 0,-444.5 6,-438.5 12,-438.5"/>
<polygon fill="#5b9aa0" stroke="none" points="1,-513 1,-533 66.75,-533 66.75,-513 1,-513"/>
<text xml:space="preserve" text-anchor="start" x="5" y="-519.55" font-family="Helvetica,sans-Serif" font-weight="bold" font-size="11.00" fill="white">server</text>
<text xml:space="preserve" text-anchor="start" x="26.25" y="-496.88" font-family="Helvetica,sans-Serif" font-size="10.00" fill="white">data</text>
<text xml:space="preserve" text-anchor="start" x="53" y="-493.8" font-family="Helvetica,sans-Serif" font-size="16.00" fill="#3d6f74">●</text>
<text xml:space="preserve" text-anchor="start" x="23.25" y="-472.38" font-family="Helvetica,sans-Serif" font-size="10.00" fill="white">certs</text>
<text xml:space="preserve" text-anchor="start" x="53" y="-469.3" font-family="Helvetica,sans-Serif" font-size="16.00" fill="#3d6f74">●</text>
<text xml:space="preserve" text-anchor="start" x="21" y="-447.88" font-family="Helvetica,sans-Serif" font-size="10.00" fill="white">stack</text>
<text xml:space="preserve" text-anchor="start" x="53" y="-444.8" font-family="Helvetica,sans-Serif" font-size="16.00" fill="#3d6f74">●</text>
<path fill="none" stroke="#4a8a90" d="M12,-438.5C12,-438.5 55.75,-438.5 55.75,-438.5 61.75,-438.5 67.75,-444.5 67.75,-450.5 67.75,-450.5 67.75,-522 67.75,-522 67.75,-528 61.75,-534 55.75,-534 55.75,-534 12,-534 12,-534 6,-534 0,-528 0,-522 0,-522 0,-450.5 0,-450.5 0,-444.5 6,-438.5 12,-438.5"/>
</g>
<!-- stack -->
<g id="node2" class="node">
<title>stack</title>
<path fill="#6baaaf" stroke="none" d="M137.75,-172.5C137.75,-172.5 235.5,-172.5 235.5,-172.5 241.5,-172.5 247.5,-178.5 247.5,-184.5 247.5,-184.5 247.5,-354 247.5,-354 247.5,-360 241.5,-366 235.5,-366 235.5,-366 137.75,-366 137.75,-366 131.75,-366 125.75,-360 125.75,-354 125.75,-354 125.75,-184.5 125.75,-184.5 125.75,-178.5 131.75,-172.5 137.75,-172.5"/>
<polygon fill="#5b9aa0" stroke="none" points="126.75,-345 126.75,-365 246.5,-365 246.5,-345 126.75,-345"/>
<text xml:space="preserve" text-anchor="start" x="130.75" y="-351.55" font-family="Helvetica,sans-Serif" font-weight="bold" font-size="11.00" fill="white">stack</text>
<text xml:space="preserve" text-anchor="start" x="130.75" y="-325.8" font-family="Helvetica,sans-Serif" font-size="16.00" fill="#3d6f74">●</text>
<text xml:space="preserve" text-anchor="start" x="148.5" y="-328.88" font-family="Helvetica,sans-Serif" font-size="10.00" fill="white">provide</text>
<text xml:space="preserve" text-anchor="start" x="206" y="-328.88" font-family="Helvetica,sans-Serif" font-size="10.00" fill="white">netif</text>
<text xml:space="preserve" text-anchor="start" x="232.75" y="-325.8" font-family="Helvetica,sans-Serif" font-size="16.00" fill="#3d6f74">●</text>
<text xml:space="preserve" text-anchor="start" x="189.5" y="-304.38" font-family="Helvetica,sans-Serif" font-size="10.00" fill="white">ethernet</text>
<text xml:space="preserve" text-anchor="start" x="232.75" y="-301.3" font-family="Helvetica,sans-Serif" font-size="16.00" fill="#3d6f74">●</text>
<text xml:space="preserve" text-anchor="start" x="200.75" y="-279.88" font-family="Helvetica,sans-Serif" font-size="10.00" fill="white">arpv4</text>
<text xml:space="preserve" text-anchor="start" x="232.75" y="-276.8" font-family="Helvetica,sans-Serif" font-size="16.00" fill="#3d6f74">●</text>
<text xml:space="preserve" text-anchor="start" x="196.25" y="-255.38" font-family="Helvetica,sans-Serif" font-size="10.00" fill="white">ipv4v6</text>
<text xml:space="preserve" text-anchor="start" x="232.75" y="-252.3" font-family="Helvetica,sans-Serif" font-size="16.00" fill="#3d6f74">●</text>
<text xml:space="preserve" text-anchor="start" x="193.25" y="-230.88" font-family="Helvetica,sans-Serif" font-size="10.00" fill="white">icmpv4</text>
<text xml:space="preserve" text-anchor="start" x="232.75" y="-227.8" font-family="Helvetica,sans-Serif" font-size="16.00" fill="#3d6f74">●</text>
<text xml:space="preserve" text-anchor="start" x="188" y="-206.38" font-family="Helvetica,sans-Serif" font-size="10.00" fill="white">udpv4v6</text>
<text xml:space="preserve" text-anchor="start" x="232.75" y="-203.3" font-family="Helvetica,sans-Serif" font-size="16.00" fill="#3d6f74">●</text>
<text xml:space="preserve" text-anchor="start" x="190.25" y="-181.88" font-family="Helvetica,sans-Serif" font-size="10.00" fill="white">tcpv4v6</text>
<text xml:space="preserve" text-anchor="start" x="232.75" y="-178.8" font-family="Helvetica,sans-Serif" font-size="16.00" fill="#3d6f74">●</text>
<path fill="none" stroke="#4a8a90" d="M137.75,-172.5C137.75,-172.5 235.5,-172.5 235.5,-172.5 241.5,-172.5 247.5,-178.5 247.5,-184.5 247.5,-184.5 247.5,-354 247.5,-354 247.5,-360 241.5,-366 235.5,-366 235.5,-366 137.75,-366 137.75,-366 131.75,-366 125.75,-360 125.75,-354 125.75,-354 125.75,-184.5 125.75,-184.5 125.75,-178.5 131.75,-172.5 137.75,-172.5"/>
</g>
<!-- server&#45;&gt;stack -->
<g id="edge24" class="edge">
<title>server:stack_out&#45;&gt;stack:provide_in</title>
<path fill="none" stroke="#4a8a90" d="M57.88,-438.5C57.88,-385.6 68.67,-338.03 117.28,-333.16"/>
<polygon fill="#4a8a90" stroke="#4a8a90" points="117.36,-335.61 124.24,-332.82 117.13,-330.71 117.36,-335.61"/>
</g>
<!-- fat_data -->
<g id="node3" class="node">
<title>fat_data</title>
<path fill="#6baaaf" stroke="none" d="M144.5,-539C144.5,-539 228.75,-539 228.75,-539 234.75,-539 240.75,-545 240.75,-551 240.75,-551 240.75,-573.5 240.75,-573.5 240.75,-579.5 234.75,-585.5 228.75,-585.5 228.75,-585.5 144.5,-585.5 144.5,-585.5 138.5,-585.5 132.5,-579.5 132.5,-573.5 132.5,-573.5 132.5,-551 132.5,-551 132.5,-545 138.5,-539 144.5,-539"/>
<polygon fill="#5b9aa0" stroke="none" points="133.5,-564.5 133.5,-584.5 239.75,-584.5 239.75,-564.5 133.5,-564.5"/>
<text xml:space="preserve" text-anchor="start" x="137.5" y="-571.05" font-family="Helvetica,sans-Serif" font-weight="bold" font-size="11.00" fill="white">fat_data</text>
<text xml:space="preserve" text-anchor="start" x="137.5" y="-545.3" font-family="Helvetica,sans-Serif" font-size="16.00" fill="#3d6f74">●</text>
<text xml:space="preserve" text-anchor="start" x="155.25" y="-548.38" font-family="Helvetica,sans-Serif" font-size="10.00" fill="white">provide</text>
<text xml:space="preserve" text-anchor="start" x="194.75" y="-548.38" font-family="Helvetica,sans-Serif" font-size="10.00" fill="white">block</text>
<text xml:space="preserve" text-anchor="start" x="226" y="-545.3" font-family="Helvetica,sans-Serif" font-size="16.00" fill="#3d6f74">●</text>
<path fill="none" stroke="#4a8a90" d="M144.5,-539C144.5,-539 228.75,-539 228.75,-539 234.75,-539 240.75,-545 240.75,-551 240.75,-551 240.75,-573.5 240.75,-573.5 240.75,-579.5 234.75,-585.5 228.75,-585.5 228.75,-585.5 144.5,-585.5 144.5,-585.5 138.5,-585.5 132.5,-579.5 132.5,-573.5 132.5,-573.5 132.5,-551 132.5,-551 132.5,-545 138.5,-539 144.5,-539"/>
</g>
<!-- server&#45;&gt;fat_data -->
<g id="edge22" class="edge">
<title>server:data_out&#45;&gt;fat_data:provide_in</title>
<path fill="none" stroke="#4a8a90" d="M67.75,-500.75C101.5,-500.75 96.87,-544.15 124.32,-551.27"/>
<polygon fill="#4a8a90" stroke="#4a8a90" points="123.75,-553.67 131,-552.07 124.34,-548.8 123.75,-553.67"/>
</g>
<!-- fat_certs -->
<g id="node4" class="node">
<title>fat_certs</title>
<path fill="#6baaaf" stroke="none" d="M144.5,-463C144.5,-463 228.75,-463 228.75,-463 234.75,-463 240.75,-469 240.75,-475 240.75,-475 240.75,-497.5 240.75,-497.5 240.75,-503.5 234.75,-509.5 228.75,-509.5 228.75,-509.5 144.5,-509.5 144.5,-509.5 138.5,-509.5 132.5,-503.5 132.5,-497.5 132.5,-497.5 132.5,-475 132.5,-475 132.5,-469 138.5,-463 144.5,-463"/>
<polygon fill="#5b9aa0" stroke="none" points="133.5,-488.5 133.5,-508.5 239.75,-508.5 239.75,-488.5 133.5,-488.5"/>
<text xml:space="preserve" text-anchor="start" x="137.5" y="-495.05" font-family="Helvetica,sans-Serif" font-weight="bold" font-size="11.00" fill="white">fat_certs</text>
<text xml:space="preserve" text-anchor="start" x="137.5" y="-469.3" font-family="Helvetica,sans-Serif" font-size="16.00" fill="#3d6f74">●</text>
<text xml:space="preserve" text-anchor="start" x="155.25" y="-472.38" font-family="Helvetica,sans-Serif" font-size="10.00" fill="white">provide</text>
<text xml:space="preserve" text-anchor="start" x="194.75" y="-472.38" font-family="Helvetica,sans-Serif" font-size="10.00" fill="white">block</text>
<text xml:space="preserve" text-anchor="start" x="226" y="-469.3" font-family="Helvetica,sans-Serif" font-size="16.00" fill="#3d6f74">●</text>
<path fill="none" stroke="#4a8a90" d="M144.5,-463C144.5,-463 228.75,-463 228.75,-463 234.75,-463 240.75,-469 240.75,-475 240.75,-475 240.75,-497.5 240.75,-497.5 240.75,-503.5 234.75,-509.5 228.75,-509.5 228.75,-509.5 144.5,-509.5 144.5,-509.5 138.5,-509.5 132.5,-503.5 132.5,-497.5 132.5,-497.5 132.5,-475 132.5,-475 132.5,-469 138.5,-463 144.5,-463"/>
</g>
<!-- server&#45;&gt;fat_certs -->
<g id="edge23" class="edge">
<title>server:certs_out&#45;&gt;fat_certs:provide_in</title>
<path fill="none" stroke="#4a8a90" d="M67.75,-476.25C93.49,-476.25 101.96,-476.25 124.06,-476.25"/>
<polygon fill="#4a8a90" stroke="#4a8a90" points="123.99,-478.7 130.99,-476.25 123.99,-473.8 123.99,-478.7"/>
</g>
<!-- icmp -->
<g id="node5" class="node">
<title>icmp</title>
<path fill="#6baaaf" stroke="none" d="M317.5,-152C317.5,-152 414.5,-152 414.5,-152 420.5,-152 426.5,-158 426.5,-164 426.5,-164 426.5,-186.5 426.5,-186.5 426.5,-192.5 420.5,-198.5 414.5,-198.5 414.5,-198.5 317.5,-198.5 317.5,-198.5 311.5,-198.5 305.5,-192.5 305.5,-186.5 305.5,-186.5 305.5,-164 305.5,-164 305.5,-158 311.5,-152 317.5,-152"/>
<polygon fill="#5b9aa0" stroke="none" points="306.5,-177.5 306.5,-197.5 425.5,-197.5 425.5,-177.5 306.5,-177.5"/>
<text xml:space="preserve" text-anchor="start" x="310.5" y="-184.05" font-family="Helvetica,sans-Serif" font-weight="bold" font-size="11.00" fill="white">icmp</text>
<text xml:space="preserve" text-anchor="start" x="310.5" y="-158.3" font-family="Helvetica,sans-Serif" font-size="16.00" fill="#3d6f74">●</text>
<text xml:space="preserve" text-anchor="start" x="328.25" y="-161.38" font-family="Helvetica,sans-Serif" font-size="10.00" fill="white">ip_write</text>
<text xml:space="preserve" text-anchor="start" x="370" y="-161.38" font-family="Helvetica,sans-Serif" font-size="10.00" fill="white">ip_write</text>
<text xml:space="preserve" text-anchor="start" x="411.75" y="-158.3" font-family="Helvetica,sans-Serif" font-size="16.00" fill="#3d6f74">●</text>
<path fill="none" stroke="#4a8a90" d="M317.5,-152C317.5,-152 414.5,-152 414.5,-152 420.5,-152 426.5,-158 426.5,-164 426.5,-164 426.5,-186.5 426.5,-186.5 426.5,-192.5 420.5,-198.5 414.5,-198.5 414.5,-198.5 317.5,-198.5 317.5,-198.5 311.5,-198.5 305.5,-192.5 305.5,-186.5 305.5,-186.5 305.5,-164 305.5,-164 305.5,-158 311.5,-152 317.5,-152"/>
</g>
<!-- stack&#45;&gt;icmp -->
<g id="edge17" class="edge">
<title>stack:icmpv4_out&#45;&gt;icmp:ip_write_in</title>
<path fill="none" stroke="#4a8a90" d="M247.5,-234.75C284.59,-234.75 268.4,-175.69 297.16,-166.46"/>
<polygon fill="#4a8a90" stroke="#4a8a90" points="297.42,-168.89 304,-165.47 296.72,-164.04 297.42,-168.89"/>
</g>
<!-- udp -->
<g id="node6" class="node">
<title>udp</title>
<path fill="#6baaaf" stroke="none" d="M317.5,-76C317.5,-76 414.5,-76 414.5,-76 420.5,-76 426.5,-82 426.5,-88 426.5,-88 426.5,-110.5 426.5,-110.5 426.5,-116.5 420.5,-122.5 414.5,-122.5 414.5,-122.5 317.5,-122.5 317.5,-122.5 311.5,-122.5 305.5,-116.5 305.5,-110.5 305.5,-110.5 305.5,-88 305.5,-88 305.5,-82 311.5,-76 317.5,-76"/>
<polygon fill="#5b9aa0" stroke="none" points="306.5,-101.5 306.5,-121.5 425.5,-121.5 425.5,-101.5 306.5,-101.5"/>
<text xml:space="preserve" text-anchor="start" x="310.5" y="-108.05" font-family="Helvetica,sans-Serif" font-weight="bold" font-size="11.00" fill="white">udp</text>
<text xml:space="preserve" text-anchor="start" x="310.5" y="-82.3" font-family="Helvetica,sans-Serif" font-size="16.00" fill="#3d6f74">●</text>
<text xml:space="preserve" text-anchor="start" x="328.25" y="-85.38" font-family="Helvetica,sans-Serif" font-size="10.00" fill="white">ip_write</text>
<text xml:space="preserve" text-anchor="start" x="370" y="-85.38" font-family="Helvetica,sans-Serif" font-size="10.00" fill="white">ip_write</text>
<text xml:space="preserve" text-anchor="start" x="411.75" y="-82.3" font-family="Helvetica,sans-Serif" font-size="16.00" fill="#3d6f74">●</text>
<path fill="none" stroke="#4a8a90" d="M317.5,-76C317.5,-76 414.5,-76 414.5,-76 420.5,-76 426.5,-82 426.5,-88 426.5,-88 426.5,-110.5 426.5,-110.5 426.5,-116.5 420.5,-122.5 414.5,-122.5 414.5,-122.5 317.5,-122.5 317.5,-122.5 311.5,-122.5 305.5,-116.5 305.5,-110.5 305.5,-110.5 305.5,-88 305.5,-88 305.5,-82 311.5,-76 317.5,-76"/>
</g>
<!-- stack&#45;&gt;udp -->
<g id="edge18" class="edge">
<title>stack:udpv4v6_out&#45;&gt;udp:ip_write_in</title>
<path fill="none" stroke="#4a8a90" d="M247.5,-210.25C304.11,-210.25 251.77,-101.23 297.32,-90.15"/>
<polygon fill="#4a8a90" stroke="#4a8a90" points="297.31,-92.62 304,-89.42 296.77,-87.75 297.31,-92.62"/>
</g>
<!-- tcp -->
<g id="node7" class="node">
<title>tcp</title>
<path fill="#6baaaf" stroke="none" d="M323.88,0C323.88,0 408.12,0 408.12,0 414.12,0 420.12,-6 420.12,-12 420.12,-12 420.12,-34.5 420.12,-34.5 420.12,-40.5 414.12,-46.5 408.12,-46.5 408.12,-46.5 323.88,-46.5 323.88,-46.5 317.88,-46.5 311.88,-40.5 311.88,-34.5 311.88,-34.5 311.88,-12 311.88,-12 311.88,-6 317.88,0 323.88,0"/>
<polygon fill="#5b9aa0" stroke="none" points="312.88,-25.5 312.88,-45.5 419.12,-45.5 419.12,-25.5 312.88,-25.5"/>
<text xml:space="preserve" text-anchor="start" x="316.88" y="-32.05" font-family="Helvetica,sans-Serif" font-weight="bold" font-size="11.00" fill="white">tcp</text>
<text xml:space="preserve" text-anchor="start" x="316.88" y="-6.3" font-family="Helvetica,sans-Serif" font-size="16.00" fill="#3d6f74">●</text>
<text xml:space="preserve" text-anchor="start" x="334.62" y="-9.38" font-family="Helvetica,sans-Serif" font-size="10.00" fill="white">write</text>
<text xml:space="preserve" text-anchor="start" x="363.62" y="-9.38" font-family="Helvetica,sans-Serif" font-size="10.00" fill="white">ip_write</text>
<text xml:space="preserve" text-anchor="start" x="405.38" y="-6.3" font-family="Helvetica,sans-Serif" font-size="16.00" fill="#3d6f74">●</text>
<path fill="none" stroke="#4a8a90" d="M323.88,0C323.88,0 408.12,0 408.12,0 414.12,0 420.12,-6 420.12,-12 420.12,-12 420.12,-34.5 420.12,-34.5 420.12,-40.5 414.12,-46.5 408.12,-46.5 408.12,-46.5 323.88,-46.5 323.88,-46.5 317.88,-46.5 311.88,-40.5 311.88,-34.5 311.88,-34.5 311.88,-12 311.88,-12 311.88,-6 317.88,0 323.88,0"/>
</g>
<!-- stack&#45;&gt;tcp -->
<g id="edge19" class="edge">
<title>stack:tcpv4v6_out&#45;&gt;tcp:write_in</title>
<path fill="none" stroke="#4a8a90" d="M237.62,-172.5C237.62,-136.2 268.05,-29.75 303.71,-14.96"/>
<polygon fill="#4a8a90" stroke="#4a8a90" points="304.05,-17.4 310.39,-13.56 303.04,-12.6 304.05,-17.4"/>
</g>
<!-- ip -->
<g id="node10" class="node">
<title>ip</title>
<path fill="#6baaaf" stroke="none" d="M496.5,-97.75C496.5,-97.75 565,-97.75 565,-97.75 571,-97.75 577,-103.75 577,-109.75 577,-109.75 577,-156.75 577,-156.75 577,-162.75 571,-168.75 565,-168.75 565,-168.75 496.5,-168.75 496.5,-168.75 490.5,-168.75 484.5,-162.75 484.5,-156.75 484.5,-156.75 484.5,-109.75 484.5,-109.75 484.5,-103.75 490.5,-97.75 496.5,-97.75"/>
<polygon fill="#5b9aa0" stroke="none" points="485.5,-147.75 485.5,-167.75 576,-167.75 576,-147.75 485.5,-147.75"/>
<text xml:space="preserve" text-anchor="start" x="489.5" y="-154.3" font-family="Helvetica,sans-Serif" font-weight="bold" font-size="11.00" fill="white">ip</text>
<text xml:space="preserve" text-anchor="start" x="489.5" y="-128.55" font-family="Helvetica,sans-Serif" font-size="16.00" fill="#3d6f74">●</text>
<text xml:space="preserve" text-anchor="start" x="507.25" y="-131.62" font-family="Helvetica,sans-Serif" font-size="10.00" fill="white">write</text>
<text xml:space="preserve" text-anchor="start" x="536.25" y="-131.62" font-family="Helvetica,sans-Serif" font-size="10.00" fill="white">ipv4</text>
<text xml:space="preserve" text-anchor="start" x="562.25" y="-128.55" font-family="Helvetica,sans-Serif" font-size="16.00" fill="#3d6f74">●</text>
<text xml:space="preserve" text-anchor="start" x="536.25" y="-107.12" font-family="Helvetica,sans-Serif" font-size="10.00" fill="white">ipv6</text>
<text xml:space="preserve" text-anchor="start" x="562.25" y="-104.05" font-family="Helvetica,sans-Serif" font-size="16.00" fill="#3d6f74">●</text>
<path fill="none" stroke="#4a8a90" d="M496.5,-97.75C496.5,-97.75 565,-97.75 565,-97.75 571,-97.75 577,-103.75 577,-109.75 577,-109.75 577,-156.75 577,-156.75 577,-162.75 571,-168.75 565,-168.75 565,-168.75 496.5,-168.75 496.5,-168.75 490.5,-168.75 484.5,-162.75 484.5,-156.75 484.5,-156.75 484.5,-109.75 484.5,-109.75 484.5,-103.75 490.5,-97.75 496.5,-97.75"/>
</g>
<!-- stack&#45;&gt;ip -->
<g id="edge16" class="edge">
<title>stack:ipv4v6_out&#45;&gt;ip:write_in</title>
<path fill="none" stroke="#4a8a90" d="M247.5,-259.25C329.64,-259.25 358.28,-259 426.5,-213.25 459.79,-190.93 444.05,-142.91 476.31,-136.27"/>
<polygon fill="#4a8a90" stroke="#4a8a90" points="476.25,-138.73 482.99,-135.64 475.79,-133.86 476.25,-138.73"/>
</g>
<!-- arp -->
<g id="node13" class="node">
<title>arp</title>
<path fill="#6baaaf" stroke="none" d="M822.25,-211C822.25,-211 915.5,-211 915.5,-211 921.5,-211 927.5,-217 927.5,-223 927.5,-223 927.5,-245.5 927.5,-245.5 927.5,-251.5 921.5,-257.5 915.5,-257.5 915.5,-257.5 822.25,-257.5 822.25,-257.5 816.25,-257.5 810.25,-251.5 810.25,-245.5 810.25,-245.5 810.25,-223 810.25,-223 810.25,-217 816.25,-211 822.25,-211"/>
<polygon fill="#5b9aa0" stroke="none" points="811.25,-236.5 811.25,-256.5 926.5,-256.5 926.5,-236.5 811.25,-236.5"/>
<text xml:space="preserve" text-anchor="start" x="815.25" y="-243.05" font-family="Helvetica,sans-Serif" font-weight="bold" font-size="11.00" fill="white">arp</text>
<text xml:space="preserve" text-anchor="start" x="815.25" y="-217.3" font-family="Helvetica,sans-Serif" font-size="16.00" fill="#3d6f74">●</text>
<text xml:space="preserve" text-anchor="start" x="833" y="-220.38" font-family="Helvetica,sans-Serif" font-size="10.00" fill="white">query</text>
<text xml:space="preserve" text-anchor="start" x="865" y="-220.38" font-family="Helvetica,sans-Serif" font-size="10.00" fill="white">eth_write</text>
<text xml:space="preserve" text-anchor="start" x="912.75" y="-217.3" font-family="Helvetica,sans-Serif" font-size="16.00" fill="#3d6f74">●</text>
<path fill="none" stroke="#4a8a90" d="M822.25,-211C822.25,-211 915.5,-211 915.5,-211 921.5,-211 927.5,-217 927.5,-223 927.5,-223 927.5,-245.5 927.5,-245.5 927.5,-251.5 921.5,-257.5 915.5,-257.5 915.5,-257.5 822.25,-257.5 822.25,-257.5 816.25,-257.5 810.25,-251.5 810.25,-245.5 810.25,-245.5 810.25,-223 810.25,-223 810.25,-217 816.25,-211 822.25,-211"/>
</g>
<!-- stack&#45;&gt;arp -->
<g id="edge15" class="edge">
<title>stack:arpv4_out&#45;&gt;arp:query_in</title>
<path fill="none" stroke="#4a8a90" d="M247.5,-283.75C471.93,-283.75 540.99,-345 752.25,-269.25 780.08,-259.27 778.31,-230.42 802.01,-225.1"/>
<polygon fill="#4a8a90" stroke="#4a8a90" points="802.03,-227.56 808.74,-224.41 801.53,-222.69 802.03,-227.56"/>
</g>
<!-- eth -->
<g id="node14" class="node">
<title>eth</title>
<path fill="#6baaaf" stroke="none" d="M997.5,-249C997.5,-249 1087.75,-249 1087.75,-249 1093.75,-249 1099.75,-255 1099.75,-261 1099.75,-261 1099.75,-283.5 1099.75,-283.5 1099.75,-289.5 1093.75,-295.5 1087.75,-295.5 1087.75,-295.5 997.5,-295.5 997.5,-295.5 991.5,-295.5 985.5,-289.5 985.5,-283.5 985.5,-283.5 985.5,-261 985.5,-261 985.5,-255 991.5,-249 997.5,-249"/>
<polygon fill="#5b9aa0" stroke="none" points="986.5,-274.5 986.5,-294.5 1098.75,-294.5 1098.75,-274.5 986.5,-274.5"/>
<text xml:space="preserve" text-anchor="start" x="990.5" y="-281.05" font-family="Helvetica,sans-Serif" font-weight="bold" font-size="11.00" fill="white">eth</text>
<text xml:space="preserve" text-anchor="start" x="990.5" y="-255.3" font-family="Helvetica,sans-Serif" font-size="16.00" fill="#3d6f74">●</text>
<text xml:space="preserve" text-anchor="start" x="1008.25" y="-258.38" font-family="Helvetica,sans-Serif" font-size="10.00" fill="white">write</text>
<text xml:space="preserve" text-anchor="start" x="1037.25" y="-258.38" font-family="Helvetica,sans-Serif" font-size="10.00" fill="white">net_write</text>
<text xml:space="preserve" text-anchor="start" x="1085" y="-255.3" font-family="Helvetica,sans-Serif" font-size="16.00" fill="#3d6f74">●</text>
<path fill="none" stroke="#4a8a90" d="M997.5,-249C997.5,-249 1087.75,-249 1087.75,-249 1093.75,-249 1099.75,-255 1099.75,-261 1099.75,-261 1099.75,-283.5 1099.75,-283.5 1099.75,-289.5 1093.75,-295.5 1087.75,-295.5 1087.75,-295.5 997.5,-295.5 997.5,-295.5 991.5,-295.5 985.5,-289.5 985.5,-283.5 985.5,-283.5 985.5,-261 985.5,-261 985.5,-255 991.5,-249 997.5,-249"/>
</g>
<!-- stack&#45;&gt;eth -->
<g id="edge14" class="edge">
<title>stack:ethernet_out&#45;&gt;eth:write_in</title>
<path fill="none" stroke="#4a8a90" d="M247.5,-308.25C311.28,-308.25 465.97,-360.25 529.75,-360.25 529.75,-360.25 529.75,-360.25 694.62,-360.25 801.62,-360.25 829.46,-342.1 927.5,-299.25 952.67,-288.25 954.75,-267.15 977.09,-262.98"/>
<polygon fill="#4a8a90" stroke="#4a8a90" points="977.23,-265.42 983.99,-262.38 976.81,-260.54 977.23,-265.42"/>
</g>
<!-- net -->
<g id="node15" class="node">
<title>net</title>
<path fill="#6baaaf" stroke="none" d="M1169.75,-249C1169.75,-249 1257,-249 1257,-249 1263,-249 1269,-255 1269,-261 1269,-261 1269,-283.5 1269,-283.5 1269,-289.5 1263,-295.5 1257,-295.5 1257,-295.5 1169.75,-295.5 1169.75,-295.5 1163.75,-295.5 1157.75,-289.5 1157.75,-283.5 1157.75,-283.5 1157.75,-261 1157.75,-261 1157.75,-255 1163.75,-249 1169.75,-249"/>
<polygon fill="#5b9aa0" stroke="none" points="1158.75,-274.5 1158.75,-294.5 1268,-294.5 1268,-274.5 1158.75,-274.5"/>
<text xml:space="preserve" text-anchor="start" x="1162.75" y="-281.05" font-family="Helvetica,sans-Serif" font-weight="bold" font-size="11.00" fill="white">net</text>
<text xml:space="preserve" text-anchor="start" x="1162.75" y="-255.3" font-family="Helvetica,sans-Serif" font-size="16.00" fill="#3d6f74">●</text>
<text xml:space="preserve" text-anchor="start" x="1180.5" y="-258.38" font-family="Helvetica,sans-Serif" font-size="10.00" fill="white">write</text>
<text xml:space="preserve" text-anchor="start" x="1209.5" y="-258.38" font-family="Helvetica,sans-Serif" font-size="10.00" fill="white">backend</text>
<text xml:space="preserve" text-anchor="start" x="1254.25" y="-255.3" font-family="Helvetica,sans-Serif" font-size="16.00" fill="#3d6f74">●</text>
<path fill="none" stroke="#4a8a90" d="M1169.75,-249C1169.75,-249 1257,-249 1257,-249 1263,-249 1269,-255 1269,-261 1269,-261 1269,-283.5 1269,-283.5 1269,-289.5 1263,-295.5 1257,-295.5 1257,-295.5 1169.75,-295.5 1169.75,-295.5 1163.75,-295.5 1157.75,-289.5 1157.75,-283.5 1157.75,-283.5 1157.75,-261 1157.75,-261 1157.75,-255 1163.75,-249 1169.75,-249"/>
</g>
<!-- stack&#45;&gt;net -->
<g id="edge13" class="edge">
<title>stack:netif_out&#45;&gt;net:write_in</title>
<path fill="none" stroke="#4a8a90" d="M247.5,-332.75C274.56,-332.75 279.66,-343.21 305.5,-351.25 404.95,-382.19 425.6,-419.25 529.75,-419.25 529.75,-419.25 529.75,-419.25 869.88,-419.25 982.95,-419.25 1004.38,-370.99 1099.75,-310.25 1125.44,-293.89 1124.69,-267.55 1149.58,-262.95"/>
<polygon fill="#4a8a90" stroke="#4a8a90" points="1149.48,-265.41 1156.24,-262.38 1149.06,-260.53 1149.48,-265.41"/>
</g>
<!-- data_block -->
<g id="node8" class="node">
<title>data_block</title>
<path fill="#6baaaf" stroke="none" d="M340.38,-539C340.38,-539 391.62,-539 391.62,-539 397.62,-539 403.62,-545 403.62,-551 403.62,-551 403.62,-573.5 403.62,-573.5 403.62,-579.5 397.62,-585.5 391.62,-585.5 391.62,-585.5 340.38,-585.5 340.38,-585.5 334.38,-585.5 328.38,-579.5 328.38,-573.5 328.38,-573.5 328.38,-551 328.38,-551 328.38,-545 334.38,-539 340.38,-539"/>
<polygon fill="#5b9aa0" stroke="none" points="329.38,-564.5 329.38,-584.5 402.62,-584.5 402.62,-564.5 329.38,-564.5"/>
<text xml:space="preserve" text-anchor="start" x="333.38" y="-571.05" font-family="Helvetica,sans-Serif" font-weight="bold" font-size="11.00" fill="white">data_block</text>
<text xml:space="preserve" text-anchor="start" x="333.38" y="-545.3" font-family="Helvetica,sans-Serif" font-size="16.00" fill="#3d6f74">●</text>
<text xml:space="preserve" text-anchor="start" x="351.12" y="-548.38" font-family="Helvetica,sans-Serif" font-size="10.00" fill="white">provide</text>
<path fill="none" stroke="#4a8a90" d="M340.38,-539C340.38,-539 391.62,-539 391.62,-539 397.62,-539 403.62,-545 403.62,-551 403.62,-551 403.62,-573.5 403.62,-573.5 403.62,-579.5 397.62,-585.5 391.62,-585.5 391.62,-585.5 340.38,-585.5 340.38,-585.5 334.38,-585.5 328.38,-579.5 328.38,-573.5 328.38,-573.5 328.38,-551 328.38,-551 328.38,-545 334.38,-539 340.38,-539"/>
</g>
<!-- fat_data&#45;&gt;data_block -->
<g id="edge20" class="edge">
<title>fat_data:block_out&#45;&gt;data_block:provide_in</title>
<path fill="none" stroke="#4a8a90" d="M240.75,-552.25C276.8,-552.25 287.82,-552.25 320.16,-552.25"/>
<polygon fill="#4a8a90" stroke="#4a8a90" points="319.86,-554.7 326.86,-552.25 319.86,-549.8 319.86,-554.7"/>
</g>
<!-- certs_block -->
<g id="node9" class="node">
<title>certs_block</title>
<path fill="#6baaaf" stroke="none" d="M340.38,-463C340.38,-463 391.62,-463 391.62,-463 397.62,-463 403.62,-469 403.62,-475 403.62,-475 403.62,-497.5 403.62,-497.5 403.62,-503.5 397.62,-509.5 391.62,-509.5 391.62,-509.5 340.38,-509.5 340.38,-509.5 334.38,-509.5 328.38,-503.5 328.38,-497.5 328.38,-497.5 328.38,-475 328.38,-475 328.38,-469 334.38,-463 340.38,-463"/>
<polygon fill="#5b9aa0" stroke="none" points="329.38,-488.5 329.38,-508.5 402.62,-508.5 402.62,-488.5 329.38,-488.5"/>
<text xml:space="preserve" text-anchor="start" x="333.38" y="-495.05" font-family="Helvetica,sans-Serif" font-weight="bold" font-size="11.00" fill="white">certs_block</text>
<text xml:space="preserve" text-anchor="start" x="333.38" y="-469.3" font-family="Helvetica,sans-Serif" font-size="16.00" fill="#3d6f74">●</text>
<text xml:space="preserve" text-anchor="start" x="351.12" y="-472.38" font-family="Helvetica,sans-Serif" font-size="10.00" fill="white">provide</text>
<path fill="none" stroke="#4a8a90" d="M340.38,-463C340.38,-463 391.62,-463 391.62,-463 397.62,-463 403.62,-469 403.62,-475 403.62,-475 403.62,-497.5 403.62,-497.5 403.62,-503.5 397.62,-509.5 391.62,-509.5 391.62,-509.5 340.38,-509.5 340.38,-509.5 334.38,-509.5 328.38,-503.5 328.38,-497.5 328.38,-497.5 328.38,-475 328.38,-475 328.38,-469 334.38,-463 340.38,-463"/>
</g>
<!-- fat_certs&#45;&gt;certs_block -->
<g id="edge21" class="edge">
<title>fat_certs:block_out&#45;&gt;certs_block:provide_in</title>
<path fill="none" stroke="#4a8a90" d="M240.75,-476.25C276.8,-476.25 287.82,-476.25 320.16,-476.25"/>
<polygon fill="#4a8a90" stroke="#4a8a90" points="319.86,-478.7 326.86,-476.25 319.86,-473.8 319.86,-478.7"/>
</g>
<!-- ipv4 -->
<g id="node11" class="node">
<title>ipv4</title>
<path fill="#6baaaf" stroke="none" d="M647,-183.75C647,-183.75 740.25,-183.75 740.25,-183.75 746.25,-183.75 752.25,-189.75 752.25,-195.75 752.25,-195.75 752.25,-242.75 752.25,-242.75 752.25,-248.75 746.25,-254.75 740.25,-254.75 740.25,-254.75 647,-254.75 647,-254.75 641,-254.75 635,-248.75 635,-242.75 635,-242.75 635,-195.75 635,-195.75 635,-189.75 641,-183.75 647,-183.75"/>
<polygon fill="#5b9aa0" stroke="none" points="636,-233.75 636,-253.75 751.25,-253.75 751.25,-233.75 636,-233.75"/>
<text xml:space="preserve" text-anchor="start" x="640" y="-240.3" font-family="Helvetica,sans-Serif" font-weight="bold" font-size="11.00" fill="white">ipv4</text>
<text xml:space="preserve" text-anchor="start" x="640" y="-214.55" font-family="Helvetica,sans-Serif" font-size="16.00" fill="#3d6f74">●</text>
<text xml:space="preserve" text-anchor="start" x="657.75" y="-217.62" font-family="Helvetica,sans-Serif" font-size="10.00" fill="white">write</text>
<text xml:space="preserve" text-anchor="start" x="689.75" y="-217.62" font-family="Helvetica,sans-Serif" font-size="10.00" fill="white">eth_write</text>
<text xml:space="preserve" text-anchor="start" x="737.5" y="-214.55" font-family="Helvetica,sans-Serif" font-size="16.00" fill="#3d6f74">●</text>
<text xml:space="preserve" text-anchor="start" x="686.75" y="-193.12" font-family="Helvetica,sans-Serif" font-size="10.00" fill="white">arp_query</text>
<text xml:space="preserve" text-anchor="start" x="737.5" y="-190.05" font-family="Helvetica,sans-Serif" font-size="16.00" fill="#3d6f74">●</text>
<path fill="none" stroke="#4a8a90" d="M647,-183.75C647,-183.75 740.25,-183.75 740.25,-183.75 746.25,-183.75 752.25,-189.75 752.25,-195.75 752.25,-195.75 752.25,-242.75 752.25,-242.75 752.25,-248.75 746.25,-254.75 740.25,-254.75 740.25,-254.75 647,-254.75 647,-254.75 641,-254.75 635,-248.75 635,-242.75 635,-242.75 635,-195.75 635,-195.75 635,-189.75 641,-183.75 647,-183.75"/>
</g>
<!-- icmp&#45;&gt;ipv4 -->
<g id="edge10" class="edge">
<title>icmp:ip_write_out&#45;&gt;ipv4:write_in</title>
<path fill="none" stroke="#4a8a90" d="M426.5,-165.25C453.49,-165.25 458.52,-175.92 484.5,-183.25 548.2,-201.22 564.66,-219.9 626.77,-221.4"/>
<polygon fill="#4a8a90" stroke="#4a8a90" points="626.46,-223.85 633.49,-221.48 626.52,-218.95 626.46,-223.85"/>
</g>
<!-- udp&#45;&gt;ip -->
<g id="edge11" class="edge">
<title>udp:ip_write_out&#45;&gt;ip:write_in</title>
<path fill="none" stroke="#4a8a90" d="M426.5,-89.25C456.38,-89.25 452.66,-127.23 476.24,-134.36"/>
<polygon fill="#4a8a90" stroke="#4a8a90" points="475.73,-136.76 483,-135.29 476.4,-131.91 475.73,-136.76"/>
</g>
<!-- tcp&#45;&gt;ip -->
<g id="edge12" class="edge">
<title>tcp:ip_write_out&#45;&gt;ip:write_in</title>
<path fill="none" stroke="#4a8a90" d="M420.12,-13.25C478.41,-13.25 428.72,-123.4 476.04,-134.59"/>
<polygon fill="#4a8a90" stroke="#4a8a90" points="475.77,-137.02 483,-135.34 476.3,-132.15 475.77,-137.02"/>
</g>
<!-- ip&#45;&gt;ipv4 -->
<g id="edge8" class="edge">
<title>ip:ipv4_out&#45;&gt;ipv4:write_in</title>
<path fill="none" stroke="#4a8a90" d="M577,-135.5C620.04,-135.5 593.09,-210.46 626.83,-220.41"/>
<polygon fill="#4a8a90" stroke="#4a8a90" points="626.24,-222.81 633.5,-221.3 626.88,-217.95 626.24,-222.81"/>
</g>
<!-- ipv6 -->
<g id="node12" class="node">
<title>ipv6</title>
<path fill="#6baaaf" stroke="none" d="M648.5,-73.75C648.5,-73.75 738.75,-73.75 738.75,-73.75 744.75,-73.75 750.75,-79.75 750.75,-85.75 750.75,-85.75 750.75,-132.75 750.75,-132.75 750.75,-138.75 744.75,-144.75 738.75,-144.75 738.75,-144.75 648.5,-144.75 648.5,-144.75 642.5,-144.75 636.5,-138.75 636.5,-132.75 636.5,-132.75 636.5,-85.75 636.5,-85.75 636.5,-79.75 642.5,-73.75 648.5,-73.75"/>
<polygon fill="#5b9aa0" stroke="none" points="637.5,-123.75 637.5,-143.75 749.75,-143.75 749.75,-123.75 637.5,-123.75"/>
<text xml:space="preserve" text-anchor="start" x="641.5" y="-130.3" font-family="Helvetica,sans-Serif" font-weight="bold" font-size="11.00" fill="white">ipv6</text>
<text xml:space="preserve" text-anchor="start" x="641.5" y="-104.55" font-family="Helvetica,sans-Serif" font-size="16.00" fill="#3d6f74">●</text>
<text xml:space="preserve" text-anchor="start" x="659.25" y="-107.62" font-family="Helvetica,sans-Serif" font-size="10.00" fill="white">write</text>
<text xml:space="preserve" text-anchor="start" x="688.25" y="-107.62" font-family="Helvetica,sans-Serif" font-size="10.00" fill="white">net_write</text>
<text xml:space="preserve" text-anchor="start" x="736" y="-104.55" font-family="Helvetica,sans-Serif" font-size="16.00" fill="#3d6f74">●</text>
<text xml:space="preserve" text-anchor="start" x="688.25" y="-83.12" font-family="Helvetica,sans-Serif" font-size="10.00" fill="white">eth_write</text>
<text xml:space="preserve" text-anchor="start" x="736" y="-80.05" font-family="Helvetica,sans-Serif" font-size="16.00" fill="#3d6f74">●</text>
<path fill="none" stroke="#4a8a90" d="M648.5,-73.75C648.5,-73.75 738.75,-73.75 738.75,-73.75 744.75,-73.75 750.75,-79.75 750.75,-85.75 750.75,-85.75 750.75,-132.75 750.75,-132.75 750.75,-138.75 744.75,-144.75 738.75,-144.75 738.75,-144.75 648.5,-144.75 648.5,-144.75 642.5,-144.75 636.5,-138.75 636.5,-132.75 636.5,-132.75 636.5,-85.75 636.5,-85.75 636.5,-79.75 642.5,-73.75 648.5,-73.75"/>
</g>
<!-- ip&#45;&gt;ipv6 -->
<g id="edge9" class="edge">
<title>ip:ipv6_out&#45;&gt;ipv6:write_in</title>
<path fill="none" stroke="#4a8a90" d="M577,-111C600.45,-111 608.3,-111.39 628.22,-111.48"/>
<polygon fill="#4a8a90" stroke="#4a8a90" points="627.98,-113.93 634.99,-111.5 627.99,-109.03 627.98,-113.93"/>
</g>
<!-- ipv4&#45;&gt;arp -->
<g id="edge5" class="edge">
<title>ipv4:arp_query_out&#45;&gt;arp:query_in</title>
<path fill="none" stroke="#4a8a90" d="M752.25,-197C777.62,-197 781.21,-218.62 801.82,-223.34"/>
<polygon fill="#4a8a90" stroke="#4a8a90" points="801.52,-225.78 808.75,-224.09 802.05,-220.9 801.52,-225.78"/>
</g>
<!-- ipv4&#45;&gt;eth -->
<g id="edge4" class="edge">
<title>ipv4:eth_write_out&#45;&gt;eth:write_in</title>
<path fill="none" stroke="#4a8a90" d="M752.25,-221.5C786.5,-221.5 778.19,-260.2 810.25,-272.25 859.03,-290.58 875.58,-276.69 927.5,-272.25 950.51,-270.28 957.71,-263.99 977.08,-262.55"/>
<polygon fill="#4a8a90" stroke="#4a8a90" points="977.08,-265 983.99,-262.3 976.9,-260.1 977.08,-265"/>
</g>
<!-- ipv6&#45;&gt;eth -->
<g id="edge7" class="edge">
<title>ipv6:eth_write_out&#45;&gt;eth:write_in</title>
<path fill="none" stroke="#4a8a90" d="M750.75,-87C783.44,-87 782.74,-112.59 810.25,-130.25 860.58,-162.55 877.7,-163.15 927.5,-196.25 956.83,-215.75 989.77,-211.66 994.73,-240.83"/>
<polygon fill="#4a8a90" stroke="#4a8a90" points="992.27,-240.7 995.26,-247.49 997.15,-240.32 992.27,-240.7"/>
</g>
<!-- ipv6&#45;&gt;net -->
<g id="edge6" class="edge">
<title>ipv6:net_write_out&#45;&gt;net:write_in</title>
<path fill="none" stroke="#4a8a90" d="M750.75,-111.5C942.99,-111.5 1161.13,-55.58 1167.48,-240.59"/>
<polygon fill="#4a8a90" stroke="#4a8a90" points="1165.03,-240.53 1167.6,-247.49 1169.93,-240.45 1165.03,-240.53"/>
</g>
<!-- arp&#45;&gt;eth -->
<g id="edge3" class="edge">
<title>arp:eth_write_out&#45;&gt;eth:write_in</title>
<path fill="none" stroke="#4a8a90" d="M927.5,-224.25C955.19,-224.25 955.07,-254.92 977.1,-261.15"/>
<polygon fill="#4a8a90" stroke="#4a8a90" points="976.74,-263.58 984,-262.05 977.38,-258.72 976.74,-263.58"/>
</g>
<!-- eth&#45;&gt;net -->
<g id="edge2" class="edge">
<title>eth:net_write_out&#45;&gt;net:write_in</title>
<path fill="none" stroke="#4a8a90" d="M1099.75,-262.25C1122.51,-262.25 1130.2,-262.25 1149.42,-262.25"/>
<polygon fill="#4a8a90" stroke="#4a8a90" points="1149.24,-264.7 1156.24,-262.25 1149.24,-259.8 1149.24,-264.7"/>
</g>
<!-- backend -->
<g id="node16" class="node">
<title>backend</title>
<path fill="#6baaaf" stroke="none" d="M1339,-249C1339,-249 1390.25,-249 1390.25,-249 1396.25,-249 1402.25,-255 1402.25,-261 1402.25,-261 1402.25,-283.5 1402.25,-283.5 1402.25,-289.5 1396.25,-295.5 1390.25,-295.5 1390.25,-295.5 1339,-295.5 1339,-295.5 1333,-295.5 1327,-289.5 1327,-283.5 1327,-283.5 1327,-261 1327,-261 1327,-255 1333,-249 1339,-249"/>
<polygon fill="#5b9aa0" stroke="none" points="1328,-274.5 1328,-294.5 1401.25,-294.5 1401.25,-274.5 1328,-274.5"/>
<text xml:space="preserve" text-anchor="start" x="1332" y="-281.05" font-family="Helvetica,sans-Serif" font-weight="bold" font-size="11.00" fill="white">backend</text>
<text xml:space="preserve" text-anchor="start" x="1332" y="-255.3" font-family="Helvetica,sans-Serif" font-size="16.00" fill="#3d6f74">●</text>
<text xml:space="preserve" text-anchor="start" x="1349.75" y="-258.38" font-family="Helvetica,sans-Serif" font-size="10.00" fill="white">provide</text>
<path fill="none" stroke="#4a8a90" d="M1339,-249C1339,-249 1390.25,-249 1390.25,-249 1396.25,-249 1402.25,-255 1402.25,-261 1402.25,-261 1402.25,-283.5 1402.25,-283.5 1402.25,-289.5 1396.25,-295.5 1390.25,-295.5 1390.25,-295.5 1339,-295.5 1339,-295.5 1333,-295.5 1327,-289.5 1327,-283.5 1327,-283.5 1327,-261 1327,-261 1327,-255 1333,-249 1339,-249"/>
</g>
<!-- net&#45;&gt;backend -->
<g id="edge1" class="edge">
<title>net:backend_out&#45;&gt;backend:provide_in</title>
<path fill="none" stroke="#4a8a90" d="M1269,-262.25C1291.76,-262.25 1299.45,-262.25 1318.67,-262.25"/>
<polygon fill="#4a8a90" stroke="#4a8a90" points="1318.49,-264.7 1325.49,-262.25 1318.49,-259.8 1318.49,-264.7"/>
</g>
</g>
</svg>
