<?xml version="1.0" encoding="UTF-8" standalone="no"?>
<!DOCTYPE svg PUBLIC "-//W3C//DTD SVG 1.1//EN"
 "http://www.w3.org/Graphics/SVG/1.1/DTD/svg11.dtd">
<!-- Generated by graphviz version 14.1.2 (20260124.0452)
 -->
<!-- Title: SocketStack Pages: 1 -->
<svg width="269pt" height="180pt"
 viewBox="0.00 0.00 269.00 180.00" xmlns="http://www.w3.org/2000/svg" xmlns:xlink="http://www.w3.org/1999/xlink">
<g id="graph0" class="graph" transform="scale(1 1) rotate(0) translate(28.8 151.3)">
<title>SocketStack</title>
<polygon fill="white" stroke="none" points="-28.8,28.8 -28.8,-151.3 240.3,-151.3 240.3,28.8 -28.8,28.8"/>
<!-- socket_stack -->
<g id="node1" class="node">
<title>socket_stack</title>
<path fill="#6baaaf" stroke="none" d="M12,-25.75C12,-25.75 66.25,-25.75 66.25,-25.75 72.25,-25.75 78.25,-31.75 78.25,-37.75 78.25,-37.75 78.25,-84.75 78.25,-84.75 78.25,-90.75 72.25,-96.75 66.25,-96.75 66.25,-96.75 12,-96.75 12,-96.75 6,-96.75 0,-90.75 0,-84.75 0,-84.75 0,-37.75 0,-37.75 0,-31.75 6,-25.75 12,-25.75"/>
<polygon fill="#5b9aa0" stroke="none" points="1,-75.75 1,-95.75 77.25,-95.75 77.25,-75.75 1,-75.75"/>
<text xml:space="preserve" text-anchor="start" x="5" y="-82.3" font-family="Helvetica,sans-Serif" font-weight="bold" font-size="11.00" fill="white">socket_stack</text>
<text xml:space="preserve" text-anchor="start" x="35.06" y="-59.62" font-family="Helvetica,sans-Serif" font-size="10.00" fill="white">udp</text>
<text xml:space="preserve" text-anchor="start" x="61.16" y="-56.55" font-family="Helvetica,sans-Serif" font-size="16.00" fill="#3d6f74">●</text>
<text xml:space="preserve" text-anchor="start" x="37.31" y="-35.12" font-family="Helvetica,sans-Serif" font-size="10.00" fill="white">tcp</text>
<text xml:space="preserve" text-anchor="start" x="61.16" y="-32.05" font-family="Helvetica,sans-Serif" font-size="16.00" fill="#3d6f74">●</text>
<path fill="none" stroke="#4a8a90" d="M12,-25.75C12,-25.75 66.25,-25.75 66.25,-25.75 72.25,-25.75 78.25,-31.75 78.25,-37.75 78.25,-37.75 78.25,-84.75 78.25,-84.75 78.25,-90.75 72.25,-96.75 66.25,-96.75 66.25,-96.75 12,-96.75 12,-96.75 6,-96.75 0,-90.75 0,-84.75 0,-84.75 0,-37.75 0,-37.75 0,-31.75 6,-25.75 12,-25.75"/>
</g>
<!-- udp_socket -->
<g id="node2" class="node">
<title>udp_socket</title>
<path fill="#6baaaf" stroke="none" d="M148.25,-76C148.25,-76 199.5,-76 199.5,-76 205.5,-76 211.5,-82 211.5,-88 211.5,-88 211.5,-110.5 211.5,-110.5 211.5,-116.5 205.5,-122.5 199.5,-122.5 199.5,-122.5 148.25,-122.5 148.25,-122.5 142.25,-122.5 136.25,-116.5 136.25,-110.5 136.25,-110.5 136.25,-88 136.25,-88 136.25,-82 142.25,-76 148.25,-76"/>
<polygon fill="#5b9aa0" stroke="none" points="137.25,-101.5 137.25,-121.5 210.5,-121.5 210.5,-101.5 137.25,-101.5"/>
<text xml:space="preserve" text-anchor="start" x="141.25" y="-108.05" font-family="Helvetica,sans-Serif" font-weight="bold" font-size="11.00" fill="white">udp_socket</text>
<text xml:space="preserve" text-anchor="start" x="141.25" y="-82.3" font-family="Helvetica,sans-Serif" font-size="16.00" fill="#3d6f74">●</text>
<text xml:space="preserve" text-anchor="start" x="159" y="-85.38" font-family="Helvetica,sans-Serif" font-size="10.00" fill="white">provide</text>
<path fill="none" stroke="#4a8a90" d="M148.25,-76C148.25,-76 199.5,-76 199.5,-76 205.5,-76 211.5,-82 211.5,-88 211.5,-88 211.5,-110.5 211.5,-110.5 211.5,-116.5 205.5,-122.5 199.5,-122.5 199.5,-122.5 148.25,-122.5 148.25,-122.5 142.25,-122.5 136.25,-116.5 136.25,-110.5 136.25,-110.5 136.25,-88 136.25,-88 136.25,-82 142.25,-76 148.25,-76"/>
</g>
<!-- socket_stack&#45;&gt;udp_socket -->
<g id="edge1" class="edge">
<title>socket_stack:udp_out&#45;&gt;udp_socket:provide_in</title>
<path fill="none" stroke="#4a8a90" d="M78.25,-63.5C103.37,-63.5 107.38,-83.93 127.88,-88.39"/>
<polygon fill="#4a8a90" stroke="#4a8a90" points="127.53,-90.82 134.74,-89.1 128.03,-85.95 127.53,-90.82"/>
</g>
<!-- tcp_socket -->
<g id="node3" class="node">
<title>tcp_socket</title>
<path fill="#6baaaf" stroke="none" d="M148.25,0C148.25,0 199.5,0 199.5,0 205.5,0 211.5,-6 211.5,-12 211.5,-12 211.5,-34.5 211.5,-34.5 211.5,-40.5 205.5,-46.5 199.5,-46.5 199.5,-46.5 148.25,-46.5 148.25,-46.5 142.25,-46.5 136.25,-40.5 136.25,-34.5 136.25,-34.5 136.25,-12 136.25,-12 136.25,-6 142.25,0 148.25,0"/>
<polygon fill="#5b9aa0" stroke="none" points="137.25,-25.5 137.25,-45.5 210.5,-45.5 210.5,-25.5 137.25,-25.5"/>
<text xml:space="preserve" text-anchor="start" x="141.25" y="-32.05" font-family="Helvetica,sans-Serif" font-weight="bold" font-size="11.00" fill="white">tcp_socket</text>
<text xml:space="preserve" text-anchor="start" x="141.25" y="-6.3" font-family="Helvetica,sans-Serif" font-size="16.00" fill="#3d6f74">●</text>
<text xml:space="preserve" text-anchor="start" x="159" y="-9.38" font-family="Helvetica,sans-Serif" font-size="10.00" fill="white">provide</text>
<path fill="none" stroke="#4a8a90" d="M148.25,0C148.25,0 199.5,0 199.5,0 205.5,0 211.5,-6 211.5,-12 211.5,-12 211.5,-34.5 211.5,-34.5 211.5,-40.5 205.5,-46.5 199.5,-46.5 199.5,-46.5 148.25,-46.5 148.25,-46.5 142.25,-46.5 136.25,-40.5 136.25,-34.5 136.25,-34.5 136.25,-12 136.25,-12 136.25,-6 142.25,0 148.25,0"/>
</g>
<!-- socket_stack&#45;&gt;tcp_socket -->
<g id="edge2" class="edge">
<title>socket_stack:tcp_out&#45;&gt;tcp_socket:provide_in</title>
<path fill="none" stroke="#4a8a90" d="M78.25,-39C103.37,-39 107.38,-18.57 127.88,-14.11"/>
<polygon fill="#4a8a90" stroke="#4a8a90" points="128.03,-16.55 134.74,-13.4 127.53,-11.68 128.03,-16.55"/>
</g>
</g>
</svg>
