<?xml version="1.0" encoding="UTF-8" standalone="no"?>
<!DOCTYPE svg PUBLIC "-//W3C//DTD SVG 1.1//EN"
 "http://www.w3.org/Graphics/SVG/1.1/DTD/svg11.dtd">
<!-- Generated by graphviz version 14.1.2 (20260124.0452)
 -->
<!-- Title: StaticWebsiteWithDns Pages: 1 -->
<svg width="1670pt" height="616pt"
 viewBox="0.00 0.00 1670.00 616.00" xmlns="http://www.w3.org/2000/svg" xmlns:xlink="http://www.w3.org/1999/xlink">
<g id="graph0" class="graph" transform="scale(1 1) rotate(0) translate(28.8 587.3)">
<title>StaticWebsiteWithDns</title>
<polygon fill="white" stroke="none" points="-28.8,28.8 -28.8,-587.3 1641.55,-587.3 1641.55,28.8 -28.8,28.8"/>
<!-- dns_client -->
<g id="node1" class="node">
<title>dns_client</title>
<path fill="#6baaaf" stroke="none" d="M12,-261.75C12,-261.75 99.25,-261.75 99.25,-261.75 105.25,-261.75 111.25,-267.75 111.25,-273.75 111.25,-273.75 111.25,-320.75 111.25,-320.75 111.25,-326.75 105.25,-332.75 99.25,-332.75 99.25,-332.75 12,-332.75 12,-332.75 6,-332.75 0,-326.75 0,-320.75 0,-320.75 0,-273.75 0,-273.75 0,-267.75 6,-261.75 12,-261.75"/>
<polygon fill="#5b9aa0" stroke="none" points="1,-311.75 1,-331.75 110.25,-331.75 110.25,-311.75 1,-311.75"/>
<text xml:space="preserve" text-anchor="start" x="5" y="-318.3" font-family="Helvetica,sans-Serif" font-weight="bold" font-size="11.00" fill="white">dns_client</text>
<text xml:space="preserve" text-anchor="start" x="21" y="-295.62" font-family="Helvetica,sans-Serif" font-size="10.00" fill="white">happy_eyeballs</text>
<text xml:space="preserve" text-anchor="start" x="96.5" y="-292.55" font-family="Helvetica,sans-Serif" font-size="16.00" fill="#3d6f74">●</text>
<text xml:space="preserve" text-anchor="start" x="64.5" y="-271.12" font-family="Helvetica,sans-Serif" font-size="10.00" fill="white">stack</text>
<text xml:space="preserve" text-anchor="start" x="96.5" y="-268.05" font-family="Helvetica,sans-Serif" font-size="16.00" fill="#3d6f74">●</text>
<path fill="none" stroke="#4a8a90" d="M12,-261.75C12,-261.75 99.25,-261.75 99.25,-261.75 105.25,-261.75 111.25,-267.75 111.25,-273.75 111.25,-273.75 111.25,-320.75 111.25,-320.75 111.25,-326.75 105.25,-332.75 99.25,-332.75 99.25,-332.75 12,-332.75 12,-332.75 6,-332.75 0,-326.75 0,-320.75 0,-320.75 0,-273.75 0,-273.75 0,-267.75 6,-261.75 12,-261.75"/>
</g>
<!-- happy_eyeballs -->
<g id="node3" class="node">
<title>happy_eyeballs</title>
<path fill="#6baaaf" stroke="none" d="M181.25,-302C181.25,-302 266.25,-302 266.25,-302 272.25,-302 278.25,-308 278.25,-314 278.25,-314 278.25,-336.5 278.25,-336.5 278.25,-342.5 272.25,-348.5 266.25,-348.5 266.25,-348.5 181.25,-348.5 181.25,-348.5 175.25,-348.5 169.25,-342.5 169.25,-336.5 169.25,-336.5 169.25,-314 169.25,-314 169.25,-308 175.25,-302 181.25,-302"/>
<polygon fill="#5b9aa0" stroke="none" points="170.25,-327.5 170.25,-347.5 277.25,-347.5 277.25,-327.5 170.25,-327.5"/>
<text xml:space="preserve" text-anchor="start" x="174.25" y="-334.05" font-family="Helvetica,sans-Serif" font-weight="bold" font-size="11.00" fill="white">happy_eyeballs</text>
<text xml:space="preserve" text-anchor="start" x="174.25" y="-308.3" font-family="Helvetica,sans-Serif" font-size="16.00" fill="#3d6f74">●</text>
<text xml:space="preserve" text-anchor="start" x="192" y="-311.38" font-family="Helvetica,sans-Serif" font-size="10.00" fill="white">provide</text>
<text xml:space="preserve" text-anchor="start" x="231.5" y="-311.38" font-family="Helvetica,sans-Serif" font-size="10.00" fill="white">stack</text>
<text xml:space="preserve" text-anchor="start" x="263.5" y="-308.3" font-family="Helvetica,sans-Serif" font-size="16.00" fill="#3d6f74">●</text>
<path fill="none" stroke="#4a8a90" d="M181.25,-302C181.25,-302 266.25,-302 266.25,-302 272.25,-302 278.25,-308 278.25,-314 278.25,-314 278.25,-336.5 278.25,-336.5 278.25,-342.5 272.25,-348.5 266.25,-348.5 266.25,-348.5 181.25,-348.5 181.25,-348.5 175.25,-348.5 169.25,-342.5 169.25,-336.5 169.25,-336.5 169.25,-314 169.25,-314 169.25,-308 175.25,-302 181.25,-302"/>
</g>
<!-- dns_client&#45;&gt;happy_eyeballs -->
<g id="edge20" class="edge">
<title>dns_client:happy_eyeballs_out&#45;&gt;happy_eyeballs:provide_in</title>
<path fill="none" stroke="#4a8a90" d="M111.25,-299.5C134.94,-299.5 141.22,-311.88 160.96,-314.69"/>
<polygon fill="#4a8a90" stroke="#4a8a90" points="160.59,-317.12 167.74,-315.15 160.92,-312.23 160.59,-317.12"/>
</g>
<!-- stack -->
<g id="node6" class="node">
<title>stack</title>
<path fill="#6baaaf" stroke="none" d="M348.25,-155.5C348.25,-155.5 446,-155.5 446,-155.5 452,-155.5 458,-161.5 458,-167.5 458,-167.5 458,-337 458,-337 458,-343 452,-349 446,-349 446,-349 348.25,-349 348.25,-349 342.25,-349 336.25,-343 336.25,-337 336.25,-337 336.25,-167.5 336.25,-167.5 336.25,-161.5 342.25,-155.5 348.25,-155.5"/>
<polygon fill="#5b9aa0" stroke="none" points="337.25,-328 337.25,-348 457,-348 457,-328 337.25,-328"/>
<text xml:space="preserve" text-anchor="start" x="341.25" y="-334.55" font-family="Helvetica,sans-Serif" font-weight="bold" font-size="11.00" fill="white">stack</text>
<text xml:space="preserve" text-anchor="start" x="341.25" y="-308.8" font-family="Helvetica,sans-Serif" font-size="16.00" fill="#3d6f74">●</text>
<text xml:space="preserve" text-anchor="start" x="359" y="-311.88" font-family="Helvetica,sans-Serif" font-size="10.00" fill="white">provide</text>
<text xml:space="preserve" text-anchor="start" x="416.5" y="-311.88" font-family="Helvetica,sans-Serif" font-size="10.00" fill="white">netif</text>
<text xml:space="preserve" text-anchor="start" x="443.25" y="-308.8" font-family="Helvetica,sans-Serif" font-size="16.00" fill="#3d6f74">●</text>
<text xml:space="preserve" text-anchor="start" x="400" y="-287.38" font-family="Helvetica,sans-Serif" font-size="10.00" fill="white">ethernet</text>
<text xml:space="preserve" text-anchor="start" x="443.25" y="-284.3" font-family="Helvetica,sans-Serif" font-size="16.00" fill="#3d6f74">●</text>
<text xml:space="preserve" text-anchor="start" x="411.25" y="-262.88" font-family="Helvetica,sans-Serif" font-size="10.00" fill="white">arpv4</text>
<text xml:space="preserve" text-anchor="start" x="443.25" y="-259.8" font-family="Helvetica,sans-Serif" font-size="16.00" fill="#3d6f74">●</text>
<text xml:space="preserve" text-anchor="start" x="406.75" y="-238.38" font-family="Helvetica,sans-Serif" font-size="10.00" fill="white">ipv4v6</text>
<text xml:space="preserve" text-anchor="start" x="443.25" y="-235.3" font-family="Helvetica,sans-Serif" font-size="16.00" fill="#3d6f74">●</text>
<text xml:space="preserve" text-anchor="start" x="403.75" y="-213.88" font-family="Helvetica,sans-Serif" font-size="10.00" fill="white">icmpv4</text>
<text xml:space="preserve" text-anchor="start" x="443.25" y="-210.8" font-family="Helvetica,sans-Serif" font-size="16.00" fill="#3d6f74">●</text>
<text xml:space="preserve" text-anchor="start" x="398.5" y="-189.38" font-family="Helvetica,sans-Serif" font-size="10.00" fill="white">udpv4v6</text>
<text xml:space="preserve" text-anchor="start" x="443.25" y="-186.3" font-family="Helvetica,sans-Serif" font-size="16.00" fill="#3d6f74">●</text>
<text xml:space="preserve" text-anchor="start" x="400.75" y="-164.88" font-family="Helvetica,sans-Serif" font-size="10.00" fill="white">tcpv4v6</text>
<text xml:space="preserve" text-anchor="start" x="443.25" y="-161.8" font-family="Helvetica,sans-Serif" font-size="16.00" fill="#3d6f74">●</text>
<path fill="none" stroke="#4a8a90" d="M348.25,-155.5C348.25,-155.5 446,-155.5 446,-155.5 452,-155.5 458,-161.5 458,-167.5 458,-167.5 458,-337 458,-337 458,-343 452,-349 446,-349 446,-349 348.25,-349 348.25,-349 342.25,-349 336.25,-343 336.25,-337 336.25,-337 336.25,-167.5 336.25,-167.5 336.25,-161.5 342.25,-155.5 348.25,-155.5"/>
</g>
<!-- dns_client&#45;&gt;stack -->
<g id="edge22" class="edge">
<title>dns_client:stack_out&#45;&gt;stack:provide_in</title>
<path fill="none" stroke="#4a8a90" d="M111.25,-275C185.67,-275 206.43,-267.76 278.25,-287.25 303.05,-293.98 306.91,-311.47 328.01,-315.09"/>
<polygon fill="#4a8a90" stroke="#4a8a90" points="327.57,-317.51 334.74,-315.63 327.96,-312.63 327.57,-317.51"/>
</g>
<!-- server -->
<g id="node2" class="node">
<title>server</title>
<path fill="#6baaaf" stroke="none" d="M33.75,-411.5C33.75,-411.5 77.5,-411.5 77.5,-411.5 83.5,-411.5 89.5,-417.5 89.5,-423.5 89.5,-423.5 89.5,-495 89.5,-495 89.5,-501 83.5,-507 77.5,-507 77.5,-507 33.75,-507 33.75,-507 27.75,-507 21.75,-501 21.75,-495 21.75,-495 21.75,-423.5 21.75,-423.5 21.75,-417.5 27.75,-411.5 33.75,-411.5"/>
<polygon fill="#5b9aa0" stroke="none" points="22.75,-486 22.75,-506 88.5,-506 88.5,-486 22.75,-486"/>
<text xml:space="preserve" text-anchor="start" x="26.75" y="-492.55" font-family="Helvetica,sans-Serif" font-weight="bold" font-size="11.00" fill="white">server</text>
<text xml:space="preserve" text-anchor="start" x="48" y="-469.88" font-family="Helvetica,sans-Serif" font-size="10.00" fill="white">data</text>
<text xml:space="preserve" text-anchor="start" x="74.75" y="-466.8" font-family="Helvetica,sans-Serif" font-size="16.00" fill="#3d6f74">●</text>
<text xml:space="preserve" text-anchor="start" x="45" y="-445.38" font-family="Helvetica,sans-Serif" font-size="10.00" fill="white">certs</text>
<text xml:space="preserve" text-anchor="start" x="74.75" y="-442.3" font-family="Helvetica,sans-Serif" font-size="16.00" fill="#3d6f74">●</text>
<text xml:space="preserve" text-anchor="start" x="42.75" y="-420.88" font-family="Helvetica,sans-Serif" font-size="10.00" fill="white">stack</text>
<text xml:space="preserve" text-anchor="start" x="74.75" y="-417.8" font-family="Helvetica,sans-Serif" font-size="16.00" fill="#3d6f74">●</text>
<path fill="none" stroke="#4a8a90" d="M33.75,-411.5C33.75,-411.5 77.5,-411.5 77.5,-411.5 83.5,-411.5 89.5,-417.5 89.5,-423.5 89.5,-423.5 89.5,-495 89.5,-495 89.5,-501 83.5,-507 77.5,-507 77.5,-507 33.75,-507 33.75,-507 27.75,-507 21.75,-501 21.75,-495 21.75,-495 21.75,-423.5 21.75,-423.5 21.75,-417.5 27.75,-411.5 33.75,-411.5"/>
</g>
<!-- data -->
<g id="node4" class="node">
<title>data</title>
<path fill="#6baaaf" stroke="none" d="M207.12,-512C207.12,-512 240.38,-512 240.38,-512 246.38,-512 252.38,-518 252.38,-524 252.38,-524 252.38,-546.5 252.38,-546.5 252.38,-552.5 246.38,-558.5 240.38,-558.5 240.38,-558.5 207.12,-558.5 207.12,-558.5 201.12,-558.5 195.12,-552.5 195.12,-546.5 195.12,-546.5 195.12,-524 195.12,-524 195.12,-518 201.12,-512 207.12,-512"/>
<polygon fill="#5b9aa0" stroke="none" points="196.12,-537.5 196.12,-557.5 251.38,-557.5 251.38,-537.5 196.12,-537.5"/>
<text xml:space="preserve" text-anchor="start" x="200.12" y="-544.05" font-family="Helvetica,sans-Serif" font-weight="bold" font-size="11.00" fill="white">data</text>
<text xml:space="preserve" text-anchor="start" x="200.12" y="-518.3" font-family="Helvetica,sans-Serif" font-size="16.00" fill="#3d6f74">●</text>
<text xml:space="preserve" text-anchor="start" x="217.88" y="-521.38" font-family="Helvetica,sans-Serif" font-size="10.00" fill="white">get</text>
<path fill="none" stroke="#4a8a90" d="M207.12,-512C207.12,-512 240.38,-512 240.38,-512 246.38,-512 252.38,-518 252.38,-524 252.38,-524 252.38,-546.5 252.38,-546.5 252.38,-552.5 246.38,-558.5 240.38,-558.5 240.38,-558.5 207.12,-558.5 207.12,-558.5 201.12,-558.5 195.12,-552.5 195.12,-546.5 195.12,-546.5 195.12,-524 195.12,-524 195.12,-518 201.12,-512 207.12,-512"/>
</g>
<!-- server&#45;&gt;data -->
<g id="edge23" class="edge">
<title>server:data_out&#45;&gt;data:get_in</title>
<path fill="none" stroke="#4a8a90" d="M89.5,-473.75C138.77,-473.75 142.6,-519.58 186.72,-524.77"/>
<polygon fill="#4a8a90" stroke="#4a8a90" points="186.49,-527.21 193.61,-525.16 186.76,-522.32 186.49,-527.21"/>
</g>
<!-- certs -->
<g id="node5" class="node">
<title>certs</title>
<path fill="#6baaaf" stroke="none" d="M207.12,-436C207.12,-436 240.38,-436 240.38,-436 246.38,-436 252.38,-442 252.38,-448 252.38,-448 252.38,-470.5 252.38,-470.5 252.38,-476.5 246.38,-482.5 240.38,-482.5 240.38,-482.5 207.12,-482.5 207.12,-482.5 201.12,-482.5 195.12,-476.5 195.12,-470.5 195.12,-470.5 195.12,-448 195.12,-448 195.12,-442 201.12,-436 207.12,-436"/>
<polygon fill="#5b9aa0" stroke="none" points="196.12,-461.5 196.12,-481.5 251.38,-481.5 251.38,-461.5 196.12,-461.5"/>
<text xml:space="preserve" text-anchor="start" x="200.12" y="-468.05" font-family="Helvetica,sans-Serif" font-weight="bold" font-size="11.00" fill="white">certs</text>
<text xml:space="preserve" text-anchor="start" x="200.12" y="-442.3" font-family="Helvetica,sans-Serif" font-size="16.00" fill="#3d6f74">●</text>
<text xml:space="preserve" text-anchor="start" x="217.88" y="-445.38" font-family="Helvetica,sans-Serif" font-size="10.00" fill="white">get</text>
<path fill="none" stroke="#4a8a90" d="M207.12,-436C207.12,-436 240.38,-436 240.38,-436 246.38,-436 252.38,-442 252.38,-448 252.38,-448 252.38,-470.5 252.38,-470.5 252.38,-476.5 246.38,-482.5 240.38,-482.5 240.38,-482.5 207.12,-482.5 207.12,-482.5 201.12,-482.5 195.12,-476.5 195.12,-470.5 195.12,-470.5 195.12,-448 195.12,-448 195.12,-442 201.12,-436 207.12,-436"/>
</g>
<!-- server&#45;&gt;certs -->
<g id="edge24" class="edge">
<title>server:certs_out&#45;&gt;certs:get_in</title>
<path fill="none" stroke="#4a8a90" d="M89.5,-449.25C133.51,-449.25 146.58,-449.25 186.72,-449.25"/>
<polygon fill="#4a8a90" stroke="#4a8a90" points="186.61,-451.7 193.61,-449.25 186.61,-446.8 186.61,-451.7"/>
</g>
<!-- server&#45;&gt;stack -->
<g id="edge25" class="edge">
<title>server:stack_out&#45;&gt;stack:provide_in</title>
<path fill="none" stroke="#4a8a90" d="M89.5,-424.75C177.73,-424.75 200.85,-405.6 278.25,-363.25 304.74,-348.76 303.49,-321.52 327.82,-316.54"/>
<polygon fill="#4a8a90" stroke="#4a8a90" points="328,-318.99 334.74,-315.89 327.54,-314.11 328,-318.99"/>
</g>
<!-- happy_eyeballs&#45;&gt;stack -->
<g id="edge21" class="edge">
<title>happy_eyeballs:stack_out&#45;&gt;stack:provide_in</title>
<path fill="none" stroke="#4a8a90" d="M278.25,-315.25C301.01,-315.25 308.7,-315.64 327.92,-315.73"/>
<polygon fill="#4a8a90" stroke="#4a8a90" points="327.73,-318.18 334.74,-315.75 327.74,-313.28 327.73,-318.18"/>
</g>
<!-- icmp -->
<g id="node7" class="node">
<title>icmp</title>
<path fill="#6baaaf" stroke="none" d="M528,-152C528,-152 625,-152 625,-152 631,-152 637,-158 637,-164 637,-164 637,-186.5 637,-186.5 637,-192.5 631,-198.5 625,-198.5 625,-198.5 528,-198.5 528,-198.5 522,-198.5 516,-192.5 516,-186.5 516,-186.5 516,-164 516,-164 516,-158 522,-152 528,-152"/>
<polygon fill="#5b9aa0" stroke="none" points="517,-177.5 517,-197.5 636,-197.5 636,-177.5 517,-177.5"/>
<text xml:space="preserve" text-anchor="start" x="521" y="-184.05" font-family="Helvetica,sans-Serif" font-weight="bold" font-size="11.00" fill="white">icmp</text>
<text xml:space="preserve" text-anchor="start" x="521" y="-158.3" font-family="Helvetica,sans-Serif" font-size="16.00" fill="#3d6f74">●</text>
<text xml:space="preserve" text-anchor="start" x="538.75" y="-161.38" font-family="Helvetica,sans-Serif" font-size="10.00" fill="white">ip_write</text>
<text xml:space="preserve" text-anchor="start" x="580.5" y="-161.38" font-family="Helvetica,sans-Serif" font-size="10.00" fill="white">ip_write</text>
<text xml:space="preserve" text-anchor="start" x="622.25" y="-158.3" font-family="Helvetica,sans-Serif" font-size="16.00" fill="#3d6f74">●</text>
<path fill="none" stroke="#4a8a90" d="M528,-152C528,-152 625,-152 625,-152 631,-152 637,-158 637,-164 637,-164 637,-186.5 637,-186.5 637,-192.5 631,-198.5 625,-198.5 625,-198.5 528,-198.5 528,-198.5 522,-198.5 516,-192.5 516,-186.5 516,-186.5 516,-164 516,-164 516,-158 522,-152 528,-152"/>
</g>
<!-- stack&#45;&gt;icmp -->
<g id="edge17" class="edge">
<title>stack:icmpv4_out&#45;&gt;icmp:ip_write_in</title>
<path fill="none" stroke="#4a8a90" d="M458,-217.75C489.65,-217.75 482.93,-174.26 507.68,-166.45"/>
<polygon fill="#4a8a90" stroke="#4a8a90" points="507.92,-168.89 514.5,-165.47 507.22,-164.04 507.92,-168.89"/>
</g>
<!-- udp -->
<g id="node8" class="node">
<title>udp</title>
<path fill="#6baaaf" stroke="none" d="M528,-76C528,-76 625,-76 625,-76 631,-76 637,-82 637,-88 637,-88 637,-110.5 637,-110.5 637,-116.5 631,-122.5 625,-122.5 625,-122.5 528,-122.5 528,-122.5 522,-122.5 516,-116.5 516,-110.5 516,-110.5 516,-88 516,-88 516,-82 522,-76 528,-76"/>
<polygon fill="#5b9aa0" stroke="none" points="517,-101.5 517,-121.5 636,-121.5 636,-101.5 517,-101.5"/>
<text xml:space="preserve" text-anchor="start" x="521" y="-108.05" font-family="Helvetica,sans-Serif" font-weight="bold" font-size="11.00" fill="white">udp</text>
<text xml:space="preserve" text-anchor="start" x="521" y="-82.3" font-family="Helvetica,sans-Serif" font-size="16.00" fill="#3d6f74">●</text>
<text xml:space="preserve" text-anchor="start" x="538.75" y="-85.38" font-family="Helvetica,sans-Serif" font-size="10.00" fill="white">ip_write</text>
<text xml:space="preserve" text-anchor="start" x="580.5" y="-85.38" font-family="Helvetica,sans-Serif" font-size="10.00" fill="white">ip_write</text>
<text xml:space="preserve" text-anchor="start" x="622.25" y="-82.3" font-family="Helvetica,sans-Serif" font-size="16.00" fill="#3d6f74">●</text>
<path fill="none" stroke="#4a8a90" d="M528,-76C528,-76 625,-76 625,-76 631,-76 637,-82 637,-88 637,-88 637,-110.5 637,-110.5 637,-116.5 631,-122.5 625,-122.5 625,-122.5 528,-122.5 528,-122.5 522,-122.5 516,-116.5 516,-110.5 516,-110.5 516,-88 516,-88 516,-82 522,-76 528,-76"/>
</g>
<!-- stack&#45;&gt;udp -->
<g id="edge18" class="edge">
<title>stack:udpv4v6_out&#45;&gt;udp:ip_write_in</title>
<path fill="none" stroke="#4a8a90" d="M458,-193.25C507.82,-193.25 468.34,-101.08 507.69,-90.28"/>
<polygon fill="#4a8a90" stroke="#4a8a90" points="507.85,-92.73 514.5,-89.44 507.25,-87.87 507.85,-92.73"/>
</g>
<!-- tcp -->
<g id="node9" class="node">
<title>tcp</title>
<path fill="#6baaaf" stroke="none" d="M534.38,0C534.38,0 618.62,0 618.62,0 624.62,0 630.62,-6 630.62,-12 630.62,-12 630.62,-34.5 630.62,-34.5 630.62,-40.5 624.62,-46.5 618.62,-46.5 618.62,-46.5 534.38,-46.5 534.38,-46.5 528.38,-46.5 522.38,-40.5 522.38,-34.5 522.38,-34.5 522.38,-12 522.38,-12 522.38,-6 528.38,0 534.38,0"/>
<polygon fill="#5b9aa0" stroke="none" points="523.38,-25.5 523.38,-45.5 629.62,-45.5 629.62,-25.5 523.38,-25.5"/>
<text xml:space="preserve" text-anchor="start" x="527.38" y="-32.05" font-family="Helvetica,sans-Serif" font-weight="bold" font-size="11.00" fill="white">tcp</text>
<text xml:space="preserve" text-anchor="start" x="527.38" y="-6.3" font-family="Helvetica,sans-Serif" font-size="16.00" fill="#3d6f74">●</text>
<text xml:space="preserve" text-anchor="start" x="545.12" y="-9.38" font-family="Helvetica,sans-Serif" font-size="10.00" fill="white">write</text>
<text xml:space="preserve" text-anchor="start" x="574.12" y="-9.38" font-family="Helvetica,sans-Serif" font-size="10.00" fill="white">ip_write</text>
<text xml:space="preserve" text-anchor="start" x="615.88" y="-6.3" font-family="Helvetica,sans-Serif" font-size="16.00" fill="#3d6f74">●</text>
<path fill="none" stroke="#4a8a90" d="M534.38,0C534.38,0 618.62,0 618.62,0 624.62,0 630.62,-6 630.62,-12 630.62,-12 630.62,-34.5 630.62,-34.5 630.62,-40.5 624.62,-46.5 618.62,-46.5 618.62,-46.5 534.38,-46.5 534.38,-46.5 528.38,-46.5 522.38,-40.5 522.38,-34.5 522.38,-34.5 522.38,-12 522.38,-12 522.38,-6 528.38,0 534.38,0"/>
</g>
<!-- stack&#45;&gt;tcp -->
<g id="edge19" class="edge">
<title>stack:tcpv4v6_out&#45;&gt;tcp:write_in</title>
<path fill="none" stroke="#4a8a90" d="M448.12,-155.5C448.12,-87.11 450.82,-19.07 513.94,-13.6"/>
<polygon fill="#4a8a90" stroke="#4a8a90" points="513.97,-16.05 520.86,-13.31 513.77,-11.16 513.97,-16.05"/>
</g>
<!-- ip -->
<g id="node10" class="node">
<title>ip</title>
<path fill="#6baaaf" stroke="none" d="M707,-97.75C707,-97.75 775.5,-97.75 775.5,-97.75 781.5,-97.75 787.5,-103.75 787.5,-109.75 787.5,-109.75 787.5,-156.75 787.5,-156.75 787.5,-162.75 781.5,-168.75 775.5,-168.75 775.5,-168.75 707,-168.75 707,-168.75 701,-168.75 695,-162.75 695,-156.75 695,-156.75 695,-109.75 695,-109.75 695,-103.75 701,-97.75 707,-97.75"/>
<polygon fill="#5b9aa0" stroke="none" points="696,-147.75 696,-167.75 786.5,-167.75 786.5,-147.75 696,-147.75"/>
<text xml:space="preserve" text-anchor="start" x="700" y="-154.3" font-family="Helvetica,sans-Serif" font-weight="bold" font-size="11.00" fill="white">ip</text>
<text xml:space="preserve" text-anchor="start" x="700" y="-128.55" font-family="Helvetica,sans-Serif" font-size="16.00" fill="#3d6f74">●</text>
<text xml:space="preserve" text-anchor="start" x="717.75" y="-131.62" font-family="Helvetica,sans-Serif" font-size="10.00" fill="white">write</text>
<text xml:space="preserve" text-anchor="start" x="746.75" y="-131.62" font-family="Helvetica,sans-Serif" font-size="10.00" fill="white">ipv4</text>
<text xml:space="preserve" text-anchor="start" x="772.75" y="-128.55" font-family="Helvetica,sans-Serif" font-size="16.00" fill="#3d6f74">●</text>
<text xml:space="preserve" text-anchor="start" x="746.75" y="-107.12" font-family="Helvetica,sans-Serif" font-size="10.00" fill="white">ipv6</text>
<text xml:space="preserve" text-anchor="start" x="772.75" y="-104.05" font-family="Helvetica,sans-Serif" font-size="16.00" fill="#3d6f74">●</text>
<path fill="none" stroke="#4a8a90" d="M707,-97.75C707,-97.75 775.5,-97.75 775.5,-97.75 781.5,-97.75 787.5,-103.75 787.5,-109.75 787.5,-109.75 787.5,-156.75 787.5,-156.75 787.5,-162.75 781.5,-168.75 775.5,-168.75 775.5,-168.75 707,-168.75 707,-168.75 701,-168.75 695,-162.75 695,-156.75 695,-156.75 695,-109.75 695,-109.75 695,-103.75 701,-97.75 707,-97.75"/>
</g>
<!-- stack&#45;&gt;ip -->
<g id="edge16" class="edge">
<title>stack:ipv4v6_out&#45;&gt;ip:write_in</title>
<path fill="none" stroke="#4a8a90" d="M458,-242.25C538.59,-242.25 568.09,-255.05 637,-213.25 671.27,-192.46 654.69,-143.13 686.83,-136.29"/>
<polygon fill="#4a8a90" stroke="#4a8a90" points="686.76,-138.76 693.49,-135.65 686.29,-133.88 686.76,-138.76"/>
</g>
<!-- arp -->
<g id="node13" class="node">
<title>arp</title>
<path fill="#6baaaf" stroke="none" d="M1032.75,-211C1032.75,-211 1126,-211 1126,-211 1132,-211 1138,-217 1138,-223 1138,-223 1138,-245.5 1138,-245.5 1138,-251.5 1132,-257.5 1126,-257.5 1126,-257.5 1032.75,-257.5 1032.75,-257.5 1026.75,-257.5 1020.75,-251.5 1020.75,-245.5 1020.75,-245.5 1020.75,-223 1020.75,-223 1020.75,-217 1026.75,-211 1032.75,-211"/>
<polygon fill="#5b9aa0" stroke="none" points="1021.75,-236.5 1021.75,-256.5 1137,-256.5 1137,-236.5 1021.75,-236.5"/>
<text xml:space="preserve" text-anchor="start" x="1025.75" y="-243.05" font-family="Helvetica,sans-Serif" font-weight="bold" font-size="11.00" fill="white">arp</text>
<text xml:space="preserve" text-anchor="start" x="1025.75" y="-217.3" font-family="Helvetica,sans-Serif" font-size="16.00" fill="#3d6f74">●</text>
<text xml:space="preserve" text-anchor="start" x="1043.5" y="-220.38" font-family="Helvetica,sans-Serif" font-size="10.00" fill="white">query</text>
<text xml:space="preserve" text-anchor="start" x="1075.5" y="-220.38" font-family="Helvetica,sans-Serif" font-size="10.00" fill="white">eth_write</text>
<text xml:space="preserve" text-anchor="start" x="1123.25" y="-217.3" font-family="Helvetica,sans-Serif" font-size="16.00" fill="#3d6f74">●</text>
<path fill="none" stroke="#4a8a90" d="M1032.75,-211C1032.75,-211 1126,-211 1126,-211 1132,-211 1138,-217 1138,-223 1138,-223 1138,-245.5 1138,-245.5 1138,-251.5 1132,-257.5 1126,-257.5 1126,-257.5 1032.75,-257.5 1032.75,-257.5 1026.75,-257.5 1020.75,-251.5 1020.75,-245.5 1020.75,-245.5 1020.75,-223 1020.75,-223 1020.75,-217 1026.75,-211 1032.75,-211"/>
</g>
<!-- stack&#45;&gt;arp -->
<g id="edge15" class="edge">
<title>stack:arpv4_out&#45;&gt;arp:query_in</title>
<path fill="none" stroke="#4a8a90" d="M458,-266.75C682.34,-266.75 750.51,-341.93 962.75,-269.25 990.72,-259.67 988.83,-230.5 1012.52,-225.11"/>
<polygon fill="#4a8a90" stroke="#4a8a90" points="1012.54,-227.57 1019.24,-224.41 1012.03,-222.7 1012.54,-227.57"/>
</g>
<!-- eth -->
<g id="node14" class="node">
<title>eth</title>
<path fill="#6baaaf" stroke="none" d="M1208,-249C1208,-249 1298.25,-249 1298.25,-249 1304.25,-249 1310.25,-255 1310.25,-261 1310.25,-261 1310.25,-283.5 1310.25,-283.5 1310.25,-289.5 1304.25,-295.5 1298.25,-295.5 1298.25,-295.5 1208,-295.5 1208,-295.5 1202,-295.5 1196,-289.5 1196,-283.5 1196,-283.5 1196,-261 1196,-261 1196,-255 1202,-249 1208,-249"/>
<polygon fill="#5b9aa0" stroke="none" points="1197,-274.5 1197,-294.5 1309.25,-294.5 1309.25,-274.5 1197,-274.5"/>
<text xml:space="preserve" text-anchor="start" x="1201" y="-281.05" font-family="Helvetica,sans-Serif" font-weight="bold" font-size="11.00" fill="white">eth</text>
<text xml:space="preserve" text-anchor="start" x="1201" y="-255.3" font-family="Helvetica,sans-Serif" font-size="16.00" fill="#3d6f74">●</text>
<text xml:space="preserve" text-anchor="start" x="1218.75" y="-258.38" font-family="Helvetica,sans-Serif" font-size="10.00" fill="white">write</text>
<text xml:space="preserve" text-anchor="start" x="1247.75" y="-258.38" font-family="Helvetica,sans-Serif" font-size="10.00" fill="white">net_write</text>
<text xml:space="preserve" text-anchor="start" x="1295.5" y="-255.3" font-family="Helvetica,sans-Serif" font-size="16.00" fill="#3d6f74">●</text>
<path fill="none" stroke="#4a8a90" d="M1208,-249C1208,-249 1298.25,-249 1298.25,-249 1304.25,-249 1310.25,-255 1310.25,-261 1310.25,-261 1310.25,-283.5 1310.25,-283.5 1310.25,-289.5 1304.25,-295.5 1298.25,-295.5 1298.25,-295.5 1208,-295.5 1208,-295.5 1202,-295.5 1196,-289.5 1196,-283.5 1196,-283.5 1196,-261 1196,-261 1196,-255 1202,-249 1208,-249"/>
</g>
<!-- stack&#45;&gt;eth -->
<g id="edge14" class="edge">
<title>stack:ethernet_out&#45;&gt;eth:write_in</title>
<path fill="none" stroke="#4a8a90" d="M458,-291.25C522.57,-291.25 675.68,-360.25 740.25,-360.25 740.25,-360.25 740.25,-360.25 905.12,-360.25 1012.12,-360.25 1039.96,-342.1 1138,-299.25 1163.17,-288.25 1165.25,-267.15 1187.59,-262.98"/>
<polygon fill="#4a8a90" stroke="#4a8a90" points="1187.73,-265.42 1194.49,-262.38 1187.31,-260.54 1187.73,-265.42"/>
</g>
<!-- net -->
<g id="node15" class="node">
<title>net</title>
<path fill="#6baaaf" stroke="none" d="M1380.25,-249C1380.25,-249 1467.5,-249 1467.5,-249 1473.5,-249 1479.5,-255 1479.5,-261 1479.5,-261 1479.5,-283.5 1479.5,-283.5 1479.5,-289.5 1473.5,-295.5 1467.5,-295.5 1467.5,-295.5 1380.25,-295.5 1380.25,-295.5 1374.25,-295.5 1368.25,-289.5 1368.25,-283.5 1368.25,-283.5 1368.25,-261 1368.25,-261 1368.25,-255 1374.25,-249 1380.25,-249"/>
<polygon fill="#5b9aa0" stroke="none" points="1369.25,-274.5 1369.25,-294.5 1478.5,-294.5 1478.5,-274.5 1369.25,-274.5"/>
<text xml:space="preserve" text-anchor="start" x="1373.25" y="-281.05" font-family="Helvetica,sans-Serif" font-weight="bold" font-size="11.00" fill="white">net</text>
<text xml:space="preserve" text-anchor="start" x="1373.25" y="-255.3" font-family="Helvetica,sans-Serif" font-size="16.00" fill="#3d6f74">●</text>
<text xml:space="preserve" text-anchor="start" x="1391" y="-258.38" font-family="Helvetica,sans-Serif" font-size="10.00" fill="white">write</text>
<text xml:space="preserve" text-anchor="start" x="1420" y="-258.38" font-family="Helvetica,sans-Serif" font-size="10.00" fill="white">backend</text>
<text xml:space="preserve" text-anchor="start" x="1464.75" y="-255.3" font-family="Helvetica,sans-Serif" font-size="16.00" fill="#3d6f74">●</text>
<path fill="none" stroke="#4a8a90" d="M1380.25,-249C1380.25,-249 1467.5,-249 1467.5,-249 1473.5,-249 1479.5,-255 1479.5,-261 1479.5,-261 1479.5,-283.5 1479.5,-283.5 1479.5,-289.5 1473.5,-295.5 1467.5,-295.5 1467.5,-295.5 1380.25,-295.5 1380.25,-295.5 1374.25,-295.5 1368.25,-289.5 1368.25,-283.5 1368.25,-283.5 1368.25,-261 1368.25,-261 1368.25,-255 1374.25,-249 1380.25,-249"/>
</g>
<!-- stack&#45;&gt;net -->
<g id="edge13" class="edge">
<title>stack:netif_out&#45;&gt;net:write_in</title>
<path fill="none" stroke="#4a8a90" d="M458,-315.75C485.98,-315.75 489.9,-330.15 516,-340.25 614.55,-378.38 634.58,-419.25 740.25,-419.25 740.25,-419.25 740.25,-419.25 1080.38,-419.25 1193.45,-419.25 1214.88,-370.99 1310.25,-310.25 1335.94,-293.89 1335.19,-267.55 1360.08,-262.95"/>
<polygon fill="#4a8a90" stroke="#4a8a90" points="1359.98,-265.41 1366.74,-262.38 1359.56,-260.53 1359.98,-265.41"/>
</g>
<!-- ipv4 -->
<g id="node11" class="node">
<title>ipv4</title>
<path fill="#6baaaf" stroke="none" d="M857.5,-183.75C857.5,-183.75 950.75,-183.75 950.75,-183.75 956.75,-183.75 962.75,-189.75 962.75,-195.75 962.75,-195.75 962.75,-242.75 962.75,-242.75 962.75,-248.75 956.75,-254.75 950.75,-254.75 950.75,-254.75 857.5,-254.75 857.5,-254.75 851.5,-254.75 845.5,-248.75 845.5,-242.75 845.5,-242.75 845.5,-195.75 845.5,-195.75 845.5,-189.75 851.5,-183.75 857.5,-183.75"/>
<polygon fill="#5b9aa0" stroke="none" points="846.5,-233.75 846.5,-253.75 961.75,-253.75 961.75,-233.75 846.5,-233.75"/>
<text xml:space="preserve" text-anchor="start" x="850.5" y="-240.3" font-family="Helvetica,sans-Serif" font-weight="bold" font-size="11.00" fill="white">ipv4</text>
<text xml:space="preserve" text-anchor="start" x="850.5" y="-214.55" font-family="Helvetica,sans-Serif" font-size="16.00" fill="#3d6f74">●</text>
<text xml:space="preserve" text-anchor="start" x="868.25" y="-217.62" font-family="Helvetica,sans-Serif" font-size="10.00" fill="white">write</text>
<text xml:space="preserve" text-anchor="start" x="900.25" y="-217.62" font-family="Helvetica,sans-Serif" font-size="10.00" fill="white">eth_write</text>
<text xml:space="preserve" text-anchor="start" x="948" y="-214.55" font-family="Helvetica,sans-Serif" font-size="16.00" fill="#3d6f74">●</text>
<text xml:space="preserve" text-anchor="start" x="897.25" y="-193.12" font-family="Helvetica,sans-Serif" font-size="10.00" fill="white">arp_query</text>
<text xml:space="preserve" text-anchor="start" x="948" y="-190.05" font-family="Helvetica,sans-Serif" font-size="16.00" fill="#3d6f74">●</text>
<path fill="none" stroke="#4a8a90" d="M857.5,-183.75C857.5,-183.75 950.75,-183.75 950.75,-183.75 956.75,-183.75 962.75,-189.75 962.75,-195.75 962.75,-195.75 962.75,-242.75 962.75,-242.75 962.75,-248.75 956.75,-254.75 950.75,-254.75 950.75,-254.75 857.5,-254.75 857.5,-254.75 851.5,-254.75 845.5,-248.75 845.5,-242.75 845.5,-242.75 845.5,-195.75 845.5,-195.75 845.5,-189.75 851.5,-183.75 857.5,-183.75"/>
</g>
<!-- icmp&#45;&gt;ipv4 -->
<g id="edge10" class="edge">
<title>icmp:ip_write_out&#45;&gt;ipv4:write_in</title>
<path fill="none" stroke="#4a8a90" d="M637,-165.25C663.99,-165.25 669.02,-175.92 695,-183.25 758.7,-201.22 775.16,-219.9 837.27,-221.4"/>
<polygon fill="#4a8a90" stroke="#4a8a90" points="836.96,-223.85 843.99,-221.48 837.02,-218.95 836.96,-223.85"/>
</g>
<!-- udp&#45;&gt;ip -->
<g id="edge11" class="edge">
<title>udp:ip_write_out&#45;&gt;ip:write_in</title>
<path fill="none" stroke="#4a8a90" d="M637,-89.25C666.88,-89.25 663.16,-127.23 686.74,-134.36"/>
<polygon fill="#4a8a90" stroke="#4a8a90" points="686.23,-136.76 693.5,-135.29 686.9,-131.91 686.23,-136.76"/>
</g>
<!-- tcp&#45;&gt;ip -->
<g id="edge12" class="edge">
<title>tcp:ip_write_out&#45;&gt;ip:write_in</title>
<path fill="none" stroke="#4a8a90" d="M630.62,-13.25C688.91,-13.25 639.22,-123.4 686.54,-134.59"/>
<polygon fill="#4a8a90" stroke="#4a8a90" points="686.27,-137.02 693.5,-135.34 686.8,-132.15 686.27,-137.02"/>
</g>
<!-- ip&#45;&gt;ipv4 -->
<g id="edge8" class="edge">
<title>ip:ipv4_out&#45;&gt;ipv4:write_in</title>
<path fill="none" stroke="#4a8a90" d="M787.5,-135.5C830.54,-135.5 803.59,-210.46 837.33,-220.41"/>
<polygon fill="#4a8a90" stroke="#4a8a90" points="836.74,-222.81 844,-221.3 837.38,-217.95 836.74,-222.81"/>
</g>
<!-- ipv6 -->
<g id="node12" class="node">
<title>ipv6</title>
<path fill="#6baaaf" stroke="none" d="M859,-73.75C859,-73.75 949.25,-73.75 949.25,-73.75 955.25,-73.75 961.25,-79.75 961.25,-85.75 961.25,-85.75 961.25,-132.75 961.25,-132.75 961.25,-138.75 955.25,-144.75 949.25,-144.75 949.25,-144.75 859,-144.75 859,-144.75 853,-144.75 847,-138.75 847,-132.75 847,-132.75 847,-85.75 847,-85.75 847,-79.75 853,-73.75 859,-73.75"/>
<polygon fill="#5b9aa0" stroke="none" points="848,-123.75 848,-143.75 960.25,-143.75 960.25,-123.75 848,-123.75"/>
<text xml:space="preserve" text-anchor="start" x="852" y="-130.3" font-family="Helvetica,sans-Serif" font-weight="bold" font-size="11.00" fill="white">ipv6</text>
<text xml:space="preserve" text-anchor="start" x="852" y="-104.55" font-family="Helvetica,sans-Serif" font-size="16.00" fill="#3d6f74">●</text>
<text xml:space="preserve" text-anchor="start" x="869.75" y="-107.62" font-family="Helvetica,sans-Serif" font-size="10.00" fill="white">write</text>
<text xml:space="preserve" text-anchor="start" x="898.75" y="-107.62" font-family="Helvetica,sans-Serif" font-size="10.00" fill="white">net_write</text>
<text xml:space="preserve" text-anchor="start" x="946.5" y="-104.55" font-family="Helvetica,sans-Serif" font-size="16.00" fill="#3d6f74">●</text>
<text xml:space="preserve" text-anchor="start" x="898.75" y="-83.12" font-family="Helvetica,sans-Serif" font-size="10.00" fill="white">eth_write</text>
<text xml:space="preserve" text-anchor="start" x="946.5" y="-80.05" font-family="Helvetica,sans-Serif" font-size="16.00" fill="#3d6f74">●</text>
<path fill="none" stroke="#4a8a90" d="M859,-73.75C859,-73.75 949.25,-73.75 949.25,-73.75 955.25,-73.75 961.25,-79.75 961.25,-85.75 961.25,-85.75 961.25,-132.75 961.25,-132.75 961.25,-138.75 955.25,-144.75 949.25,-144.75 949.25,-144.75 859,-144.75 859,-144.75 853,-144.75 847,-138.75 847,-132.75 847,-132.75 847,-85.75 847,-85.75 847,-79.75 853,-73.75 859,-73.75"/>
</g>
<!-- ip&#45;&gt;ipv6 -->
<g id="edge9" class="edge">
<title>ip:ipv6_out&#45;&gt;ipv6:write_in</title>
<path fill="none" stroke="#4a8a90" d="M787.5,-111C810.95,-111 818.8,-111.39 838.72,-111.48"/>
<polygon fill="#4a8a90" stroke="#4a8a90" points="838.48,-113.93 845.49,-111.5 838.49,-109.03 838.48,-113.93"/>
</g>
<!-- ipv4&#45;&gt;arp -->
<g id="edge5" class="edge">
<title>ipv4:arp_query_out&#45;&gt;arp:query_in</title>
<path fill="none" stroke="#4a8a90" d="M962.75,-197C988.12,-197 991.71,-218.62 1012.32,-223.34"/>
<polygon fill="#4a8a90" stroke="#4a8a90" points="1012.02,-225.78 1019.25,-224.09 1012.55,-220.9 1012.02,-225.78"/>
</g>
<!-- ipv4&#45;&gt;eth -->
<g id="edge4" class="edge">
<title>ipv4:eth_write_out&#45;&gt;eth:write_in</title>
<path fill="none" stroke="#4a8a90" d="M962.75,-221.5C997,-221.5 988.69,-260.2 1020.75,-272.25 1069.53,-290.58 1086.08,-276.69 1138,-272.25 1161.01,-270.28 1168.21,-263.99 1187.58,-262.55"/>
<polygon fill="#4a8a90" stroke="#4a8a90" points="1187.58,-265 1194.49,-262.3 1187.4,-260.1 1187.58,-265"/>
</g>
<!-- ipv6&#45;&gt;eth -->
<g id="edge7" class="edge">
<title>ipv6:eth_write_out&#45;&gt;eth:write_in</title>
<path fill="none" stroke="#4a8a90" d="M961.25,-87C993.94,-87 993.24,-112.59 1020.75,-130.25 1071.08,-162.55 1088.2,-163.15 1138,-196.25 1167.33,-215.75 1200.27,-211.66 1205.23,-240.83"/>
<polygon fill="#4a8a90" stroke="#4a8a90" points="1202.77,-240.7 1205.76,-247.49 1207.65,-240.32 1202.77,-240.7"/>
</g>
<!-- ipv6&#45;&gt;net -->
<g id="edge6" class="edge">
<title>ipv6:net_write_out&#45;&gt;net:write_in</title>
<path fill="none" stroke="#4a8a90" d="M961.25,-111.5C1153.49,-111.5 1371.63,-55.58 1377.98,-240.59"/>
<polygon fill="#4a8a90" stroke="#4a8a90" points="1375.53,-240.53 1378.1,-247.49 1380.43,-240.45 1375.53,-240.53"/>
</g>
<!-- arp&#45;&gt;eth -->
<g id="edge3" class="edge">
<title>arp:eth_write_out&#45;&gt;eth:write_in</title>
<path fill="none" stroke="#4a8a90" d="M1138,-224.25C1165.69,-224.25 1165.57,-254.92 1187.6,-261.15"/>
<polygon fill="#4a8a90" stroke="#4a8a90" points="1187.24,-263.58 1194.5,-262.05 1187.88,-258.72 1187.24,-263.58"/>
</g>
<!-- eth&#45;&gt;net -->
<g id="edge2" class="edge">
<title>eth:net_write_out&#45;&gt;net:write_in</title>
<path fill="none" stroke="#4a8a90" d="M1310.25,-262.25C1333.01,-262.25 1340.7,-262.25 1359.92,-262.25"/>
<polygon fill="#4a8a90" stroke="#4a8a90" points="1359.74,-264.7 1366.74,-262.25 1359.74,-259.8 1359.74,-264.7"/>
</g>
<!-- backend -->
<g id="node16" class="node">
<title>backend</title>
<path fill="#6baaaf" stroke="none" d="M1549.5,-249C1549.5,-249 1600.75,-249 1600.75,-249 1606.75,-249 1612.75,-255 1612.75,-261 1612.75,-261 1612.75,-283.5 1612.75,-283.5 1612.75,-289.5 1606.75,-295.5 1600.75,-295.5 1600.75,-295.5 1549.5,-295.5 1549.5,-295.5 1543.5,-295.5 1537.5,-289.5 1537.5,-283.5 1537.5,-283.5 1537.5,-261 1537.5,-261 1537.5,-255 1543.5,-249 1549.5,-249"/>
<polygon fill="#5b9aa0" stroke="none" points="1538.5,-274.5 1538.5,-294.5 1611.75,-294.5 1611.75,-274.5 1538.5,-274.5"/>
<text xml:space="preserve" text-anchor="start" x="1542.5" y="-281.05" font-family="Helvetica,sans-Serif" font-weight="bold" font-size="11.00" fill="white">backend</text>
<text xml:space="preserve" text-anchor="start" x="1542.5" y="-255.3" font-family="Helvetica,sans-Serif" font-size="16.00" fill="#3d6f74">●</text>
<text xml:space="preserve" text-anchor="start" x="1560.25" y="-258.38" font-family="Helvetica,sans-Serif" font-size="10.00" fill="white">provide</text>
<path fill="none" stroke="#4a8a90" d="M1549.5,-249C1549.5,-249 1600.75,-249 1600.75,-249 1606.75,-249 1612.75,-255 1612.75,-261 1612.75,-261 1612.75,-283.5 1612.75,-283.5 1612.75,-289.5 1606.75,-295.5 1600.75,-295.5 1600.75,-295.5 1549.5,-295.5 1549.5,-295.5 1543.5,-295.5 1537.5,-289.5 1537.5,-283.5 1537.5,-283.5 1537.5,-261 1537.5,-261 1537.5,-255 1543.5,-249 1549.5,-249"/>
</g>
<!-- net&#45;&gt;backend -->
<g id="edge1" class="edge">
<title>net:backend_out&#45;&gt;backend:provide_in</title>
<path fill="none" stroke="#4a8a90" d="M1479.5,-262.25C1502.26,-262.25 1509.95,-262.25 1529.17,-262.25"/>
<polygon fill="#4a8a90" stroke="#4a8a90" points="1528.99,-264.7 1535.99,-262.25 1528.99,-259.8 1528.99,-264.7"/>
</g>
</g>
</svg>
