<?xml version="1.0" encoding="UTF-8" standalone="no"?>
<!DOCTYPE svg PUBLIC "-//W3C//DTD SVG 1.1//EN"
 "http://www.w3.org/Graphics/SVG/1.1/DTD/svg11.dtd">
<!-- Generated by graphviz version 14.1.2 (20260124.0452)
 -->
<!-- Title: StaticWebsite Pages: 1 -->
<svg width="1460pt" height="558pt"
 viewBox="0.00 0.00 1460.00 558.00" xmlns="http://www.w3.org/2000/svg" xmlns:xlink="http://www.w3.org/1999/xlink">
<g id="graph0" class="graph" transform="scale(1 1) rotate(0) translate(28.8 529.3)">
<title>StaticWebsite</title>
<polygon fill="white" stroke="none" points="-28.8,28.8 -28.8,-529.3 1431.05,-529.3 1431.05,28.8 -28.8,28.8"/>
<!-- server -->
<g id="node1" class="node">
<title>server</title>
<path fill="#6baaaf" stroke="none" d="M12,-353.5C12,-353.5 55.75,-353.5 55.75,-353.5 61.75,-353.5 67.75,-359.5 67.75,-365.5 67.75,-365.5 67.75,-437 67.75,-437 67.75,-443 61.75,-449 55.75,-449 55.75,-449 12,-449 12,-449 6,-449 0,-443 0,-437 0,-437 0,-365.5 0,-365.5 0,-359.5 6,-353.5 12,-353.5"/>
<polygon fill="#5b9aa0" stroke="none" points="1,-428 1,-448 66.75,-448 66.75,-428 1,-428"/>
<text xml:space="preserve" text-anchor="start" x="5" y="-434.55" font-family="Helvetica,sans-Serif" font-weight="bold" font-size="11.00" fill="white">server</text>
<text xml:space="preserve" text-anchor="start" x="26.25" y="-411.88" font-family="Helvetica,sans-Serif" font-size="10.00" fill="white">data</text>
<text xml:space="preserve" text-anchor="start" x="53" y="-408.8" font-family="Helvetica,sans-Serif" font-size="16.00" fill="#3d6f74">●</text>
<text xml:space="preserve" text-anchor="start" x="23.25" y="-387.38" font-family="Helvetica,sans-Serif" font-size="10.00" fill="white">certs</text>
<text xml:space="preserve" text-anchor="start" x="53" y="-384.3" font-family="Helvetica,sans-Serif" font-size="16.00" fill="#3d6f74">●</text>
<text xml:space="preserve" text-anchor="start" x="21" y="-362.88" font-family="Helvetica,sans-Serif" font-size="10.00" fill="white">stack</text>
<text xml:space="preserve" text-anchor="start" x="53" y="-359.8" font-family="Helvetica,sans-Serif" font-size="16.00" fill="#3d6f74">●</text>
<path fill="none" stroke="#4a8a90" d="M12,-353.5C12,-353.5 55.75,-353.5 55.75,-353.5 61.75,-353.5 67.75,-359.5 67.75,-365.5 67.75,-365.5 67.75,-437 67.75,-437 67.75,-443 61.75,-449 55.75,-449 55.75,-449 12,-449 12,-449 6,-449 0,-443 0,-437 0,-437 0,-365.5 0,-365.5 0,-359.5 6,-353.5 12,-353.5"/>
</g>
<!-- stack -->
<g id="node2" class="node">
<title>stack</title>
<path fill="#6baaaf" stroke="none" d="M137.75,-155.5C137.75,-155.5 235.5,-155.5 235.5,-155.5 241.5,-155.5 247.5,-161.5 247.5,-167.5 247.5,-167.5 247.5,-337 247.5,-337 247.5,-343 241.5,-349 235.5,-349 235.5,-349 137.75,-349 137.75,-349 131.75,-349 125.75,-343 125.75,-337 125.75,-337 125.75,-167.5 125.75,-167.5 125.75,-161.5 131.75,-155.5 137.75,-155.5"/>
<polygon fill="#5b9aa0" stroke="none" points="126.75,-328 126.75,-348 246.5,-348 246.5,-328 126.75,-328"/>
<text xml:space="preserve" text-anchor="start" x="130.75" y="-334.55" font-family="Helvetica,sans-Serif" font-weight="bold" font-size="11.00" fill="white">stack</text>
<text xml:space="preserve" text-anchor="start" x="130.75" y="-308.8" font-family="Helvetica,sans-Serif" font-size="16.00" fill="#3d6f74">●</text>
<text xml:space="preserve" text-anchor="start" x="148.5" y="-311.88" font-family="Helvetica,sans-Serif" font-size="10.00" fill="white">provide</text>
<text xml:space="preserve" text-anchor="start" x="206" y="-311.88" font-family="Helvetica,sans-Serif" font-size="10.00" fill="white">netif</text>
<text xml:space="preserve" text-anchor="start" x="232.75" y="-308.8" font-family="Helvetica,sans-Serif" font-size="16.00" fill="#3d6f74">●</text>
<text xml:space="preserve" text-anchor="start" x="189.5" y="-287.38" font-family="Helvetica,sans-Serif" font-size="10.00" fill="white">ethernet</text>
<text xml:space="preserve" text-anchor="start" x="232.75" y="-284.3" font-family="Helvetica,sans-Serif" font-size="16.00" fill="#3d6f74">●</text>
<text xml:space="preserve" text-anchor="start" x="200.75" y="-262.88" font-family="Helvetica,sans-Serif" font-size="10.00" fill="white">arpv4</text>
<text xml:space="preserve" text-anchor="start" x="232.75" y="-259.8" font-family="Helvetica,sans-Serif" font-size="16.00" fill="#3d6f74">●</text>
<text xml:space="preserve" text-anchor="start" x="196.25" y="-238.38" font-family="Helvetica,sans-Serif" font-size="10.00" fill="white">ipv4v6</text>
<text xml:space="preserve" text-anchor="start" x="232.75" y="-235.3" font-family="Helvetica,sans-Serif" font-size="16.00" fill="#3d6f74">●</text>
<text xml:space="preserve" text-anchor="start" x="193.25" y="-213.88" font-family="Helvetica,sans-Serif" font-size="10.00" fill="white">icmpv4</text>
<text xml:space="preserve" text-anchor="start" x="232.75" y="-210.8" font-family="Helvetica,sans-Serif" font-size="16.00" fill="#3d6f74">●</text>
<text xml:space="preserve" text-anchor="start" x="188" y="-189.38" font-family="Helvetica,sans-Serif" font-size="10.00" fill="white">udpv4v6</text>
<text xml:space="preserve" text-anchor="start" x="232.75" y="-186.3" font-family="Helvetica,sans-Serif" font-size="16.00" fill="#3d6f74">●</text>
<text xml:space="preserve" text-anchor="start" x="190.25" y="-164.88" font-family="Helvetica,sans-Serif" font-size="10.00" fill="white">tcpv4v6</text>
<text xml:space="preserve" text-anchor="start" x="232.75" y="-161.8" font-family="Helvetica,sans-Serif" font-size="16.00" fill="#3d6f74">●</text>
<path fill="none" stroke="#4a8a90" d="M137.75,-155.5C137.75,-155.5 235.5,-155.5 235.5,-155.5 241.5,-155.5 247.5,-161.5 247.5,-167.5 247.5,-167.5 247.5,-337 247.5,-337 247.5,-343 241.5,-349 235.5,-349 235.5,-349 137.75,-349 137.75,-349 131.75,-349 125.75,-343 125.75,-337 125.75,-337 125.75,-167.5 125.75,-167.5 125.75,-161.5 131.75,-155.5 137.75,-155.5"/>
</g>
<!-- server&#45;&gt;stack -->
<g id="edge22" class="edge">
<title>server:stack_out&#45;&gt;stack:provide_in</title>
<path fill="none" stroke="#4a8a90" d="M57.88,-353.5C57.88,-321.81 85.98,-316.49 117.3,-315.83"/>
<polygon fill="#4a8a90" stroke="#4a8a90" points="117.26,-318.28 124.24,-315.76 117.21,-313.38 117.26,-318.28"/>
</g>
<!-- data -->
<g id="node3" class="node">
<title>data</title>
<path fill="#6baaaf" stroke="none" d="M170,-454C170,-454 203.25,-454 203.25,-454 209.25,-454 215.25,-460 215.25,-466 215.25,-466 215.25,-488.5 215.25,-488.5 215.25,-494.5 209.25,-500.5 203.25,-500.5 203.25,-500.5 170,-500.5 170,-500.5 164,-500.5 158,-494.5 158,-488.5 158,-488.5 158,-466 158,-466 158,-460 164,-454 170,-454"/>
<polygon fill="#5b9aa0" stroke="none" points="159,-479.5 159,-499.5 214.25,-499.5 214.25,-479.5 159,-479.5"/>
<text xml:space="preserve" text-anchor="start" x="163" y="-486.05" font-family="Helvetica,sans-Serif" font-weight="bold" font-size="11.00" fill="white">data</text>
<text xml:space="preserve" text-anchor="start" x="163" y="-460.3" font-family="Helvetica,sans-Serif" font-size="16.00" fill="#3d6f74">●</text>
<text xml:space="preserve" text-anchor="start" x="180.75" y="-463.38" font-family="Helvetica,sans-Serif" font-size="10.00" fill="white">get</text>
<path fill="none" stroke="#4a8a90" d="M170,-454C170,-454 203.25,-454 203.25,-454 209.25,-454 215.25,-460 215.25,-466 215.25,-466 215.25,-488.5 215.25,-488.5 215.25,-494.5 209.25,-500.5 203.25,-500.5 203.25,-500.5 170,-500.5 170,-500.5 164,-500.5 158,-494.5 158,-488.5 158,-488.5 158,-466 158,-466 158,-460 164,-454 170,-454"/>
</g>
<!-- server&#45;&gt;data -->
<g id="edge20" class="edge">
<title>server:data_out&#45;&gt;data:get_in</title>
<path fill="none" stroke="#4a8a90" d="M67.75,-415.75C111.05,-415.75 111.89,-461.01 149.88,-466.67"/>
<polygon fill="#4a8a90" stroke="#4a8a90" points="149.33,-469.09 156.49,-467.14 149.68,-464.2 149.33,-469.09"/>
</g>
<!-- certs -->
<g id="node4" class="node">
<title>certs</title>
<path fill="#6baaaf" stroke="none" d="M170,-378C170,-378 203.25,-378 203.25,-378 209.25,-378 215.25,-384 215.25,-390 215.25,-390 215.25,-412.5 215.25,-412.5 215.25,-418.5 209.25,-424.5 203.25,-424.5 203.25,-424.5 170,-424.5 170,-424.5 164,-424.5 158,-418.5 158,-412.5 158,-412.5 158,-390 158,-390 158,-384 164,-378 170,-378"/>
<polygon fill="#5b9aa0" stroke="none" points="159,-403.5 159,-423.5 214.25,-423.5 214.25,-403.5 159,-403.5"/>
<text xml:space="preserve" text-anchor="start" x="163" y="-410.05" font-family="Helvetica,sans-Serif" font-weight="bold" font-size="11.00" fill="white">certs</text>
<text xml:space="preserve" text-anchor="start" x="163" y="-384.3" font-family="Helvetica,sans-Serif" font-size="16.00" fill="#3d6f74">●</text>
<text xml:space="preserve" text-anchor="start" x="180.75" y="-387.38" font-family="Helvetica,sans-Serif" font-size="10.00" fill="white">get</text>
<path fill="none" stroke="#4a8a90" d="M170,-378C170,-378 203.25,-378 203.25,-378 209.25,-378 215.25,-384 215.25,-390 215.25,-390 215.25,-412.5 215.25,-412.5 215.25,-418.5 209.25,-424.5 203.25,-424.5 203.25,-424.5 170,-424.5 170,-424.5 164,-424.5 158,-418.5 158,-412.5 158,-412.5 158,-390 158,-390 158,-384 164,-378 170,-378"/>
</g>
<!-- server&#45;&gt;certs -->
<g id="edge21" class="edge">
<title>server:certs_out&#45;&gt;certs:get_in</title>
<path fill="none" stroke="#4a8a90" d="M67.75,-391.25C104.88,-391.25 116.23,-391.25 149.54,-391.25"/>
<polygon fill="#4a8a90" stroke="#4a8a90" points="149.49,-393.7 156.49,-391.25 149.49,-388.8 149.49,-393.7"/>
</g>
<!-- icmp -->
<g id="node5" class="node">
<title>icmp</title>
<path fill="#6baaaf" stroke="none" d="M317.5,-152C317.5,-152 414.5,-152 414.5,-152 420.5,-152 426.5,-158 426.5,-164 426.5,-164 426.5,-186.5 426.5,-186.5 426.5,-192.5 420.5,-198.5 414.5,-198.5 414.5,-198.5 317.5,-198.5 317.5,-198.5 311.5,-198.5 305.5,-192.5 305.5,-186.5 305.5,-186.5 305.5,-164 305.5,-164 305.5,-158 311.5,-152 317.5,-152"/>
<polygon fill="#5b9aa0" stroke="none" points="306.5,-177.5 306.5,-197.5 425.5,-197.5 425.5,-177.5 306.5,-177.5"/>
<text xml:space="preserve" text-anchor="start" x="310.5" y="-184.05" font-family="Helvetica,sans-Serif" font-weight="bold" font-size="11.00" fill="white">icmp</text>
<text xml:space="preserve" text-anchor="start" x="310.5" y="-158.3" font-family="Helvetica,sans-Serif" font-size="16.00" fill="#3d6f74">●</text>
<text xml:space="preserve" text-anchor="start" x="328.25" y="-161.38" font-family="Helvetica,sans-Serif" font-size="10.00" fill="white">ip_write</text>
<text xml:space="preserve" text-anchor="start" x="370" y="-161.38" font-family="Helvetica,sans-Serif" font-size="10.00" fill="white">ip_write</text>
<text xml:space="preserve" text-anchor="start" x="411.75" y="-158.3" font-family="Helvetica,sans-Serif" font-size="16.00" fill="#3d6f74">●</text>
<path fill="none" stroke="#4a8a90" d="M317.5,-152C317.5,-152 414.5,-152 414.5,-152 420.5,-152 426.5,-158 426.5,-164 426.5,-164 426.5,-186.5 426.5,-186.5 426.5,-192.5 420.5,-198.5 414.5,-198.5 414.5,-198.5 317.5,-198.5 317.5,-198.5 311.5,-198.5 305.5,-192.5 305.5,-186.5 305.5,-186.5 305.5,-164 305.5,-164 305.5,-158 311.5,-152 317.5,-152"/>
</g>
<!-- stack&#45;&gt;icmp -->
<g id="edge17" class="edge">
<title>stack:icmpv4_out&#45;&gt;icmp:ip_write_in</title>
<path fill="none" stroke="#4a8a90" d="M247.5,-217.75C279.15,-217.75 272.43,-174.26 297.18,-166.45"/>
<polygon fill="#4a8a90" stroke="#4a8a90" points="297.42,-168.89 304,-165.47 296.72,-164.04 297.42,-168.89"/>
</g>
<!-- udp -->
<g id="node6" class="node">
<title>udp</title>
<path fill="#6baaaf" stroke="none" d="M317.5,-76C317.5,-76 414.5,-76 414.5,-76 420.5,-76 426.5,-82 426.5,-88 426.5,-88 426.5,-110.5 426.5,-110.5 426.5,-116.5 420.5,-122.5 414.5,-122.5 414.5,-122.5 317.5,-122.5 317.5,-122.5 311.5,-122.5 305.5,-116.5 305.5,-110.5 305.5,-110.5 305.5,-88 305.5,-88 305.5,-82 311.5,-76 317.5,-76"/>
<polygon fill="#5b9aa0" stroke="none" points="306.5,-101.5 306.5,-121.5 425.5,-121.5 425.5,-101.5 306.5,-101.5"/>
<text xml:space="preserve" text-anchor="start" x="310.5" y="-108.05" font-family="Helvetica,sans-Serif" font-weight="bold" font-size="11.00" fill="white">udp</text>
<text xml:space="preserve" text-anchor="start" x="310.5" y="-82.3" font-family="Helvetica,sans-Serif" font-size="16.00" fill="#3d6f74">●</text>
<text xml:space="preserve" text-anchor="start" x="328.25" y="-85.38" font-family="Helvetica,sans-Serif" font-size="10.00" fill="white">ip_write</text>
<text xml:space="preserve" text-anchor="start" x="370" y="-85.38" font-family="Helvetica,sans-Serif" font-size="10.00" fill="white">ip_write</text>
<text xml:space="preserve" text-anchor="start" x="411.75" y="-82.3" font-family="Helvetica,sans-Serif" font-size="16.00" fill="#3d6f74">●</text>
<path fill="none" stroke="#4a8a90" d="M317.5,-76C317.5,-76 414.5,-76 414.5,-76 420.5,-76 426.5,-82 426.5,-88 426.5,-88 426.5,-110.5 426.5,-110.5 426.5,-116.5 420.5,-122.5 414.5,-122.5 414.5,-122.5 317.5,-122.5 317.5,-122.5 311.5,-122.5 305.5,-116.5 305.5,-110.5 305.5,-110.5 305.5,-88 305.5,-88 305.5,-82 311.5,-76 317.5,-76"/>
</g>
<!-- stack&#45;&gt;udp -->
<g id="edge18" class="edge">
<title>stack:udpv4v6_out&#45;&gt;udp:ip_write_in</title>
<path fill="none" stroke="#4a8a90" d="M247.5,-193.25C297.32,-193.25 257.84,-101.08 297.19,-90.28"/>
<polygon fill="#4a8a90" stroke="#4a8a90" points="297.35,-92.73 304,-89.44 296.75,-87.87 297.35,-92.73"/>
</g>
<!-- tcp -->
<g id="node7" class="node">
<title>tcp</title>
<path fill="#6baaaf" stroke="none" d="M323.88,0C323.88,0 408.12,0 408.12,0 414.12,0 420.12,-6 420.12,-12 420.12,-12 420.12,-34.5 420.12,-34.5 420.12,-40.5 414.12,-46.5 408.12,-46.5 408.12,-46.5 323.88,-46.5 323.88,-46.5 317.88,-46.5 311.88,-40.5 311.88,-34.5 311.88,-34.5 311.88,-12 311.88,-12 311.88,-6 317.88,0 323.88,0"/>
<polygon fill="#5b9aa0" stroke="none" points="312.88,-25.5 312.88,-45.5 419.12,-45.5 419.12,-25.5 312.88,-25.5"/>
<text xml:space="preserve" text-anchor="start" x="316.88" y="-32.05" font-family="Helvetica,sans-Serif" font-weight="bold" font-size="11.00" fill="white">tcp</text>
<text xml:space="preserve" text-anchor="start" x="316.88" y="-6.3" font-family="Helvetica,sans-Serif" font-size="16.00" fill="#3d6f74">●</text>
<text xml:space="preserve" text-anchor="start" x="334.62" y="-9.38" font-family="Helvetica,sans-Serif" font-size="10.00" fill="white">write</text>
<text xml:space="preserve" text-anchor="start" x="363.62" y="-9.38" font-family="Helvetica,sans-Serif" font-size="10.00" fill="white">ip_write</text>
<text xml:space="preserve" text-anchor="start" x="405.38" y="-6.3" font-family="Helvetica,sans-Serif" font-size="16.00" fill="#3d6f74">●</text>
<path fill="none" stroke="#4a8a90" d="M323.88,0C323.88,0 408.12,0 408.12,0 414.12,0 420.12,-6 420.12,-12 420.12,-12 420.12,-34.5 420.12,-34.5 420.12,-40.5 414.12,-46.5 408.12,-46.5 408.12,-46.5 323.88,-46.5 323.88,-46.5 317.88,-46.5 311.88,-40.5 311.88,-34.5 311.88,-34.5 311.88,-12 311.88,-12 311.88,-6 317.88,0 323.88,0"/>
</g>
<!-- stack&#45;&gt;tcp -->
<g id="edge19" class="edge">
<title>stack:tcpv4v6_out&#45;&gt;tcp:write_in</title>
<path fill="none" stroke="#4a8a90" d="M237.62,-155.5C237.62,-87.11 240.32,-19.07 303.44,-13.6"/>
<polygon fill="#4a8a90" stroke="#4a8a90" points="303.47,-16.05 310.36,-13.31 303.27,-11.16 303.47,-16.05"/>
</g>
<!-- ip -->
<g id="node8" class="node">
<title>ip</title>
<path fill="#6baaaf" stroke="none" d="M496.5,-97.75C496.5,-97.75 565,-97.75 565,-97.75 571,-97.75 577,-103.75 577,-109.75 577,-109.75 577,-156.75 577,-156.75 577,-162.75 571,-168.75 565,-168.75 565,-168.75 496.5,-168.75 496.5,-168.75 490.5,-168.75 484.5,-162.75 484.5,-156.75 484.5,-156.75 484.5,-109.75 484.5,-109.75 484.5,-103.75 490.5,-97.75 496.5,-97.75"/>
<polygon fill="#5b9aa0" stroke="none" points="485.5,-147.75 485.5,-167.75 576,-167.75 576,-147.75 485.5,-147.75"/>
<text xml:space="preserve" text-anchor="start" x="489.5" y="-154.3" font-family="Helvetica,sans-Serif" font-weight="bold" font-size="11.00" fill="white">ip</text>
<text xml:space="preserve" text-anchor="start" x="489.5" y="-128.55" font-family="Helvetica,sans-Serif" font-size="16.00" fill="#3d6f74">●</text>
<text xml:space="preserve" text-anchor="start" x="507.25" y="-131.62" font-family="Helvetica,sans-Serif" font-size="10.00" fill="white">write</text>
<text xml:space="preserve" text-anchor="start" x="536.25" y="-131.62" font-family="Helvetica,sans-Serif" font-size="10.00" fill="white">ipv4</text>
<text xml:space="preserve" text-anchor="start" x="562.25" y="-128.55" font-family="Helvetica,sans-Serif" font-size="16.00" fill="#3d6f74">●</text>
<text xml:space="preserve" text-anchor="start" x="536.25" y="-107.12" font-family="Helvetica,sans-Serif" font-size="10.00" fill="white">ipv6</text>
<text xml:space="preserve" text-anchor="start" x="562.25" y="-104.05" font-family="Helvetica,sans-Serif" font-size="16.00" fill="#3d6f74">●</text>
<path fill="none" stroke="#4a8a90" d="M496.5,-97.75C496.5,-97.75 565,-97.75 565,-97.75 571,-97.75 577,-103.75 577,-109.75 577,-109.75 577,-156.75 577,-156.75 577,-162.75 571,-168.75 565,-168.75 565,-168.75 496.5,-168.75 496.5,-168.75 490.5,-168.75 484.5,-162.75 484.5,-156.75 484.5,-156.75 484.5,-109.75 484.5,-109.75 484.5,-103.75 490.5,-97.75 496.5,-97.75"/>
</g>
<!-- stack&#45;&gt;ip -->
<g id="edge16" class="edge">
<title>stack:ipv4v6_out&#45;&gt;ip:write_in</title>
<path fill="none" stroke="#4a8a90" d="M247.5,-242.25C328.09,-242.25 357.59,-255.05 426.5,-213.25 460.77,-192.46 444.19,-143.13 476.33,-136.29"/>
<polygon fill="#4a8a90" stroke="#4a8a90" points="476.26,-138.76 482.99,-135.65 475.79,-133.88 476.26,-138.76"/>
</g>
<!-- arp -->
<g id="node11" class="node">
<title>arp</title>
<path fill="#6baaaf" stroke="none" d="M822.25,-211C822.25,-211 915.5,-211 915.5,-211 921.5,-211 927.5,-217 927.5,-223 927.5,-223 927.5,-245.5 927.5,-245.5 927.5,-251.5 921.5,-257.5 915.5,-257.5 915.5,-257.5 822.25,-257.5 822.25,-257.5 816.25,-257.5 810.25,-251.5 810.25,-245.5 810.25,-245.5 810.25,-223 810.25,-223 810.25,-217 816.25,-211 822.25,-211"/>
<polygon fill="#5b9aa0" stroke="none" points="811.25,-236.5 811.25,-256.5 926.5,-256.5 926.5,-236.5 811.25,-236.5"/>
<text xml:space="preserve" text-anchor="start" x="815.25" y="-243.05" font-family="Helvetica,sans-Serif" font-weight="bold" font-size="11.00" fill="white">arp</text>
<text xml:space="preserve" text-anchor="start" x="815.25" y="-217.3" font-family="Helvetica,sans-Serif" font-size="16.00" fill="#3d6f74">●</text>
<text xml:space="preserve" text-anchor="start" x="833" y="-220.38" font-family="Helvetica,sans-Serif" font-size="10.00" fill="white">query</text>
<text xml:space="preserve" text-anchor="start" x="865" y="-220.38" font-family="Helvetica,sans-Serif" font-size="10.00" fill="white">eth_write</text>
<text xml:space="preserve" text-anchor="start" x="912.75" y="-217.3" font-family="Helvetica,sans-Serif" font-size="16.00" fill="#3d6f74">●</text>
<path fill="none" stroke="#4a8a90" d="M822.25,-211C822.25,-211 915.5,-211 915.5,-211 921.5,-211 927.5,-217 927.5,-223 927.5,-223 927.5,-245.5 927.5,-245.5 927.5,-251.5 921.5,-257.5 915.5,-257.5 915.5,-257.5 822.25,-257.5 822.25,-257.5 816.25,-257.5 810.25,-251.5 810.25,-245.5 810.25,-245.5 810.25,-223 810.25,-223 810.25,-217 816.25,-211 822.25,-211"/>
</g>
<!-- stack&#45;&gt;arp -->
<g id="edge15" class="edge">
<title>stack:arpv4_out&#45;&gt;arp:query_in</title>
<path fill="none" stroke="#4a8a90" d="M247.5,-266.75C471.84,-266.75 540.01,-341.93 752.25,-269.25 780.22,-259.67 778.33,-230.5 802.02,-225.11"/>
<polygon fill="#4a8a90" stroke="#4a8a90" points="802.04,-227.57 808.74,-224.41 801.53,-222.7 802.04,-227.57"/>
</g>
<!-- eth -->
<g id="node12" class="node">
<title>eth</title>
<path fill="#6baaaf" stroke="none" d="M997.5,-249C997.5,-249 1087.75,-249 1087.75,-249 1093.75,-249 1099.75,-255 1099.75,-261 1099.75,-261 1099.75,-283.5 1099.75,-283.5 1099.75,-289.5 1093.75,-295.5 1087.75,-295.5 1087.75,-295.5 997.5,-295.5 997.5,-295.5 991.5,-295.5 985.5,-289.5 985.5,-283.5 985.5,-283.5 985.5,-261 985.5,-261 985.5,-255 991.5,-249 997.5,-249"/>
<polygon fill="#5b9aa0" stroke="none" points="986.5,-274.5 986.5,-294.5 1098.75,-294.5 1098.75,-274.5 986.5,-274.5"/>
<text xml:space="preserve" text-anchor="start" x="990.5" y="-281.05" font-family="Helvetica,sans-Serif" font-weight="bold" font-size="11.00" fill="white">eth</text>
<text xml:space="preserve" text-anchor="start" x="990.5" y="-255.3" font-family="Helvetica,sans-Serif" font-size="16.00" fill="#3d6f74">●</text>
<text xml:space="preserve" text-anchor="start" x="1008.25" y="-258.38" font-family="Helvetica,sans-Serif" font-size="10.00" fill="white">write</text>
<text xml:space="preserve" text-anchor="start" x="1037.25" y="-258.38" font-family="Helvetica,sans-Serif" font-size="10.00" fill="white">net_write</text>
<text xml:space="preserve" text-anchor="start" x="1085" y="-255.3" font-family="Helvetica,sans-Serif" font-size="16.00" fill="#3d6f74">●</text>
<path fill="none" stroke="#4a8a90" d="M997.5,-249C997.5,-249 1087.75,-249 1087.75,-249 1093.75,-249 1099.75,-255 1099.75,-261 1099.75,-261 1099.75,-283.5 1099.75,-283.5 1099.75,-289.5 1093.75,-295.5 1087.75,-295.5 1087.75,-295.5 997.5,-295.5 997.5,-295.5 991.5,-295.5 985.5,-289.5 985.5,-283.5 985.5,-283.5 985.5,-261 985.5,-261 985.5,-255 991.5,-249 997.5,-249"/>
</g>
<!-- stack&#45;&gt;eth -->
<g id="edge14" class="edge">
<title>stack:ethernet_out&#45;&gt;eth:write_in</title>
<path fill="none" stroke="#4a8a90" d="M247.5,-291.25C312.07,-291.25 465.18,-360.25 529.75,-360.25 529.75,-360.25 529.75,-360.25 694.62,-360.25 801.62,-360.25 829.46,-342.1 927.5,-299.25 952.67,-288.25 954.75,-267.15 977.09,-262.98"/>
<polygon fill="#4a8a90" stroke="#4a8a90" points="977.23,-265.42 983.99,-262.38 976.81,-260.54 977.23,-265.42"/>
</g>
<!-- net -->
<g id="node13" class="node">
<title>net</title>
<path fill="#6baaaf" stroke="none" d="M1169.75,-249C1169.75,-249 1257,-249 1257,-249 1263,-249 1269,-255 1269,-261 1269,-261 1269,-283.5 1269,-283.5 1269,-289.5 1263,-295.5 1257,-295.5 1257,-295.5 1169.75,-295.5 1169.75,-295.5 1163.75,-295.5 1157.75,-289.5 1157.75,-283.5 1157.75,-283.5 1157.75,-261 1157.75,-261 1157.75,-255 1163.75,-249 1169.75,-249"/>
<polygon fill="#5b9aa0" stroke="none" points="1158.75,-274.5 1158.75,-294.5 1268,-294.5 1268,-274.5 1158.75,-274.5"/>
<text xml:space="preserve" text-anchor="start" x="1162.75" y="-281.05" font-family="Helvetica,sans-Serif" font-weight="bold" font-size="11.00" fill="white">net</text>
<text xml:space="preserve" text-anchor="start" x="1162.75" y="-255.3" font-family="Helvetica,sans-Serif" font-size="16.00" fill="#3d6f74">●</text>
<text xml:space="preserve" text-anchor="start" x="1180.5" y="-258.38" font-family="Helvetica,sans-Serif" font-size="10.00" fill="white">write</text>
<text xml:space="preserve" text-anchor="start" x="1209.5" y="-258.38" font-family="Helvetica,sans-Serif" font-size="10.00" fill="white">backend</text>
<text xml:space="preserve" text-anchor="start" x="1254.25" y="-255.3" font-family="Helvetica,sans-Serif" font-size="16.00" fill="#3d6f74">●</text>
<path fill="none" stroke="#4a8a90" d="M1169.75,-249C1169.75,-249 1257,-249 1257,-249 1263,-249 1269,-255 1269,-261 1269,-261 1269,-283.5 1269,-283.5 1269,-289.5 1263,-295.5 1257,-295.5 1257,-295.5 1169.75,-295.5 1169.75,-295.5 1163.75,-295.5 1157.75,-289.5 1157.75,-283.5 1157.75,-283.5 1157.75,-261 1157.75,-261 1157.75,-255 1163.75,-249 1169.75,-249"/>
</g>
<!-- stack&#45;&gt;net -->
<g id="edge13" class="edge">
<title>stack:netif_out&#45;&gt;net:write_in</title>
<path fill="none" stroke="#4a8a90" d="M247.5,-315.75C275.48,-315.75 279.4,-330.15 305.5,-340.25 404.05,-378.38 424.08,-419.25 529.75,-419.25 529.75,-419.25 529.75,-419.25 869.88,-419.25 982.95,-419.25 1004.38,-370.99 1099.75,-310.25 1125.44,-293.89 1124.69,-267.55 1149.58,-262.95"/>
<polygon fill="#4a8a90" stroke="#4a8a90" points="1149.48,-265.41 1156.24,-262.38 1149.06,-260.53 1149.48,-265.41"/>
</g>
<!-- ipv4 -->
<g id="node9" class="node">
<title>ipv4</title>
<path fill="#6baaaf" stroke="none" d="M647,-183.75C647,-183.75 740.25,-183.75 740.25,-183.75 746.25,-183.75 752.25,-189.75 752.25,-195.75 752.25,-195.75 752.25,-242.75 752.25,-242.75 752.25,-248.75 746.25,-254.75 740.25,-254.75 740.25,-254.75 647,-254.75 647,-254.75 641,-254.75 635,-248.75 635,-242.75 635,-242.75 635,-195.75 635,-195.75 635,-189.75 641,-183.75 647,-183.75"/>
<polygon fill="#5b9aa0" stroke="none" points="636,-233.75 636,-253.75 751.25,-253.75 751.25,-233.75 636,-233.75"/>
<text xml:space="preserve" text-anchor="start" x="640" y="-240.3" font-family="Helvetica,sans-Serif" font-weight="bold" font-size="11.00" fill="white">ipv4</text>
<text xml:space="preserve" text-anchor="start" x="640" y="-214.55" font-family="Helvetica,sans-Serif" font-size="16.00" fill="#3d6f74">●</text>
<text xml:space="preserve" text-anchor="start" x="657.75" y="-217.62" font-family="Helvetica,sans-Serif" font-size="10.00" fill="white">write</text>
<text xml:space="preserve" text-anchor="start" x="689.75" y="-217.62" font-family="Helvetica,sans-Serif" font-size="10.00" fill="white">eth_write</text>
<text xml:space="preserve" text-anchor="start" x="737.5" y="-214.55" font-family="Helvetica,sans-Serif" font-size="16.00" fill="#3d6f74">●</text>
<text xml:space="preserve" text-anchor="start" x="686.75" y="-193.12" font-family="Helvetica,sans-Serif" font-size="10.00" fill="white">arp_query</text>
<text xml:space="preserve" text-anchor="start" x="737.5" y="-190.05" font-family="Helvetica,sans-Serif" font-size="16.00" fill="#3d6f74">●</text>
<path fill="none" stroke="#4a8a90" d="M647,-183.75C647,-183.75 740.25,-183.75 740.25,-183.75 746.25,-183.75 752.25,-189.75 752.25,-195.75 752.25,-195.75 752.25,-242.75 752.25,-242.75 752.25,-248.75 746.25,-254.75 740.25,-254.75 740.25,-254.75 647,-254.75 647,-254.75 641,-254.75 635,-248.75 635,-242.75 635,-242.75 635,-195.75 635,-195.75 635,-189.75 641,-183.75 647,-183.75"/>
</g>
<!-- icmp&#45;&gt;ipv4 -->
<g id="edge10" class="edge">
<title>icmp:ip_write_out&#45;&gt;ipv4:write_in</title>
<path fill="none" stroke="#4a8a90" d="M426.5,-165.25C453.49,-165.25 458.52,-175.92 484.5,-183.25 548.2,-201.22 564.66,-219.9 626.77,-221.4"/>
<polygon fill="#4a8a90" stroke="#4a8a90" points="626.46,-223.85 633.49,-221.48 626.52,-218.95 626.46,-223.85"/>
</g>
<!-- udp&#45;&gt;ip -->
<g id="edge11" class="edge">
<title>udp:ip_write_out&#45;&gt;ip:write_in</title>
<path fill="none" stroke="#4a8a90" d="M426.5,-89.25C456.38,-89.25 452.66,-127.23 476.24,-134.36"/>
<polygon fill="#4a8a90" stroke="#4a8a90" points="475.73,-136.76 483,-135.29 476.4,-131.91 475.73,-136.76"/>
</g>
<!-- tcp&#45;&gt;ip -->
<g id="edge12" class="edge">
<title>tcp:ip_write_out&#45;&gt;ip:write_in</title>
<path fill="none" stroke="#4a8a90" d="M420.12,-13.25C478.41,-13.25 428.72,-123.4 476.04,-134.59"/>
<polygon fill="#4a8a90" stroke="#4a8a90" points="475.77,-137.02 483,-135.34 476.3,-132.15 475.77,-137.02"/>
</g>
<!-- ip&#45;&gt;ipv4 -->
<g id="edge8" class="edge">
<title>ip:ipv4_out&#45;&gt;ipv4:write_in</title>
<path fill="none" stroke="#4a8a90" d="M577,-135.5C620.04,-135.5 593.09,-210.46 626.83,-220.41"/>
<polygon fill="#4a8a90" stroke="#4a8a90" points="626.24,-222.81 633.5,-221.3 626.88,-217.95 626.24,-222.81"/>
</g>
<!-- ipv6 -->
<g id="node10" class="node">
<title>ipv6</title>
<path fill="#6baaaf" stroke="none" d="M648.5,-73.75C648.5,-73.75 738.75,-73.75 738.75,-73.75 744.75,-73.75 750.75,-79.75 750.75,-85.75 750.75,-85.75 750.75,-132.75 750.75,-132.75 750.75,-138.75 744.75,-144.75 738.75,-144.75 738.75,-144.75 648.5,-144.75 648.5,-144.75 642.5,-144.75 636.5,-138.75 636.5,-132.75 636.5,-132.75 636.5,-85.75 636.5,-85.75 636.5,-79.75 642.5,-73.75 648.5,-73.75"/>
<polygon fill="#5b9aa0" stroke="none" points="637.5,-123.75 637.5,-143.75 749.75,-143.75 749.75,-123.75 637.5,-123.75"/>
<text xml:space="preserve" text-anchor="start" x="641.5" y="-130.3" font-family="Helvetica,sans-Serif" font-weight="bold" font-size="11.00" fill="white">ipv6</text>
<text xml:space="preserve" text-anchor="start" x="641.5" y="-104.55" font-family="Helvetica,sans-Serif" font-size="16.00" fill="#3d6f74">●</text>
<text xml:space="preserve" text-anchor="start" x="659.25" y="-107.62" font-family="Helvetica,sans-Serif" font-size="10.00" fill="white">write</text>
<text xml:space="preserve" text-anchor="start" x="688.25" y="-107.62" font-family="Helvetica,sans-Serif" font-size="10.00" fill="white">net_write</text>
<text xml:space="preserve" text-anchor="start" x="736" y="-104.55" font-family="Helvetica,sans-Serif" font-size="16.00" fill="#3d6f74">●</text>
<text xml:space="preserve" text-anchor="start" x="688.25" y="-83.12" font-family="Helvetica,sans-Serif" font-size="10.00" fill="white">eth_write</text>
<text xml:space="preserve" text-anchor="start" x="736" y="-80.05" font-family="Helvetica,sans-Serif" font-size="16.00" fill="#3d6f74">●</text>
<path fill="none" stroke="#4a8a90" d="M648.5,-73.75C648.5,-73.75 738.75,-73.75 738.75,-73.75 744.75,-73.75 750.75,-79.75 750.75,-85.75 750.75,-85.75 750.75,-132.75 750.75,-132.75 750.75,-138.75 744.75,-144.75 738.75,-144.75 738.75,-144.75 648.5,-144.75 648.5,-144.75 642.5,-144.75 636.5,-138.75 636.5,-132.75 636.5,-132.75 636.5,-85.75 636.5,-85.75 636.5,-79.75 642.5,-73.75 648.5,-73.75"/>
</g>
<!-- ip&#45;&gt;ipv6 -->
<g id="edge9" class="edge">
<title>ip:ipv6_out&#45;&gt;ipv6:write_in</title>
<path fill="none" stroke="#4a8a90" d="M577,-111C600.45,-111 608.3,-111.39 628.22,-111.48"/>
<polygon fill="#4a8a90" stroke="#4a8a90" points="627.98,-113.93 634.99,-111.5 627.99,-109.03 627.98,-113.93"/>
</g>
<!-- ipv4&#45;&gt;arp -->
<g id="edge5" class="edge">
<title>ipv4:arp_query_out&#45;&gt;arp:query_in</title>
<path fill="none" stroke="#4a8a90" d="M752.25,-197C777.62,-197 781.21,-218.62 801.82,-223.34"/>
<polygon fill="#4a8a90" stroke="#4a8a90" points="801.52,-225.78 808.75,-224.09 802.05,-220.9 801.52,-225.78"/>
</g>
<!-- ipv4&#45;&gt;eth -->
<g id="edge4" class="edge">
<title>ipv4:eth_write_out&#45;&gt;eth:write_in</title>
<path fill="none" stroke="#4a8a90" d="M752.25,-221.5C786.5,-221.5 778.19,-260.2 810.25,-272.25 859.03,-290.58 875.58,-276.69 927.5,-272.25 950.51,-270.28 957.71,-263.99 977.08,-262.55"/>
<polygon fill="#4a8a90" stroke="#4a8a90" points="977.08,-265 983.99,-262.3 976.9,-260.1 977.08,-265"/>
</g>
<!-- ipv6&#45;&gt;eth -->
<g id="edge7" class="edge">
<title>ipv6:eth_write_out&#45;&gt;eth:write_in</title>
<path fill="none" stroke="#4a8a90" d="M750.75,-87C783.44,-87 782.74,-112.59 810.25,-130.25 860.58,-162.55 877.7,-163.15 927.5,-196.25 956.83,-215.75 989.77,-211.66 994.73,-240.83"/>
<polygon fill="#4a8a90" stroke="#4a8a90" points="992.27,-240.7 995.26,-247.49 997.15,-240.32 992.27,-240.7"/>
</g>
<!-- ipv6&#45;&gt;net -->
<g id="edge6" class="edge">
<title>ipv6:net_write_out&#45;&gt;net:write_in</title>
<path fill="none" stroke="#4a8a90" d="M750.75,-111.5C942.99,-111.5 1161.13,-55.58 1167.48,-240.59"/>
<polygon fill="#4a8a90" stroke="#4a8a90" points="1165.03,-240.53 1167.6,-247.49 1169.93,-240.45 1165.03,-240.53"/>
</g>
<!-- arp&#45;&gt;eth -->
<g id="edge3" class="edge">
<title>arp:eth_write_out&#45;&gt;eth:write_in</title>
<path fill="none" stroke="#4a8a90" d="M927.5,-224.25C955.19,-224.25 955.07,-254.92 977.1,-261.15"/>
<polygon fill="#4a8a90" stroke="#4a8a90" points="976.74,-263.58 984,-262.05 977.38,-258.72 976.74,-263.58"/>
</g>
<!-- eth&#45;&gt;net -->
<g id="edge2" class="edge">
<title>eth:net_write_out&#45;&gt;net:write_in</title>
<path fill="none" stroke="#4a8a90" d="M1099.75,-262.25C1122.51,-262.25 1130.2,-262.25 1149.42,-262.25"/>
<polygon fill="#4a8a90" stroke="#4a8a90" points="1149.24,-264.7 1156.24,-262.25 1149.24,-259.8 1149.24,-264.7"/>
</g>
<!-- backend -->
<g id="node14" class="node">
<title>backend</title>
<path fill="#6baaaf" stroke="none" d="M1339,-249C1339,-249 1390.25,-249 1390.25,-249 1396.25,-249 1402.25,-255 1402.25,-261 1402.25,-261 1402.25,-283.5 1402.25,-283.5 1402.25,-289.5 1396.25,-295.5 1390.25,-295.5 1390.25,-295.5 1339,-295.5 1339,-295.5 1333,-295.5 1327,-289.5 1327,-283.5 1327,-283.5 1327,-261 1327,-261 1327,-255 1333,-249 1339,-249"/>
<polygon fill="#5b9aa0" stroke="none" points="1328,-274.5 1328,-294.5 1401.25,-294.5 1401.25,-274.5 1328,-274.5"/>
<text xml:space="preserve" text-anchor="start" x="1332" y="-281.05" font-family="Helvetica,sans-Serif" font-weight="bold" font-size="11.00" fill="white">backend</text>
<text xml:space="preserve" text-anchor="start" x="1332" y="-255.3" font-family="Helvetica,sans-Serif" font-size="16.00" fill="#3d6f74">●</text>
<text xml:space="preserve" text-anchor="start" x="1349.75" y="-258.38" font-family="Helvetica,sans-Serif" font-size="10.00" fill="white">provide</text>
<path fill="none" stroke="#4a8a90" d="M1339,-249C1339,-249 1390.25,-249 1390.25,-249 1396.25,-249 1402.25,-255 1402.25,-261 1402.25,-261 1402.25,-283.5 1402.25,-283.5 1402.25,-289.5 1396.25,-295.5 1390.25,-295.5 1390.25,-295.5 1339,-295.5 1339,-295.5 1333,-295.5 1327,-289.5 1327,-283.5 1327,-283.5 1327,-261 1327,-261 1327,-255 1333,-249 1339,-249"/>
</g>
<!-- net&#45;&gt;backend -->
<g id="edge1" class="edge">
<title>net:backend_out&#45;&gt;backend:provide_in</title>
<path fill="none" stroke="#4a8a90" d="M1269,-262.25C1291.76,-262.25 1299.45,-262.25 1318.67,-262.25"/>
<polygon fill="#4a8a90" stroke="#4a8a90" points="1318.49,-264.7 1325.49,-262.25 1318.49,-259.8 1318.49,-264.7"/>
</g>
</g>
</svg>
