<?xml version="1.0" encoding="UTF-8" standalone="no"?>
<!DOCTYPE svg PUBLIC "-//W3C//DTD SVG 1.1//EN"
 "http://www.w3.org/Graphics/SVG/1.1/DTD/svg11.dtd">
<!-- Generated by graphviz version 14.1.2 (20260124.0452)
 -->
<!-- Title: TarWebsite Pages: 1 -->
<svg width="1670pt" height="511pt"
 viewBox="0.00 0.00 1670.00 511.00" xmlns="http://www.w3.org/2000/svg" xmlns:xlink="http://www.w3.org/1999/xlink">
<g id="graph0" class="graph" transform="scale(1 1) rotate(0) translate(28.8 482.11)">
<title>TarWebsite</title>
<polygon fill="white" stroke="none" points="-28.8,28.8 -28.8,-482.11 1641.55,-482.11 1641.55,28.8 -28.8,28.8"/>
<!-- dns_client -->
<g id="node1" class="node">
<title>dns_client</title>
<path fill="#6baaaf" stroke="none" d="M12,-323.81C12,-323.81 99.25,-323.81 99.25,-323.81 105.25,-323.81 111.25,-329.81 111.25,-335.81 111.25,-335.81 111.25,-382.81 111.25,-382.81 111.25,-388.81 105.25,-394.81 99.25,-394.81 99.25,-394.81 12,-394.81 12,-394.81 6,-394.81 0,-388.81 0,-382.81 0,-382.81 0,-335.81 0,-335.81 0,-329.81 6,-323.81 12,-323.81"/>
<polygon fill="#5b9aa0" stroke="none" points="1,-373.81 1,-393.81 110.25,-393.81 110.25,-373.81 1,-373.81"/>
<text xml:space="preserve" text-anchor="start" x="5" y="-380.36" font-family="Helvetica,sans-Serif" font-weight="bold" font-size="11.00" fill="white">dns_client</text>
<text xml:space="preserve" text-anchor="start" x="21" y="-357.68" font-family="Helvetica,sans-Serif" font-size="10.00" fill="white">happy_eyeballs</text>
<text xml:space="preserve" text-anchor="start" x="96.5" y="-354.61" font-family="Helvetica,sans-Serif" font-size="16.00" fill="#3d6f74">●</text>
<text xml:space="preserve" text-anchor="start" x="64.5" y="-333.18" font-family="Helvetica,sans-Serif" font-size="10.00" fill="white">stack</text>
<text xml:space="preserve" text-anchor="start" x="96.5" y="-330.11" font-family="Helvetica,sans-Serif" font-size="16.00" fill="#3d6f74">●</text>
<path fill="none" stroke="#4a8a90" d="M12,-323.81C12,-323.81 99.25,-323.81 99.25,-323.81 105.25,-323.81 111.25,-329.81 111.25,-335.81 111.25,-335.81 111.25,-382.81 111.25,-382.81 111.25,-388.81 105.25,-394.81 99.25,-394.81 99.25,-394.81 12,-394.81 12,-394.81 6,-394.81 0,-388.81 0,-382.81 0,-382.81 0,-335.81 0,-335.81 0,-329.81 6,-323.81 12,-323.81"/>
</g>
<!-- happy_eyeballs -->
<g id="node3" class="node">
<title>happy_eyeballs</title>
<path fill="#6baaaf" stroke="none" d="M181.25,-365.06C181.25,-365.06 266.25,-365.06 266.25,-365.06 272.25,-365.06 278.25,-371.06 278.25,-377.06 278.25,-377.06 278.25,-399.56 278.25,-399.56 278.25,-405.56 272.25,-411.56 266.25,-411.56 266.25,-411.56 181.25,-411.56 181.25,-411.56 175.25,-411.56 169.25,-405.56 169.25,-399.56 169.25,-399.56 169.25,-377.06 169.25,-377.06 169.25,-371.06 175.25,-365.06 181.25,-365.06"/>
<polygon fill="#5b9aa0" stroke="none" points="170.25,-390.56 170.25,-410.56 277.25,-410.56 277.25,-390.56 170.25,-390.56"/>
<text xml:space="preserve" text-anchor="start" x="174.25" y="-397.11" font-family="Helvetica,sans-Serif" font-weight="bold" font-size="11.00" fill="white">happy_eyeballs</text>
<text xml:space="preserve" text-anchor="start" x="174.25" y="-371.36" font-family="Helvetica,sans-Serif" font-size="16.00" fill="#3d6f74">●</text>
<text xml:space="preserve" text-anchor="start" x="192" y="-374.43" font-family="Helvetica,sans-Serif" font-size="10.00" fill="white">provide</text>
<text xml:space="preserve" text-anchor="start" x="231.5" y="-374.43" font-family="Helvetica,sans-Serif" font-size="10.00" fill="white">stack</text>
<text xml:space="preserve" text-anchor="start" x="263.5" y="-371.36" font-family="Helvetica,sans-Serif" font-size="16.00" fill="#3d6f74">●</text>
<path fill="none" stroke="#4a8a90" d="M181.25,-365.06C181.25,-365.06 266.25,-365.06 266.25,-365.06 272.25,-365.06 278.25,-371.06 278.25,-377.06 278.25,-377.06 278.25,-399.56 278.25,-399.56 278.25,-405.56 272.25,-411.56 266.25,-411.56 266.25,-411.56 181.25,-411.56 181.25,-411.56 175.25,-411.56 169.25,-405.56 169.25,-399.56 169.25,-399.56 169.25,-377.06 169.25,-377.06 169.25,-371.06 175.25,-365.06 181.25,-365.06"/>
</g>
<!-- dns_client&#45;&gt;happy_eyeballs -->
<g id="edge20" class="edge">
<title>dns_client:happy_eyeballs_out&#45;&gt;happy_eyeballs:provide_in</title>
<path fill="none" stroke="#4a8a90" d="M111.25,-361.56C135.04,-361.56 141.15,-374.73 160.93,-377.71"/>
<polygon fill="#4a8a90" stroke="#4a8a90" points="160.58,-380.14 167.74,-378.2 160.93,-375.25 160.58,-380.14"/>
</g>
<!-- stack -->
<g id="node6" class="node">
<title>stack</title>
<path fill="#6baaaf" stroke="none" d="M348.25,-189.56C348.25,-189.56 446,-189.56 446,-189.56 452,-189.56 458,-195.56 458,-201.56 458,-201.56 458,-371.06 458,-371.06 458,-377.06 452,-383.06 446,-383.06 446,-383.06 348.25,-383.06 348.25,-383.06 342.25,-383.06 336.25,-377.06 336.25,-371.06 336.25,-371.06 336.25,-201.56 336.25,-201.56 336.25,-195.56 342.25,-189.56 348.25,-189.56"/>
<polygon fill="#5b9aa0" stroke="none" points="337.25,-362.06 337.25,-382.06 457,-382.06 457,-362.06 337.25,-362.06"/>
<text xml:space="preserve" text-anchor="start" x="341.25" y="-368.61" font-family="Helvetica,sans-Serif" font-weight="bold" font-size="11.00" fill="white">stack</text>
<text xml:space="preserve" text-anchor="start" x="341.25" y="-342.86" font-family="Helvetica,sans-Serif" font-size="16.00" fill="#3d6f74">●</text>
<text xml:space="preserve" text-anchor="start" x="359" y="-345.93" font-family="Helvetica,sans-Serif" font-size="10.00" fill="white">provide</text>
<text xml:space="preserve" text-anchor="start" x="416.5" y="-345.93" font-family="Helvetica,sans-Serif" font-size="10.00" fill="white">netif</text>
<text xml:space="preserve" text-anchor="start" x="443.25" y="-342.86" font-family="Helvetica,sans-Serif" font-size="16.00" fill="#3d6f74">●</text>
<text xml:space="preserve" text-anchor="start" x="400" y="-321.43" font-family="Helvetica,sans-Serif" font-size="10.00" fill="white">ethernet</text>
<text xml:space="preserve" text-anchor="start" x="443.25" y="-318.36" font-family="Helvetica,sans-Serif" font-size="16.00" fill="#3d6f74">●</text>
<text xml:space="preserve" text-anchor="start" x="411.25" y="-296.93" font-family="Helvetica,sans-Serif" font-size="10.00" fill="white">arpv4</text>
<text xml:space="preserve" text-anchor="start" x="443.25" y="-293.86" font-family="Helvetica,sans-Serif" font-size="16.00" fill="#3d6f74">●</text>
<text xml:space="preserve" text-anchor="start" x="406.75" y="-272.43" font-family="Helvetica,sans-Serif" font-size="10.00" fill="white">ipv4v6</text>
<text xml:space="preserve" text-anchor="start" x="443.25" y="-269.36" font-family="Helvetica,sans-Serif" font-size="16.00" fill="#3d6f74">●</text>
<text xml:space="preserve" text-anchor="start" x="403.75" y="-247.93" font-family="Helvetica,sans-Serif" font-size="10.00" fill="white">icmpv4</text>
<text xml:space="preserve" text-anchor="start" x="443.25" y="-244.86" font-family="Helvetica,sans-Serif" font-size="16.00" fill="#3d6f74">●</text>
<text xml:space="preserve" text-anchor="start" x="398.5" y="-223.43" font-family="Helvetica,sans-Serif" font-size="10.00" fill="white">udpv4v6</text>
<text xml:space="preserve" text-anchor="start" x="443.25" y="-220.36" font-family="Helvetica,sans-Serif" font-size="16.00" fill="#3d6f74">●</text>
<text xml:space="preserve" text-anchor="start" x="400.75" y="-198.93" font-family="Helvetica,sans-Serif" font-size="10.00" fill="white">tcpv4v6</text>
<text xml:space="preserve" text-anchor="start" x="443.25" y="-195.86" font-family="Helvetica,sans-Serif" font-size="16.00" fill="#3d6f74">●</text>
<path fill="none" stroke="#4a8a90" d="M348.25,-189.56C348.25,-189.56 446,-189.56 446,-189.56 452,-189.56 458,-195.56 458,-201.56 458,-201.56 458,-371.06 458,-371.06 458,-377.06 452,-383.06 446,-383.06 446,-383.06 348.25,-383.06 348.25,-383.06 342.25,-383.06 336.25,-377.06 336.25,-371.06 336.25,-371.06 336.25,-201.56 336.25,-201.56 336.25,-195.56 342.25,-189.56 348.25,-189.56"/>
</g>
<!-- dns_client&#45;&gt;stack -->
<g id="edge22" class="edge">
<title>dns_client:stack_out&#45;&gt;stack:provide_in</title>
<path fill="none" stroke="#4a8a90" d="M111.25,-337.06C208.57,-337.06 234.63,-349.09 327.92,-349.78"/>
<polygon fill="#4a8a90" stroke="#4a8a90" points="327.73,-352.23 334.74,-349.8 327.75,-347.33 327.73,-352.23"/>
</g>
<!-- server -->
<g id="node2" class="node">
<title>server</title>
<path fill="#6baaaf" stroke="none" d="M33.75,-13.56C33.75,-13.56 77.5,-13.56 77.5,-13.56 83.5,-13.56 89.5,-19.56 89.5,-25.56 89.5,-25.56 89.5,-97.06 89.5,-97.06 89.5,-103.06 83.5,-109.06 77.5,-109.06 77.5,-109.06 33.75,-109.06 33.75,-109.06 27.75,-109.06 21.75,-103.06 21.75,-97.06 21.75,-97.06 21.75,-25.56 21.75,-25.56 21.75,-19.56 27.75,-13.56 33.75,-13.56"/>
<polygon fill="#5b9aa0" stroke="none" points="22.75,-88.06 22.75,-108.06 88.5,-108.06 88.5,-88.06 22.75,-88.06"/>
<text xml:space="preserve" text-anchor="start" x="26.75" y="-94.61" font-family="Helvetica,sans-Serif" font-weight="bold" font-size="11.00" fill="white">server</text>
<text xml:space="preserve" text-anchor="start" x="48" y="-71.93" font-family="Helvetica,sans-Serif" font-size="10.00" fill="white">data</text>
<text xml:space="preserve" text-anchor="start" x="74.75" y="-68.86" font-family="Helvetica,sans-Serif" font-size="16.00" fill="#3d6f74">●</text>
<text xml:space="preserve" text-anchor="start" x="45" y="-47.43" font-family="Helvetica,sans-Serif" font-size="10.00" fill="white">certs</text>
<text xml:space="preserve" text-anchor="start" x="74.75" y="-44.36" font-family="Helvetica,sans-Serif" font-size="16.00" fill="#3d6f74">●</text>
<text xml:space="preserve" text-anchor="start" x="42.75" y="-22.93" font-family="Helvetica,sans-Serif" font-size="10.00" fill="white">stack</text>
<text xml:space="preserve" text-anchor="start" x="74.75" y="-19.86" font-family="Helvetica,sans-Serif" font-size="16.00" fill="#3d6f74">●</text>
<path fill="none" stroke="#4a8a90" d="M33.75,-13.56C33.75,-13.56 77.5,-13.56 77.5,-13.56 83.5,-13.56 89.5,-19.56 89.5,-25.56 89.5,-25.56 89.5,-97.06 89.5,-97.06 89.5,-103.06 83.5,-109.06 77.5,-109.06 77.5,-109.06 33.75,-109.06 33.75,-109.06 27.75,-109.06 21.75,-103.06 21.75,-97.06 21.75,-97.06 21.75,-25.56 21.75,-25.56 21.75,-19.56 27.75,-13.56 33.75,-13.56"/>
</g>
<!-- tar_data -->
<g id="node4" class="node">
<title>tar_data</title>
<path fill="#6baaaf" stroke="none" d="M181.62,-114.06C181.62,-114.06 265.88,-114.06 265.88,-114.06 271.88,-114.06 277.88,-120.06 277.88,-126.06 277.88,-126.06 277.88,-148.56 277.88,-148.56 277.88,-154.56 271.88,-160.56 265.88,-160.56 265.88,-160.56 181.62,-160.56 181.62,-160.56 175.62,-160.56 169.62,-154.56 169.62,-148.56 169.62,-148.56 169.62,-126.06 169.62,-126.06 169.62,-120.06 175.62,-114.06 181.62,-114.06"/>
<polygon fill="#5b9aa0" stroke="none" points="170.62,-139.56 170.62,-159.56 276.88,-159.56 276.88,-139.56 170.62,-139.56"/>
<text xml:space="preserve" text-anchor="start" x="174.62" y="-146.11" font-family="Helvetica,sans-Serif" font-weight="bold" font-size="11.00" fill="white">tar_data</text>
<text xml:space="preserve" text-anchor="start" x="174.62" y="-120.36" font-family="Helvetica,sans-Serif" font-size="16.00" fill="#3d6f74">●</text>
<text xml:space="preserve" text-anchor="start" x="192.38" y="-123.43" font-family="Helvetica,sans-Serif" font-size="10.00" fill="white">provide</text>
<text xml:space="preserve" text-anchor="start" x="231.88" y="-123.43" font-family="Helvetica,sans-Serif" font-size="10.00" fill="white">block</text>
<text xml:space="preserve" text-anchor="start" x="263.12" y="-120.36" font-family="Helvetica,sans-Serif" font-size="16.00" fill="#3d6f74">●</text>
<path fill="none" stroke="#4a8a90" d="M181.62,-114.06C181.62,-114.06 265.88,-114.06 265.88,-114.06 271.88,-114.06 277.88,-120.06 277.88,-126.06 277.88,-126.06 277.88,-148.56 277.88,-148.56 277.88,-154.56 271.88,-160.56 265.88,-160.56 265.88,-160.56 181.62,-160.56 181.62,-160.56 175.62,-160.56 169.62,-154.56 169.62,-148.56 169.62,-148.56 169.62,-126.06 169.62,-126.06 169.62,-120.06 175.62,-114.06 181.62,-114.06"/>
</g>
<!-- server&#45;&gt;tar_data -->
<g id="edge25" class="edge">
<title>server:data_out&#45;&gt;tar_data:provide_in</title>
<path fill="none" stroke="#4a8a90" d="M89.5,-75.81C128.86,-75.81 127.7,-120.32 161.36,-126.58"/>
<polygon fill="#4a8a90" stroke="#4a8a90" points="160.93,-129 168.12,-127.17 161.36,-124.12 160.93,-129"/>
</g>
<!-- tar_certs -->
<g id="node5" class="node">
<title>tar_certs</title>
<path fill="#6baaaf" stroke="none" d="M181.62,-38.06C181.62,-38.06 265.88,-38.06 265.88,-38.06 271.88,-38.06 277.88,-44.06 277.88,-50.06 277.88,-50.06 277.88,-72.56 277.88,-72.56 277.88,-78.56 271.88,-84.56 265.88,-84.56 265.88,-84.56 181.62,-84.56 181.62,-84.56 175.62,-84.56 169.62,-78.56 169.62,-72.56 169.62,-72.56 169.62,-50.06 169.62,-50.06 169.62,-44.06 175.62,-38.06 181.62,-38.06"/>
<polygon fill="#5b9aa0" stroke="none" points="170.62,-63.56 170.62,-83.56 276.88,-83.56 276.88,-63.56 170.62,-63.56"/>
<text xml:space="preserve" text-anchor="start" x="174.62" y="-70.11" font-family="Helvetica,sans-Serif" font-weight="bold" font-size="11.00" fill="white">tar_certs</text>
<text xml:space="preserve" text-anchor="start" x="174.62" y="-44.36" font-family="Helvetica,sans-Serif" font-size="16.00" fill="#3d6f74">●</text>
<text xml:space="preserve" text-anchor="start" x="192.38" y="-47.43" font-family="Helvetica,sans-Serif" font-size="10.00" fill="white">provide</text>
<text xml:space="preserve" text-anchor="start" x="231.88" y="-47.43" font-family="Helvetica,sans-Serif" font-size="10.00" fill="white">block</text>
<text xml:space="preserve" text-anchor="start" x="263.12" y="-44.36" font-family="Helvetica,sans-Serif" font-size="16.00" fill="#3d6f74">●</text>
<path fill="none" stroke="#4a8a90" d="M181.62,-38.06C181.62,-38.06 265.88,-38.06 265.88,-38.06 271.88,-38.06 277.88,-44.06 277.88,-50.06 277.88,-50.06 277.88,-72.56 277.88,-72.56 277.88,-78.56 271.88,-84.56 265.88,-84.56 265.88,-84.56 181.62,-84.56 181.62,-84.56 175.62,-84.56 169.62,-78.56 169.62,-72.56 169.62,-72.56 169.62,-50.06 169.62,-50.06 169.62,-44.06 175.62,-38.06 181.62,-38.06"/>
</g>
<!-- server&#45;&gt;tar_certs -->
<g id="edge26" class="edge">
<title>server:certs_out&#45;&gt;tar_certs:provide_in</title>
<path fill="none" stroke="#4a8a90" d="M89.5,-51.31C122.19,-51.31 132.37,-51.31 161.37,-51.31"/>
<polygon fill="#4a8a90" stroke="#4a8a90" points="161.11,-53.76 168.11,-51.31 161.11,-48.86 161.11,-53.76"/>
</g>
<!-- server&#45;&gt;stack -->
<g id="edge27" class="edge">
<title>server:stack_out&#45;&gt;stack:provide_in</title>
<path fill="none" stroke="#4a8a90" d="M89.5,-26.81C173.4,-26.81 213.94,30.58 278.25,-23.31 389.01,-116.12 196.65,-340.8 328.01,-349.54"/>
<polygon fill="#4a8a90" stroke="#4a8a90" points="327.66,-351.98 334.74,-349.76 327.82,-347.09 327.66,-351.98"/>
</g>
<!-- happy_eyeballs&#45;&gt;stack -->
<g id="edge21" class="edge">
<title>happy_eyeballs:stack_out&#45;&gt;stack:provide_in</title>
<path fill="none" stroke="#4a8a90" d="M278.25,-378.31C303.94,-378.31 307.1,-355.5 328.04,-350.69"/>
<polygon fill="#4a8a90" stroke="#4a8a90" points="328.05,-353.15 334.75,-349.97 327.52,-348.28 328.05,-353.15"/>
</g>
<!-- data_block -->
<g id="node7" class="node">
<title>data_block</title>
<path fill="#6baaaf" stroke="none" d="M371.5,-114.06C371.5,-114.06 422.75,-114.06 422.75,-114.06 428.75,-114.06 434.75,-120.06 434.75,-126.06 434.75,-126.06 434.75,-148.56 434.75,-148.56 434.75,-154.56 428.75,-160.56 422.75,-160.56 422.75,-160.56 371.5,-160.56 371.5,-160.56 365.5,-160.56 359.5,-154.56 359.5,-148.56 359.5,-148.56 359.5,-126.06 359.5,-126.06 359.5,-120.06 365.5,-114.06 371.5,-114.06"/>
<polygon fill="#5b9aa0" stroke="none" points="360.5,-139.56 360.5,-159.56 433.75,-159.56 433.75,-139.56 360.5,-139.56"/>
<text xml:space="preserve" text-anchor="start" x="364.5" y="-146.11" font-family="Helvetica,sans-Serif" font-weight="bold" font-size="11.00" fill="white">data_block</text>
<text xml:space="preserve" text-anchor="start" x="364.5" y="-120.36" font-family="Helvetica,sans-Serif" font-size="16.00" fill="#3d6f74">●</text>
<text xml:space="preserve" text-anchor="start" x="382.25" y="-123.43" font-family="Helvetica,sans-Serif" font-size="10.00" fill="white">provide</text>
<path fill="none" stroke="#4a8a90" d="M371.5,-114.06C371.5,-114.06 422.75,-114.06 422.75,-114.06 428.75,-114.06 434.75,-120.06 434.75,-126.06 434.75,-126.06 434.75,-148.56 434.75,-148.56 434.75,-154.56 428.75,-160.56 422.75,-160.56 422.75,-160.56 371.5,-160.56 371.5,-160.56 365.5,-160.56 359.5,-154.56 359.5,-148.56 359.5,-148.56 359.5,-126.06 359.5,-126.06 359.5,-120.06 365.5,-114.06 371.5,-114.06"/>
</g>
<!-- tar_data&#45;&gt;data_block -->
<g id="edge23" class="edge">
<title>tar_data:block_out&#45;&gt;data_block:provide_in</title>
<path fill="none" stroke="#4a8a90" d="M277.88,-127.31C311.18,-127.31 321.55,-127.31 351.09,-127.31"/>
<polygon fill="#4a8a90" stroke="#4a8a90" points="350.99,-129.76 357.99,-127.31 350.99,-124.86 350.99,-129.76"/>
</g>
<!-- certs_block -->
<g id="node8" class="node">
<title>certs_block</title>
<path fill="#6baaaf" stroke="none" d="M371.5,-38.06C371.5,-38.06 422.75,-38.06 422.75,-38.06 428.75,-38.06 434.75,-44.06 434.75,-50.06 434.75,-50.06 434.75,-72.56 434.75,-72.56 434.75,-78.56 428.75,-84.56 422.75,-84.56 422.75,-84.56 371.5,-84.56 371.5,-84.56 365.5,-84.56 359.5,-78.56 359.5,-72.56 359.5,-72.56 359.5,-50.06 359.5,-50.06 359.5,-44.06 365.5,-38.06 371.5,-38.06"/>
<polygon fill="#5b9aa0" stroke="none" points="360.5,-63.56 360.5,-83.56 433.75,-83.56 433.75,-63.56 360.5,-63.56"/>
<text xml:space="preserve" text-anchor="start" x="364.5" y="-70.11" font-family="Helvetica,sans-Serif" font-weight="bold" font-size="11.00" fill="white">certs_block</text>
<text xml:space="preserve" text-anchor="start" x="364.5" y="-44.36" font-family="Helvetica,sans-Serif" font-size="16.00" fill="#3d6f74">●</text>
<text xml:space="preserve" text-anchor="start" x="382.25" y="-47.43" font-family="Helvetica,sans-Serif" font-size="10.00" fill="white">provide</text>
<path fill="none" stroke="#4a8a90" d="M371.5,-38.06C371.5,-38.06 422.75,-38.06 422.75,-38.06 428.75,-38.06 434.75,-44.06 434.75,-50.06 434.75,-50.06 434.75,-72.56 434.75,-72.56 434.75,-78.56 428.75,-84.56 422.75,-84.56 422.75,-84.56 371.5,-84.56 371.5,-84.56 365.5,-84.56 359.5,-78.56 359.5,-72.56 359.5,-72.56 359.5,-50.06 359.5,-50.06 359.5,-44.06 365.5,-38.06 371.5,-38.06"/>
</g>
<!-- tar_certs&#45;&gt;certs_block -->
<g id="edge24" class="edge">
<title>tar_certs:block_out&#45;&gt;certs_block:provide_in</title>
<path fill="none" stroke="#4a8a90" d="M277.88,-51.31C311.18,-51.31 321.55,-51.31 351.09,-51.31"/>
<polygon fill="#4a8a90" stroke="#4a8a90" points="350.99,-53.76 357.99,-51.31 350.99,-48.86 350.99,-53.76"/>
</g>
<!-- icmp -->
<g id="node9" class="node">
<title>icmp</title>
<path fill="#6baaaf" stroke="none" d="M528,-186.06C528,-186.06 625,-186.06 625,-186.06 631,-186.06 637,-192.06 637,-198.06 637,-198.06 637,-220.56 637,-220.56 637,-226.56 631,-232.56 625,-232.56 625,-232.56 528,-232.56 528,-232.56 522,-232.56 516,-226.56 516,-220.56 516,-220.56 516,-198.06 516,-198.06 516,-192.06 522,-186.06 528,-186.06"/>
<polygon fill="#5b9aa0" stroke="none" points="517,-211.56 517,-231.56 636,-231.56 636,-211.56 517,-211.56"/>
<text xml:space="preserve" text-anchor="start" x="521" y="-218.11" font-family="Helvetica,sans-Serif" font-weight="bold" font-size="11.00" fill="white">icmp</text>
<text xml:space="preserve" text-anchor="start" x="521" y="-192.36" font-family="Helvetica,sans-Serif" font-size="16.00" fill="#3d6f74">●</text>
<text xml:space="preserve" text-anchor="start" x="538.75" y="-195.43" font-family="Helvetica,sans-Serif" font-size="10.00" fill="white">ip_write</text>
<text xml:space="preserve" text-anchor="start" x="580.5" y="-195.43" font-family="Helvetica,sans-Serif" font-size="10.00" fill="white">ip_write</text>
<text xml:space="preserve" text-anchor="start" x="622.25" y="-192.36" font-family="Helvetica,sans-Serif" font-size="16.00" fill="#3d6f74">●</text>
<path fill="none" stroke="#4a8a90" d="M528,-186.06C528,-186.06 625,-186.06 625,-186.06 631,-186.06 637,-192.06 637,-198.06 637,-198.06 637,-220.56 637,-220.56 637,-226.56 631,-232.56 625,-232.56 625,-232.56 528,-232.56 528,-232.56 522,-232.56 516,-226.56 516,-220.56 516,-220.56 516,-198.06 516,-198.06 516,-192.06 522,-186.06 528,-186.06"/>
</g>
<!-- stack&#45;&gt;icmp -->
<g id="edge17" class="edge">
<title>stack:icmpv4_out&#45;&gt;icmp:ip_write_in</title>
<path fill="none" stroke="#4a8a90" d="M458,-251.81C489.65,-251.81 482.93,-208.32 507.68,-200.5"/>
<polygon fill="#4a8a90" stroke="#4a8a90" points="507.92,-202.94 514.5,-199.52 507.22,-198.09 507.92,-202.94"/>
</g>
<!-- udp -->
<g id="node10" class="node">
<title>udp</title>
<path fill="#6baaaf" stroke="none" d="M528,-110.06C528,-110.06 625,-110.06 625,-110.06 631,-110.06 637,-116.06 637,-122.06 637,-122.06 637,-144.56 637,-144.56 637,-150.56 631,-156.56 625,-156.56 625,-156.56 528,-156.56 528,-156.56 522,-156.56 516,-150.56 516,-144.56 516,-144.56 516,-122.06 516,-122.06 516,-116.06 522,-110.06 528,-110.06"/>
<polygon fill="#5b9aa0" stroke="none" points="517,-135.56 517,-155.56 636,-155.56 636,-135.56 517,-135.56"/>
<text xml:space="preserve" text-anchor="start" x="521" y="-142.11" font-family="Helvetica,sans-Serif" font-weight="bold" font-size="11.00" fill="white">udp</text>
<text xml:space="preserve" text-anchor="start" x="521" y="-116.36" font-family="Helvetica,sans-Serif" font-size="16.00" fill="#3d6f74">●</text>
<text xml:space="preserve" text-anchor="start" x="538.75" y="-119.43" font-family="Helvetica,sans-Serif" font-size="10.00" fill="white">ip_write</text>
<text xml:space="preserve" text-anchor="start" x="580.5" y="-119.43" font-family="Helvetica,sans-Serif" font-size="10.00" fill="white">ip_write</text>
<text xml:space="preserve" text-anchor="start" x="622.25" y="-116.36" font-family="Helvetica,sans-Serif" font-size="16.00" fill="#3d6f74">●</text>
<path fill="none" stroke="#4a8a90" d="M528,-110.06C528,-110.06 625,-110.06 625,-110.06 631,-110.06 637,-116.06 637,-122.06 637,-122.06 637,-144.56 637,-144.56 637,-150.56 631,-156.56 625,-156.56 625,-156.56 528,-156.56 528,-156.56 522,-156.56 516,-150.56 516,-144.56 516,-144.56 516,-122.06 516,-122.06 516,-116.06 522,-110.06 528,-110.06"/>
</g>
<!-- stack&#45;&gt;udp -->
<g id="edge18" class="edge">
<title>stack:udpv4v6_out&#45;&gt;udp:ip_write_in</title>
<path fill="none" stroke="#4a8a90" d="M458,-227.31C507.82,-227.31 468.34,-135.14 507.69,-124.34"/>
<polygon fill="#4a8a90" stroke="#4a8a90" points="507.85,-126.79 514.5,-123.49 507.25,-121.92 507.85,-126.79"/>
</g>
<!-- tcp -->
<g id="node11" class="node">
<title>tcp</title>
<path fill="#6baaaf" stroke="none" d="M534.38,-34.06C534.38,-34.06 618.62,-34.06 618.62,-34.06 624.62,-34.06 630.62,-40.06 630.62,-46.06 630.62,-46.06 630.62,-68.56 630.62,-68.56 630.62,-74.56 624.62,-80.56 618.62,-80.56 618.62,-80.56 534.38,-80.56 534.38,-80.56 528.38,-80.56 522.38,-74.56 522.38,-68.56 522.38,-68.56 522.38,-46.06 522.38,-46.06 522.38,-40.06 528.38,-34.06 534.38,-34.06"/>
<polygon fill="#5b9aa0" stroke="none" points="523.38,-59.56 523.38,-79.56 629.62,-79.56 629.62,-59.56 523.38,-59.56"/>
<text xml:space="preserve" text-anchor="start" x="527.38" y="-66.11" font-family="Helvetica,sans-Serif" font-weight="bold" font-size="11.00" fill="white">tcp</text>
<text xml:space="preserve" text-anchor="start" x="527.38" y="-40.36" font-family="Helvetica,sans-Serif" font-size="16.00" fill="#3d6f74">●</text>
<text xml:space="preserve" text-anchor="start" x="545.12" y="-43.43" font-family="Helvetica,sans-Serif" font-size="10.00" fill="white">write</text>
<text xml:space="preserve" text-anchor="start" x="574.12" y="-43.43" font-family="Helvetica,sans-Serif" font-size="10.00" fill="white">ip_write</text>
<text xml:space="preserve" text-anchor="start" x="615.88" y="-40.36" font-family="Helvetica,sans-Serif" font-size="16.00" fill="#3d6f74">●</text>
<path fill="none" stroke="#4a8a90" d="M534.38,-34.06C534.38,-34.06 618.62,-34.06 618.62,-34.06 624.62,-34.06 630.62,-40.06 630.62,-46.06 630.62,-46.06 630.62,-68.56 630.62,-68.56 630.62,-74.56 624.62,-80.56 618.62,-80.56 618.62,-80.56 534.38,-80.56 534.38,-80.56 528.38,-80.56 522.38,-74.56 522.38,-68.56 522.38,-68.56 522.38,-46.06 522.38,-46.06 522.38,-40.06 528.38,-34.06 534.38,-34.06"/>
</g>
<!-- stack&#45;&gt;tcp -->
<g id="edge19" class="edge">
<title>stack:tcpv4v6_out&#45;&gt;tcp:write_in</title>
<path fill="none" stroke="#4a8a90" d="M448.12,-189.56C448.12,-181.85 454.06,-181.93 458,-175.31 489,-123.12 461.54,-54.13 514.03,-47.78"/>
<polygon fill="#4a8a90" stroke="#4a8a90" points="514.01,-50.24 520.86,-47.39 513.74,-45.34 514.01,-50.24"/>
</g>
<!-- ip -->
<g id="node12" class="node">
<title>ip</title>
<path fill="#6baaaf" stroke="none" d="M707,-131.81C707,-131.81 775.5,-131.81 775.5,-131.81 781.5,-131.81 787.5,-137.81 787.5,-143.81 787.5,-143.81 787.5,-190.81 787.5,-190.81 787.5,-196.81 781.5,-202.81 775.5,-202.81 775.5,-202.81 707,-202.81 707,-202.81 701,-202.81 695,-196.81 695,-190.81 695,-190.81 695,-143.81 695,-143.81 695,-137.81 701,-131.81 707,-131.81"/>
<polygon fill="#5b9aa0" stroke="none" points="696,-181.81 696,-201.81 786.5,-201.81 786.5,-181.81 696,-181.81"/>
<text xml:space="preserve" text-anchor="start" x="700" y="-188.36" font-family="Helvetica,sans-Serif" font-weight="bold" font-size="11.00" fill="white">ip</text>
<text xml:space="preserve" text-anchor="start" x="700" y="-162.61" font-family="Helvetica,sans-Serif" font-size="16.00" fill="#3d6f74">●</text>
<text xml:space="preserve" text-anchor="start" x="717.75" y="-165.68" font-family="Helvetica,sans-Serif" font-size="10.00" fill="white">write</text>
<text xml:space="preserve" text-anchor="start" x="746.75" y="-165.68" font-family="Helvetica,sans-Serif" font-size="10.00" fill="white">ipv4</text>
<text xml:space="preserve" text-anchor="start" x="772.75" y="-162.61" font-family="Helvetica,sans-Serif" font-size="16.00" fill="#3d6f74">●</text>
<text xml:space="preserve" text-anchor="start" x="746.75" y="-141.18" font-family="Helvetica,sans-Serif" font-size="10.00" fill="white">ipv6</text>
<text xml:space="preserve" text-anchor="start" x="772.75" y="-138.11" font-family="Helvetica,sans-Serif" font-size="16.00" fill="#3d6f74">●</text>
<path fill="none" stroke="#4a8a90" d="M707,-131.81C707,-131.81 775.5,-131.81 775.5,-131.81 781.5,-131.81 787.5,-137.81 787.5,-143.81 787.5,-143.81 787.5,-190.81 787.5,-190.81 787.5,-196.81 781.5,-202.81 775.5,-202.81 775.5,-202.81 707,-202.81 707,-202.81 701,-202.81 695,-196.81 695,-190.81 695,-190.81 695,-143.81 695,-143.81 695,-137.81 701,-131.81 707,-131.81"/>
</g>
<!-- stack&#45;&gt;ip -->
<g id="edge16" class="edge">
<title>stack:ipv4v6_out&#45;&gt;ip:write_in</title>
<path fill="none" stroke="#4a8a90" d="M458,-276.31C538.59,-276.31 568.09,-289.1 637,-247.31 671.27,-226.52 654.69,-177.18 686.83,-170.35"/>
<polygon fill="#4a8a90" stroke="#4a8a90" points="686.76,-172.82 693.49,-169.7 686.29,-167.94 686.76,-172.82"/>
</g>
<!-- arp -->
<g id="node15" class="node">
<title>arp</title>
<path fill="#6baaaf" stroke="none" d="M1032.75,-245.06C1032.75,-245.06 1126,-245.06 1126,-245.06 1132,-245.06 1138,-251.06 1138,-257.06 1138,-257.06 1138,-279.56 1138,-279.56 1138,-285.56 1132,-291.56 1126,-291.56 1126,-291.56 1032.75,-291.56 1032.75,-291.56 1026.75,-291.56 1020.75,-285.56 1020.75,-279.56 1020.75,-279.56 1020.75,-257.06 1020.75,-257.06 1020.75,-251.06 1026.75,-245.06 1032.75,-245.06"/>
<polygon fill="#5b9aa0" stroke="none" points="1021.75,-270.56 1021.75,-290.56 1137,-290.56 1137,-270.56 1021.75,-270.56"/>
<text xml:space="preserve" text-anchor="start" x="1025.75" y="-277.11" font-family="Helvetica,sans-Serif" font-weight="bold" font-size="11.00" fill="white">arp</text>
<text xml:space="preserve" text-anchor="start" x="1025.75" y="-251.36" font-family="Helvetica,sans-Serif" font-size="16.00" fill="#3d6f74">●</text>
<text xml:space="preserve" text-anchor="start" x="1043.5" y="-254.43" font-family="Helvetica,sans-Serif" font-size="10.00" fill="white">query</text>
<text xml:space="preserve" text-anchor="start" x="1075.5" y="-254.43" font-family="Helvetica,sans-Serif" font-size="10.00" fill="white">eth_write</text>
<text xml:space="preserve" text-anchor="start" x="1123.25" y="-251.36" font-family="Helvetica,sans-Serif" font-size="16.00" fill="#3d6f74">●</text>
<path fill="none" stroke="#4a8a90" d="M1032.75,-245.06C1032.75,-245.06 1126,-245.06 1126,-245.06 1132,-245.06 1138,-251.06 1138,-257.06 1138,-257.06 1138,-279.56 1138,-279.56 1138,-285.56 1132,-291.56 1126,-291.56 1126,-291.56 1032.75,-291.56 1032.75,-291.56 1026.75,-291.56 1020.75,-285.56 1020.75,-279.56 1020.75,-279.56 1020.75,-257.06 1020.75,-257.06 1020.75,-251.06 1026.75,-245.06 1032.75,-245.06"/>
</g>
<!-- stack&#45;&gt;arp -->
<g id="edge15" class="edge">
<title>stack:arpv4_out&#45;&gt;arp:query_in</title>
<path fill="none" stroke="#4a8a90" d="M458,-300.81C682.34,-300.81 750.51,-375.98 962.75,-303.31 990.72,-293.73 988.83,-264.55 1012.52,-259.17"/>
<polygon fill="#4a8a90" stroke="#4a8a90" points="1012.54,-261.63 1019.24,-258.46 1012.03,-256.75 1012.54,-261.63"/>
</g>
<!-- eth -->
<g id="node16" class="node">
<title>eth</title>
<path fill="#6baaaf" stroke="none" d="M1208,-283.06C1208,-283.06 1298.25,-283.06 1298.25,-283.06 1304.25,-283.06 1310.25,-289.06 1310.25,-295.06 1310.25,-295.06 1310.25,-317.56 1310.25,-317.56 1310.25,-323.56 1304.25,-329.56 1298.25,-329.56 1298.25,-329.56 1208,-329.56 1208,-329.56 1202,-329.56 1196,-323.56 1196,-317.56 1196,-317.56 1196,-295.06 1196,-295.06 1196,-289.06 1202,-283.06 1208,-283.06"/>
<polygon fill="#5b9aa0" stroke="none" points="1197,-308.56 1197,-328.56 1309.25,-328.56 1309.25,-308.56 1197,-308.56"/>
<text xml:space="preserve" text-anchor="start" x="1201" y="-315.11" font-family="Helvetica,sans-Serif" font-weight="bold" font-size="11.00" fill="white">eth</text>
<text xml:space="preserve" text-anchor="start" x="1201" y="-289.36" font-family="Helvetica,sans-Serif" font-size="16.00" fill="#3d6f74">●</text>
<text xml:space="preserve" text-anchor="start" x="1218.75" y="-292.43" font-family="Helvetica,sans-Serif" font-size="10.00" fill="white">write</text>
<text xml:space="preserve" text-anchor="start" x="1247.75" y="-292.43" font-family="Helvetica,sans-Serif" font-size="10.00" fill="white">net_write</text>
<text xml:space="preserve" text-anchor="start" x="1295.5" y="-289.36" font-family="Helvetica,sans-Serif" font-size="16.00" fill="#3d6f74">●</text>
<path fill="none" stroke="#4a8a90" d="M1208,-283.06C1208,-283.06 1298.25,-283.06 1298.25,-283.06 1304.25,-283.06 1310.25,-289.06 1310.25,-295.06 1310.25,-295.06 1310.25,-317.56 1310.25,-317.56 1310.25,-323.56 1304.25,-329.56 1298.25,-329.56 1298.25,-329.56 1208,-329.56 1208,-329.56 1202,-329.56 1196,-323.56 1196,-317.56 1196,-317.56 1196,-295.06 1196,-295.06 1196,-289.06 1202,-283.06 1208,-283.06"/>
</g>
<!-- stack&#45;&gt;eth -->
<g id="edge14" class="edge">
<title>stack:ethernet_out&#45;&gt;eth:write_in</title>
<path fill="none" stroke="#4a8a90" d="M458,-325.31C522.57,-325.31 675.68,-394.31 740.25,-394.31 740.25,-394.31 740.25,-394.31 905.12,-394.31 1012.12,-394.31 1039.96,-376.15 1138,-333.31 1163.17,-322.31 1165.25,-301.21 1187.59,-297.03"/>
<polygon fill="#4a8a90" stroke="#4a8a90" points="1187.73,-299.48 1194.49,-296.44 1187.31,-294.6 1187.73,-299.48"/>
</g>
<!-- net -->
<g id="node17" class="node">
<title>net</title>
<path fill="#6baaaf" stroke="none" d="M1380.25,-283.06C1380.25,-283.06 1467.5,-283.06 1467.5,-283.06 1473.5,-283.06 1479.5,-289.06 1479.5,-295.06 1479.5,-295.06 1479.5,-317.56 1479.5,-317.56 1479.5,-323.56 1473.5,-329.56 1467.5,-329.56 1467.5,-329.56 1380.25,-329.56 1380.25,-329.56 1374.25,-329.56 1368.25,-323.56 1368.25,-317.56 1368.25,-317.56 1368.25,-295.06 1368.25,-295.06 1368.25,-289.06 1374.25,-283.06 1380.25,-283.06"/>
<polygon fill="#5b9aa0" stroke="none" points="1369.25,-308.56 1369.25,-328.56 1478.5,-328.56 1478.5,-308.56 1369.25,-308.56"/>
<text xml:space="preserve" text-anchor="start" x="1373.25" y="-315.11" font-family="Helvetica,sans-Serif" font-weight="bold" font-size="11.00" fill="white">net</text>
<text xml:space="preserve" text-anchor="start" x="1373.25" y="-289.36" font-family="Helvetica,sans-Serif" font-size="16.00" fill="#3d6f74">●</text>
<text xml:space="preserve" text-anchor="start" x="1391" y="-292.43" font-family="Helvetica,sans-Serif" font-size="10.00" fill="white">write</text>
<text xml:space="preserve" text-anchor="start" x="1420" y="-292.43" font-family="Helvetica,sans-Serif" font-size="10.00" fill="white">backend</text>
<text xml:space="preserve" text-anchor="start" x="1464.75" y="-289.36" font-family="Helvetica,sans-Serif" font-size="16.00" fill="#3d6f74">●</text>
<path fill="none" stroke="#4a8a90" d="M1380.25,-283.06C1380.25,-283.06 1467.5,-283.06 1467.5,-283.06 1473.5,-283.06 1479.5,-289.06 1479.5,-295.06 1479.5,-295.06 1479.5,-317.56 1479.5,-317.56 1479.5,-323.56 1473.5,-329.56 1467.5,-329.56 1467.5,-329.56 1380.25,-329.56 1380.25,-329.56 1374.25,-329.56 1368.25,-323.56 1368.25,-317.56 1368.25,-317.56 1368.25,-295.06 1368.25,-295.06 1368.25,-289.06 1374.25,-283.06 1380.25,-283.06"/>
</g>
<!-- stack&#45;&gt;net -->
<g id="edge13" class="edge">
<title>stack:netif_out&#45;&gt;net:write_in</title>
<path fill="none" stroke="#4a8a90" d="M458,-349.81C485.98,-349.81 489.9,-364.21 516,-374.31 614.55,-412.44 634.58,-453.31 740.25,-453.31 740.25,-453.31 740.25,-453.31 1080.38,-453.31 1193.45,-453.31 1214.88,-405.04 1310.25,-344.31 1335.94,-327.95 1335.19,-301.6 1360.08,-297"/>
<polygon fill="#4a8a90" stroke="#4a8a90" points="1359.98,-299.47 1366.74,-296.44 1359.56,-294.59 1359.98,-299.47"/>
</g>
<!-- ipv4 -->
<g id="node13" class="node">
<title>ipv4</title>
<path fill="#6baaaf" stroke="none" d="M857.5,-217.81C857.5,-217.81 950.75,-217.81 950.75,-217.81 956.75,-217.81 962.75,-223.81 962.75,-229.81 962.75,-229.81 962.75,-276.81 962.75,-276.81 962.75,-282.81 956.75,-288.81 950.75,-288.81 950.75,-288.81 857.5,-288.81 857.5,-288.81 851.5,-288.81 845.5,-282.81 845.5,-276.81 845.5,-276.81 845.5,-229.81 845.5,-229.81 845.5,-223.81 851.5,-217.81 857.5,-217.81"/>
<polygon fill="#5b9aa0" stroke="none" points="846.5,-267.81 846.5,-287.81 961.75,-287.81 961.75,-267.81 846.5,-267.81"/>
<text xml:space="preserve" text-anchor="start" x="850.5" y="-274.36" font-family="Helvetica,sans-Serif" font-weight="bold" font-size="11.00" fill="white">ipv4</text>
<text xml:space="preserve" text-anchor="start" x="850.5" y="-248.61" font-family="Helvetica,sans-Serif" font-size="16.00" fill="#3d6f74">●</text>
<text xml:space="preserve" text-anchor="start" x="868.25" y="-251.68" font-family="Helvetica,sans-Serif" font-size="10.00" fill="white">write</text>
<text xml:space="preserve" text-anchor="start" x="900.25" y="-251.68" font-family="Helvetica,sans-Serif" font-size="10.00" fill="white">eth_write</text>
<text xml:space="preserve" text-anchor="start" x="948" y="-248.61" font-family="Helvetica,sans-Serif" font-size="16.00" fill="#3d6f74">●</text>
<text xml:space="preserve" text-anchor="start" x="897.25" y="-227.18" font-family="Helvetica,sans-Serif" font-size="10.00" fill="white">arp_query</text>
<text xml:space="preserve" text-anchor="start" x="948" y="-224.11" font-family="Helvetica,sans-Serif" font-size="16.00" fill="#3d6f74">●</text>
<path fill="none" stroke="#4a8a90" d="M857.5,-217.81C857.5,-217.81 950.75,-217.81 950.75,-217.81 956.75,-217.81 962.75,-223.81 962.75,-229.81 962.75,-229.81 962.75,-276.81 962.75,-276.81 962.75,-282.81 956.75,-288.81 950.75,-288.81 950.75,-288.81 857.5,-288.81 857.5,-288.81 851.5,-288.81 845.5,-282.81 845.5,-276.81 845.5,-276.81 845.5,-229.81 845.5,-229.81 845.5,-223.81 851.5,-217.81 857.5,-217.81"/>
</g>
<!-- icmp&#45;&gt;ipv4 -->
<g id="edge10" class="edge">
<title>icmp:ip_write_out&#45;&gt;ipv4:write_in</title>
<path fill="none" stroke="#4a8a90" d="M637,-199.31C663.99,-199.31 669.02,-209.98 695,-217.31 758.7,-235.27 775.16,-253.96 837.27,-255.46"/>
<polygon fill="#4a8a90" stroke="#4a8a90" points="836.96,-257.91 843.99,-255.54 837.02,-253.01 836.96,-257.91"/>
</g>
<!-- udp&#45;&gt;ip -->
<g id="edge11" class="edge">
<title>udp:ip_write_out&#45;&gt;ip:write_in</title>
<path fill="none" stroke="#4a8a90" d="M637,-123.31C666.88,-123.31 663.16,-161.29 686.74,-168.41"/>
<polygon fill="#4a8a90" stroke="#4a8a90" points="686.23,-170.82 693.5,-169.35 686.9,-165.96 686.23,-170.82"/>
</g>
<!-- tcp&#45;&gt;ip -->
<g id="edge12" class="edge">
<title>tcp:ip_write_out&#45;&gt;ip:write_in</title>
<path fill="none" stroke="#4a8a90" d="M630.62,-47.31C688.91,-47.31 639.22,-157.46 686.54,-168.64"/>
<polygon fill="#4a8a90" stroke="#4a8a90" points="686.27,-171.08 693.5,-169.39 686.8,-166.21 686.27,-171.08"/>
</g>
<!-- ip&#45;&gt;ipv4 -->
<g id="edge8" class="edge">
<title>ip:ipv4_out&#45;&gt;ipv4:write_in</title>
<path fill="none" stroke="#4a8a90" d="M787.5,-169.56C830.54,-169.56 803.59,-244.51 837.33,-254.47"/>
<polygon fill="#4a8a90" stroke="#4a8a90" points="836.74,-256.86 844,-255.36 837.38,-252 836.74,-256.86"/>
</g>
<!-- ipv6 -->
<g id="node14" class="node">
<title>ipv6</title>
<path fill="#6baaaf" stroke="none" d="M859,-107.81C859,-107.81 949.25,-107.81 949.25,-107.81 955.25,-107.81 961.25,-113.81 961.25,-119.81 961.25,-119.81 961.25,-166.81 961.25,-166.81 961.25,-172.81 955.25,-178.81 949.25,-178.81 949.25,-178.81 859,-178.81 859,-178.81 853,-178.81 847,-172.81 847,-166.81 847,-166.81 847,-119.81 847,-119.81 847,-113.81 853,-107.81 859,-107.81"/>
<polygon fill="#5b9aa0" stroke="none" points="848,-157.81 848,-177.81 960.25,-177.81 960.25,-157.81 848,-157.81"/>
<text xml:space="preserve" text-anchor="start" x="852" y="-164.36" font-family="Helvetica,sans-Serif" font-weight="bold" font-size="11.00" fill="white">ipv6</text>
<text xml:space="preserve" text-anchor="start" x="852" y="-138.61" font-family="Helvetica,sans-Serif" font-size="16.00" fill="#3d6f74">●</text>
<text xml:space="preserve" text-anchor="start" x="869.75" y="-141.68" font-family="Helvetica,sans-Serif" font-size="10.00" fill="white">write</text>
<text xml:space="preserve" text-anchor="start" x="898.75" y="-141.68" font-family="Helvetica,sans-Serif" font-size="10.00" fill="white">net_write</text>
<text xml:space="preserve" text-anchor="start" x="946.5" y="-138.61" font-family="Helvetica,sans-Serif" font-size="16.00" fill="#3d6f74">●</text>
<text xml:space="preserve" text-anchor="start" x="898.75" y="-117.18" font-family="Helvetica,sans-Serif" font-size="10.00" fill="white">eth_write</text>
<text xml:space="preserve" text-anchor="start" x="946.5" y="-114.11" font-family="Helvetica,sans-Serif" font-size="16.00" fill="#3d6f74">●</text>
<path fill="none" stroke="#4a8a90" d="M859,-107.81C859,-107.81 949.25,-107.81 949.25,-107.81 955.25,-107.81 961.25,-113.81 961.25,-119.81 961.25,-119.81 961.25,-166.81 961.25,-166.81 961.25,-172.81 955.25,-178.81 949.25,-178.81 949.25,-178.81 859,-178.81 859,-178.81 853,-178.81 847,-172.81 847,-166.81 847,-166.81 847,-119.81 847,-119.81 847,-113.81 853,-107.81 859,-107.81"/>
</g>
<!-- ip&#45;&gt;ipv6 -->
<g id="edge9" class="edge">
<title>ip:ipv6_out&#45;&gt;ipv6:write_in</title>
<path fill="none" stroke="#4a8a90" d="M787.5,-145.06C810.95,-145.06 818.8,-145.45 838.72,-145.54"/>
<polygon fill="#4a8a90" stroke="#4a8a90" points="838.48,-147.99 845.49,-145.55 838.49,-143.09 838.48,-147.99"/>
</g>
<!-- ipv4&#45;&gt;arp -->
<g id="edge5" class="edge">
<title>ipv4:arp_query_out&#45;&gt;arp:query_in</title>
<path fill="none" stroke="#4a8a90" d="M962.75,-231.06C988.12,-231.06 991.71,-252.67 1012.32,-257.4"/>
<polygon fill="#4a8a90" stroke="#4a8a90" points="1012.02,-259.83 1019.25,-258.14 1012.55,-254.96 1012.02,-259.83"/>
</g>
<!-- ipv4&#45;&gt;eth -->
<g id="edge4" class="edge">
<title>ipv4:eth_write_out&#45;&gt;eth:write_in</title>
<path fill="none" stroke="#4a8a90" d="M962.75,-255.56C997,-255.56 988.69,-294.26 1020.75,-306.31 1069.53,-324.64 1086.08,-310.75 1138,-306.31 1161.01,-304.34 1168.21,-298.05 1187.58,-296.61"/>
<polygon fill="#4a8a90" stroke="#4a8a90" points="1187.58,-299.06 1194.49,-296.36 1187.4,-294.16 1187.58,-299.06"/>
</g>
<!-- ipv6&#45;&gt;eth -->
<g id="edge7" class="edge">
<title>ipv6:eth_write_out&#45;&gt;eth:write_in</title>
<path fill="none" stroke="#4a8a90" d="M961.25,-121.06C993.94,-121.06 993.24,-146.65 1020.75,-164.31 1071.08,-196.61 1088.2,-197.2 1138,-230.31 1167.33,-249.8 1200.27,-245.71 1205.23,-274.89"/>
<polygon fill="#4a8a90" stroke="#4a8a90" points="1202.77,-274.76 1205.76,-281.55 1207.65,-274.38 1202.77,-274.76"/>
</g>
<!-- ipv6&#45;&gt;net -->
<g id="edge6" class="edge">
<title>ipv6:net_write_out&#45;&gt;net:write_in</title>
<path fill="none" stroke="#4a8a90" d="M961.25,-145.56C1153.49,-145.56 1371.63,-89.64 1377.98,-274.64"/>
<polygon fill="#4a8a90" stroke="#4a8a90" points="1375.53,-274.59 1378.1,-281.54 1380.43,-274.5 1375.53,-274.59"/>
</g>
<!-- arp&#45;&gt;eth -->
<g id="edge3" class="edge">
<title>arp:eth_write_out&#45;&gt;eth:write_in</title>
<path fill="none" stroke="#4a8a90" d="M1138,-258.31C1165.69,-258.31 1165.57,-288.98 1187.6,-295.21"/>
<polygon fill="#4a8a90" stroke="#4a8a90" points="1187.24,-297.63 1194.5,-296.11 1187.88,-292.77 1187.24,-297.63"/>
</g>
<!-- eth&#45;&gt;net -->
<g id="edge2" class="edge">
<title>eth:net_write_out&#45;&gt;net:write_in</title>
<path fill="none" stroke="#4a8a90" d="M1310.25,-296.31C1333.01,-296.31 1340.7,-296.31 1359.92,-296.31"/>
<polygon fill="#4a8a90" stroke="#4a8a90" points="1359.74,-298.76 1366.74,-296.31 1359.74,-293.86 1359.74,-298.76"/>
</g>
<!-- backend -->
<g id="node18" class="node">
<title>backend</title>
<path fill="#6baaaf" stroke="none" d="M1549.5,-283.06C1549.5,-283.06 1600.75,-283.06 1600.75,-283.06 1606.75,-283.06 1612.75,-289.06 1612.75,-295.06 1612.75,-295.06 1612.75,-317.56 1612.75,-317.56 1612.75,-323.56 1606.75,-329.56 1600.75,-329.56 1600.75,-329.56 1549.5,-329.56 1549.5,-329.56 1543.5,-329.56 1537.5,-323.56 1537.5,-317.56 1537.5,-317.56 1537.5,-295.06 1537.5,-295.06 1537.5,-289.06 1543.5,-283.06 1549.5,-283.06"/>
<polygon fill="#5b9aa0" stroke="none" points="1538.5,-308.56 1538.5,-328.56 1611.75,-328.56 1611.75,-308.56 1538.5,-308.56"/>
<text xml:space="preserve" text-anchor="start" x="1542.5" y="-315.11" font-family="Helvetica,sans-Serif" font-weight="bold" font-size="11.00" fill="white">backend</text>
<text xml:space="preserve" text-anchor="start" x="1542.5" y="-289.36" font-family="Helvetica,sans-Serif" font-size="16.00" fill="#3d6f74">●</text>
<text xml:space="preserve" text-anchor="start" x="1560.25" y="-292.43" font-family="Helvetica,sans-Serif" font-size="10.00" fill="white">provide</text>
<path fill="none" stroke="#4a8a90" d="M1549.5,-283.06C1549.5,-283.06 1600.75,-283.06 1600.75,-283.06 1606.75,-283.06 1612.75,-289.06 1612.75,-295.06 1612.75,-295.06 1612.75,-317.56 1612.75,-317.56 1612.75,-323.56 1606.75,-329.56 1600.75,-329.56 1600.75,-329.56 1549.5,-329.56 1549.5,-329.56 1543.5,-329.56 1537.5,-323.56 1537.5,-317.56 1537.5,-317.56 1537.5,-295.06 1537.5,-295.06 1537.5,-289.06 1543.5,-283.06 1549.5,-283.06"/>
</g>
<!-- net&#45;&gt;backend -->
<g id="edge1" class="edge">
<title>net:backend_out&#45;&gt;backend:provide_in</title>
<path fill="none" stroke="#4a8a90" d="M1479.5,-296.31C1502.26,-296.31 1509.95,-296.31 1529.17,-296.31"/>
<polygon fill="#4a8a90" stroke="#4a8a90" points="1528.99,-298.76 1535.99,-296.31 1528.99,-293.86 1528.99,-298.76"/>
</g>
</g>
</svg>
