<?xml version="1.0" encoding="UTF-8" standalone="no"?>
<!DOCTYPE svg PUBLIC "-//W3C//DTD SVG 1.1//EN"
 "http://www.w3.org/Graphics/SVG/1.1/DTD/svg11.dtd">
<!-- Generated by graphviz version 14.1.2 (20260124.0452)
 -->
<!-- Title: TcpipStack Pages: 1 -->
<svg width="1293pt" height="477pt"
 viewBox="0.00 0.00 1293.00 477.00" xmlns="http://www.w3.org/2000/svg" xmlns:xlink="http://www.w3.org/1999/xlink">
<g id="graph0" class="graph" transform="scale(1 1) rotate(0) translate(28.8 448.05)">
<title>TcpipStack</title>
<polygon fill="white" stroke="none" points="-28.8,28.8 -28.8,-448.05 1264.05,-448.05 1264.05,28.8 -28.8,28.8"/>
<!-- stack -->
<g id="node1" class="node">
<title>stack</title>
<path fill="#6baaaf" stroke="none" d="M12,-155.5C12,-155.5 68.5,-155.5 68.5,-155.5 74.5,-155.5 80.5,-161.5 80.5,-167.5 80.5,-167.5 80.5,-337 80.5,-337 80.5,-343 74.5,-349 68.5,-349 68.5,-349 12,-349 12,-349 6,-349 0,-343 0,-337 0,-337 0,-167.5 0,-167.5 0,-161.5 6,-155.5 12,-155.5"/>
<polygon fill="#5b9aa0" stroke="none" points="1,-328 1,-348 79.5,-348 79.5,-328 1,-328"/>
<text xml:space="preserve" text-anchor="start" x="5" y="-334.55" font-family="Helvetica,sans-Serif" font-weight="bold" font-size="11.00" fill="white">stack</text>
<text xml:space="preserve" text-anchor="start" x="39" y="-311.88" font-family="Helvetica,sans-Serif" font-size="10.00" fill="white">netif</text>
<text xml:space="preserve" text-anchor="start" x="65.75" y="-308.8" font-family="Helvetica,sans-Serif" font-size="16.00" fill="#3d6f74">●</text>
<text xml:space="preserve" text-anchor="start" x="22.5" y="-287.38" font-family="Helvetica,sans-Serif" font-size="10.00" fill="white">ethernet</text>
<text xml:space="preserve" text-anchor="start" x="65.75" y="-284.3" font-family="Helvetica,sans-Serif" font-size="16.00" fill="#3d6f74">●</text>
<text xml:space="preserve" text-anchor="start" x="33.75" y="-262.88" font-family="Helvetica,sans-Serif" font-size="10.00" fill="white">arpv4</text>
<text xml:space="preserve" text-anchor="start" x="65.75" y="-259.8" font-family="Helvetica,sans-Serif" font-size="16.00" fill="#3d6f74">●</text>
<text xml:space="preserve" text-anchor="start" x="29.25" y="-238.38" font-family="Helvetica,sans-Serif" font-size="10.00" fill="white">ipv4v6</text>
<text xml:space="preserve" text-anchor="start" x="65.75" y="-235.3" font-family="Helvetica,sans-Serif" font-size="16.00" fill="#3d6f74">●</text>
<text xml:space="preserve" text-anchor="start" x="26.25" y="-213.88" font-family="Helvetica,sans-Serif" font-size="10.00" fill="white">icmpv4</text>
<text xml:space="preserve" text-anchor="start" x="65.75" y="-210.8" font-family="Helvetica,sans-Serif" font-size="16.00" fill="#3d6f74">●</text>
<text xml:space="preserve" text-anchor="start" x="21" y="-189.38" font-family="Helvetica,sans-Serif" font-size="10.00" fill="white">udpv4v6</text>
<text xml:space="preserve" text-anchor="start" x="65.75" y="-186.3" font-family="Helvetica,sans-Serif" font-size="16.00" fill="#3d6f74">●</text>
<text xml:space="preserve" text-anchor="start" x="23.25" y="-164.88" font-family="Helvetica,sans-Serif" font-size="10.00" fill="white">tcpv4v6</text>
<text xml:space="preserve" text-anchor="start" x="65.75" y="-161.8" font-family="Helvetica,sans-Serif" font-size="16.00" fill="#3d6f74">●</text>
<path fill="none" stroke="#4a8a90" d="M12,-155.5C12,-155.5 68.5,-155.5 68.5,-155.5 74.5,-155.5 80.5,-161.5 80.5,-167.5 80.5,-167.5 80.5,-337 80.5,-337 80.5,-343 74.5,-349 68.5,-349 68.5,-349 12,-349 12,-349 6,-349 0,-343 0,-337 0,-337 0,-167.5 0,-167.5 0,-161.5 6,-155.5 12,-155.5"/>
</g>
<!-- icmp -->
<g id="node2" class="node">
<title>icmp</title>
<path fill="#6baaaf" stroke="none" d="M150.5,-152C150.5,-152 247.5,-152 247.5,-152 253.5,-152 259.5,-158 259.5,-164 259.5,-164 259.5,-186.5 259.5,-186.5 259.5,-192.5 253.5,-198.5 247.5,-198.5 247.5,-198.5 150.5,-198.5 150.5,-198.5 144.5,-198.5 138.5,-192.5 138.5,-186.5 138.5,-186.5 138.5,-164 138.5,-164 138.5,-158 144.5,-152 150.5,-152"/>
<polygon fill="#5b9aa0" stroke="none" points="139.5,-177.5 139.5,-197.5 258.5,-197.5 258.5,-177.5 139.5,-177.5"/>
<text xml:space="preserve" text-anchor="start" x="143.5" y="-184.05" font-family="Helvetica,sans-Serif" font-weight="bold" font-size="11.00" fill="white">icmp</text>
<text xml:space="preserve" text-anchor="start" x="143.5" y="-158.3" font-family="Helvetica,sans-Serif" font-size="16.00" fill="#3d6f74">●</text>
<text xml:space="preserve" text-anchor="start" x="161.25" y="-161.38" font-family="Helvetica,sans-Serif" font-size="10.00" fill="white">ip_write</text>
<text xml:space="preserve" text-anchor="start" x="203" y="-161.38" font-family="Helvetica,sans-Serif" font-size="10.00" fill="white">ip_write</text>
<text xml:space="preserve" text-anchor="start" x="244.75" y="-158.3" font-family="Helvetica,sans-Serif" font-size="16.00" fill="#3d6f74">●</text>
<path fill="none" stroke="#4a8a90" d="M150.5,-152C150.5,-152 247.5,-152 247.5,-152 253.5,-152 259.5,-158 259.5,-164 259.5,-164 259.5,-186.5 259.5,-186.5 259.5,-192.5 253.5,-198.5 247.5,-198.5 247.5,-198.5 150.5,-198.5 150.5,-198.5 144.5,-198.5 138.5,-192.5 138.5,-186.5 138.5,-186.5 138.5,-164 138.5,-164 138.5,-158 144.5,-152 150.5,-152"/>
</g>
<!-- stack&#45;&gt;icmp -->
<g id="edge17" class="edge">
<title>stack:icmpv4_out&#45;&gt;icmp:ip_write_in</title>
<path fill="none" stroke="#4a8a90" d="M80.5,-217.75C112.15,-217.75 105.43,-174.26 130.18,-166.45"/>
<polygon fill="#4a8a90" stroke="#4a8a90" points="130.42,-168.89 137,-165.47 129.72,-164.04 130.42,-168.89"/>
</g>
<!-- udp -->
<g id="node3" class="node">
<title>udp</title>
<path fill="#6baaaf" stroke="none" d="M150.5,-76C150.5,-76 247.5,-76 247.5,-76 253.5,-76 259.5,-82 259.5,-88 259.5,-88 259.5,-110.5 259.5,-110.5 259.5,-116.5 253.5,-122.5 247.5,-122.5 247.5,-122.5 150.5,-122.5 150.5,-122.5 144.5,-122.5 138.5,-116.5 138.5,-110.5 138.5,-110.5 138.5,-88 138.5,-88 138.5,-82 144.5,-76 150.5,-76"/>
<polygon fill="#5b9aa0" stroke="none" points="139.5,-101.5 139.5,-121.5 258.5,-121.5 258.5,-101.5 139.5,-101.5"/>
<text xml:space="preserve" text-anchor="start" x="143.5" y="-108.05" font-family="Helvetica,sans-Serif" font-weight="bold" font-size="11.00" fill="white">udp</text>
<text xml:space="preserve" text-anchor="start" x="143.5" y="-82.3" font-family="Helvetica,sans-Serif" font-size="16.00" fill="#3d6f74">●</text>
<text xml:space="preserve" text-anchor="start" x="161.25" y="-85.38" font-family="Helvetica,sans-Serif" font-size="10.00" fill="white">ip_write</text>
<text xml:space="preserve" text-anchor="start" x="203" y="-85.38" font-family="Helvetica,sans-Serif" font-size="10.00" fill="white">ip_write</text>
<text xml:space="preserve" text-anchor="start" x="244.75" y="-82.3" font-family="Helvetica,sans-Serif" font-size="16.00" fill="#3d6f74">●</text>
<path fill="none" stroke="#4a8a90" d="M150.5,-76C150.5,-76 247.5,-76 247.5,-76 253.5,-76 259.5,-82 259.5,-88 259.5,-88 259.5,-110.5 259.5,-110.5 259.5,-116.5 253.5,-122.5 247.5,-122.5 247.5,-122.5 150.5,-122.5 150.5,-122.5 144.5,-122.5 138.5,-116.5 138.5,-110.5 138.5,-110.5 138.5,-88 138.5,-88 138.5,-82 144.5,-76 150.5,-76"/>
</g>
<!-- stack&#45;&gt;udp -->
<g id="edge18" class="edge">
<title>stack:udpv4v6_out&#45;&gt;udp:ip_write_in</title>
<path fill="none" stroke="#4a8a90" d="M80.5,-193.25C130.32,-193.25 90.84,-101.08 130.19,-90.28"/>
<polygon fill="#4a8a90" stroke="#4a8a90" points="130.35,-92.73 137,-89.44 129.75,-87.87 130.35,-92.73"/>
</g>
<!-- tcp -->
<g id="node4" class="node">
<title>tcp</title>
<path fill="#6baaaf" stroke="none" d="M156.88,0C156.88,0 241.12,0 241.12,0 247.12,0 253.12,-6 253.12,-12 253.12,-12 253.12,-34.5 253.12,-34.5 253.12,-40.5 247.12,-46.5 241.12,-46.5 241.12,-46.5 156.88,-46.5 156.88,-46.5 150.88,-46.5 144.88,-40.5 144.88,-34.5 144.88,-34.5 144.88,-12 144.88,-12 144.88,-6 150.88,0 156.88,0"/>
<polygon fill="#5b9aa0" stroke="none" points="145.88,-25.5 145.88,-45.5 252.12,-45.5 252.12,-25.5 145.88,-25.5"/>
<text xml:space="preserve" text-anchor="start" x="149.88" y="-32.05" font-family="Helvetica,sans-Serif" font-weight="bold" font-size="11.00" fill="white">tcp</text>
<text xml:space="preserve" text-anchor="start" x="149.88" y="-6.3" font-family="Helvetica,sans-Serif" font-size="16.00" fill="#3d6f74">●</text>
<text xml:space="preserve" text-anchor="start" x="167.62" y="-9.38" font-family="Helvetica,sans-Serif" font-size="10.00" fill="white">write</text>
<text xml:space="preserve" text-anchor="start" x="196.62" y="-9.38" font-family="Helvetica,sans-Serif" font-size="10.00" fill="white">ip_write</text>
<text xml:space="preserve" text-anchor="start" x="238.38" y="-6.3" font-family="Helvetica,sans-Serif" font-size="16.00" fill="#3d6f74">●</text>
<path fill="none" stroke="#4a8a90" d="M156.88,0C156.88,0 241.12,0 241.12,0 247.12,0 253.12,-6 253.12,-12 253.12,-12 253.12,-34.5 253.12,-34.5 253.12,-40.5 247.12,-46.5 241.12,-46.5 241.12,-46.5 156.88,-46.5 156.88,-46.5 150.88,-46.5 144.88,-40.5 144.88,-34.5 144.88,-34.5 144.88,-12 144.88,-12 144.88,-6 150.88,0 156.88,0"/>
</g>
<!-- stack&#45;&gt;tcp -->
<g id="edge19" class="edge">
<title>stack:tcpv4v6_out&#45;&gt;tcp:write_in</title>
<path fill="none" stroke="#4a8a90" d="M70.62,-155.5C70.62,-87.11 73.32,-19.07 136.44,-13.6"/>
<polygon fill="#4a8a90" stroke="#4a8a90" points="136.47,-16.05 143.36,-13.31 136.27,-11.16 136.47,-16.05"/>
</g>
<!-- ip -->
<g id="node5" class="node">
<title>ip</title>
<path fill="#6baaaf" stroke="none" d="M329.5,-97.75C329.5,-97.75 398,-97.75 398,-97.75 404,-97.75 410,-103.75 410,-109.75 410,-109.75 410,-156.75 410,-156.75 410,-162.75 404,-168.75 398,-168.75 398,-168.75 329.5,-168.75 329.5,-168.75 323.5,-168.75 317.5,-162.75 317.5,-156.75 317.5,-156.75 317.5,-109.75 317.5,-109.75 317.5,-103.75 323.5,-97.75 329.5,-97.75"/>
<polygon fill="#5b9aa0" stroke="none" points="318.5,-147.75 318.5,-167.75 409,-167.75 409,-147.75 318.5,-147.75"/>
<text xml:space="preserve" text-anchor="start" x="322.5" y="-154.3" font-family="Helvetica,sans-Serif" font-weight="bold" font-size="11.00" fill="white">ip</text>
<text xml:space="preserve" text-anchor="start" x="322.5" y="-128.55" font-family="Helvetica,sans-Serif" font-size="16.00" fill="#3d6f74">●</text>
<text xml:space="preserve" text-anchor="start" x="340.25" y="-131.62" font-family="Helvetica,sans-Serif" font-size="10.00" fill="white">write</text>
<text xml:space="preserve" text-anchor="start" x="369.25" y="-131.62" font-family="Helvetica,sans-Serif" font-size="10.00" fill="white">ipv4</text>
<text xml:space="preserve" text-anchor="start" x="395.25" y="-128.55" font-family="Helvetica,sans-Serif" font-size="16.00" fill="#3d6f74">●</text>
<text xml:space="preserve" text-anchor="start" x="369.25" y="-107.12" font-family="Helvetica,sans-Serif" font-size="10.00" fill="white">ipv6</text>
<text xml:space="preserve" text-anchor="start" x="395.25" y="-104.05" font-family="Helvetica,sans-Serif" font-size="16.00" fill="#3d6f74">●</text>
<path fill="none" stroke="#4a8a90" d="M329.5,-97.75C329.5,-97.75 398,-97.75 398,-97.75 404,-97.75 410,-103.75 410,-109.75 410,-109.75 410,-156.75 410,-156.75 410,-162.75 404,-168.75 398,-168.75 398,-168.75 329.5,-168.75 329.5,-168.75 323.5,-168.75 317.5,-162.75 317.5,-156.75 317.5,-156.75 317.5,-109.75 317.5,-109.75 317.5,-103.75 323.5,-97.75 329.5,-97.75"/>
</g>
<!-- stack&#45;&gt;ip -->
<g id="edge16" class="edge">
<title>stack:ipv4v6_out&#45;&gt;ip:write_in</title>
<path fill="none" stroke="#4a8a90" d="M80.5,-242.25C161.09,-242.25 190.59,-255.05 259.5,-213.25 293.77,-192.46 277.19,-143.13 309.33,-136.29"/>
<polygon fill="#4a8a90" stroke="#4a8a90" points="309.26,-138.76 315.99,-135.65 308.79,-133.88 309.26,-138.76"/>
</g>
<!-- arp -->
<g id="node8" class="node">
<title>arp</title>
<path fill="#6baaaf" stroke="none" d="M655.25,-211C655.25,-211 748.5,-211 748.5,-211 754.5,-211 760.5,-217 760.5,-223 760.5,-223 760.5,-245.5 760.5,-245.5 760.5,-251.5 754.5,-257.5 748.5,-257.5 748.5,-257.5 655.25,-257.5 655.25,-257.5 649.25,-257.5 643.25,-251.5 643.25,-245.5 643.25,-245.5 643.25,-223 643.25,-223 643.25,-217 649.25,-211 655.25,-211"/>
<polygon fill="#5b9aa0" stroke="none" points="644.25,-236.5 644.25,-256.5 759.5,-256.5 759.5,-236.5 644.25,-236.5"/>
<text xml:space="preserve" text-anchor="start" x="648.25" y="-243.05" font-family="Helvetica,sans-Serif" font-weight="bold" font-size="11.00" fill="white">arp</text>
<text xml:space="preserve" text-anchor="start" x="648.25" y="-217.3" font-family="Helvetica,sans-Serif" font-size="16.00" fill="#3d6f74">●</text>
<text xml:space="preserve" text-anchor="start" x="666" y="-220.38" font-family="Helvetica,sans-Serif" font-size="10.00" fill="white">query</text>
<text xml:space="preserve" text-anchor="start" x="698" y="-220.38" font-family="Helvetica,sans-Serif" font-size="10.00" fill="white">eth_write</text>
<text xml:space="preserve" text-anchor="start" x="745.75" y="-217.3" font-family="Helvetica,sans-Serif" font-size="16.00" fill="#3d6f74">●</text>
<path fill="none" stroke="#4a8a90" d="M655.25,-211C655.25,-211 748.5,-211 748.5,-211 754.5,-211 760.5,-217 760.5,-223 760.5,-223 760.5,-245.5 760.5,-245.5 760.5,-251.5 754.5,-257.5 748.5,-257.5 748.5,-257.5 655.25,-257.5 655.25,-257.5 649.25,-257.5 643.25,-251.5 643.25,-245.5 643.25,-245.5 643.25,-223 643.25,-223 643.25,-217 649.25,-211 655.25,-211"/>
</g>
<!-- stack&#45;&gt;arp -->
<g id="edge15" class="edge">
<title>stack:arpv4_out&#45;&gt;arp:query_in</title>
<path fill="none" stroke="#4a8a90" d="M80.5,-266.75C304.84,-266.75 373.01,-341.93 585.25,-269.25 613.22,-259.67 611.33,-230.5 635.02,-225.11"/>
<polygon fill="#4a8a90" stroke="#4a8a90" points="635.04,-227.57 641.74,-224.41 634.53,-222.7 635.04,-227.57"/>
</g>
<!-- eth -->
<g id="node9" class="node">
<title>eth</title>
<path fill="#6baaaf" stroke="none" d="M830.5,-249C830.5,-249 920.75,-249 920.75,-249 926.75,-249 932.75,-255 932.75,-261 932.75,-261 932.75,-283.5 932.75,-283.5 932.75,-289.5 926.75,-295.5 920.75,-295.5 920.75,-295.5 830.5,-295.5 830.5,-295.5 824.5,-295.5 818.5,-289.5 818.5,-283.5 818.5,-283.5 818.5,-261 818.5,-261 818.5,-255 824.5,-249 830.5,-249"/>
<polygon fill="#5b9aa0" stroke="none" points="819.5,-274.5 819.5,-294.5 931.75,-294.5 931.75,-274.5 819.5,-274.5"/>
<text xml:space="preserve" text-anchor="start" x="823.5" y="-281.05" font-family="Helvetica,sans-Serif" font-weight="bold" font-size="11.00" fill="white">eth</text>
<text xml:space="preserve" text-anchor="start" x="823.5" y="-255.3" font-family="Helvetica,sans-Serif" font-size="16.00" fill="#3d6f74">●</text>
<text xml:space="preserve" text-anchor="start" x="841.25" y="-258.38" font-family="Helvetica,sans-Serif" font-size="10.00" fill="white">write</text>
<text xml:space="preserve" text-anchor="start" x="870.25" y="-258.38" font-family="Helvetica,sans-Serif" font-size="10.00" fill="white">net_write</text>
<text xml:space="preserve" text-anchor="start" x="918" y="-255.3" font-family="Helvetica,sans-Serif" font-size="16.00" fill="#3d6f74">●</text>
<path fill="none" stroke="#4a8a90" d="M830.5,-249C830.5,-249 920.75,-249 920.75,-249 926.75,-249 932.75,-255 932.75,-261 932.75,-261 932.75,-283.5 932.75,-283.5 932.75,-289.5 926.75,-295.5 920.75,-295.5 920.75,-295.5 830.5,-295.5 830.5,-295.5 824.5,-295.5 818.5,-289.5 818.5,-283.5 818.5,-283.5 818.5,-261 818.5,-261 818.5,-255 824.5,-249 830.5,-249"/>
</g>
<!-- stack&#45;&gt;eth -->
<g id="edge14" class="edge">
<title>stack:ethernet_out&#45;&gt;eth:write_in</title>
<path fill="none" stroke="#4a8a90" d="M80.5,-291.25C145.07,-291.25 298.18,-360.25 362.75,-360.25 362.75,-360.25 362.75,-360.25 527.62,-360.25 634.62,-360.25 662.46,-342.1 760.5,-299.25 785.67,-288.25 787.75,-267.15 810.09,-262.98"/>
<polygon fill="#4a8a90" stroke="#4a8a90" points="810.23,-265.42 816.99,-262.38 809.81,-260.54 810.23,-265.42"/>
</g>
<!-- net -->
<g id="node10" class="node">
<title>net</title>
<path fill="#6baaaf" stroke="none" d="M1002.75,-249C1002.75,-249 1090,-249 1090,-249 1096,-249 1102,-255 1102,-261 1102,-261 1102,-283.5 1102,-283.5 1102,-289.5 1096,-295.5 1090,-295.5 1090,-295.5 1002.75,-295.5 1002.75,-295.5 996.75,-295.5 990.75,-289.5 990.75,-283.5 990.75,-283.5 990.75,-261 990.75,-261 990.75,-255 996.75,-249 1002.75,-249"/>
<polygon fill="#5b9aa0" stroke="none" points="991.75,-274.5 991.75,-294.5 1101,-294.5 1101,-274.5 991.75,-274.5"/>
<text xml:space="preserve" text-anchor="start" x="995.75" y="-281.05" font-family="Helvetica,sans-Serif" font-weight="bold" font-size="11.00" fill="white">net</text>
<text xml:space="preserve" text-anchor="start" x="995.75" y="-255.3" font-family="Helvetica,sans-Serif" font-size="16.00" fill="#3d6f74">●</text>
<text xml:space="preserve" text-anchor="start" x="1013.5" y="-258.38" font-family="Helvetica,sans-Serif" font-size="10.00" fill="white">write</text>
<text xml:space="preserve" text-anchor="start" x="1042.5" y="-258.38" font-family="Helvetica,sans-Serif" font-size="10.00" fill="white">backend</text>
<text xml:space="preserve" text-anchor="start" x="1087.25" y="-255.3" font-family="Helvetica,sans-Serif" font-size="16.00" fill="#3d6f74">●</text>
<path fill="none" stroke="#4a8a90" d="M1002.75,-249C1002.75,-249 1090,-249 1090,-249 1096,-249 1102,-255 1102,-261 1102,-261 1102,-283.5 1102,-283.5 1102,-289.5 1096,-295.5 1090,-295.5 1090,-295.5 1002.75,-295.5 1002.75,-295.5 996.75,-295.5 990.75,-289.5 990.75,-283.5 990.75,-283.5 990.75,-261 990.75,-261 990.75,-255 996.75,-249 1002.75,-249"/>
</g>
<!-- stack&#45;&gt;net -->
<g id="edge13" class="edge">
<title>stack:netif_out&#45;&gt;net:write_in</title>
<path fill="none" stroke="#4a8a90" d="M80.5,-315.75C108.48,-315.75 112.4,-330.15 138.5,-340.25 237.05,-378.38 257.08,-419.25 362.75,-419.25 362.75,-419.25 362.75,-419.25 702.88,-419.25 815.95,-419.25 837.38,-370.99 932.75,-310.25 958.44,-293.89 957.69,-267.55 982.58,-262.95"/>
<polygon fill="#4a8a90" stroke="#4a8a90" points="982.48,-265.41 989.24,-262.38 982.06,-260.53 982.48,-265.41"/>
</g>
<!-- ipv4 -->
<g id="node6" class="node">
<title>ipv4</title>
<path fill="#6baaaf" stroke="none" d="M480,-183.75C480,-183.75 573.25,-183.75 573.25,-183.75 579.25,-183.75 585.25,-189.75 585.25,-195.75 585.25,-195.75 585.25,-242.75 585.25,-242.75 585.25,-248.75 579.25,-254.75 573.25,-254.75 573.25,-254.75 480,-254.75 480,-254.75 474,-254.75 468,-248.75 468,-242.75 468,-242.75 468,-195.75 468,-195.75 468,-189.75 474,-183.75 480,-183.75"/>
<polygon fill="#5b9aa0" stroke="none" points="469,-233.75 469,-253.75 584.25,-253.75 584.25,-233.75 469,-233.75"/>
<text xml:space="preserve" text-anchor="start" x="473" y="-240.3" font-family="Helvetica,sans-Serif" font-weight="bold" font-size="11.00" fill="white">ipv4</text>
<text xml:space="preserve" text-anchor="start" x="473" y="-214.55" font-family="Helvetica,sans-Serif" font-size="16.00" fill="#3d6f74">●</text>
<text xml:space="preserve" text-anchor="start" x="490.75" y="-217.62" font-family="Helvetica,sans-Serif" font-size="10.00" fill="white">write</text>
<text xml:space="preserve" text-anchor="start" x="522.75" y="-217.62" font-family="Helvetica,sans-Serif" font-size="10.00" fill="white">eth_write</text>
<text xml:space="preserve" text-anchor="start" x="570.5" y="-214.55" font-family="Helvetica,sans-Serif" font-size="16.00" fill="#3d6f74">●</text>
<text xml:space="preserve" text-anchor="start" x="519.75" y="-193.12" font-family="Helvetica,sans-Serif" font-size="10.00" fill="white">arp_query</text>
<text xml:space="preserve" text-anchor="start" x="570.5" y="-190.05" font-family="Helvetica,sans-Serif" font-size="16.00" fill="#3d6f74">●</text>
<path fill="none" stroke="#4a8a90" d="M480,-183.75C480,-183.75 573.25,-183.75 573.25,-183.75 579.25,-183.75 585.25,-189.75 585.25,-195.75 585.25,-195.75 585.25,-242.75 585.25,-242.75 585.25,-248.75 579.25,-254.75 573.25,-254.75 573.25,-254.75 480,-254.75 480,-254.75 474,-254.75 468,-248.75 468,-242.75 468,-242.75 468,-195.75 468,-195.75 468,-189.75 474,-183.75 480,-183.75"/>
</g>
<!-- icmp&#45;&gt;ipv4 -->
<g id="edge10" class="edge">
<title>icmp:ip_write_out&#45;&gt;ipv4:write_in</title>
<path fill="none" stroke="#4a8a90" d="M259.5,-165.25C286.49,-165.25 291.52,-175.92 317.5,-183.25 381.2,-201.22 397.66,-219.9 459.77,-221.4"/>
<polygon fill="#4a8a90" stroke="#4a8a90" points="459.46,-223.85 466.49,-221.48 459.52,-218.95 459.46,-223.85"/>
</g>
<!-- udp&#45;&gt;ip -->
<g id="edge11" class="edge">
<title>udp:ip_write_out&#45;&gt;ip:write_in</title>
<path fill="none" stroke="#4a8a90" d="M259.5,-89.25C289.38,-89.25 285.66,-127.23 309.24,-134.36"/>
<polygon fill="#4a8a90" stroke="#4a8a90" points="308.73,-136.76 316,-135.29 309.4,-131.91 308.73,-136.76"/>
</g>
<!-- tcp&#45;&gt;ip -->
<g id="edge12" class="edge">
<title>tcp:ip_write_out&#45;&gt;ip:write_in</title>
<path fill="none" stroke="#4a8a90" d="M253.12,-13.25C311.41,-13.25 261.72,-123.4 309.04,-134.59"/>
<polygon fill="#4a8a90" stroke="#4a8a90" points="308.77,-137.02 316,-135.34 309.3,-132.15 308.77,-137.02"/>
</g>
<!-- ip&#45;&gt;ipv4 -->
<g id="edge8" class="edge">
<title>ip:ipv4_out&#45;&gt;ipv4:write_in</title>
<path fill="none" stroke="#4a8a90" d="M410,-135.5C453.04,-135.5 426.09,-210.46 459.83,-220.41"/>
<polygon fill="#4a8a90" stroke="#4a8a90" points="459.24,-222.81 466.5,-221.3 459.88,-217.95 459.24,-222.81"/>
</g>
<!-- ipv6 -->
<g id="node7" class="node">
<title>ipv6</title>
<path fill="#6baaaf" stroke="none" d="M481.5,-73.75C481.5,-73.75 571.75,-73.75 571.75,-73.75 577.75,-73.75 583.75,-79.75 583.75,-85.75 583.75,-85.75 583.75,-132.75 583.75,-132.75 583.75,-138.75 577.75,-144.75 571.75,-144.75 571.75,-144.75 481.5,-144.75 481.5,-144.75 475.5,-144.75 469.5,-138.75 469.5,-132.75 469.5,-132.75 469.5,-85.75 469.5,-85.75 469.5,-79.75 475.5,-73.75 481.5,-73.75"/>
<polygon fill="#5b9aa0" stroke="none" points="470.5,-123.75 470.5,-143.75 582.75,-143.75 582.75,-123.75 470.5,-123.75"/>
<text xml:space="preserve" text-anchor="start" x="474.5" y="-130.3" font-family="Helvetica,sans-Serif" font-weight="bold" font-size="11.00" fill="white">ipv6</text>
<text xml:space="preserve" text-anchor="start" x="474.5" y="-104.55" font-family="Helvetica,sans-Serif" font-size="16.00" fill="#3d6f74">●</text>
<text xml:space="preserve" text-anchor="start" x="492.25" y="-107.62" font-family="Helvetica,sans-Serif" font-size="10.00" fill="white">write</text>
<text xml:space="preserve" text-anchor="start" x="521.25" y="-107.62" font-family="Helvetica,sans-Serif" font-size="10.00" fill="white">net_write</text>
<text xml:space="preserve" text-anchor="start" x="569" y="-104.55" font-family="Helvetica,sans-Serif" font-size="16.00" fill="#3d6f74">●</text>
<text xml:space="preserve" text-anchor="start" x="521.25" y="-83.12" font-family="Helvetica,sans-Serif" font-size="10.00" fill="white">eth_write</text>
<text xml:space="preserve" text-anchor="start" x="569" y="-80.05" font-family="Helvetica,sans-Serif" font-size="16.00" fill="#3d6f74">●</text>
<path fill="none" stroke="#4a8a90" d="M481.5,-73.75C481.5,-73.75 571.75,-73.75 571.75,-73.75 577.75,-73.75 583.75,-79.75 583.75,-85.75 583.75,-85.75 583.75,-132.75 583.75,-132.75 583.75,-138.75 577.75,-144.75 571.75,-144.75 571.75,-144.75 481.5,-144.75 481.5,-144.75 475.5,-144.75 469.5,-138.75 469.5,-132.75 469.5,-132.75 469.5,-85.75 469.5,-85.75 469.5,-79.75 475.5,-73.75 481.5,-73.75"/>
</g>
<!-- ip&#45;&gt;ipv6 -->
<g id="edge9" class="edge">
<title>ip:ipv6_out&#45;&gt;ipv6:write_in</title>
<path fill="none" stroke="#4a8a90" d="M410,-111C433.45,-111 441.3,-111.39 461.22,-111.48"/>
<polygon fill="#4a8a90" stroke="#4a8a90" points="460.98,-113.93 467.99,-111.5 460.99,-109.03 460.98,-113.93"/>
</g>
<!-- ipv4&#45;&gt;arp -->
<g id="edge5" class="edge">
<title>ipv4:arp_query_out&#45;&gt;arp:query_in</title>
<path fill="none" stroke="#4a8a90" d="M585.25,-197C610.62,-197 614.21,-218.62 634.82,-223.34"/>
<polygon fill="#4a8a90" stroke="#4a8a90" points="634.52,-225.78 641.75,-224.09 635.05,-220.9 634.52,-225.78"/>
</g>
<!-- ipv4&#45;&gt;eth -->
<g id="edge4" class="edge">
<title>ipv4:eth_write_out&#45;&gt;eth:write_in</title>
<path fill="none" stroke="#4a8a90" d="M585.25,-221.5C619.5,-221.5 611.19,-260.2 643.25,-272.25 692.03,-290.58 708.58,-276.69 760.5,-272.25 783.51,-270.28 790.71,-263.99 810.08,-262.55"/>
<polygon fill="#4a8a90" stroke="#4a8a90" points="810.08,-265 816.99,-262.3 809.9,-260.1 810.08,-265"/>
</g>
<!-- ipv6&#45;&gt;eth -->
<g id="edge7" class="edge">
<title>ipv6:eth_write_out&#45;&gt;eth:write_in</title>
<path fill="none" stroke="#4a8a90" d="M583.75,-87C616.44,-87 615.74,-112.59 643.25,-130.25 693.58,-162.55 710.7,-163.15 760.5,-196.25 789.83,-215.75 822.77,-211.66 827.73,-240.83"/>
<polygon fill="#4a8a90" stroke="#4a8a90" points="825.27,-240.7 828.26,-247.49 830.15,-240.32 825.27,-240.7"/>
</g>
<!-- ipv6&#45;&gt;net -->
<g id="edge6" class="edge">
<title>ipv6:net_write_out&#45;&gt;net:write_in</title>
<path fill="none" stroke="#4a8a90" d="M583.75,-111.5C775.99,-111.5 994.13,-55.58 1000.48,-240.59"/>
<polygon fill="#4a8a90" stroke="#4a8a90" points="998.03,-240.53 1000.6,-247.49 1002.93,-240.45 998.03,-240.53"/>
</g>
<!-- arp&#45;&gt;eth -->
<g id="edge3" class="edge">
<title>arp:eth_write_out&#45;&gt;eth:write_in</title>
<path fill="none" stroke="#4a8a90" d="M760.5,-224.25C788.19,-224.25 788.07,-254.92 810.1,-261.15"/>
<polygon fill="#4a8a90" stroke="#4a8a90" points="809.74,-263.58 817,-262.05 810.38,-258.72 809.74,-263.58"/>
</g>
<!-- eth&#45;&gt;net -->
<g id="edge2" class="edge">
<title>eth:net_write_out&#45;&gt;net:write_in</title>
<path fill="none" stroke="#4a8a90" d="M932.75,-262.25C955.51,-262.25 963.2,-262.25 982.42,-262.25"/>
<polygon fill="#4a8a90" stroke="#4a8a90" points="982.24,-264.7 989.24,-262.25 982.24,-259.8 982.24,-264.7"/>
</g>
<!-- backend -->
<g id="node11" class="node">
<title>backend</title>
<path fill="#6baaaf" stroke="none" d="M1172,-249C1172,-249 1223.25,-249 1223.25,-249 1229.25,-249 1235.25,-255 1235.25,-261 1235.25,-261 1235.25,-283.5 1235.25,-283.5 1235.25,-289.5 1229.25,-295.5 1223.25,-295.5 1223.25,-295.5 1172,-295.5 1172,-295.5 1166,-295.5 1160,-289.5 1160,-283.5 1160,-283.5 1160,-261 1160,-261 1160,-255 1166,-249 1172,-249"/>
<polygon fill="#5b9aa0" stroke="none" points="1161,-274.5 1161,-294.5 1234.25,-294.5 1234.25,-274.5 1161,-274.5"/>
<text xml:space="preserve" text-anchor="start" x="1165" y="-281.05" font-family="Helvetica,sans-Serif" font-weight="bold" font-size="11.00" fill="white">backend</text>
<text xml:space="preserve" text-anchor="start" x="1165" y="-255.3" font-family="Helvetica,sans-Serif" font-size="16.00" fill="#3d6f74">●</text>
<text xml:space="preserve" text-anchor="start" x="1182.75" y="-258.38" font-family="Helvetica,sans-Serif" font-size="10.00" fill="white">provide</text>
<path fill="none" stroke="#4a8a90" d="M1172,-249C1172,-249 1223.25,-249 1223.25,-249 1229.25,-249 1235.25,-255 1235.25,-261 1235.25,-261 1235.25,-283.5 1235.25,-283.5 1235.25,-289.5 1229.25,-295.5 1223.25,-295.5 1223.25,-295.5 1172,-295.5 1172,-295.5 1166,-295.5 1160,-289.5 1160,-283.5 1160,-283.5 1160,-261 1160,-261 1160,-255 1166,-249 1172,-249"/>
</g>
<!-- net&#45;&gt;backend -->
<g id="edge1" class="edge">
<title>net:backend_out&#45;&gt;backend:provide_in</title>
<path fill="none" stroke="#4a8a90" d="M1102,-262.25C1124.76,-262.25 1132.45,-262.25 1151.67,-262.25"/>
<polygon fill="#4a8a90" stroke="#4a8a90" points="1151.49,-264.7 1158.49,-262.25 1151.49,-259.8 1151.49,-264.7"/>
</g>
</g>
</svg>
