<?xml version="1.0" encoding="UTF-8" standalone="no"?>
<!DOCTYPE svg PUBLIC "-//W3C//DTD SVG 1.1//EN"
 "http://www.w3.org/Graphics/SVG/1.1/DTD/svg11.dtd">
<!-- Generated by graphviz version 14.1.2 (20260124.0452)
 -->
<!-- Title: DirectNetwork Pages: 1 -->
<svg width="1509pt" height="330pt"
 viewBox="0.00 0.00 1509.00 330.00" xmlns="http://www.w3.org/2000/svg" xmlns:xlink="http://www.w3.org/1999/xlink">
<g id="graph0" class="graph" transform="scale(1 1) rotate(0) translate(28.8 300.8)">
<title>DirectNetwork</title>
<polygon fill="white" stroke="none" points="-28.8,28.8 -28.8,-300.8 1480.3,-300.8 1480.3,28.8 -28.8,28.8"/>
<g id="clust1" class="cluster">
<title>cluster_TcpipStack</title>
<path fill="#f8f9fa" stroke="#5f6368" d="M172.25,-8C172.25,-8 1431.5,-8 1431.5,-8 1437.5,-8 1443.5,-14 1443.5,-20 1443.5,-20 1443.5,-252 1443.5,-252 1443.5,-258 1437.5,-264 1431.5,-264 1431.5,-264 172.25,-264 172.25,-264 166.25,-264 160.25,-258 160.25,-252 160.25,-252 160.25,-20 160.25,-20 160.25,-14 166.25,-8 172.25,-8"/>
<text xml:space="preserve" text-anchor="middle" x="801.88" y="-246.7" font-family="Helvetica,sans-Serif" font-size="14.00">TcpipStack</text>
</g>
<!-- net -->
<g id="node1" class="node">
<title>net</title>
<path fill="#e8f0fe" stroke="#4285f4" d="M1244,-90C1244,-90 1214,-90 1214,-90 1208,-90 1202,-84 1202,-78 1202,-78 1202,-66 1202,-66 1202,-60 1208,-54 1214,-54 1214,-54 1244,-54 1244,-54 1250,-54 1256,-60 1256,-66 1256,-66 1256,-78 1256,-78 1256,-84 1250,-90 1244,-90"/>
<text xml:space="preserve" text-anchor="start" x="1221.5" y="-72.55" font-family="Helvetica,sans-Serif" font-size="11.00" fill="#1a1a2e">net</text>
<text xml:space="preserve" text-anchor="start" x="1212.12" y="-63.45" font-family="Helvetica,sans-Serif" font-size="9.00" fill="#1a1a2e">&lt;Vnetif&gt;</text>
</g>
<!-- backend -->
<g id="node11" class="node">
<title>backend</title>
<path fill="#e8f0fe" stroke="#4285f4" d="M1423.5,-90C1423.5,-90 1385,-90 1385,-90 1379,-90 1373,-84 1373,-78 1373,-78 1373,-66 1373,-66 1373,-60 1379,-54 1385,-54 1385,-54 1423.5,-54 1423.5,-54 1429.5,-54 1435.5,-60 1435.5,-66 1435.5,-66 1435.5,-78 1435.5,-78 1435.5,-84 1429.5,-90 1423.5,-90"/>
<text xml:space="preserve" text-anchor="start" x="1384" y="-72.55" font-family="Helvetica,sans-Serif" font-size="11.00" fill="#1a1a2e">backend</text>
<text xml:space="preserve" text-anchor="start" x="1381" y="-63.45" font-family="Helvetica,sans-Serif" font-size="9.00" fill="#1a1a2e">&lt;Backend&gt;</text>
</g>
<!-- net&#45;&gt;backend -->
<g id="edge1" class="edge">
<title>net&#45;&gt;backend</title>
<path fill="none" stroke="#5f6368" d="M1256.31,-72C1284.13,-72 1328.43,-72 1361.12,-72"/>
<polygon fill="#5f6368" stroke="#5f6368" points="1361.08,-75.5 1371.08,-72 1361.08,-68.5 1361.08,-75.5"/>
<text xml:space="preserve" text-anchor="start" x="1274" y="-74.7" font-family="Helvetica,sans-Serif" font-size="9.00" fill="#1a1a2e">backend → connect</text>
</g>
<!-- ethernet -->
<g id="node2" class="node">
<title>ethernet</title>
<path fill="#e8f0fe" stroke="#4285f4" d="M1095.5,-148C1095.5,-148 1058.5,-148 1058.5,-148 1052.5,-148 1046.5,-142 1046.5,-136 1046.5,-136 1046.5,-124 1046.5,-124 1046.5,-118 1052.5,-112 1058.5,-112 1058.5,-112 1095.5,-112 1095.5,-112 1101.5,-112 1107.5,-118 1107.5,-124 1107.5,-124 1107.5,-136 1107.5,-136 1107.5,-142 1101.5,-148 1095.5,-148"/>
<text xml:space="preserve" text-anchor="start" x="1057.12" y="-130.55" font-family="Helvetica,sans-Serif" font-size="11.00" fill="#1a1a2e">ethernet</text>
<text xml:space="preserve" text-anchor="start" x="1054.5" y="-121.45" font-family="Helvetica,sans-Serif" font-size="9.00" fill="#1a1a2e">&lt;Ethernet&gt;</text>
</g>
<!-- ethernet&#45;&gt;net -->
<g id="edge2" class="edge">
<title>ethernet&#45;&gt;net</title>
<path fill="none" stroke="#5f6368" d="M1107.99,-118.4C1131.93,-109.15 1165.58,-96.14 1191.16,-86.25"/>
<polygon fill="#5f6368" stroke="#5f6368" points="1192.09,-89.64 1200.16,-82.76 1189.57,-83.11 1192.09,-89.64"/>
<text xml:space="preserve" text-anchor="start" x="1125.5" y="-113.94" font-family="Helvetica,sans-Serif" font-size="9.00" fill="#1a1a2e">net → connect</text>
</g>
<!-- arp -->
<g id="node3" class="node">
<title>arp</title>
<path fill="#e8f0fe" stroke="#4285f4" d="M937.75,-146C937.75,-146 907.75,-146 907.75,-146 901.75,-146 895.75,-140 895.75,-134 895.75,-134 895.75,-122 895.75,-122 895.75,-116 901.75,-110 907.75,-110 907.75,-110 937.75,-110 937.75,-110 943.75,-110 949.75,-116 949.75,-122 949.75,-122 949.75,-134 949.75,-134 949.75,-140 943.75,-146 937.75,-146"/>
<text xml:space="preserve" text-anchor="start" x="914.88" y="-128.55" font-family="Helvetica,sans-Serif" font-size="11.00" fill="#1a1a2e">arp</text>
<text xml:space="preserve" text-anchor="start" x="910.38" y="-119.45" font-family="Helvetica,sans-Serif" font-size="9.00" fill="#1a1a2e">&lt;Arp&gt;</text>
</g>
<!-- arp&#45;&gt;ethernet -->
<g id="edge3" class="edge">
<title>arp&#45;&gt;ethernet</title>
<path fill="none" stroke="#5f6368" d="M949.92,-128.34C973.25,-128.65 1007.79,-129.1 1034.82,-129.46"/>
<polygon fill="#5f6368" stroke="#5f6368" points="1034.7,-132.96 1044.75,-129.59 1034.8,-125.96 1034.7,-132.96"/>
<text xml:space="preserve" text-anchor="start" x="970" y="-132.05" font-family="Helvetica,sans-Serif" font-size="9.00" fill="#1a1a2e">eth → connect</text>
</g>
<!-- ipv4 -->
<g id="node4" class="node">
<title>ipv4</title>
<path fill="#e8f0fe" stroke="#4285f4" d="M786.25,-185C786.25,-185 738.75,-185 738.75,-185 732.75,-185 726.75,-179 726.75,-173 726.75,-173 726.75,-161 726.75,-161 726.75,-155 732.75,-149 738.75,-149 738.75,-149 786.25,-149 786.25,-149 792.25,-149 798.25,-155 798.25,-161 798.25,-161 798.25,-173 798.25,-173 798.25,-179 792.25,-185 786.25,-185"/>
<text xml:space="preserve" text-anchor="start" x="752.75" y="-167.55" font-family="Helvetica,sans-Serif" font-size="11.00" fill="#1a1a2e">ipv4</text>
<text xml:space="preserve" text-anchor="start" x="734.75" y="-158.45" font-family="Helvetica,sans-Serif" font-size="9.00" fill="#1a1a2e">&lt;Static_ipv4&gt;</text>
</g>
<!-- ipv4&#45;&gt;ethernet -->
<g id="edge4" class="edge">
<title>ipv4&#45;&gt;ethernet</title>
<path fill="none" stroke="#5f6368" d="M798.68,-168.52C804.55,-168.72 810.57,-168.89 816.25,-169 911.17,-170.8 936.08,-166.71 1028.5,-145 1030.65,-144.5 1032.84,-143.94 1035.04,-143.36"/>
<polygon fill="#5f6368" stroke="#5f6368" points="1035.93,-146.74 1044.58,-140.63 1034,-140.01 1035.93,-146.74"/>
<text xml:space="preserve" text-anchor="start" x="893.5" y="-170.98" font-family="Helvetica,sans-Serif" font-size="9.00" fill="#1a1a2e">eth → connect</text>
</g>
<!-- ipv4&#45;&gt;arp -->
<g id="edge5" class="edge">
<title>ipv4&#45;&gt;arp</title>
<path fill="none" stroke="#5f6368" d="M798.62,-158.34C824.16,-152.05 858.67,-143.55 884.66,-137.14"/>
<polygon fill="#5f6368" stroke="#5f6368" points="885.24,-140.6 894.11,-134.81 883.56,-133.81 885.24,-140.6"/>
<text xml:space="preserve" text-anchor="start" x="816.25" y="-155.97" font-family="Helvetica,sans-Serif" font-size="9.00" fill="#1a1a2e">arp → connect</text>
</g>
<!-- ipv6 -->
<g id="node5" class="node">
<title>ipv6</title>
<path fill="#e8f0fe" stroke="#4285f4" d="M937.75,-92C937.75,-92 907.75,-92 907.75,-92 901.75,-92 895.75,-86 895.75,-80 895.75,-80 895.75,-68 895.75,-68 895.75,-62 901.75,-56 907.75,-56 907.75,-56 937.75,-56 937.75,-56 943.75,-56 949.75,-62 949.75,-68 949.75,-68 949.75,-80 949.75,-80 949.75,-86 943.75,-92 937.75,-92"/>
<text xml:space="preserve" text-anchor="start" x="913" y="-74.55" font-family="Helvetica,sans-Serif" font-size="11.00" fill="#1a1a2e">ipv6</text>
<text xml:space="preserve" text-anchor="start" x="908.88" y="-65.45" font-family="Helvetica,sans-Serif" font-size="9.00" fill="#1a1a2e">&lt;Ipv6&gt;</text>
</g>
<!-- ipv6&#45;&gt;net -->
<g id="edge6" class="edge">
<title>ipv6&#45;&gt;net</title>
<path fill="none" stroke="#5f6368" d="M950.22,-73.83C1004.41,-73.47 1128.14,-72.66 1190.54,-72.25"/>
<polygon fill="#5f6368" stroke="#5f6368" points="1190.32,-75.75 1200.3,-72.18 1190.27,-68.75 1190.32,-75.75"/>
<text xml:space="preserve" text-anchor="start" x="1047.75" y="-75.87" font-family="Helvetica,sans-Serif" font-size="9.00" fill="#1a1a2e">net → connect</text>
</g>
<!-- ipv6&#45;&gt;ethernet -->
<g id="edge7" class="edge">
<title>ipv6&#45;&gt;ethernet</title>
<path fill="none" stroke="#5f6368" d="M949.92,-83.63C973.46,-92.28 1008.41,-105.14 1035.54,-115.12"/>
<polygon fill="#5f6368" stroke="#5f6368" points="1034.25,-118.37 1044.84,-118.54 1036.67,-111.8 1034.25,-118.37"/>
<text xml:space="preserve" text-anchor="start" x="970" y="-114.59" font-family="Helvetica,sans-Serif" font-size="9.00" fill="#1a1a2e">eth → connect</text>
</g>
<!-- ip -->
<g id="node6" class="node">
<title>ip</title>
<path fill="#e8f0fe" stroke="#4285f4" d="M591.75,-146C591.75,-146 561.75,-146 561.75,-146 555.75,-146 549.75,-140 549.75,-134 549.75,-134 549.75,-122 549.75,-122 549.75,-116 555.75,-110 561.75,-110 561.75,-110 591.75,-110 591.75,-110 597.75,-110 603.75,-116 603.75,-122 603.75,-122 603.75,-134 603.75,-134 603.75,-140 597.75,-146 591.75,-146"/>
<text xml:space="preserve" text-anchor="start" x="572.62" y="-128.55" font-family="Helvetica,sans-Serif" font-size="11.00" fill="#1a1a2e">ip</text>
<text xml:space="preserve" text-anchor="start" x="567.75" y="-119.45" font-family="Helvetica,sans-Serif" font-size="9.00" fill="#1a1a2e">&lt;Ip&gt;</text>
</g>
<!-- ip&#45;&gt;ipv4 -->
<g id="edge8" class="edge">
<title>ip&#45;&gt;ipv4</title>
<path fill="none" stroke="#5f6368" d="M604.08,-133.59C633.09,-139.75 680.3,-149.77 715.46,-157.23"/>
<polygon fill="#5f6368" stroke="#5f6368" points="714.43,-160.59 724.94,-159.24 715.88,-153.74 714.43,-160.59"/>
<text xml:space="preserve" text-anchor="start" x="637.5" y="-158.18" font-family="Helvetica,sans-Serif" font-size="9.00" fill="#1a1a2e">ipv4 → connect</text>
</g>
<!-- ip&#45;&gt;ipv6 -->
<g id="edge9" class="edge">
<title>ip&#45;&gt;ipv6</title>
<path fill="none" stroke="#5f6368" d="M604.17,-123.85C664.85,-114.33 814.32,-90.86 884.38,-79.87"/>
<polygon fill="#5f6368" stroke="#5f6368" points="884.88,-83.33 894.21,-78.32 883.79,-76.42 884.88,-83.33"/>
<text xml:space="preserve" text-anchor="start" x="731" y="-107.29" font-family="Helvetica,sans-Serif" font-size="9.00" fill="#1a1a2e">ipv6 → connect</text>
</g>
<!-- icmp -->
<g id="node7" class="node">
<title>icmp</title>
<path fill="#e8f0fe" stroke="#4285f4" d="M512.25,-225C512.25,-225 480.5,-225 480.5,-225 474.5,-225 468.5,-219 468.5,-213 468.5,-213 468.5,-201 468.5,-201 468.5,-195 474.5,-189 480.5,-189 480.5,-189 512.25,-189 512.25,-189 518.25,-189 524.25,-195 524.25,-201 524.25,-201 524.25,-213 524.25,-213 524.25,-219 518.25,-225 512.25,-225"/>
<text xml:space="preserve" text-anchor="start" x="485.12" y="-207.55" font-family="Helvetica,sans-Serif" font-size="11.00" fill="#1a1a2e">icmp</text>
<text xml:space="preserve" text-anchor="start" x="476.5" y="-198.45" font-family="Helvetica,sans-Serif" font-size="9.00" fill="#1a1a2e">&lt;Icmpv4&gt;</text>
</g>
<!-- icmp&#45;&gt;ipv4 -->
<g id="edge10" class="edge">
<title>icmp&#45;&gt;ipv4</title>
<path fill="none" stroke="#5f6368" d="M524.65,-202.87C569.68,-196.05 660.1,-182.36 715.27,-174"/>
<polygon fill="#5f6368" stroke="#5f6368" points="715.61,-177.49 724.98,-172.53 714.57,-170.57 715.61,-177.49"/>
<text xml:space="preserve" text-anchor="start" x="550.12" y="-202.46" font-family="Helvetica,sans-Serif" font-size="9.00" fill="#1a1a2e">ip → connect</text>
</g>
<!-- udp -->
<g id="node8" class="node">
<title>udp</title>
<path fill="#e8f0fe" stroke="#4285f4" d="M429.12,-92C429.12,-92 399.12,-92 399.12,-92 393.12,-92 387.12,-86 387.12,-80 387.12,-80 387.12,-68 387.12,-68 387.12,-62 393.12,-56 399.12,-56 399.12,-56 429.12,-56 429.12,-56 435.12,-56 441.12,-62 441.12,-68 441.12,-68 441.12,-80 441.12,-80 441.12,-86 435.12,-92 429.12,-92"/>
<text xml:space="preserve" text-anchor="start" x="405.12" y="-74.55" font-family="Helvetica,sans-Serif" font-size="11.00" fill="#1a1a2e">udp</text>
<text xml:space="preserve" text-anchor="start" x="400.25" y="-65.45" font-family="Helvetica,sans-Serif" font-size="9.00" fill="#1a1a2e">&lt;Udp&gt;</text>
</g>
<!-- udp&#45;&gt;ip -->
<g id="edge11" class="edge">
<title>udp&#45;&gt;ip</title>
<path fill="none" stroke="#5f6368" d="M441.29,-82.8C467.7,-91.67 508.72,-105.47 538.51,-115.48"/>
<polygon fill="#5f6368" stroke="#5f6368" points="537.3,-118.77 547.89,-118.64 539.53,-112.13 537.3,-118.77"/>
<text xml:space="preserve" text-anchor="start" x="469.75" y="-113.23" font-family="Helvetica,sans-Serif" font-size="9.00" fill="#1a1a2e">ip → connect</text>
</g>
<!-- tcp -->
<g id="node9" class="node">
<title>tcp</title>
<path fill="#e8f0fe" stroke="#4285f4" d="M429.12,-146C429.12,-146 399.12,-146 399.12,-146 393.12,-146 387.12,-140 387.12,-134 387.12,-134 387.12,-122 387.12,-122 387.12,-116 393.12,-110 399.12,-110 399.12,-110 429.12,-110 429.12,-110 435.12,-110 441.12,-116 441.12,-122 441.12,-122 441.12,-134 441.12,-134 441.12,-140 435.12,-146 429.12,-146"/>
<text xml:space="preserve" text-anchor="start" x="407" y="-128.55" font-family="Helvetica,sans-Serif" font-size="11.00" fill="#1a1a2e">tcp</text>
<text xml:space="preserve" text-anchor="start" x="399.12" y="-119.45" font-family="Helvetica,sans-Serif" font-size="9.00" fill="#1a1a2e">&lt;Flow&gt;</text>
</g>
<!-- tcp&#45;&gt;ip -->
<g id="edge12" class="edge">
<title>tcp&#45;&gt;ip</title>
<path fill="none" stroke="#5f6368" d="M441.29,-128C467.58,-128 508.36,-128 538.12,-128"/>
<polygon fill="#5f6368" stroke="#5f6368" points="537.82,-131.5 547.82,-128 537.82,-124.5 537.82,-131.5"/>
<text xml:space="preserve" text-anchor="start" x="469.75" y="-130.7" font-family="Helvetica,sans-Serif" font-size="9.00" fill="#1a1a2e">ip → connect</text>
</g>
<!-- stack -->
<g id="node10" class="node">
<title>stack</title>
<path fill="#e8f0fe" stroke="#4285f4" d="M248.75,-146C248.75,-146 180.25,-146 180.25,-146 174.25,-146 168.25,-140 168.25,-134 168.25,-134 168.25,-122 168.25,-122 168.25,-116 174.25,-110 180.25,-110 180.25,-110 248.75,-110 248.75,-110 254.75,-110 260.75,-116 260.75,-122 260.75,-122 260.75,-134 260.75,-134 260.75,-140 254.75,-146 248.75,-146"/>
<text xml:space="preserve" text-anchor="start" x="202.12" y="-128.55" font-family="Helvetica,sans-Serif" font-size="11.00" fill="#1a1a2e">stack</text>
<text xml:space="preserve" text-anchor="start" x="176.25" y="-119.45" font-family="Helvetica,sans-Serif" font-size="9.00" fill="#1a1a2e">&lt;DirectStackv4v6&gt;</text>
</g>
<!-- stack&#45;&gt;net -->
<g id="edge13" class="edge">
<title>stack&#45;&gt;net</title>
<path fill="none" stroke="#5f6368" d="M224.29,-109.76C234.53,-90.68 253.35,-61.52 278.75,-47 317.28,-24.98 333.48,-37.14 377.75,-34 584.84,-19.31 637.26,-34 844.88,-34 844.88,-34 844.88,-34 1078,-34 1117.42,-34 1160.94,-46.49 1190.9,-57.15"/>
<polygon fill="#5f6368" stroke="#5f6368" points="1189.67,-60.42 1200.26,-60.59 1192.09,-53.85 1189.67,-60.42"/>
<text xml:space="preserve" text-anchor="start" x="731" y="-36.44" font-family="Helvetica,sans-Serif" font-size="9.00" fill="#1a1a2e">netif → connect</text>
</g>
<!-- stack&#45;&gt;ethernet -->
<g id="edge14" class="edge">
<title>stack&#45;&gt;ethernet</title>
<path fill="none" stroke="#5f6368" d="M221.65,-146.3C230.35,-168.97 248.66,-206.58 278.75,-223 352.78,-263.41 384.16,-225.33 468.5,-226 684.19,-227.7 741.71,-231.99 952,-184 987.3,-175.94 995.53,-170.96 1028.5,-156 1030.96,-154.89 1033.46,-153.7 1035.97,-152.46"/>
<polygon fill="#5f6368" stroke="#5f6368" points="1037.55,-155.58 1044.85,-147.89 1034.35,-149.35 1037.55,-155.58"/>
<text xml:space="preserve" text-anchor="start" x="629.25" y="-229.43" font-family="Helvetica,sans-Serif" font-size="9.00" fill="#1a1a2e">ethernet → connect</text>
</g>
<!-- stack&#45;&gt;arp -->
<g id="edge15" class="edge">
<title>stack&#45;&gt;arp</title>
<path fill="none" stroke="#5f6368" d="M240.6,-109.56C251.92,-101.72 265.66,-92.83 278.75,-86 320.68,-64.13 331.29,-55.82 377.75,-47 567.15,-11.04 796.17,-82.18 884.51,-113.86"/>
<polygon fill="#5f6368" stroke="#5f6368" points="883.28,-117.14 893.88,-117.27 885.68,-110.56 883.28,-117.14"/>
<text xml:space="preserve" text-anchor="start" x="542.25" y="-48.21" font-family="Helvetica,sans-Serif" font-size="9.00" fill="#1a1a2e">arpv4 → connect</text>
</g>
<!-- stack&#45;&gt;ip -->
<g id="edge16" class="edge">
<title>stack&#45;&gt;ip</title>
<path fill="none" stroke="#5f6368" d="M260.98,-139.43C266.93,-140.74 272.97,-141.97 278.75,-143 386.16,-162.18 417.83,-167.06 524.25,-143 528.9,-141.95 533.75,-140.72 538.53,-139.42"/>
<polygon fill="#5f6368" stroke="#5f6368" points="539.32,-142.84 547.99,-136.74 537.42,-136.1 539.32,-142.84"/>
<text xml:space="preserve" text-anchor="start" x="377.75" y="-161.97" font-family="Helvetica,sans-Serif" font-size="9.00" fill="#1a1a2e">ipv4v6 → connect</text>
</g>
<!-- stack&#45;&gt;icmp -->
<g id="edge17" class="edge">
<title>stack&#45;&gt;icmp</title>
<path fill="none" stroke="#5f6368" d="M229.44,-146.3C241.02,-160.03 258.78,-177.95 278.75,-187 336.69,-213.27 412.17,-213.63 457.02,-210.8"/>
<polygon fill="#5f6368" stroke="#5f6368" points="457.05,-214.31 466.77,-210.09 456.54,-207.33 457.05,-214.31"/>
<text xml:space="preserve" text-anchor="start" x="281.75" y="-210.58" font-family="Helvetica,sans-Serif" font-size="9.00" fill="#1a1a2e">icmpv4 → connect</text>
</g>
<!-- stack&#45;&gt;udp -->
<g id="edge18" class="edge">
<title>stack&#45;&gt;udp</title>
<path fill="none" stroke="#5f6368" d="M260.84,-115.61C295.7,-106.09 343.27,-93.09 375.92,-84.17"/>
<polygon fill="#5f6368" stroke="#5f6368" points="376.61,-87.6 385.34,-81.59 374.77,-80.85 376.61,-87.6"/>
<text xml:space="preserve" text-anchor="start" x="278.75" y="-113.23" font-family="Helvetica,sans-Serif" font-size="9.00" fill="#1a1a2e">udpv4v6 → connect</text>
</g>
<!-- stack&#45;&gt;tcp -->
<g id="edge19" class="edge">
<title>stack&#45;&gt;tcp</title>
<path fill="none" stroke="#5f6368" d="M260.84,-128C295.55,-128 342.86,-128 375.49,-128"/>
<polygon fill="#5f6368" stroke="#5f6368" points="375.28,-131.5 385.28,-128 375.28,-124.5 375.28,-131.5"/>
<text xml:space="preserve" text-anchor="start" x="280.62" y="-130.7" font-family="Helvetica,sans-Serif" font-size="9.00" fill="#1a1a2e">tcpv4v6 → connect</text>
</g>
<!-- stack_app -->
<g id="node12" class="node">
<title>stack_app</title>
<path fill="#e8f0fe" stroke="#4285f4" d="M53.5,-146C53.5,-146 12,-146 12,-146 6,-146 0,-140 0,-134 0,-134 0,-122 0,-122 0,-116 6,-110 12,-110 12,-110 53.5,-110 53.5,-110 59.5,-110 65.5,-116 65.5,-122 65.5,-122 65.5,-134 65.5,-134 65.5,-140 59.5,-146 53.5,-146"/>
<text xml:space="preserve" text-anchor="start" x="8.38" y="-128.55" font-family="Helvetica,sans-Serif" font-size="11.00" fill="#1a1a2e">stack_app</text>
<text xml:space="preserve" text-anchor="start" x="8" y="-119.45" font-family="Helvetica,sans-Serif" font-size="9.00" fill="#1a1a2e">&lt;StackApp&gt;</text>
</g>
<!-- stack_app&#45;&gt;stack -->
<g id="edge20" class="edge">
<title>stack_app&#45;&gt;stack</title>
<path fill="none" stroke="#5f6368" d="M65.89,-128C91.05,-128 126.68,-128 156.63,-128"/>
<polygon fill="#5f6368" stroke="#5f6368" points="156.28,-131.5 166.28,-128 156.28,-124.5 156.28,-131.5"/>
<text xml:space="preserve" text-anchor="start" x="83.5" y="-130.7" font-family="Helvetica,sans-Serif" font-size="9.00" fill="#1a1a2e">stack → connect</text>
</g>
</g>
</svg>
