<?xml version="1.0" encoding="UTF-8" standalone="no"?>
<!DOCTYPE svg PUBLIC "-//W3C//DTD SVG 1.1//EN"
 "http://www.w3.org/Graphics/SVG/1.1/DTD/svg11.dtd">
<!-- Generated by graphviz version 14.1.2 (20260124.0452)
 -->
<!-- Title: DnsStack Pages: 1 -->
<svg width="438pt" height="94pt"
 viewBox="0.00 0.00 438.00 94.00" xmlns="http://www.w3.org/2000/svg" xmlns:xlink="http://www.w3.org/1999/xlink">
<g id="graph0" class="graph" transform="scale(1 1) rotate(0) translate(28.8 64.8)">
<title>DnsStack</title>
<polygon fill="white" stroke="none" points="-28.8,28.8 -28.8,-64.8 408.8,-64.8 408.8,28.8 -28.8,28.8"/>
<!-- happy_eyeballs_mirage -->
<g id="node1" class="node">
<title>happy_eyeballs_mirage</title>
<path fill="#e8f0fe" stroke="#4285f4" d="M368,-36C368,-36 262.75,-36 262.75,-36 256.75,-36 250.75,-30 250.75,-24 250.75,-24 250.75,-12 250.75,-12 250.75,-6 256.75,0 262.75,0 262.75,0 368,0 368,0 374,0 380,-6 380,-12 380,-12 380,-24 380,-24 380,-30 374,-36 368,-36"/>
<text xml:space="preserve" text-anchor="start" x="258.75" y="-18.55" font-family="Helvetica,sans-Serif" font-size="11.00" fill="#1a1a2e">happy_eyeballs_mirage</text>
<text xml:space="preserve" text-anchor="start" x="259.88" y="-9.45" font-family="Helvetica,sans-Serif" font-size="9.00" fill="#1a1a2e">&lt;Happy_eyeballs_mirage&gt;</text>
</g>
<!-- dns_client -->
<g id="node2" class="node">
<title>dns_client</title>
<path fill="#e8f0fe" stroke="#4285f4" d="M91.75,-36C91.75,-36 12,-36 12,-36 6,-36 0,-30 0,-24 0,-24 0,-12 0,-12 0,-6 6,0 12,0 12,0 91.75,0 91.75,0 97.75,0 103.75,-6 103.75,-12 103.75,-12 103.75,-24 103.75,-24 103.75,-30 97.75,-36 91.75,-36"/>
<text xml:space="preserve" text-anchor="start" x="27.88" y="-18.55" font-family="Helvetica,sans-Serif" font-size="11.00" fill="#1a1a2e">dns_client</text>
<text xml:space="preserve" text-anchor="start" x="8" y="-9.45" font-family="Helvetica,sans-Serif" font-size="9.00" fill="#1a1a2e">&lt;Dns_client_mirage&gt;</text>
</g>
<!-- dns_client&#45;&gt;happy_eyeballs_mirage -->
<g id="edge1" class="edge">
<title>dns_client&#45;&gt;happy_eyeballs_mirage</title>
<path fill="none" stroke="#5f6368" d="M104.23,-18C142.73,-18 196.02,-18 239.3,-18"/>
<polygon fill="#5f6368" stroke="#5f6368" points="239.13,-21.5 249.13,-18 239.13,-14.5 239.13,-21.5"/>
<text xml:space="preserve" text-anchor="start" x="121.75" y="-20.7" font-family="Helvetica,sans-Serif" font-size="9.00" fill="#1a1a2e">happy_eyeballs → connect</text>
</g>
</g>
</svg>
