<?xml version="1.0" encoding="UTF-8" standalone="no"?>
<!DOCTYPE svg PUBLIC "-//W3C//DTD SVG 1.1//EN"
 "http://www.w3.org/Graphics/SVG/1.1/DTD/svg11.dtd">
<!-- Generated by graphviz version 14.1.2 (20260124.0452)
 -->
<!-- Title: FatWebsite Pages: 1 -->
<svg width="1506pt" height="422pt"
 viewBox="0.00 0.00 1506.00 422.00" xmlns="http://www.w3.org/2000/svg" xmlns:xlink="http://www.w3.org/1999/xlink">
<g id="graph0" class="graph" transform="scale(1 1) rotate(0) translate(28.8 392.8)">
<title>FatWebsite</title>
<polygon fill="white" stroke="none" points="-28.8,28.8 -28.8,-392.8 1477.3,-392.8 1477.3,28.8 -28.8,28.8"/>
<g id="clust1" class="cluster">
<title>cluster_TcpipStack</title>
<path fill="#f8f9fa" stroke="#5f6368" d="M169.25,-100C169.25,-100 1428.5,-100 1428.5,-100 1434.5,-100 1440.5,-106 1440.5,-112 1440.5,-112 1440.5,-344 1440.5,-344 1440.5,-350 1434.5,-356 1428.5,-356 1428.5,-356 169.25,-356 169.25,-356 163.25,-356 157.25,-350 157.25,-344 157.25,-344 157.25,-112 157.25,-112 157.25,-106 163.25,-100 169.25,-100"/>
<text xml:space="preserve" text-anchor="middle" x="798.88" y="-338.7" font-family="Helvetica,sans-Serif" font-size="14.00">TcpipStack</text>
</g>
<!-- backend -->
<g id="node1" class="node">
<title>backend</title>
<path fill="#dcedc8" stroke="#558b2f" d="M1420.5,-230C1420.5,-230 1382,-230 1382,-230 1376,-230 1370,-224 1370,-218 1370,-218 1370,-206 1370,-206 1370,-200 1376,-194 1382,-194 1382,-194 1420.5,-194 1420.5,-194 1426.5,-194 1432.5,-200 1432.5,-206 1432.5,-206 1432.5,-218 1432.5,-218 1432.5,-224 1426.5,-230 1420.5,-230"/>
<text xml:space="preserve" text-anchor="start" x="1381" y="-212.55" font-family="Helvetica,sans-Serif" font-size="11.00" fill="#1a1a2e">backend</text>
<text xml:space="preserve" text-anchor="start" x="1378" y="-203.45" font-family="Helvetica,sans-Serif" font-size="9.00" fill="#1a1a2e">&lt;Backend&gt;</text>
</g>
<!-- net -->
<g id="node2" class="node">
<title>net</title>
<path fill="#dcedc8" stroke="#558b2f" d="M1241,-230C1241,-230 1211,-230 1211,-230 1205,-230 1199,-224 1199,-218 1199,-218 1199,-206 1199,-206 1199,-200 1205,-194 1211,-194 1211,-194 1241,-194 1241,-194 1247,-194 1253,-200 1253,-206 1253,-206 1253,-218 1253,-218 1253,-224 1247,-230 1241,-230"/>
<text xml:space="preserve" text-anchor="start" x="1218.5" y="-212.55" font-family="Helvetica,sans-Serif" font-size="11.00" fill="#1a1a2e">net</text>
<text xml:space="preserve" text-anchor="start" x="1209.12" y="-203.45" font-family="Helvetica,sans-Serif" font-size="9.00" fill="#1a1a2e">&lt;Vnetif&gt;</text>
</g>
<!-- net&#45;&gt;backend -->
<g id="edge1" class="edge">
<title>net&#45;&gt;backend</title>
<path fill="none" stroke="#5f6368" d="M1253.31,-212C1281.13,-212 1325.43,-212 1358.12,-212"/>
<polygon fill="#5f6368" stroke="#5f6368" points="1358.08,-215.5 1368.08,-212 1358.08,-208.5 1358.08,-215.5"/>
<text xml:space="preserve" text-anchor="start" x="1271" y="-214.7" font-family="Helvetica,sans-Serif" font-size="9.00" fill="#1a1a2e">backend → connect</text>
</g>
<!-- eth -->
<g id="node3" class="node">
<title>eth</title>
<path fill="#dcedc8" stroke="#558b2f" d="M1092.5,-230C1092.5,-230 1055.5,-230 1055.5,-230 1049.5,-230 1043.5,-224 1043.5,-218 1043.5,-218 1043.5,-206 1043.5,-206 1043.5,-200 1049.5,-194 1055.5,-194 1055.5,-194 1092.5,-194 1092.5,-194 1098.5,-194 1104.5,-200 1104.5,-206 1104.5,-206 1104.5,-218 1104.5,-218 1104.5,-224 1098.5,-230 1092.5,-230"/>
<text xml:space="preserve" text-anchor="start" x="1066.5" y="-212.55" font-family="Helvetica,sans-Serif" font-size="11.00" fill="#1a1a2e">eth</text>
<text xml:space="preserve" text-anchor="start" x="1051.5" y="-203.45" font-family="Helvetica,sans-Serif" font-size="9.00" fill="#1a1a2e">&lt;Ethernet&gt;</text>
</g>
<!-- eth&#45;&gt;net -->
<g id="edge2" class="edge">
<title>eth&#45;&gt;net</title>
<path fill="none" stroke="#5f6368" d="M1104.99,-212C1128.61,-212 1161.68,-212 1187.12,-212"/>
<polygon fill="#5f6368" stroke="#5f6368" points="1187.06,-215.5 1197.06,-212 1187.06,-208.5 1187.06,-215.5"/>
<text xml:space="preserve" text-anchor="start" x="1122.5" y="-214.7" font-family="Helvetica,sans-Serif" font-size="9.00" fill="#1a1a2e">net → connect</text>
</g>
<!-- arp -->
<g id="node4" class="node">
<title>arp</title>
<path fill="#dcedc8" stroke="#558b2f" d="M934.75,-258C934.75,-258 904.75,-258 904.75,-258 898.75,-258 892.75,-252 892.75,-246 892.75,-246 892.75,-234 892.75,-234 892.75,-228 898.75,-222 904.75,-222 904.75,-222 934.75,-222 934.75,-222 940.75,-222 946.75,-228 946.75,-234 946.75,-234 946.75,-246 946.75,-246 946.75,-252 940.75,-258 934.75,-258"/>
<text xml:space="preserve" text-anchor="start" x="911.88" y="-240.55" font-family="Helvetica,sans-Serif" font-size="11.00" fill="#1a1a2e">arp</text>
<text xml:space="preserve" text-anchor="start" x="907.38" y="-231.45" font-family="Helvetica,sans-Serif" font-size="9.00" fill="#1a1a2e">&lt;Arp&gt;</text>
</g>
<!-- arp&#45;&gt;eth -->
<g id="edge3" class="edge">
<title>arp&#45;&gt;eth</title>
<path fill="none" stroke="#5f6368" d="M946.92,-235.19C970.36,-230.88 1005.1,-224.49 1032.18,-219.51"/>
<polygon fill="#5f6368" stroke="#5f6368" points="1032.57,-222.99 1041.77,-217.74 1031.31,-216.11 1032.57,-222.99"/>
<text xml:space="preserve" text-anchor="start" x="967" y="-233.64" font-family="Helvetica,sans-Serif" font-size="9.00" fill="#1a1a2e">eth → connect</text>
</g>
<!-- ipv4 -->
<g id="node5" class="node">
<title>ipv4</title>
<path fill="#dcedc8" stroke="#558b2f" d="M783.25,-237C783.25,-237 735.75,-237 735.75,-237 729.75,-237 723.75,-231 723.75,-225 723.75,-225 723.75,-213 723.75,-213 723.75,-207 729.75,-201 735.75,-201 735.75,-201 783.25,-201 783.25,-201 789.25,-201 795.25,-207 795.25,-213 795.25,-213 795.25,-225 795.25,-225 795.25,-231 789.25,-237 783.25,-237"/>
<text xml:space="preserve" text-anchor="start" x="749.75" y="-219.55" font-family="Helvetica,sans-Serif" font-size="11.00" fill="#1a1a2e">ipv4</text>
<text xml:space="preserve" text-anchor="start" x="731.75" y="-210.45" font-family="Helvetica,sans-Serif" font-size="9.00" fill="#1a1a2e">&lt;Static_ipv4&gt;</text>
</g>
<!-- ipv4&#45;&gt;eth -->
<g id="edge4" class="edge">
<title>ipv4&#45;&gt;eth</title>
<path fill="none" stroke="#5f6368" d="M795.69,-213.05C821.77,-208.96 858.24,-203.88 890.5,-201.75 916.44,-200.04 923.02,-200.68 949,-201.75 976.73,-202.89 1007.86,-205.47 1031.99,-207.76"/>
<polygon fill="#5f6368" stroke="#5f6368" points="1031.43,-211.22 1041.72,-208.7 1032.11,-204.25 1031.43,-211.22"/>
<text xml:space="preserve" text-anchor="start" x="890.5" y="-204.45" font-family="Helvetica,sans-Serif" font-size="9.00" fill="#1a1a2e">eth → connect</text>
</g>
<!-- ipv4&#45;&gt;arp -->
<g id="edge5" class="edge">
<title>ipv4&#45;&gt;arp</title>
<path fill="none" stroke="#5f6368" d="M795.62,-223.66C821.05,-227.03 855.36,-231.59 881.31,-235.03"/>
<polygon fill="#5f6368" stroke="#5f6368" points="880.71,-238.48 891.08,-236.33 881.63,-231.54 880.71,-238.48"/>
<text xml:space="preserve" text-anchor="start" x="813.25" y="-236.49" font-family="Helvetica,sans-Serif" font-size="9.00" fill="#1a1a2e">arp → connect</text>
</g>
<!-- ipv6 -->
<g id="node6" class="node">
<title>ipv6</title>
<path fill="#dcedc8" stroke="#558b2f" d="M934.75,-157C934.75,-157 904.75,-157 904.75,-157 898.75,-157 892.75,-151 892.75,-145 892.75,-145 892.75,-133 892.75,-133 892.75,-127 898.75,-121 904.75,-121 904.75,-121 934.75,-121 934.75,-121 940.75,-121 946.75,-127 946.75,-133 946.75,-133 946.75,-145 946.75,-145 946.75,-151 940.75,-157 934.75,-157"/>
<text xml:space="preserve" text-anchor="start" x="910" y="-139.55" font-family="Helvetica,sans-Serif" font-size="11.00" fill="#1a1a2e">ipv6</text>
<text xml:space="preserve" text-anchor="start" x="905.88" y="-130.45" font-family="Helvetica,sans-Serif" font-size="9.00" fill="#1a1a2e">&lt;Ipv6&gt;</text>
</g>
<!-- ipv6&#45;&gt;net -->
<g id="edge6" class="edge">
<title>ipv6&#45;&gt;net</title>
<path fill="none" stroke="#5f6368" d="M947.16,-141.61C968.43,-143.94 999.04,-147.78 1025.5,-153 1083.19,-164.39 1148.19,-185.15 1187.87,-198.76"/>
<polygon fill="#5f6368" stroke="#5f6368" points="1186.58,-202.02 1197.18,-201.99 1188.88,-195.41 1186.58,-202.02"/>
<text xml:space="preserve" text-anchor="start" x="1044.75" y="-174.61" font-family="Helvetica,sans-Serif" font-size="9.00" fill="#1a1a2e">net → connect</text>
</g>
<!-- ipv6&#45;&gt;eth -->
<g id="edge7" class="edge">
<title>ipv6&#45;&gt;eth</title>
<path fill="none" stroke="#5f6368" d="M947.17,-147.54C973.42,-156.2 1011.7,-169.35 1025.5,-176.75 1031.04,-179.72 1036.65,-183.29 1041.98,-187"/>
<polygon fill="#5f6368" stroke="#5f6368" points="1039.83,-189.76 1049.97,-192.83 1043.96,-184.11 1039.83,-189.76"/>
<text xml:space="preserve" text-anchor="start" x="967" y="-179.45" font-family="Helvetica,sans-Serif" font-size="9.00" fill="#1a1a2e">eth → connect</text>
</g>
<!-- ip -->
<g id="node7" class="node">
<title>ip</title>
<path fill="#dcedc8" stroke="#558b2f" d="M588.75,-191C588.75,-191 558.75,-191 558.75,-191 552.75,-191 546.75,-185 546.75,-179 546.75,-179 546.75,-167 546.75,-167 546.75,-161 552.75,-155 558.75,-155 558.75,-155 588.75,-155 588.75,-155 594.75,-155 600.75,-161 600.75,-167 600.75,-167 600.75,-179 600.75,-179 600.75,-185 594.75,-191 588.75,-191"/>
<text xml:space="preserve" text-anchor="start" x="569.62" y="-173.55" font-family="Helvetica,sans-Serif" font-size="11.00" fill="#1a1a2e">ip</text>
<text xml:space="preserve" text-anchor="start" x="564.75" y="-164.45" font-family="Helvetica,sans-Serif" font-size="9.00" fill="#1a1a2e">&lt;Ip&gt;</text>
</g>
<!-- ip&#45;&gt;ipv4 -->
<g id="edge8" class="edge">
<title>ip&#45;&gt;ipv4</title>
<path fill="none" stroke="#5f6368" d="M601.08,-179.59C630.09,-186.85 677.3,-198.67 712.46,-207.47"/>
<polygon fill="#5f6368" stroke="#5f6368" points="711.4,-210.82 721.95,-209.85 713.1,-204.03 711.4,-210.82"/>
<text xml:space="preserve" text-anchor="start" x="634.5" y="-208.11" font-family="Helvetica,sans-Serif" font-size="9.00" fill="#1a1a2e">ipv4 → connect</text>
</g>
<!-- ip&#45;&gt;ipv6 -->
<g id="edge9" class="edge">
<title>ip&#45;&gt;ipv6</title>
<path fill="none" stroke="#5f6368" d="M601.17,-170.39C661.85,-164.39 811.32,-149.62 881.38,-142.69"/>
<polygon fill="#5f6368" stroke="#5f6368" points="881.6,-146.19 891.2,-141.72 880.91,-139.22 881.6,-146.19"/>
<text xml:space="preserve" text-anchor="start" x="728" y="-160.96" font-family="Helvetica,sans-Serif" font-size="9.00" fill="#1a1a2e">ipv6 → connect</text>
</g>
<!-- icmp -->
<g id="node8" class="node">
<title>icmp</title>
<path fill="#dcedc8" stroke="#558b2f" d="M509.25,-270C509.25,-270 477.5,-270 477.5,-270 471.5,-270 465.5,-264 465.5,-258 465.5,-258 465.5,-246 465.5,-246 465.5,-240 471.5,-234 477.5,-234 477.5,-234 509.25,-234 509.25,-234 515.25,-234 521.25,-240 521.25,-246 521.25,-246 521.25,-258 521.25,-258 521.25,-264 515.25,-270 509.25,-270"/>
<text xml:space="preserve" text-anchor="start" x="482.12" y="-252.55" font-family="Helvetica,sans-Serif" font-size="11.00" fill="#1a1a2e">icmp</text>
<text xml:space="preserve" text-anchor="start" x="473.5" y="-243.45" font-family="Helvetica,sans-Serif" font-size="9.00" fill="#1a1a2e">&lt;Icmpv4&gt;</text>
</g>
<!-- icmp&#45;&gt;ipv4 -->
<g id="edge10" class="edge">
<title>icmp&#45;&gt;ipv4</title>
<path fill="none" stroke="#5f6368" d="M521.29,-244.57C527.17,-243.14 533.39,-241.77 539.25,-240.75 598.41,-230.46 667.45,-224.61 712.01,-221.63"/>
<polygon fill="#5f6368" stroke="#5f6368" points="712.09,-225.13 721.84,-220.99 711.64,-218.14 712.09,-225.13"/>
<text xml:space="preserve" text-anchor="start" x="547.12" y="-243.45" font-family="Helvetica,sans-Serif" font-size="9.00" fill="#1a1a2e">ip → connect</text>
</g>
<!-- udp -->
<g id="node9" class="node">
<title>udp</title>
<path fill="#dcedc8" stroke="#558b2f" d="M426.12,-245C426.12,-245 396.12,-245 396.12,-245 390.12,-245 384.12,-239 384.12,-233 384.12,-233 384.12,-221 384.12,-221 384.12,-215 390.12,-209 396.12,-209 396.12,-209 426.12,-209 426.12,-209 432.12,-209 438.12,-215 438.12,-221 438.12,-221 438.12,-233 438.12,-233 438.12,-239 432.12,-245 426.12,-245"/>
<text xml:space="preserve" text-anchor="start" x="402.12" y="-227.55" font-family="Helvetica,sans-Serif" font-size="11.00" fill="#1a1a2e">udp</text>
<text xml:space="preserve" text-anchor="start" x="397.25" y="-218.45" font-family="Helvetica,sans-Serif" font-size="9.00" fill="#1a1a2e">&lt;Udp&gt;</text>
</g>
<!-- udp&#45;&gt;ip -->
<g id="edge11" class="edge">
<title>udp&#45;&gt;ip</title>
<path fill="none" stroke="#5f6368" d="M438.29,-218.2C464.7,-209.33 505.72,-195.53 535.51,-185.52"/>
<polygon fill="#5f6368" stroke="#5f6368" points="536.53,-188.87 544.89,-182.36 534.3,-182.23 536.53,-188.87"/>
<text xml:space="preserve" text-anchor="start" x="466.75" y="-210.69" font-family="Helvetica,sans-Serif" font-size="9.00" fill="#1a1a2e">ip → connect</text>
</g>
<!-- tcp -->
<g id="node10" class="node">
<title>tcp</title>
<path fill="#dcedc8" stroke="#558b2f" d="M426.12,-144C426.12,-144 396.12,-144 396.12,-144 390.12,-144 384.12,-138 384.12,-132 384.12,-132 384.12,-120 384.12,-120 384.12,-114 390.12,-108 396.12,-108 396.12,-108 426.12,-108 426.12,-108 432.12,-108 438.12,-114 438.12,-120 438.12,-120 438.12,-132 438.12,-132 438.12,-138 432.12,-144 426.12,-144"/>
<text xml:space="preserve" text-anchor="start" x="404" y="-126.55" font-family="Helvetica,sans-Serif" font-size="11.00" fill="#1a1a2e">tcp</text>
<text xml:space="preserve" text-anchor="start" x="396.12" y="-117.45" font-family="Helvetica,sans-Serif" font-size="9.00" fill="#1a1a2e">&lt;Flow&gt;</text>
</g>
<!-- tcp&#45;&gt;ip -->
<g id="edge12" class="edge">
<title>tcp&#45;&gt;ip</title>
<path fill="none" stroke="#5f6368" d="M438.29,-133.66C464.7,-141.38 505.72,-153.39 535.51,-162.1"/>
<polygon fill="#5f6368" stroke="#5f6368" points="534.3,-165.39 544.88,-164.84 536.26,-158.68 534.3,-165.39"/>
<text xml:space="preserve" text-anchor="start" x="466.75" y="-160.5" font-family="Helvetica,sans-Serif" font-size="9.00" fill="#1a1a2e">ip → connect</text>
</g>
<!-- stack -->
<g id="node11" class="node">
<title>stack</title>
<path fill="#dcedc8" stroke="#558b2f" d="M245.75,-264C245.75,-264 177.25,-264 177.25,-264 171.25,-264 165.25,-258 165.25,-252 165.25,-252 165.25,-240 165.25,-240 165.25,-234 171.25,-228 177.25,-228 177.25,-228 245.75,-228 245.75,-228 251.75,-228 257.75,-234 257.75,-240 257.75,-240 257.75,-252 257.75,-252 257.75,-258 251.75,-264 245.75,-264"/>
<text xml:space="preserve" text-anchor="start" x="199.12" y="-246.55" font-family="Helvetica,sans-Serif" font-size="11.00" fill="#1a1a2e">stack</text>
<text xml:space="preserve" text-anchor="start" x="173.25" y="-237.45" font-family="Helvetica,sans-Serif" font-size="9.00" fill="#1a1a2e">&lt;DirectStackv4v6&gt;</text>
</g>
<!-- stack&#45;&gt;net -->
<g id="edge13" class="edge">
<title>stack&#45;&gt;net</title>
<path fill="none" stroke="#5f6368" d="M233.2,-264.44C244.87,-273.74 260.19,-284.25 275.75,-290 317.23,-305.34 330.64,-296.81 374.75,-300 581.91,-314.98 634.17,-314 841.88,-314 841.88,-314 841.88,-314 1075,-314 1128.6,-314 1177.23,-268.91 1203.81,-238.69"/>
<polygon fill="#5f6368" stroke="#5f6368" points="1206.21,-241.27 1210.04,-231.39 1200.88,-236.73 1206.21,-241.27"/>
<text xml:space="preserve" text-anchor="start" x="728" y="-316.71" font-family="Helvetica,sans-Serif" font-size="9.00" fill="#1a1a2e">netif → connect</text>
</g>
<!-- stack&#45;&gt;eth -->
<g id="edge14" class="edge">
<title>stack&#45;&gt;eth</title>
<path fill="none" stroke="#5f6368" d="M242.34,-264.38C252.57,-269.77 264.32,-275.02 275.75,-278 420.54,-315.75 801.43,-291.75 949,-267 983.77,-261.17 993.67,-261.16 1025.5,-246 1030.99,-243.38 1036.52,-240.13 1041.76,-236.67"/>
<polygon fill="#5f6368" stroke="#5f6368" points="1043.4,-239.8 1049.59,-231.2 1039.39,-234.06 1043.4,-239.8"/>
<text xml:space="preserve" text-anchor="start" x="626.25" y="-298.11" font-family="Helvetica,sans-Serif" font-size="9.00" fill="#1a1a2e">ethernet → connect</text>
</g>
<!-- stack&#45;&gt;arp -->
<g id="edge15" class="edge">
<title>stack&#45;&gt;arp</title>
<path fill="none" stroke="#5f6368" d="M257.96,-264.49C263.86,-266.31 269.9,-267.89 275.75,-269 358.63,-284.73 381.14,-272.89 465.5,-274 490.28,-274.33 496.49,-274.88 521.25,-274 677.66,-268.44 717.35,-269.54 872.5,-249 875.34,-248.62 878.26,-248.18 881.2,-247.7"/>
<polygon fill="#5f6368" stroke="#5f6368" points="881.71,-251.17 890.94,-245.96 880.48,-244.28 881.71,-251.17"/>
<text xml:space="preserve" text-anchor="start" x="539.25" y="-276.05" font-family="Helvetica,sans-Serif" font-size="9.00" fill="#1a1a2e">arpv4 → connect</text>
</g>
<!-- stack&#45;&gt;ip -->
<g id="edge16" class="edge">
<title>stack&#45;&gt;ip</title>
<path fill="none" stroke="#5f6368" d="M258.03,-228.49C263.97,-226.27 270,-224.06 275.75,-222 319.46,-206.37 329.28,-198.05 374.75,-188.75 429.83,-177.49 495.05,-174.18 535.16,-173.27"/>
<polygon fill="#5f6368" stroke="#5f6368" points="535.07,-176.77 545.01,-173.08 534.94,-169.77 535.07,-176.77"/>
<text xml:space="preserve" text-anchor="start" x="374.75" y="-191.45" font-family="Helvetica,sans-Serif" font-size="9.00" fill="#1a1a2e">ipv4v6 → connect</text>
</g>
<!-- stack&#45;&gt;icmp -->
<g id="edge17" class="edge">
<title>stack&#45;&gt;icmp</title>
<path fill="none" stroke="#5f6368" d="M257.94,-248.84C290.45,-250.73 335.28,-253.03 374.75,-254 407.07,-254.8 415.17,-254.72 447.5,-254 449.57,-253.95 451.7,-253.9 453.85,-253.83"/>
<polygon fill="#5f6368" stroke="#5f6368" points="453.95,-257.33 463.82,-253.46 453.69,-250.33 453.95,-257.33"/>
<text xml:space="preserve" text-anchor="start" x="278.75" y="-256.15" font-family="Helvetica,sans-Serif" font-size="9.00" fill="#1a1a2e">icmpv4 → connect</text>
</g>
<!-- stack&#45;&gt;udp -->
<g id="edge18" class="edge">
<title>stack&#45;&gt;udp</title>
<path fill="none" stroke="#5f6368" d="M258.23,-233.79C264.09,-232.57 270.04,-231.51 275.75,-230.75 308.19,-226.43 345.42,-225.72 372.45,-225.96"/>
<polygon fill="#5f6368" stroke="#5f6368" points="372.17,-229.46 382.22,-226.1 372.27,-222.46 372.17,-229.46"/>
<text xml:space="preserve" text-anchor="start" x="275.75" y="-233.45" font-family="Helvetica,sans-Serif" font-size="9.00" fill="#1a1a2e">udpv4v6 → connect</text>
</g>
<!-- stack&#45;&gt;tcp -->
<g id="edge19" class="edge">
<title>stack&#45;&gt;tcp</title>
<path fill="none" stroke="#5f6368" d="M221.85,-227.83C232.44,-209.04 251.43,-180.2 275.75,-163.75 304.86,-144.07 344.11,-134.57 372.67,-130.03"/>
<polygon fill="#5f6368" stroke="#5f6368" points="372.92,-133.54 382.32,-128.64 371.92,-126.61 372.92,-133.54"/>
<text xml:space="preserve" text-anchor="start" x="277.62" y="-166.45" font-family="Helvetica,sans-Serif" font-size="9.00" fill="#1a1a2e">tcpv4v6 → connect</text>
</g>
<!-- data_block -->
<g id="node12" class="node">
<title>data_block</title>
<path fill="#dcedc8" stroke="#558b2f" d="M433,-90C433,-90 389.25,-90 389.25,-90 383.25,-90 377.25,-84 377.25,-78 377.25,-78 377.25,-66 377.25,-66 377.25,-60 383.25,-54 389.25,-54 389.25,-54 433,-54 433,-54 439,-54 445,-60 445,-66 445,-66 445,-78 445,-78 445,-84 439,-90 433,-90"/>
<text xml:space="preserve" text-anchor="start" x="385.25" y="-72.55" font-family="Helvetica,sans-Serif" font-size="11.00" fill="#1a1a2e">data_block</text>
<text xml:space="preserve" text-anchor="start" x="394.62" y="-63.45" font-family="Helvetica,sans-Serif" font-size="9.00" fill="#1a1a2e">&lt;Block&gt;</text>
</g>
<!-- certs_block -->
<g id="node13" class="node">
<title>certs_block</title>
<path fill="#dcedc8" stroke="#558b2f" d="M434.12,-36C434.12,-36 388.12,-36 388.12,-36 382.12,-36 376.12,-30 376.12,-24 376.12,-24 376.12,-12 376.12,-12 376.12,-6 382.12,0 388.12,0 388.12,0 434.12,0 434.12,0 440.12,0 446.12,-6 446.12,-12 446.12,-12 446.12,-24 446.12,-24 446.12,-30 440.12,-36 434.12,-36"/>
<text xml:space="preserve" text-anchor="start" x="384.12" y="-18.55" font-family="Helvetica,sans-Serif" font-size="11.00" fill="#1a1a2e">certs_block</text>
<text xml:space="preserve" text-anchor="start" x="394.62" y="-9.45" font-family="Helvetica,sans-Serif" font-size="9.00" fill="#1a1a2e">&lt;Block&gt;</text>
</g>
<!-- fat_data -->
<g id="node14" class="node">
<title>fat_data</title>
<path fill="#dcedc8" stroke="#558b2f" d="M233,-90C233,-90 190,-90 190,-90 184,-90 178,-84 178,-78 178,-78 178,-66 178,-66 178,-60 184,-54 190,-54 190,-54 233,-54 233,-54 239,-54 245,-60 245,-66 245,-66 245,-78 245,-78 245,-84 239,-90 233,-90"/>
<text xml:space="preserve" text-anchor="start" x="192" y="-72.55" font-family="Helvetica,sans-Serif" font-size="11.00" fill="#1a1a2e">fat_data</text>
<text xml:space="preserve" text-anchor="start" x="186" y="-63.45" font-family="Helvetica,sans-Serif" font-size="9.00" fill="#1a1a2e">&lt;Fat_kv_ro&gt;</text>
</g>
<!-- fat_data&#45;&gt;data_block -->
<g id="edge20" class="edge">
<title>fat_data&#45;&gt;data_block</title>
<path fill="none" stroke="#5f6368" d="M245.13,-72C277.98,-72 328.87,-72 365.45,-72"/>
<polygon fill="#5f6368" stroke="#5f6368" points="365.27,-75.5 375.27,-72 365.27,-68.5 365.27,-75.5"/>
<text xml:space="preserve" text-anchor="start" x="282.5" y="-74.7" font-family="Helvetica,sans-Serif" font-size="9.00" fill="#1a1a2e">block → connect</text>
</g>
<!-- fat_certs -->
<g id="node15" class="node">
<title>fat_certs</title>
<path fill="#dcedc8" stroke="#558b2f" d="M233,-36C233,-36 190,-36 190,-36 184,-36 178,-30 178,-24 178,-24 178,-12 178,-12 178,-6 184,0 190,0 190,0 233,0 233,0 239,0 245,-6 245,-12 245,-12 245,-24 245,-24 245,-30 239,-36 233,-36"/>
<text xml:space="preserve" text-anchor="start" x="190.88" y="-18.55" font-family="Helvetica,sans-Serif" font-size="11.00" fill="#1a1a2e">fat_certs</text>
<text xml:space="preserve" text-anchor="start" x="186" y="-9.45" font-family="Helvetica,sans-Serif" font-size="9.00" fill="#1a1a2e">&lt;Fat_kv_ro&gt;</text>
</g>
<!-- fat_certs&#45;&gt;certs_block -->
<g id="edge21" class="edge">
<title>fat_certs&#45;&gt;certs_block</title>
<path fill="none" stroke="#5f6368" d="M245.13,-18C277.68,-18 327.95,-18 364.46,-18"/>
<polygon fill="#5f6368" stroke="#5f6368" points="364.27,-21.5 374.27,-18 364.27,-14.5 364.27,-21.5"/>
<text xml:space="preserve" text-anchor="start" x="282.5" y="-20.7" font-family="Helvetica,sans-Serif" font-size="9.00" fill="#1a1a2e">block → connect</text>
</g>
<!-- dispatch -->
<g id="node16" class="node">
<title>dispatch</title>
<path fill="#dcedc8" stroke="#558b2f" d="M50.5,-90C50.5,-90 12,-90 12,-90 6,-90 0,-84 0,-78 0,-78 0,-66 0,-66 0,-60 6,-54 12,-54 12,-54 50.5,-54 50.5,-54 56.5,-54 62.5,-60 62.5,-66 62.5,-66 62.5,-78 62.5,-78 62.5,-84 56.5,-90 50.5,-90"/>
<text xml:space="preserve" text-anchor="start" x="11.38" y="-72.55" font-family="Helvetica,sans-Serif" font-size="11.00" fill="#1a1a2e">dispatch</text>
<text xml:space="preserve" text-anchor="start" x="8" y="-63.45" font-family="Helvetica,sans-Serif" font-size="9.00" fill="#1a1a2e">&lt;Dispatch&gt;</text>
</g>
<!-- dispatch&#45;&gt;stack -->
<g id="edge24" class="edge">
<title>dispatch&#45;&gt;stack</title>
<path fill="none" stroke="#5f6368" d="M50.99,-90.29C82.68,-121.23 146.98,-183.99 183.52,-219.67"/>
<polygon fill="#5f6368" stroke="#5f6368" points="181.06,-222.15 190.66,-226.63 185.95,-217.14 181.06,-222.15"/>
<text xml:space="preserve" text-anchor="start" x="80.5" y="-182.4" font-family="Helvetica,sans-Serif" font-size="9.00" fill="#1a1a2e">stack → connect</text>
</g>
<!-- dispatch&#45;&gt;fat_data -->
<g id="edge22" class="edge">
<title>dispatch&#45;&gt;fat_data</title>
<path fill="none" stroke="#5f6368" d="M62.89,-72C91.35,-72 134.05,-72 166.21,-72"/>
<polygon fill="#5f6368" stroke="#5f6368" points="166.03,-75.5 176.03,-72 166.03,-68.5 166.03,-75.5"/>
<text xml:space="preserve" text-anchor="start" x="82" y="-74.7" font-family="Helvetica,sans-Serif" font-size="9.00" fill="#1a1a2e">data → connect</text>
</g>
<!-- dispatch&#45;&gt;fat_certs -->
<g id="edge23" class="edge">
<title>dispatch&#45;&gt;fat_certs</title>
<path fill="none" stroke="#5f6368" d="M62.86,-62.24C68.71,-60.4 74.79,-58.5 80.5,-56.75 109.23,-47.93 141.62,-38.27 166.88,-30.81"/>
<polygon fill="#5f6368" stroke="#5f6368" points="167.54,-34.26 176.14,-28.07 165.56,-27.55 167.54,-34.26"/>
<text xml:space="preserve" text-anchor="start" x="81.25" y="-59.45" font-family="Helvetica,sans-Serif" font-size="9.00" fill="#1a1a2e">certs → connect</text>
</g>
</g>
</svg>
