<?xml version="1.0" encoding="UTF-8" standalone="no"?>
<!DOCTYPE svg PUBLIC "-//W3C//DTD SVG 1.1//EN"
 "http://www.w3.org/Graphics/SVG/1.1/DTD/svg11.dtd">
<!-- Generated by graphviz version 14.1.2 (20260124.0452)
 -->
<!-- Title: SocketStack Pages: 1 -->
<svg width="318pt" height="148pt"
 viewBox="0.00 0.00 318.00 148.00" xmlns="http://www.w3.org/2000/svg" xmlns:xlink="http://www.w3.org/1999/xlink">
<g id="graph0" class="graph" transform="scale(1 1) rotate(0) translate(28.8 118.8)">
<title>SocketStack</title>
<polygon fill="white" stroke="none" points="-28.8,28.8 -28.8,-118.8 289.55,-118.8 289.55,28.8 -28.8,28.8"/>
<!-- udpv4v6_socket -->
<g id="node1" class="node">
<title>udpv4v6_socket</title>
<path fill="#e8f0fe" stroke="#4285f4" d="M248.75,-90C248.75,-90 178,-90 178,-90 172,-90 166,-84 166,-78 166,-78 166,-66 166,-66 166,-60 172,-54 178,-54 178,-54 248.75,-54 248.75,-54 254.75,-54 260.75,-60 260.75,-66 260.75,-66 260.75,-78 260.75,-78 260.75,-84 254.75,-90 248.75,-90"/>
<text xml:space="preserve" text-anchor="start" x="174.75" y="-72.55" font-family="Helvetica,sans-Serif" font-size="11.00" fill="#1a1a2e">udpv4v6_socket</text>
<text xml:space="preserve" text-anchor="start" x="174" y="-63.45" font-family="Helvetica,sans-Serif" font-size="9.00" fill="#1a1a2e">&lt;Udpv4v6_socket&gt;</text>
</g>
<!-- tcpv4v6_socket -->
<g id="node2" class="node">
<title>tcpv4v6_socket</title>
<path fill="#e8f0fe" stroke="#4285f4" d="M247.25,-36C247.25,-36 179.5,-36 179.5,-36 173.5,-36 167.5,-30 167.5,-24 167.5,-24 167.5,-12 167.5,-12 167.5,-6 173.5,0 179.5,0 179.5,0 247.25,0 247.25,0 253.25,0 259.25,-6 259.25,-12 259.25,-12 259.25,-24 259.25,-24 259.25,-30 253.25,-36 247.25,-36"/>
<text xml:space="preserve" text-anchor="start" x="176.62" y="-18.55" font-family="Helvetica,sans-Serif" font-size="11.00" fill="#1a1a2e">tcpv4v6_socket</text>
<text xml:space="preserve" text-anchor="start" x="175.5" y="-9.45" font-family="Helvetica,sans-Serif" font-size="9.00" fill="#1a1a2e">&lt;Tcpv4v6_socket&gt;</text>
</g>
<!-- stackv4v6 -->
<g id="node3" class="node">
<title>stackv4v6</title>
<path fill="#e8f0fe" stroke="#4285f4" d="M56.5,-63C56.5,-63 12,-63 12,-63 6,-63 0,-57 0,-51 0,-51 0,-39 0,-39 0,-33 6,-27 12,-27 12,-27 56.5,-27 56.5,-27 62.5,-27 68.5,-33 68.5,-39 68.5,-39 68.5,-51 68.5,-51 68.5,-57 62.5,-63 56.5,-63"/>
<text xml:space="preserve" text-anchor="start" x="10.62" y="-45.55" font-family="Helvetica,sans-Serif" font-size="11.00" fill="#1a1a2e">stackv4v6</text>
<text xml:space="preserve" text-anchor="start" x="8" y="-36.45" font-family="Helvetica,sans-Serif" font-size="9.00" fill="#1a1a2e">&lt;Stackv4v6&gt;</text>
</g>
<!-- stackv4v6&#45;&gt;udpv4v6_socket -->
<g id="edge1" class="edge">
<title>stackv4v6&#45;&gt;udpv4v6_socket</title>
<path fill="none" stroke="#5f6368" d="M68.98,-50.14C93.07,-53.81 126.07,-58.84 154.34,-63.15"/>
<polygon fill="#5f6368" stroke="#5f6368" points="153.81,-66.61 164.23,-64.66 154.87,-59.69 153.81,-66.61"/>
<text xml:space="preserve" text-anchor="start" x="86.5" y="-64.41" font-family="Helvetica,sans-Serif" font-size="9.00" fill="#1a1a2e">udp → connect</text>
</g>
<!-- stackv4v6&#45;&gt;tcpv4v6_socket -->
<g id="edge2" class="edge">
<title>stackv4v6&#45;&gt;tcpv4v6_socket</title>
<path fill="none" stroke="#5f6368" d="M68.98,-39.86C93.53,-36.12 127.34,-30.96 155.96,-26.6"/>
<polygon fill="#5f6368" stroke="#5f6368" points="156.2,-30.1 165.56,-25.14 155.14,-23.18 156.2,-30.1"/>
<text xml:space="preserve" text-anchor="start" x="88.38" y="-39.72" font-family="Helvetica,sans-Serif" font-size="9.00" fill="#1a1a2e">tcp → connect</text>
</g>
</g>
</svg>
