<?xml version="1.0" encoding="UTF-8" standalone="no"?>
<!DOCTYPE svg PUBLIC "-//W3C//DTD SVG 1.1//EN"
 "http://www.w3.org/Graphics/SVG/1.1/DTD/svg11.dtd">
<!-- Generated by graphviz version 14.1.2 (20260124.0452)
 -->
<!-- Title: SocketStack Pages: 1 -->
<svg width="363pt" height="226pt"
 viewBox="0.00 0.00 363.00 226.00" xmlns="http://www.w3.org/2000/svg" xmlns:xlink="http://www.w3.org/1999/xlink">
<g id="graph0" class="graph" transform="scale(1 1) rotate(0) translate(28.8 197.14)">
<title>SocketStack</title>
<polygon fill="white" stroke="none" points="-28.8,28.8 -28.8,-197.14 333.8,-197.14 333.8,28.8 -28.8,28.8"/>
<!-- socket_runtime -->
<g id="node1" class="node">
<title>socket_runtime</title>
<path fill="#e8f0fe" stroke="#4285f4" d="M76.75,-143.81C76.75,-143.81 12,-143.81 12,-143.81 6,-143.81 0,-137.81 0,-131.81 0,-131.81 0,-119.81 0,-119.81 0,-113.81 6,-107.81 12,-107.81 12,-107.81 76.75,-107.81 76.75,-107.81 82.75,-107.81 88.75,-113.81 88.75,-119.81 88.75,-119.81 88.75,-131.81 88.75,-131.81 88.75,-137.81 82.75,-143.81 76.75,-143.81"/>
<text xml:space="preserve" text-anchor="start" x="8" y="-126.36" font-family="Helvetica,sans-Serif" font-size="11.00" fill="#1a1a2e">socket_runtime</text>
<text xml:space="preserve" text-anchor="start" x="21.88" y="-117.26" font-family="Helvetica,sans-Serif" font-size="9.00" fill="#1a1a2e">&lt;Runtime&gt;</text>
</g>
<!-- udpv4v6_socket -->
<g id="node2" class="node">
<title>udpv4v6_socket</title>
<path fill="#e8f0fe" stroke="#4285f4" d="M293,-58.81C293,-58.81 222.25,-58.81 222.25,-58.81 216.25,-58.81 210.25,-52.81 210.25,-46.81 210.25,-46.81 210.25,-34.81 210.25,-34.81 210.25,-28.81 216.25,-22.81 222.25,-22.81 222.25,-22.81 293,-22.81 293,-22.81 299,-22.81 305,-28.81 305,-34.81 305,-34.81 305,-46.81 305,-46.81 305,-52.81 299,-58.81 293,-58.81"/>
<text xml:space="preserve" text-anchor="start" x="219" y="-41.36" font-family="Helvetica,sans-Serif" font-size="11.00" fill="#1a1a2e">udpv4v6_socket</text>
<text xml:space="preserve" text-anchor="start" x="218.25" y="-32.26" font-family="Helvetica,sans-Serif" font-size="9.00" fill="#1a1a2e">&lt;Udpv4v6_socket&gt;</text>
</g>
<!-- socket_runtime&#45;&gt;udpv4v6_socket -->
<g id="edge1" class="edge">
<title>socket_runtime&#45;&gt;udpv4v6_socket</title>
<path fill="none" stroke="#5f6368" d="M89.23,-118.48C119.2,-112.44 159.31,-102.32 192.25,-86.81 204.05,-81.26 215.95,-73.5 226.25,-65.93"/>
<polygon fill="#5f6368" stroke="#5f6368" points="228.18,-68.86 234.02,-60.02 223.94,-63.29 228.18,-68.86"/>
<text xml:space="preserve" text-anchor="start" x="106.75" y="-116.56" font-family="Helvetica,sans-Serif" font-size="9.00" fill="#1a1a2e">ipv4_only → connect</text>
</g>
<!-- socket_runtime&#45;&gt;udpv4v6_socket -->
<g id="edge2" class="edge">
<title>socket_runtime&#45;&gt;udpv4v6_socket</title>
<path fill="none" stroke="#5f6368" d="M62.42,-107.67C70.85,-98.24 80.87,-86.32 88.75,-74.81 98.25,-60.95 92.34,-50.2 106.75,-41.56 134.06,-25.2 169.51,-24.3 199.07,-27.83"/>
<polygon fill="#5f6368" stroke="#5f6368" points="198.2,-31.24 208.59,-29.17 199.17,-24.31 198.2,-31.24"/>
<text xml:space="preserve" text-anchor="start" x="106.75" y="-44.26" font-family="Helvetica,sans-Serif" font-size="9.00" fill="#1a1a2e">ipv6_only → connect</text>
</g>
<!-- tcpv4v6_socket -->
<g id="node3" class="node">
<title>tcpv4v6_socket</title>
<path fill="#e8f0fe" stroke="#4285f4" d="M291.5,-160.81C291.5,-160.81 223.75,-160.81 223.75,-160.81 217.75,-160.81 211.75,-154.81 211.75,-148.81 211.75,-148.81 211.75,-136.81 211.75,-136.81 211.75,-130.81 217.75,-124.81 223.75,-124.81 223.75,-124.81 291.5,-124.81 291.5,-124.81 297.5,-124.81 303.5,-130.81 303.5,-136.81 303.5,-136.81 303.5,-148.81 303.5,-148.81 303.5,-154.81 297.5,-160.81 291.5,-160.81"/>
<text xml:space="preserve" text-anchor="start" x="220.88" y="-143.36" font-family="Helvetica,sans-Serif" font-size="11.00" fill="#1a1a2e">tcpv4v6_socket</text>
<text xml:space="preserve" text-anchor="start" x="219.75" y="-134.26" font-family="Helvetica,sans-Serif" font-size="9.00" fill="#1a1a2e">&lt;Tcpv4v6_socket&gt;</text>
</g>
<!-- socket_runtime&#45;&gt;tcpv4v6_socket -->
<g id="edge3" class="edge">
<title>socket_runtime&#45;&gt;tcpv4v6_socket</title>
<path fill="none" stroke="#5f6368" d="M89.15,-129.33C121.29,-131.92 165.22,-135.46 200.03,-138.26"/>
<polygon fill="#5f6368" stroke="#5f6368" points="199.7,-141.74 209.94,-139.05 200.26,-134.76 199.7,-141.74"/>
<text xml:space="preserve" text-anchor="start" x="106.75" y="-140.01" font-family="Helvetica,sans-Serif" font-size="9.00" fill="#1a1a2e">ipv4_only → connect</text>
</g>
<!-- socket_runtime&#45;&gt;tcpv4v6_socket -->
<g id="edge4" class="edge">
<title>socket_runtime&#45;&gt;tcpv4v6_socket</title>
<path fill="none" stroke="#5f6368" d="M80.57,-144.25C88.93,-147.79 97.98,-150.97 106.75,-152.81 137.14,-159.2 171.69,-157.48 199.95,-153.82"/>
<polygon fill="#5f6368" stroke="#5f6368" points="200.35,-157.29 209.75,-152.42 199.36,-150.36 200.35,-157.29"/>
<text xml:space="preserve" text-anchor="start" x="106.75" y="-159.79" font-family="Helvetica,sans-Serif" font-size="9.00" fill="#1a1a2e">ipv6_only → connect</text>
</g>
<!-- stackv4v6 -->
<g id="node4" class="node">
<title>stackv4v6</title>
<path fill="#e8f0fe" stroke="#4285f4" d="M66.62,-65.81C66.62,-65.81 22.12,-65.81 22.12,-65.81 16.12,-65.81 10.12,-59.81 10.12,-53.81 10.12,-53.81 10.12,-41.81 10.12,-41.81 10.12,-35.81 16.12,-29.81 22.12,-29.81 22.12,-29.81 66.62,-29.81 66.62,-29.81 72.62,-29.81 78.62,-35.81 78.62,-41.81 78.62,-41.81 78.62,-53.81 78.62,-53.81 78.62,-59.81 72.62,-65.81 66.62,-65.81"/>
<text xml:space="preserve" text-anchor="start" x="20.75" y="-48.36" font-family="Helvetica,sans-Serif" font-size="11.00" fill="#1a1a2e">stackv4v6</text>
<text xml:space="preserve" text-anchor="start" x="18.12" y="-39.26" font-family="Helvetica,sans-Serif" font-size="9.00" fill="#1a1a2e">&lt;Stackv4v6&gt;</text>
</g>
<!-- stackv4v6&#45;&gt;udpv4v6_socket -->
<g id="edge5" class="edge">
<title>stackv4v6&#45;&gt;udpv4v6_socket</title>
<path fill="none" stroke="#5f6368" d="M66.53,-29.51C77.7,-21.05 92.1,-11.94 106.75,-7.56 143.16,3.31 155.32,1.41 192.25,-7.56 201.02,-9.69 209.92,-13.24 218.2,-17.24"/>
<polygon fill="#5f6368" stroke="#5f6368" points="216.47,-20.28 226.96,-21.78 219.69,-14.07 216.47,-20.28"/>
<text xml:space="preserve" text-anchor="start" x="118.75" y="-10.26" font-family="Helvetica,sans-Serif" font-size="9.00" fill="#1a1a2e">udp → connect</text>
</g>
<!-- stackv4v6&#45;&gt;tcpv4v6_socket -->
<g id="edge6" class="edge">
<title>stackv4v6&#45;&gt;tcpv4v6_socket</title>
<path fill="none" stroke="#5f6368" d="M79.07,-51.2C116.2,-55.38 173.2,-63.21 192.25,-73.56 210.47,-83.46 226.38,-100.45 237.83,-115.13"/>
<polygon fill="#5f6368" stroke="#5f6368" points="235.01,-117.19 243.78,-123.12 240.62,-113.01 235.01,-117.19"/>
<text xml:space="preserve" text-anchor="start" x="120.62" y="-76.26" font-family="Helvetica,sans-Serif" font-size="9.00" fill="#1a1a2e">tcp → connect</text>
</g>
</g>
</svg>
