<?xml version="1.0" encoding="UTF-8" standalone="no"?>
<!DOCTYPE svg PUBLIC "-//W3C//DTD SVG 1.1//EN"
 "http://www.w3.org/Graphics/SVG/1.1/DTD/svg11.dtd">
<!-- Generated by graphviz version 14.1.2 (20260124.0452)
 -->
<!-- Title: StaticWebsite Pages: 1 -->
<svg width="1506pt" height="420pt"
 viewBox="0.00 0.00 1506.00 420.00" xmlns="http://www.w3.org/2000/svg" xmlns:xlink="http://www.w3.org/1999/xlink">
<g id="graph0" class="graph" transform="scale(1 1) rotate(0) translate(28.8 390.8)">
<title>StaticWebsite</title>
<polygon fill="white" stroke="none" points="-28.8,28.8 -28.8,-390.8 1477.3,-390.8 1477.3,28.8 -28.8,28.8"/>
<g id="clust1" class="cluster">
<title>cluster_TcpipStack</title>
<path fill="#f8f9fa" stroke="#5f6368" d="M169.25,-98C169.25,-98 1428.5,-98 1428.5,-98 1434.5,-98 1440.5,-104 1440.5,-110 1440.5,-110 1440.5,-342 1440.5,-342 1440.5,-348 1434.5,-354 1428.5,-354 1428.5,-354 169.25,-354 169.25,-354 163.25,-354 157.25,-348 157.25,-342 157.25,-342 157.25,-110 157.25,-110 157.25,-104 163.25,-98 169.25,-98"/>
<text xml:space="preserve" text-anchor="middle" x="798.88" y="-336.7" font-family="Helvetica,sans-Serif" font-size="14.00">TcpipStack</text>
</g>
<!-- backend -->
<g id="node1" class="node">
<title>backend</title>
<path fill="#dcedc8" stroke="#558b2f" d="M1420.5,-180C1420.5,-180 1382,-180 1382,-180 1376,-180 1370,-174 1370,-168 1370,-168 1370,-156 1370,-156 1370,-150 1376,-144 1382,-144 1382,-144 1420.5,-144 1420.5,-144 1426.5,-144 1432.5,-150 1432.5,-156 1432.5,-156 1432.5,-168 1432.5,-168 1432.5,-174 1426.5,-180 1420.5,-180"/>
<text xml:space="preserve" text-anchor="start" x="1381" y="-162.55" font-family="Helvetica,sans-Serif" font-size="11.00" fill="#1a1a2e">backend</text>
<text xml:space="preserve" text-anchor="start" x="1378" y="-153.45" font-family="Helvetica,sans-Serif" font-size="9.00" fill="#1a1a2e">&lt;Backend&gt;</text>
</g>
<!-- net -->
<g id="node2" class="node">
<title>net</title>
<path fill="#dcedc8" stroke="#558b2f" d="M1241,-180C1241,-180 1211,-180 1211,-180 1205,-180 1199,-174 1199,-168 1199,-168 1199,-156 1199,-156 1199,-150 1205,-144 1211,-144 1211,-144 1241,-144 1241,-144 1247,-144 1253,-150 1253,-156 1253,-156 1253,-168 1253,-168 1253,-174 1247,-180 1241,-180"/>
<text xml:space="preserve" text-anchor="start" x="1218.5" y="-162.55" font-family="Helvetica,sans-Serif" font-size="11.00" fill="#1a1a2e">net</text>
<text xml:space="preserve" text-anchor="start" x="1209.12" y="-153.45" font-family="Helvetica,sans-Serif" font-size="9.00" fill="#1a1a2e">&lt;Vnetif&gt;</text>
</g>
<!-- net&#45;&gt;backend -->
<g id="edge1" class="edge">
<title>net&#45;&gt;backend</title>
<path fill="none" stroke="#5f6368" d="M1253.31,-162C1281.13,-162 1325.43,-162 1358.12,-162"/>
<polygon fill="#5f6368" stroke="#5f6368" points="1358.08,-165.5 1368.08,-162 1358.08,-158.5 1358.08,-165.5"/>
<text xml:space="preserve" text-anchor="start" x="1271" y="-164.7" font-family="Helvetica,sans-Serif" font-size="9.00" fill="#1a1a2e">backend → connect</text>
</g>
<!-- eth -->
<g id="node3" class="node">
<title>eth</title>
<path fill="#dcedc8" stroke="#558b2f" d="M1092.5,-238C1092.5,-238 1055.5,-238 1055.5,-238 1049.5,-238 1043.5,-232 1043.5,-226 1043.5,-226 1043.5,-214 1043.5,-214 1043.5,-208 1049.5,-202 1055.5,-202 1055.5,-202 1092.5,-202 1092.5,-202 1098.5,-202 1104.5,-208 1104.5,-214 1104.5,-214 1104.5,-226 1104.5,-226 1104.5,-232 1098.5,-238 1092.5,-238"/>
<text xml:space="preserve" text-anchor="start" x="1066.5" y="-220.55" font-family="Helvetica,sans-Serif" font-size="11.00" fill="#1a1a2e">eth</text>
<text xml:space="preserve" text-anchor="start" x="1051.5" y="-211.45" font-family="Helvetica,sans-Serif" font-size="9.00" fill="#1a1a2e">&lt;Ethernet&gt;</text>
</g>
<!-- eth&#45;&gt;net -->
<g id="edge2" class="edge">
<title>eth&#45;&gt;net</title>
<path fill="none" stroke="#5f6368" d="M1104.99,-208.4C1128.93,-199.15 1162.58,-186.14 1188.16,-176.25"/>
<polygon fill="#5f6368" stroke="#5f6368" points="1189.09,-179.64 1197.16,-172.76 1186.57,-173.11 1189.09,-179.64"/>
<text xml:space="preserve" text-anchor="start" x="1122.5" y="-203.94" font-family="Helvetica,sans-Serif" font-size="9.00" fill="#1a1a2e">net → connect</text>
</g>
<!-- arp -->
<g id="node4" class="node">
<title>arp</title>
<path fill="#dcedc8" stroke="#558b2f" d="M934.75,-236C934.75,-236 904.75,-236 904.75,-236 898.75,-236 892.75,-230 892.75,-224 892.75,-224 892.75,-212 892.75,-212 892.75,-206 898.75,-200 904.75,-200 904.75,-200 934.75,-200 934.75,-200 940.75,-200 946.75,-206 946.75,-212 946.75,-212 946.75,-224 946.75,-224 946.75,-230 940.75,-236 934.75,-236"/>
<text xml:space="preserve" text-anchor="start" x="911.88" y="-218.55" font-family="Helvetica,sans-Serif" font-size="11.00" fill="#1a1a2e">arp</text>
<text xml:space="preserve" text-anchor="start" x="907.38" y="-209.45" font-family="Helvetica,sans-Serif" font-size="9.00" fill="#1a1a2e">&lt;Arp&gt;</text>
</g>
<!-- arp&#45;&gt;eth -->
<g id="edge3" class="edge">
<title>arp&#45;&gt;eth</title>
<path fill="none" stroke="#5f6368" d="M946.92,-218.34C970.25,-218.65 1004.79,-219.1 1031.82,-219.46"/>
<polygon fill="#5f6368" stroke="#5f6368" points="1031.7,-222.96 1041.75,-219.59 1031.8,-215.96 1031.7,-222.96"/>
<text xml:space="preserve" text-anchor="start" x="967" y="-222.05" font-family="Helvetica,sans-Serif" font-size="9.00" fill="#1a1a2e">eth → connect</text>
</g>
<!-- ipv4 -->
<g id="node5" class="node">
<title>ipv4</title>
<path fill="#dcedc8" stroke="#558b2f" d="M783.25,-273C783.25,-273 735.75,-273 735.75,-273 729.75,-273 723.75,-267 723.75,-261 723.75,-261 723.75,-249 723.75,-249 723.75,-243 729.75,-237 735.75,-237 735.75,-237 783.25,-237 783.25,-237 789.25,-237 795.25,-243 795.25,-249 795.25,-249 795.25,-261 795.25,-261 795.25,-267 789.25,-273 783.25,-273"/>
<text xml:space="preserve" text-anchor="start" x="749.75" y="-255.55" font-family="Helvetica,sans-Serif" font-size="11.00" fill="#1a1a2e">ipv4</text>
<text xml:space="preserve" text-anchor="start" x="731.75" y="-246.45" font-family="Helvetica,sans-Serif" font-size="9.00" fill="#1a1a2e">&lt;Static_ipv4&gt;</text>
</g>
<!-- ipv4&#45;&gt;eth -->
<g id="edge4" class="edge">
<title>ipv4&#45;&gt;eth</title>
<path fill="none" stroke="#5f6368" d="M795.68,-256.52C801.55,-256.72 807.57,-256.89 813.25,-257 908.07,-258.8 933.04,-256.1 1025.5,-235 1027.65,-234.51 1029.84,-233.97 1032.05,-233.39"/>
<polygon fill="#5f6368" stroke="#5f6368" points="1032.93,-236.78 1041.59,-230.68 1031.02,-230.04 1032.93,-236.78"/>
<text xml:space="preserve" text-anchor="start" x="890.5" y="-259.39" font-family="Helvetica,sans-Serif" font-size="9.00" fill="#1a1a2e">eth → connect</text>
</g>
<!-- ipv4&#45;&gt;arp -->
<g id="edge5" class="edge">
<title>ipv4&#45;&gt;arp</title>
<path fill="none" stroke="#5f6368" d="M795.62,-246.79C821.16,-240.82 855.67,-232.75 881.66,-226.67"/>
<polygon fill="#5f6368" stroke="#5f6368" points="882.17,-230.15 891.11,-224.46 880.57,-223.33 882.17,-230.15"/>
<text xml:space="preserve" text-anchor="start" x="813.25" y="-244.68" font-family="Helvetica,sans-Serif" font-size="9.00" fill="#1a1a2e">arp → connect</text>
</g>
<!-- ipv6 -->
<g id="node6" class="node">
<title>ipv6</title>
<path fill="#dcedc8" stroke="#558b2f" d="M934.75,-182C934.75,-182 904.75,-182 904.75,-182 898.75,-182 892.75,-176 892.75,-170 892.75,-170 892.75,-158 892.75,-158 892.75,-152 898.75,-146 904.75,-146 904.75,-146 934.75,-146 934.75,-146 940.75,-146 946.75,-152 946.75,-158 946.75,-158 946.75,-170 946.75,-170 946.75,-176 940.75,-182 934.75,-182"/>
<text xml:space="preserve" text-anchor="start" x="910" y="-164.55" font-family="Helvetica,sans-Serif" font-size="11.00" fill="#1a1a2e">ipv6</text>
<text xml:space="preserve" text-anchor="start" x="905.88" y="-155.45" font-family="Helvetica,sans-Serif" font-size="9.00" fill="#1a1a2e">&lt;Ipv6&gt;</text>
</g>
<!-- ipv6&#45;&gt;net -->
<g id="edge6" class="edge">
<title>ipv6&#45;&gt;net</title>
<path fill="none" stroke="#5f6368" d="M947.22,-163.83C1001.41,-163.47 1125.14,-162.66 1187.54,-162.25"/>
<polygon fill="#5f6368" stroke="#5f6368" points="1187.32,-165.75 1197.3,-162.18 1187.27,-158.75 1187.32,-165.75"/>
<text xml:space="preserve" text-anchor="start" x="1044.75" y="-165.87" font-family="Helvetica,sans-Serif" font-size="9.00" fill="#1a1a2e">net → connect</text>
</g>
<!-- ipv6&#45;&gt;eth -->
<g id="edge7" class="edge">
<title>ipv6&#45;&gt;eth</title>
<path fill="none" stroke="#5f6368" d="M946.92,-173.63C970.46,-182.28 1005.41,-195.14 1032.54,-205.12"/>
<polygon fill="#5f6368" stroke="#5f6368" points="1031.25,-208.37 1041.84,-208.54 1033.67,-201.8 1031.25,-208.37"/>
<text xml:space="preserve" text-anchor="start" x="967" y="-204.59" font-family="Helvetica,sans-Serif" font-size="9.00" fill="#1a1a2e">eth → connect</text>
</g>
<!-- ip -->
<g id="node7" class="node">
<title>ip</title>
<path fill="#dcedc8" stroke="#558b2f" d="M588.75,-236C588.75,-236 558.75,-236 558.75,-236 552.75,-236 546.75,-230 546.75,-224 546.75,-224 546.75,-212 546.75,-212 546.75,-206 552.75,-200 558.75,-200 558.75,-200 588.75,-200 588.75,-200 594.75,-200 600.75,-206 600.75,-212 600.75,-212 600.75,-224 600.75,-224 600.75,-230 594.75,-236 588.75,-236"/>
<text xml:space="preserve" text-anchor="start" x="569.62" y="-218.55" font-family="Helvetica,sans-Serif" font-size="11.00" fill="#1a1a2e">ip</text>
<text xml:space="preserve" text-anchor="start" x="564.75" y="-209.45" font-family="Helvetica,sans-Serif" font-size="9.00" fill="#1a1a2e">&lt;Ip&gt;</text>
</g>
<!-- ip&#45;&gt;ipv4 -->
<g id="edge8" class="edge">
<title>ip&#45;&gt;ipv4</title>
<path fill="none" stroke="#5f6368" d="M601.08,-223.3C630.09,-229.14 677.3,-238.65 712.46,-245.73"/>
<polygon fill="#5f6368" stroke="#5f6368" points="711.44,-249.09 721.93,-247.64 712.82,-242.23 711.44,-249.09"/>
<text xml:space="preserve" text-anchor="start" x="634.5" y="-246.77" font-family="Helvetica,sans-Serif" font-size="9.00" fill="#1a1a2e">ipv4 → connect</text>
</g>
<!-- ip&#45;&gt;ipv6 -->
<g id="edge9" class="edge">
<title>ip&#45;&gt;ipv6</title>
<path fill="none" stroke="#5f6368" d="M601.17,-213.85C661.85,-204.33 811.32,-180.86 881.38,-169.87"/>
<polygon fill="#5f6368" stroke="#5f6368" points="881.88,-173.33 891.21,-168.32 880.79,-166.42 881.88,-173.33"/>
<text xml:space="preserve" text-anchor="start" x="728" y="-197.29" font-family="Helvetica,sans-Serif" font-size="9.00" fill="#1a1a2e">ipv6 → connect</text>
</g>
<!-- icmp -->
<g id="node8" class="node">
<title>icmp</title>
<path fill="#dcedc8" stroke="#558b2f" d="M509.25,-315C509.25,-315 477.5,-315 477.5,-315 471.5,-315 465.5,-309 465.5,-303 465.5,-303 465.5,-291 465.5,-291 465.5,-285 471.5,-279 477.5,-279 477.5,-279 509.25,-279 509.25,-279 515.25,-279 521.25,-285 521.25,-291 521.25,-291 521.25,-303 521.25,-303 521.25,-309 515.25,-315 509.25,-315"/>
<text xml:space="preserve" text-anchor="start" x="482.12" y="-297.55" font-family="Helvetica,sans-Serif" font-size="11.00" fill="#1a1a2e">icmp</text>
<text xml:space="preserve" text-anchor="start" x="473.5" y="-288.45" font-family="Helvetica,sans-Serif" font-size="9.00" fill="#1a1a2e">&lt;Icmpv4&gt;</text>
</g>
<!-- icmp&#45;&gt;ipv4 -->
<g id="edge10" class="edge">
<title>icmp&#45;&gt;ipv4</title>
<path fill="none" stroke="#5f6368" d="M521.65,-292.66C566.68,-285.5 657.1,-271.12 712.27,-262.35"/>
<polygon fill="#5f6368" stroke="#5f6368" points="712.65,-265.83 721.98,-260.81 711.55,-258.92 712.65,-265.83"/>
<text xml:space="preserve" text-anchor="start" x="547.12" y="-292.1" font-family="Helvetica,sans-Serif" font-size="9.00" fill="#1a1a2e">ip → connect</text>
</g>
<!-- udp -->
<g id="node9" class="node">
<title>udp</title>
<path fill="#dcedc8" stroke="#558b2f" d="M426.12,-182C426.12,-182 396.12,-182 396.12,-182 390.12,-182 384.12,-176 384.12,-170 384.12,-170 384.12,-158 384.12,-158 384.12,-152 390.12,-146 396.12,-146 396.12,-146 426.12,-146 426.12,-146 432.12,-146 438.12,-152 438.12,-158 438.12,-158 438.12,-170 438.12,-170 438.12,-176 432.12,-182 426.12,-182"/>
<text xml:space="preserve" text-anchor="start" x="402.12" y="-164.55" font-family="Helvetica,sans-Serif" font-size="11.00" fill="#1a1a2e">udp</text>
<text xml:space="preserve" text-anchor="start" x="397.25" y="-155.45" font-family="Helvetica,sans-Serif" font-size="9.00" fill="#1a1a2e">&lt;Udp&gt;</text>
</g>
<!-- udp&#45;&gt;ip -->
<g id="edge11" class="edge">
<title>udp&#45;&gt;ip</title>
<path fill="none" stroke="#5f6368" d="M438.29,-172.8C464.7,-181.67 505.72,-195.47 535.51,-205.48"/>
<polygon fill="#5f6368" stroke="#5f6368" points="534.3,-208.77 544.89,-208.64 536.53,-202.13 534.3,-208.77"/>
<text xml:space="preserve" text-anchor="start" x="466.75" y="-203.23" font-family="Helvetica,sans-Serif" font-size="9.00" fill="#1a1a2e">ip → connect</text>
</g>
<!-- tcp -->
<g id="node10" class="node">
<title>tcp</title>
<path fill="#dcedc8" stroke="#558b2f" d="M426.12,-236C426.12,-236 396.12,-236 396.12,-236 390.12,-236 384.12,-230 384.12,-224 384.12,-224 384.12,-212 384.12,-212 384.12,-206 390.12,-200 396.12,-200 396.12,-200 426.12,-200 426.12,-200 432.12,-200 438.12,-206 438.12,-212 438.12,-212 438.12,-224 438.12,-224 438.12,-230 432.12,-236 426.12,-236"/>
<text xml:space="preserve" text-anchor="start" x="404" y="-218.55" font-family="Helvetica,sans-Serif" font-size="11.00" fill="#1a1a2e">tcp</text>
<text xml:space="preserve" text-anchor="start" x="396.12" y="-209.45" font-family="Helvetica,sans-Serif" font-size="9.00" fill="#1a1a2e">&lt;Flow&gt;</text>
</g>
<!-- tcp&#45;&gt;ip -->
<g id="edge12" class="edge">
<title>tcp&#45;&gt;ip</title>
<path fill="none" stroke="#5f6368" d="M438.29,-218C464.58,-218 505.36,-218 535.12,-218"/>
<polygon fill="#5f6368" stroke="#5f6368" points="534.82,-221.5 544.82,-218 534.82,-214.5 534.82,-221.5"/>
<text xml:space="preserve" text-anchor="start" x="466.75" y="-220.7" font-family="Helvetica,sans-Serif" font-size="9.00" fill="#1a1a2e">ip → connect</text>
</g>
<!-- stack -->
<g id="node11" class="node">
<title>stack</title>
<path fill="#dcedc8" stroke="#558b2f" d="M245.75,-206C245.75,-206 177.25,-206 177.25,-206 171.25,-206 165.25,-200 165.25,-194 165.25,-194 165.25,-182 165.25,-182 165.25,-176 171.25,-170 177.25,-170 177.25,-170 245.75,-170 245.75,-170 251.75,-170 257.75,-176 257.75,-182 257.75,-182 257.75,-194 257.75,-194 257.75,-200 251.75,-206 245.75,-206"/>
<text xml:space="preserve" text-anchor="start" x="199.12" y="-188.55" font-family="Helvetica,sans-Serif" font-size="11.00" fill="#1a1a2e">stack</text>
<text xml:space="preserve" text-anchor="start" x="173.25" y="-179.45" font-family="Helvetica,sans-Serif" font-size="9.00" fill="#1a1a2e">&lt;DirectStackv4v6&gt;</text>
</g>
<!-- stack&#45;&gt;net -->
<g id="edge13" class="edge">
<title>stack&#45;&gt;net</title>
<path fill="none" stroke="#5f6368" d="M228.83,-169.73C240.6,-157.89 257.56,-143.36 275.75,-136 316.67,-119.45 330.65,-130.02 374.75,-128 421.3,-125.87 381.54,-124 841.88,-124 841.88,-124 841.88,-124 1075,-124 1114.42,-124 1157.94,-136.49 1187.9,-147.15"/>
<polygon fill="#5f6368" stroke="#5f6368" points="1186.67,-150.42 1197.26,-150.59 1189.09,-143.85 1186.67,-150.42"/>
<text xml:space="preserve" text-anchor="start" x="728" y="-126.75" font-family="Helvetica,sans-Serif" font-size="9.00" fill="#1a1a2e">netif → connect</text>
</g>
<!-- stack&#45;&gt;eth -->
<g id="edge14" class="edge">
<title>stack&#45;&gt;eth</title>
<path fill="none" stroke="#5f6368" d="M215.27,-206.16C220.83,-235.48 236.38,-292.46 275.75,-317 393.27,-390.27 890.26,-284.83 949,-272 984.08,-264.34 992.63,-260.45 1025.5,-246 1027.97,-244.91 1030.48,-243.75 1033,-242.53"/>
<polygon fill="#5f6368" stroke="#5f6368" points="1034.57,-245.65 1041.89,-238 1031.39,-239.41 1034.57,-245.65"/>
<text xml:space="preserve" text-anchor="start" x="626.25" y="-330.02" font-family="Helvetica,sans-Serif" font-size="9.00" fill="#1a1a2e">ethernet → connect</text>
</g>
<!-- stack&#45;&gt;arp -->
<g id="edge15" class="edge">
<title>stack&#45;&gt;arp</title>
<path fill="none" stroke="#5f6368" d="M256.31,-169.6C288.43,-157.26 333.46,-142.33 374.75,-137 565.95,-112.31 793.93,-176.95 881.75,-205.37"/>
<polygon fill="#5f6368" stroke="#5f6368" points="880.44,-208.62 891.04,-208.42 882.63,-201.97 880.44,-208.62"/>
<text xml:space="preserve" text-anchor="start" x="539.25" y="-144.54" font-family="Helvetica,sans-Serif" font-size="9.00" fill="#1a1a2e">arpv4 → connect</text>
</g>
<!-- stack&#45;&gt;ip -->
<g id="edge16" class="edge">
<title>stack&#45;&gt;ip</title>
<path fill="none" stroke="#5f6368" d="M240.55,-206.44C251.22,-212.78 263.7,-219.42 275.75,-224 347.63,-251.32 370.85,-251.2 447.5,-245 480.6,-242.32 488.86,-240.32 521.25,-233 525.9,-231.95 530.75,-230.72 535.53,-229.42"/>
<polygon fill="#5f6368" stroke="#5f6368" points="536.32,-232.84 544.99,-226.74 534.42,-226.1 536.32,-232.84"/>
<text xml:space="preserve" text-anchor="start" x="374.75" y="-251.08" font-family="Helvetica,sans-Serif" font-size="9.00" fill="#1a1a2e">ipv4v6 → connect</text>
</g>
<!-- stack&#45;&gt;icmp -->
<g id="edge17" class="edge">
<title>stack&#45;&gt;icmp</title>
<path fill="none" stroke="#5f6368" d="M219.86,-206.27C229.36,-227.27 248.06,-260.89 275.75,-277 331.16,-309.23 408.32,-307.51 454.03,-302.7"/>
<polygon fill="#5f6368" stroke="#5f6368" points="454.19,-306.2 463.71,-301.57 453.37,-299.25 454.19,-306.2"/>
<text xml:space="preserve" text-anchor="start" x="278.75" y="-304.92" font-family="Helvetica,sans-Serif" font-size="9.00" fill="#1a1a2e">icmpv4 → connect</text>
</g>
<!-- stack&#45;&gt;udp -->
<g id="edge18" class="edge">
<title>stack&#45;&gt;udp</title>
<path fill="none" stroke="#5f6368" d="M257.98,-177.75C263.94,-176.62 269.98,-175.58 275.75,-174.75 308.24,-170.07 345.46,-167.29 372.48,-165.73"/>
<polygon fill="#5f6368" stroke="#5f6368" points="372.45,-169.24 382.24,-165.2 372.07,-162.25 372.45,-169.24"/>
<text xml:space="preserve" text-anchor="start" x="275.75" y="-177.45" font-family="Helvetica,sans-Serif" font-size="9.00" fill="#1a1a2e">udpv4v6 → connect</text>
</g>
<!-- stack&#45;&gt;tcp -->
<g id="edge19" class="edge">
<title>stack&#45;&gt;tcp</title>
<path fill="none" stroke="#5f6368" d="M257.84,-194.88C292.55,-200.15 339.86,-207.33 372.49,-212.29"/>
<polygon fill="#5f6368" stroke="#5f6368" points="371.89,-215.74 382.3,-213.78 372.94,-208.81 371.89,-215.74"/>
<text xml:space="preserve" text-anchor="start" x="277.62" y="-211.84" font-family="Helvetica,sans-Serif" font-size="9.00" fill="#1a1a2e">tcpv4v6 → connect</text>
</g>
<!-- data -->
<g id="node12" class="node">
<title>data</title>
<path fill="#dcedc8" stroke="#558b2f" d="M226.5,-90C226.5,-90 196.5,-90 196.5,-90 190.5,-90 184.5,-84 184.5,-78 184.5,-78 184.5,-66 184.5,-66 184.5,-60 190.5,-54 196.5,-54 196.5,-54 226.5,-54 226.5,-54 232.5,-54 238.5,-60 238.5,-66 238.5,-66 238.5,-78 238.5,-78 238.5,-84 232.5,-90 226.5,-90"/>
<text xml:space="preserve" text-anchor="start" x="201" y="-72.55" font-family="Helvetica,sans-Serif" font-size="11.00" fill="#1a1a2e">data</text>
<text xml:space="preserve" text-anchor="start" x="201" y="-63.45" font-family="Helvetica,sans-Serif" font-size="9.00" fill="#1a1a2e">&lt;Kv&gt;</text>
</g>
<!-- certs -->
<g id="node13" class="node">
<title>certs</title>
<path fill="#dcedc8" stroke="#558b2f" d="M226.5,-36C226.5,-36 196.5,-36 196.5,-36 190.5,-36 184.5,-30 184.5,-24 184.5,-24 184.5,-12 184.5,-12 184.5,-6 190.5,0 196.5,0 196.5,0 226.5,0 226.5,0 232.5,0 238.5,-6 238.5,-12 238.5,-12 238.5,-24 238.5,-24 238.5,-30 232.5,-36 226.5,-36"/>
<text xml:space="preserve" text-anchor="start" x="199.88" y="-18.55" font-family="Helvetica,sans-Serif" font-size="11.00" fill="#1a1a2e">certs</text>
<text xml:space="preserve" text-anchor="start" x="201" y="-9.45" font-family="Helvetica,sans-Serif" font-size="9.00" fill="#1a1a2e">&lt;Kv&gt;</text>
</g>
<!-- dispatch -->
<g id="node14" class="node">
<title>dispatch</title>
<path fill="#dcedc8" stroke="#558b2f" d="M50.5,-90C50.5,-90 12,-90 12,-90 6,-90 0,-84 0,-78 0,-78 0,-66 0,-66 0,-60 6,-54 12,-54 12,-54 50.5,-54 50.5,-54 56.5,-54 62.5,-60 62.5,-66 62.5,-66 62.5,-78 62.5,-78 62.5,-84 56.5,-90 50.5,-90"/>
<text xml:space="preserve" text-anchor="start" x="11.38" y="-72.55" font-family="Helvetica,sans-Serif" font-size="11.00" fill="#1a1a2e">dispatch</text>
<text xml:space="preserve" text-anchor="start" x="8" y="-63.45" font-family="Helvetica,sans-Serif" font-size="9.00" fill="#1a1a2e">&lt;Dispatch&gt;</text>
</g>
<!-- dispatch&#45;&gt;stack -->
<g id="edge22" class="edge">
<title>dispatch&#45;&gt;stack</title>
<path fill="none" stroke="#5f6368" d="M60.49,-90.38C90.78,-110.09 139.04,-141.5 172.61,-163.34"/>
<polygon fill="#5f6368" stroke="#5f6368" points="170.53,-166.17 180.82,-168.69 174.35,-160.3 170.53,-166.17"/>
<text xml:space="preserve" text-anchor="start" x="80.5" y="-146.5" font-family="Helvetica,sans-Serif" font-size="9.00" fill="#1a1a2e">stack → connect</text>
</g>
<!-- dispatch&#45;&gt;data -->
<g id="edge20" class="edge">
<title>dispatch&#45;&gt;data</title>
<path fill="none" stroke="#5f6368" d="M62.89,-72C93.3,-72 139.97,-72 172.67,-72"/>
<polygon fill="#5f6368" stroke="#5f6368" points="172.52,-75.5 182.52,-72 172.52,-68.5 172.52,-75.5"/>
<text xml:space="preserve" text-anchor="start" x="82" y="-74.7" font-family="Helvetica,sans-Serif" font-size="9.00" fill="#1a1a2e">data → connect</text>
</g>
<!-- dispatch&#45;&gt;certs -->
<g id="edge21" class="edge">
<title>dispatch&#45;&gt;certs</title>
<path fill="none" stroke="#5f6368" d="M62.86,-62.24C68.71,-60.4 74.79,-58.5 80.5,-56.75 111.68,-47.18 147.18,-36.62 173.19,-28.94"/>
<polygon fill="#5f6368" stroke="#5f6368" points="174.01,-32.35 182.62,-26.17 172.04,-25.64 174.01,-32.35"/>
<text xml:space="preserve" text-anchor="start" x="81.25" y="-59.45" font-family="Helvetica,sans-Serif" font-size="9.00" fill="#1a1a2e">certs → connect</text>
</g>
</g>
</svg>
