<?xml version="1.0" encoding="UTF-8" standalone="no"?>
<!DOCTYPE svg PUBLIC "-//W3C//DTD SVG 1.1//EN"
 "http://www.w3.org/Graphics/SVG/1.1/DTD/svg11.dtd">
<!-- Generated by graphviz version 14.1.2 (20260124.0452)
 -->
<!-- Title: StaticWebsiteWithDns Pages: 1 -->
<svg width="2027pt" height="610pt"
 viewBox="0.00 0.00 2027.00 610.00" xmlns="http://www.w3.org/2000/svg" xmlns:xlink="http://www.w3.org/1999/xlink">
<g id="graph0" class="graph" transform="scale(1 1) rotate(0) translate(28.8 581.11)">
<title>StaticWebsiteWithDns</title>
<polygon fill="white" stroke="none" points="-28.8,28.8 -28.8,-581.11 1998.05,-581.11 1998.05,28.8 -28.8,28.8"/>
<g id="clust1" class="cluster">
<title>cluster_TcpipStack</title>
<path fill="#f8f9fa" stroke="#5f6368" d="M690,-288.31C690,-288.31 1949.25,-288.31 1949.25,-288.31 1955.25,-288.31 1961.25,-294.31 1961.25,-300.31 1961.25,-300.31 1961.25,-532.31 1961.25,-532.31 1961.25,-538.31 1955.25,-544.31 1949.25,-544.31 1949.25,-544.31 690,-544.31 690,-544.31 684,-544.31 678,-538.31 678,-532.31 678,-532.31 678,-300.31 678,-300.31 678,-294.31 684,-288.31 690,-288.31"/>
<text xml:space="preserve" text-anchor="middle" x="1319.62" y="-527.01" font-family="Helvetica,sans-Serif" font-size="14.00">TcpipStack</text>
</g>
<g id="clust2" class="cluster">
<title>cluster_DnsStack</title>
<path fill="#f8f9fa" stroke="#5f6368" d="M204.75,-297.31C204.75,-297.31 579.25,-297.31 579.25,-297.31 585.25,-297.31 591.25,-303.31 591.25,-309.31 591.25,-309.31 591.25,-360.31 591.25,-360.31 591.25,-366.31 585.25,-372.31 579.25,-372.31 579.25,-372.31 204.75,-372.31 204.75,-372.31 198.75,-372.31 192.75,-366.31 192.75,-360.31 192.75,-360.31 192.75,-309.31 192.75,-309.31 192.75,-303.31 198.75,-297.31 204.75,-297.31"/>
<text xml:space="preserve" text-anchor="middle" x="392" y="-355.01" font-family="Helvetica,sans-Serif" font-size="14.00">DnsStack</text>
</g>
<!-- backend -->
<g id="node1" class="node">
<title>backend</title>
<path fill="#dcedc8" stroke="#558b2f" d="M1941.25,-370.31C1941.25,-370.31 1902.75,-370.31 1902.75,-370.31 1896.75,-370.31 1890.75,-364.31 1890.75,-358.31 1890.75,-358.31 1890.75,-346.31 1890.75,-346.31 1890.75,-340.31 1896.75,-334.31 1902.75,-334.31 1902.75,-334.31 1941.25,-334.31 1941.25,-334.31 1947.25,-334.31 1953.25,-340.31 1953.25,-346.31 1953.25,-346.31 1953.25,-358.31 1953.25,-358.31 1953.25,-364.31 1947.25,-370.31 1941.25,-370.31"/>
<text xml:space="preserve" text-anchor="start" x="1901.75" y="-352.86" font-family="Helvetica,sans-Serif" font-size="11.00" fill="#1a1a2e">backend</text>
<text xml:space="preserve" text-anchor="start" x="1898.75" y="-343.76" font-family="Helvetica,sans-Serif" font-size="9.00" fill="#1a1a2e">&lt;Backend&gt;</text>
</g>
<!-- net -->
<g id="node2" class="node">
<title>net</title>
<path fill="#dcedc8" stroke="#558b2f" d="M1761.75,-370.31C1761.75,-370.31 1731.75,-370.31 1731.75,-370.31 1725.75,-370.31 1719.75,-364.31 1719.75,-358.31 1719.75,-358.31 1719.75,-346.31 1719.75,-346.31 1719.75,-340.31 1725.75,-334.31 1731.75,-334.31 1731.75,-334.31 1761.75,-334.31 1761.75,-334.31 1767.75,-334.31 1773.75,-340.31 1773.75,-346.31 1773.75,-346.31 1773.75,-358.31 1773.75,-358.31 1773.75,-364.31 1767.75,-370.31 1761.75,-370.31"/>
<text xml:space="preserve" text-anchor="start" x="1739.25" y="-352.86" font-family="Helvetica,sans-Serif" font-size="11.00" fill="#1a1a2e">net</text>
<text xml:space="preserve" text-anchor="start" x="1729.88" y="-343.76" font-family="Helvetica,sans-Serif" font-size="9.00" fill="#1a1a2e">&lt;Vnetif&gt;</text>
</g>
<!-- net&#45;&gt;backend -->
<g id="edge1" class="edge">
<title>net&#45;&gt;backend</title>
<path fill="none" stroke="#5f6368" d="M1774.06,-352.31C1801.88,-352.31 1846.18,-352.31 1878.87,-352.31"/>
<polygon fill="#5f6368" stroke="#5f6368" points="1878.83,-355.81 1888.83,-352.31 1878.83,-348.81 1878.83,-355.81"/>
<text xml:space="preserve" text-anchor="start" x="1791.75" y="-355.01" font-family="Helvetica,sans-Serif" font-size="9.00" fill="#1a1a2e">backend → connect</text>
</g>
<!-- eth -->
<g id="node3" class="node">
<title>eth</title>
<path fill="#dcedc8" stroke="#558b2f" d="M1613.25,-428.31C1613.25,-428.31 1576.25,-428.31 1576.25,-428.31 1570.25,-428.31 1564.25,-422.31 1564.25,-416.31 1564.25,-416.31 1564.25,-404.31 1564.25,-404.31 1564.25,-398.31 1570.25,-392.31 1576.25,-392.31 1576.25,-392.31 1613.25,-392.31 1613.25,-392.31 1619.25,-392.31 1625.25,-398.31 1625.25,-404.31 1625.25,-404.31 1625.25,-416.31 1625.25,-416.31 1625.25,-422.31 1619.25,-428.31 1613.25,-428.31"/>
<text xml:space="preserve" text-anchor="start" x="1587.25" y="-410.86" font-family="Helvetica,sans-Serif" font-size="11.00" fill="#1a1a2e">eth</text>
<text xml:space="preserve" text-anchor="start" x="1572.25" y="-401.76" font-family="Helvetica,sans-Serif" font-size="9.00" fill="#1a1a2e">&lt;Ethernet&gt;</text>
</g>
<!-- eth&#45;&gt;net -->
<g id="edge2" class="edge">
<title>eth&#45;&gt;net</title>
<path fill="none" stroke="#5f6368" d="M1625.74,-398.71C1649.68,-389.45 1683.33,-376.44 1708.91,-366.55"/>
<polygon fill="#5f6368" stroke="#5f6368" points="1709.84,-369.94 1717.91,-363.07 1707.32,-363.41 1709.84,-369.94"/>
<text xml:space="preserve" text-anchor="start" x="1643.25" y="-394.25" font-family="Helvetica,sans-Serif" font-size="9.00" fill="#1a1a2e">net → connect</text>
</g>
<!-- arp -->
<g id="node4" class="node">
<title>arp</title>
<path fill="#dcedc8" stroke="#558b2f" d="M1455.5,-426.31C1455.5,-426.31 1425.5,-426.31 1425.5,-426.31 1419.5,-426.31 1413.5,-420.31 1413.5,-414.31 1413.5,-414.31 1413.5,-402.31 1413.5,-402.31 1413.5,-396.31 1419.5,-390.31 1425.5,-390.31 1425.5,-390.31 1455.5,-390.31 1455.5,-390.31 1461.5,-390.31 1467.5,-396.31 1467.5,-402.31 1467.5,-402.31 1467.5,-414.31 1467.5,-414.31 1467.5,-420.31 1461.5,-426.31 1455.5,-426.31"/>
<text xml:space="preserve" text-anchor="start" x="1432.62" y="-408.86" font-family="Helvetica,sans-Serif" font-size="11.00" fill="#1a1a2e">arp</text>
<text xml:space="preserve" text-anchor="start" x="1428.12" y="-399.76" font-family="Helvetica,sans-Serif" font-size="9.00" fill="#1a1a2e">&lt;Arp&gt;</text>
</g>
<!-- arp&#45;&gt;eth -->
<g id="edge3" class="edge">
<title>arp&#45;&gt;eth</title>
<path fill="none" stroke="#5f6368" d="M1467.67,-408.65C1491,-408.96 1525.54,-409.41 1552.57,-409.77"/>
<polygon fill="#5f6368" stroke="#5f6368" points="1552.45,-413.27 1562.5,-409.9 1552.55,-406.27 1552.45,-413.27"/>
<text xml:space="preserve" text-anchor="start" x="1487.75" y="-412.36" font-family="Helvetica,sans-Serif" font-size="9.00" fill="#1a1a2e">eth → connect</text>
</g>
<!-- ipv4 -->
<g id="node5" class="node">
<title>ipv4</title>
<path fill="#dcedc8" stroke="#558b2f" d="M1304,-463.31C1304,-463.31 1256.5,-463.31 1256.5,-463.31 1250.5,-463.31 1244.5,-457.31 1244.5,-451.31 1244.5,-451.31 1244.5,-439.31 1244.5,-439.31 1244.5,-433.31 1250.5,-427.31 1256.5,-427.31 1256.5,-427.31 1304,-427.31 1304,-427.31 1310,-427.31 1316,-433.31 1316,-439.31 1316,-439.31 1316,-451.31 1316,-451.31 1316,-457.31 1310,-463.31 1304,-463.31"/>
<text xml:space="preserve" text-anchor="start" x="1270.5" y="-445.86" font-family="Helvetica,sans-Serif" font-size="11.00" fill="#1a1a2e">ipv4</text>
<text xml:space="preserve" text-anchor="start" x="1252.5" y="-436.76" font-family="Helvetica,sans-Serif" font-size="9.00" fill="#1a1a2e">&lt;Static_ipv4&gt;</text>
</g>
<!-- ipv4&#45;&gt;eth -->
<g id="edge4" class="edge">
<title>ipv4&#45;&gt;eth</title>
<path fill="none" stroke="#5f6368" d="M1316.43,-446.83C1322.3,-447.03 1328.32,-447.2 1334,-447.31 1428.82,-449.1 1453.79,-446.41 1546.25,-425.31 1548.4,-424.82 1550.59,-424.28 1552.8,-423.7"/>
<polygon fill="#5f6368" stroke="#5f6368" points="1553.68,-427.09 1562.34,-420.99 1551.77,-420.35 1553.68,-427.09"/>
<text xml:space="preserve" text-anchor="start" x="1411.25" y="-449.7" font-family="Helvetica,sans-Serif" font-size="9.00" fill="#1a1a2e">eth → connect</text>
</g>
<!-- ipv4&#45;&gt;arp -->
<g id="edge5" class="edge">
<title>ipv4&#45;&gt;arp</title>
<path fill="none" stroke="#5f6368" d="M1316.37,-437.1C1341.91,-431.12 1376.42,-423.06 1402.41,-416.98"/>
<polygon fill="#5f6368" stroke="#5f6368" points="1402.92,-420.46 1411.86,-414.77 1401.32,-413.64 1402.92,-420.46"/>
<text xml:space="preserve" text-anchor="start" x="1334" y="-434.98" font-family="Helvetica,sans-Serif" font-size="9.00" fill="#1a1a2e">arp → connect</text>
</g>
<!-- ipv6 -->
<g id="node6" class="node">
<title>ipv6</title>
<path fill="#dcedc8" stroke="#558b2f" d="M1455.5,-372.31C1455.5,-372.31 1425.5,-372.31 1425.5,-372.31 1419.5,-372.31 1413.5,-366.31 1413.5,-360.31 1413.5,-360.31 1413.5,-348.31 1413.5,-348.31 1413.5,-342.31 1419.5,-336.31 1425.5,-336.31 1425.5,-336.31 1455.5,-336.31 1455.5,-336.31 1461.5,-336.31 1467.5,-342.31 1467.5,-348.31 1467.5,-348.31 1467.5,-360.31 1467.5,-360.31 1467.5,-366.31 1461.5,-372.31 1455.5,-372.31"/>
<text xml:space="preserve" text-anchor="start" x="1430.75" y="-354.86" font-family="Helvetica,sans-Serif" font-size="11.00" fill="#1a1a2e">ipv6</text>
<text xml:space="preserve" text-anchor="start" x="1426.62" y="-345.76" font-family="Helvetica,sans-Serif" font-size="9.00" fill="#1a1a2e">&lt;Ipv6&gt;</text>
</g>
<!-- ipv6&#45;&gt;net -->
<g id="edge6" class="edge">
<title>ipv6&#45;&gt;net</title>
<path fill="none" stroke="#5f6368" d="M1467.97,-354.13C1522.16,-353.78 1645.89,-352.96 1708.29,-352.55"/>
<polygon fill="#5f6368" stroke="#5f6368" points="1708.07,-356.06 1718.05,-352.49 1708.02,-349.06 1708.07,-356.06"/>
<text xml:space="preserve" text-anchor="start" x="1565.5" y="-356.17" font-family="Helvetica,sans-Serif" font-size="9.00" fill="#1a1a2e">net → connect</text>
</g>
<!-- ipv6&#45;&gt;eth -->
<g id="edge7" class="edge">
<title>ipv6&#45;&gt;eth</title>
<path fill="none" stroke="#5f6368" d="M1467.67,-363.93C1491.21,-372.59 1526.16,-385.45 1553.29,-395.43"/>
<polygon fill="#5f6368" stroke="#5f6368" points="1552,-398.68 1562.59,-398.85 1554.42,-392.11 1552,-398.68"/>
<text xml:space="preserve" text-anchor="start" x="1487.75" y="-394.89" font-family="Helvetica,sans-Serif" font-size="9.00" fill="#1a1a2e">eth → connect</text>
</g>
<!-- ip -->
<g id="node7" class="node">
<title>ip</title>
<path fill="#dcedc8" stroke="#558b2f" d="M1109.5,-426.31C1109.5,-426.31 1079.5,-426.31 1079.5,-426.31 1073.5,-426.31 1067.5,-420.31 1067.5,-414.31 1067.5,-414.31 1067.5,-402.31 1067.5,-402.31 1067.5,-396.31 1073.5,-390.31 1079.5,-390.31 1079.5,-390.31 1109.5,-390.31 1109.5,-390.31 1115.5,-390.31 1121.5,-396.31 1121.5,-402.31 1121.5,-402.31 1121.5,-414.31 1121.5,-414.31 1121.5,-420.31 1115.5,-426.31 1109.5,-426.31"/>
<text xml:space="preserve" text-anchor="start" x="1090.38" y="-408.86" font-family="Helvetica,sans-Serif" font-size="11.00" fill="#1a1a2e">ip</text>
<text xml:space="preserve" text-anchor="start" x="1085.5" y="-399.76" font-family="Helvetica,sans-Serif" font-size="9.00" fill="#1a1a2e">&lt;Ip&gt;</text>
</g>
<!-- ip&#45;&gt;ipv4 -->
<g id="edge8" class="edge">
<title>ip&#45;&gt;ipv4</title>
<path fill="none" stroke="#5f6368" d="M1121.83,-413.61C1150.84,-419.45 1198.05,-428.96 1233.21,-436.04"/>
<polygon fill="#5f6368" stroke="#5f6368" points="1232.19,-439.4 1242.68,-437.94 1233.57,-432.54 1232.19,-439.4"/>
<text xml:space="preserve" text-anchor="start" x="1155.25" y="-437.07" font-family="Helvetica,sans-Serif" font-size="9.00" fill="#1a1a2e">ipv4 → connect</text>
</g>
<!-- ip&#45;&gt;ipv6 -->
<g id="edge9" class="edge">
<title>ip&#45;&gt;ipv6</title>
<path fill="none" stroke="#5f6368" d="M1121.92,-404.16C1182.6,-394.63 1332.07,-371.17 1402.13,-360.17"/>
<polygon fill="#5f6368" stroke="#5f6368" points="1402.63,-363.64 1411.96,-358.63 1401.54,-356.72 1402.63,-363.64"/>
<text xml:space="preserve" text-anchor="start" x="1248.75" y="-387.6" font-family="Helvetica,sans-Serif" font-size="9.00" fill="#1a1a2e">ipv6 → connect</text>
</g>
<!-- icmp -->
<g id="node8" class="node">
<title>icmp</title>
<path fill="#dcedc8" stroke="#558b2f" d="M1030,-505.31C1030,-505.31 998.25,-505.31 998.25,-505.31 992.25,-505.31 986.25,-499.31 986.25,-493.31 986.25,-493.31 986.25,-481.31 986.25,-481.31 986.25,-475.31 992.25,-469.31 998.25,-469.31 998.25,-469.31 1030,-469.31 1030,-469.31 1036,-469.31 1042,-475.31 1042,-481.31 1042,-481.31 1042,-493.31 1042,-493.31 1042,-499.31 1036,-505.31 1030,-505.31"/>
<text xml:space="preserve" text-anchor="start" x="1002.88" y="-487.86" font-family="Helvetica,sans-Serif" font-size="11.00" fill="#1a1a2e">icmp</text>
<text xml:space="preserve" text-anchor="start" x="994.25" y="-478.76" font-family="Helvetica,sans-Serif" font-size="9.00" fill="#1a1a2e">&lt;Icmpv4&gt;</text>
</g>
<!-- icmp&#45;&gt;ipv4 -->
<g id="edge10" class="edge">
<title>icmp&#45;&gt;ipv4</title>
<path fill="none" stroke="#5f6368" d="M1042.4,-482.97C1087.43,-475.81 1177.85,-461.43 1233.02,-452.66"/>
<polygon fill="#5f6368" stroke="#5f6368" points="1233.4,-456.14 1242.73,-451.12 1232.3,-449.23 1233.4,-456.14"/>
<text xml:space="preserve" text-anchor="start" x="1067.88" y="-482.4" font-family="Helvetica,sans-Serif" font-size="9.00" fill="#1a1a2e">ip → connect</text>
</g>
<!-- udp -->
<g id="node9" class="node">
<title>udp</title>
<path fill="#dcedc8" stroke="#558b2f" d="M946.88,-372.31C946.88,-372.31 916.88,-372.31 916.88,-372.31 910.88,-372.31 904.88,-366.31 904.88,-360.31 904.88,-360.31 904.88,-348.31 904.88,-348.31 904.88,-342.31 910.88,-336.31 916.88,-336.31 916.88,-336.31 946.88,-336.31 946.88,-336.31 952.88,-336.31 958.88,-342.31 958.88,-348.31 958.88,-348.31 958.88,-360.31 958.88,-360.31 958.88,-366.31 952.88,-372.31 946.88,-372.31"/>
<text xml:space="preserve" text-anchor="start" x="922.88" y="-354.86" font-family="Helvetica,sans-Serif" font-size="11.00" fill="#1a1a2e">udp</text>
<text xml:space="preserve" text-anchor="start" x="918" y="-345.76" font-family="Helvetica,sans-Serif" font-size="9.00" fill="#1a1a2e">&lt;Udp&gt;</text>
</g>
<!-- udp&#45;&gt;ip -->
<g id="edge11" class="edge">
<title>udp&#45;&gt;ip</title>
<path fill="none" stroke="#5f6368" d="M959.04,-363.1C985.45,-371.98 1026.47,-385.77 1056.26,-395.79"/>
<polygon fill="#5f6368" stroke="#5f6368" points="1055.05,-399.07 1065.64,-398.94 1057.28,-392.44 1055.05,-399.07"/>
<text xml:space="preserve" text-anchor="start" x="987.5" y="-393.54" font-family="Helvetica,sans-Serif" font-size="9.00" fill="#1a1a2e">ip → connect</text>
</g>
<!-- tcp -->
<g id="node10" class="node">
<title>tcp</title>
<path fill="#dcedc8" stroke="#558b2f" d="M946.88,-426.31C946.88,-426.31 916.88,-426.31 916.88,-426.31 910.88,-426.31 904.88,-420.31 904.88,-414.31 904.88,-414.31 904.88,-402.31 904.88,-402.31 904.88,-396.31 910.88,-390.31 916.88,-390.31 916.88,-390.31 946.88,-390.31 946.88,-390.31 952.88,-390.31 958.88,-396.31 958.88,-402.31 958.88,-402.31 958.88,-414.31 958.88,-414.31 958.88,-420.31 952.88,-426.31 946.88,-426.31"/>
<text xml:space="preserve" text-anchor="start" x="924.75" y="-408.86" font-family="Helvetica,sans-Serif" font-size="11.00" fill="#1a1a2e">tcp</text>
<text xml:space="preserve" text-anchor="start" x="916.88" y="-399.76" font-family="Helvetica,sans-Serif" font-size="9.00" fill="#1a1a2e">&lt;Flow&gt;</text>
</g>
<!-- tcp&#45;&gt;ip -->
<g id="edge12" class="edge">
<title>tcp&#45;&gt;ip</title>
<path fill="none" stroke="#5f6368" d="M959.04,-408.31C985.33,-408.31 1026.11,-408.31 1055.87,-408.31"/>
<polygon fill="#5f6368" stroke="#5f6368" points="1055.57,-411.81 1065.57,-408.31 1055.57,-404.81 1055.57,-411.81"/>
<text xml:space="preserve" text-anchor="start" x="987.5" y="-411.01" font-family="Helvetica,sans-Serif" font-size="9.00" fill="#1a1a2e">ip → connect</text>
</g>
<!-- stack -->
<g id="node11" class="node">
<title>stack</title>
<path fill="#dcedc8" stroke="#558b2f" d="M766.5,-386.31C766.5,-386.31 698,-386.31 698,-386.31 692,-386.31 686,-380.31 686,-374.31 686,-374.31 686,-362.31 686,-362.31 686,-356.31 692,-350.31 698,-350.31 698,-350.31 766.5,-350.31 766.5,-350.31 772.5,-350.31 778.5,-356.31 778.5,-362.31 778.5,-362.31 778.5,-374.31 778.5,-374.31 778.5,-380.31 772.5,-386.31 766.5,-386.31"/>
<text xml:space="preserve" text-anchor="start" x="719.88" y="-368.86" font-family="Helvetica,sans-Serif" font-size="11.00" fill="#1a1a2e">stack</text>
<text xml:space="preserve" text-anchor="start" x="694" y="-359.76" font-family="Helvetica,sans-Serif" font-size="9.00" fill="#1a1a2e">&lt;DirectStackv4v6&gt;</text>
</g>
<!-- stack&#45;&gt;net -->
<g id="edge13" class="edge">
<title>stack&#45;&gt;net</title>
<path fill="none" stroke="#5f6368" d="M754.87,-349.88C766.45,-341.12 781.4,-331.45 796.5,-326.31 838.25,-312.08 851.43,-321.1 895.5,-319.31 1102.95,-310.87 1155,-314.31 1362.62,-314.31 1362.62,-314.31 1362.62,-314.31 1595.75,-314.31 1635.17,-314.31 1678.69,-326.79 1708.65,-337.45"/>
<polygon fill="#5f6368" stroke="#5f6368" points="1707.42,-340.73 1718.01,-340.9 1709.84,-334.16 1707.42,-340.73"/>
<text xml:space="preserve" text-anchor="start" x="1248.75" y="-316.95" font-family="Helvetica,sans-Serif" font-size="9.00" fill="#1a1a2e">netif → connect</text>
</g>
<!-- stack&#45;&gt;eth -->
<g id="edge14" class="edge">
<title>stack&#45;&gt;eth</title>
<path fill="none" stroke="#5f6368" d="M735.32,-386.31C739.97,-417.35 754.36,-480.19 796.5,-507.31 910.8,-580.87 1405.12,-476.43 1469.75,-462.31 1504.83,-454.64 1513.38,-450.76 1546.25,-436.31 1548.72,-435.22 1551.23,-434.05 1553.75,-432.83"/>
<polygon fill="#5f6368" stroke="#5f6368" points="1555.32,-435.96 1562.64,-428.3 1552.14,-429.72 1555.32,-435.96"/>
<text xml:space="preserve" text-anchor="start" x="1147" y="-520.92" font-family="Helvetica,sans-Serif" font-size="9.00" fill="#1a1a2e">ethernet → connect</text>
</g>
<!-- stack&#45;&gt;arp -->
<g id="edge15" class="edge">
<title>stack&#45;&gt;arp</title>
<path fill="none" stroke="#5f6368" d="M778.83,-353.57C811.03,-343.95 855.42,-332.29 895.5,-327.31 1027.84,-310.84 1231.91,-352.32 1316,-370.31 1345.54,-376.63 1378.18,-386.81 1402.48,-395.05"/>
<polygon fill="#5f6368" stroke="#5f6368" points="1401.33,-398.36 1411.92,-398.3 1403.61,-391.74 1401.33,-398.36"/>
<text xml:space="preserve" text-anchor="start" x="1060" y="-338.96" font-family="Helvetica,sans-Serif" font-size="9.00" fill="#1a1a2e">arpv4 → connect</text>
</g>
<!-- stack&#45;&gt;ip -->
<g id="edge16" class="edge">
<title>stack&#45;&gt;ip</title>
<path fill="none" stroke="#5f6368" d="M756.09,-386.78C767.62,-395.32 782.18,-404.96 796.5,-411.31 837.89,-429.66 850.55,-429.94 895.5,-435.31 960.37,-443.06 978.28,-437.71 1042,-423.31 1046.65,-422.26 1051.5,-421.03 1056.28,-419.73"/>
<polygon fill="#5f6368" stroke="#5f6368" points="1057.07,-423.14 1065.74,-417.05 1055.17,-416.41 1057.07,-423.14"/>
<text xml:space="preserve" text-anchor="start" x="895.5" y="-441.56" font-family="Helvetica,sans-Serif" font-size="9.00" fill="#1a1a2e">ipv4v6 → connect</text>
</g>
<!-- stack&#45;&gt;icmp -->
<g id="edge17" class="edge">
<title>stack&#45;&gt;icmp</title>
<path fill="none" stroke="#5f6368" d="M739.26,-386.55C747.92,-409.66 766.27,-448.71 796.5,-467.31 851.1,-500.89 928.52,-498.74 974.5,-493.47"/>
<polygon fill="#5f6368" stroke="#5f6368" points="974.78,-496.96 984.26,-492.23 973.9,-490.02 974.78,-496.96"/>
<text xml:space="preserve" text-anchor="start" x="799.5" y="-496.13" font-family="Helvetica,sans-Serif" font-size="9.00" fill="#1a1a2e">icmpv4 → connect</text>
</g>
<!-- stack&#45;&gt;udp -->
<g id="edge18" class="edge">
<title>stack&#45;&gt;udp</title>
<path fill="none" stroke="#5f6368" d="M778.59,-365.1C813.3,-362.64 860.61,-359.29 893.24,-356.97"/>
<polygon fill="#5f6368" stroke="#5f6368" points="893.31,-360.48 903.04,-356.28 892.82,-353.5 893.31,-360.48"/>
<text xml:space="preserve" text-anchor="start" x="796.5" y="-366.48" font-family="Helvetica,sans-Serif" font-size="9.00" fill="#1a1a2e">udpv4v6 → connect</text>
</g>
<!-- stack&#45;&gt;tcp -->
<g id="edge19" class="edge">
<title>stack&#45;&gt;tcp</title>
<path fill="none" stroke="#5f6368" d="M778.59,-377.48C813.45,-384.54 861.02,-394.17 893.67,-400.78"/>
<polygon fill="#5f6368" stroke="#5f6368" points="892.57,-404.13 903.06,-402.68 893.96,-397.26 892.57,-404.13"/>
<text xml:space="preserve" text-anchor="start" x="798.38" y="-399.19" font-family="Helvetica,sans-Serif" font-size="9.00" fill="#1a1a2e">tcpv4v6 → connect</text>
</g>
<!-- happy_eyeballs -->
<g id="node12" class="node">
<title>happy_eyeballs</title>
<path fill="#dcedc8" stroke="#558b2f" d="M571.25,-341.31C571.25,-341.31 468.25,-341.31 468.25,-341.31 462.25,-341.31 456.25,-335.31 456.25,-329.31 456.25,-329.31 456.25,-317.31 456.25,-317.31 456.25,-311.31 462.25,-305.31 468.25,-305.31 468.25,-305.31 571.25,-305.31 571.25,-305.31 577.25,-305.31 583.25,-311.31 583.25,-317.31 583.25,-317.31 583.25,-329.31 583.25,-329.31 583.25,-335.31 577.25,-341.31 571.25,-341.31"/>
<text xml:space="preserve" text-anchor="start" x="482.62" y="-323.86" font-family="Helvetica,sans-Serif" font-size="11.00" fill="#1a1a2e">happy_eyeballs</text>
<text xml:space="preserve" text-anchor="start" x="464.25" y="-314.76" font-family="Helvetica,sans-Serif" font-size="9.00" fill="#1a1a2e">&lt;Happy_eyeballs_mirage&gt;</text>
</g>
<!-- happy_eyeballs&#45;&gt;stack -->
<g id="edge31" class="edge">
<title>happy_eyeballs&#45;&gt;stack</title>
<path fill="none" stroke="#5f6368" d="M583.62,-334.74C609.78,-339.72 640.43,-345.83 668,-352.06 670.16,-352.54 672.35,-353.05 674.57,-353.57"/>
<polygon fill="#5f6368" stroke="#5f6368" points="673.71,-356.97 684.25,-355.92 675.36,-350.16 673.71,-356.97"/>
<text xml:space="preserve" text-anchor="start" x="601.25" y="-354.76" font-family="Helvetica,sans-Serif" font-size="9.00" fill="#1a1a2e">stack → connect</text>
</g>
<!-- dns_client -->
<g id="node13" class="node">
<title>dns_client</title>
<path fill="#dcedc8" stroke="#558b2f" d="M292.5,-341.31C292.5,-341.31 212.75,-341.31 212.75,-341.31 206.75,-341.31 200.75,-335.31 200.75,-329.31 200.75,-329.31 200.75,-317.31 200.75,-317.31 200.75,-311.31 206.75,-305.31 212.75,-305.31 212.75,-305.31 292.5,-305.31 292.5,-305.31 298.5,-305.31 304.5,-311.31 304.5,-317.31 304.5,-317.31 304.5,-329.31 304.5,-329.31 304.5,-335.31 298.5,-341.31 292.5,-341.31"/>
<text xml:space="preserve" text-anchor="start" x="228.62" y="-323.86" font-family="Helvetica,sans-Serif" font-size="11.00" fill="#1a1a2e">dns_client</text>
<text xml:space="preserve" text-anchor="start" x="208.75" y="-314.76" font-family="Helvetica,sans-Serif" font-size="9.00" fill="#1a1a2e">&lt;Dns_client_mirage&gt;</text>
</g>
<!-- dns_client&#45;&gt;stack -->
<g id="edge24" class="edge">
<title>dns_client&#45;&gt;stack</title>
<path fill="none" stroke="#5f6368" d="M304.99,-334.51C312.44,-335.92 320.02,-337.24 327.25,-338.31 448.22,-356.2 479.22,-355.5 601.25,-363.31 625.26,-364.84 651.79,-365.97 674.59,-366.76"/>
<polygon fill="#5f6368" stroke="#5f6368" points="674.17,-370.24 684.29,-367.08 674.41,-363.25 674.17,-370.24"/>
<text xml:space="preserve" text-anchor="start" x="486.38" y="-365.25" font-family="Helvetica,sans-Serif" font-size="9.00" fill="#1a1a2e">stack → connect</text>
</g>
<!-- dns_client&#45;&gt;happy_eyeballs -->
<g id="edge20" class="edge">
<title>dns_client&#45;&gt;happy_eyeballs</title>
<path fill="none" stroke="#5f6368" d="M304.74,-323.31C344.47,-323.31 400.13,-323.31 444.73,-323.31"/>
<polygon fill="#5f6368" stroke="#5f6368" points="444.59,-326.81 454.59,-323.31 444.59,-319.81 444.59,-326.81"/>
<text xml:space="preserve" text-anchor="start" x="327.25" y="-326.01" font-family="Helvetica,sans-Serif" font-size="9.00" fill="#1a1a2e">happy_eyeballs → connect</text>
</g>
<!-- runtime -->
<g id="node14" class="node">
<title>runtime</title>
<path fill="#e8f0fe" stroke="#4285f4" d="M49,-247.31C49,-247.31 12,-247.31 12,-247.31 6,-247.31 0,-241.31 0,-235.31 0,-235.31 0,-223.31 0,-223.31 0,-217.31 6,-211.31 12,-211.31 12,-211.31 49,-211.31 49,-211.31 55,-211.31 61,-217.31 61,-223.31 61,-223.31 61,-235.31 61,-235.31 61,-241.31 55,-247.31 49,-247.31"/>
<text xml:space="preserve" text-anchor="start" x="12.5" y="-229.86" font-family="Helvetica,sans-Serif" font-size="11.00" fill="#1a1a2e">runtime</text>
<text xml:space="preserve" text-anchor="start" x="8" y="-220.76" font-family="Helvetica,sans-Serif" font-size="9.00" fill="#1a1a2e">&lt;Runtime&gt;</text>
</g>
<!-- runtime&#45;&gt;happy_eyeballs -->
<g id="edge25" class="edge">
<title>runtime&#45;&gt;happy_eyeballs</title>
<path fill="none" stroke="#5f6368" d="M34.11,-211.17C38.64,-186.69 50.4,-143.59 79,-121.31 141.97,-72.23 382.98,-63.7 438.25,-121.31 464.24,-148.4 435.37,-258.1 456.25,-289.31 458.31,-292.39 460.75,-295.21 463.44,-297.8"/>
<polygon fill="#5f6368" stroke="#5f6368" points="461.03,-300.35 471.01,-303.92 465.43,-294.91 461.03,-300.35"/>
<text xml:space="preserve" text-anchor="start" x="201.62" y="-88.19" font-family="Helvetica,sans-Serif" font-size="9.00" fill="#1a1a2e">aaaa_timeout → connect</text>
</g>
<!-- runtime&#45;&gt;happy_eyeballs -->
<g id="edge26" class="edge">
<title>runtime&#45;&gt;happy_eyeballs</title>
<path fill="none" stroke="#5f6368" d="M31.76,-210.89C33.26,-179.69 41.12,-116.64 79,-84.31 200.44,19.37 326.71,33.95 438.25,-80.31 470.81,-113.67 430.73,-250.3 456.25,-289.31 458.28,-292.41 460.69,-295.25 463.37,-297.85"/>
<polygon fill="#5f6368" stroke="#5f6368" points="460.94,-300.39 470.9,-303.99 465.36,-294.96 460.94,-300.39"/>
<text xml:space="preserve" text-anchor="start" x="199.75" y="-17.31" font-family="Helvetica,sans-Serif" font-size="9.00" fill="#1a1a2e">connect_delay → connect</text>
</g>
<!-- runtime&#45;&gt;happy_eyeballs -->
<g id="edge27" class="edge">
<title>runtime&#45;&gt;happy_eyeballs</title>
<path fill="none" stroke="#5f6368" d="M61.3,-237.88C67.15,-239.44 73.25,-240.99 79,-242.31 87.91,-244.34 321.8,-287.24 444.76,-309.76"/>
<polygon fill="#5f6368" stroke="#5f6368" points="443.98,-313.18 454.45,-311.54 445.24,-306.29 443.98,-313.18"/>
<text xml:space="preserve" text-anchor="start" x="196" y="-286.55" font-family="Helvetica,sans-Serif" font-size="9.00" fill="#1a1a2e">connect_timeout → connect</text>
</g>
<!-- runtime&#45;&gt;happy_eyeballs -->
<g id="edge28" class="edge">
<title>runtime&#45;&gt;happy_eyeballs</title>
<path fill="none" stroke="#5f6368" d="M61.34,-229.45C112.47,-230.14 219.95,-233.5 309.25,-249.06 367.92,-259.28 382.46,-264.47 438.25,-285.31 449.78,-289.61 461.92,-294.92 473.18,-300.18"/>
<polygon fill="#5f6368" stroke="#5f6368" points="471.34,-303.18 481.87,-304.32 474.35,-296.86 471.34,-303.18"/>
<text xml:space="preserve" text-anchor="start" x="197.12" y="-251.76" font-family="Helvetica,sans-Serif" font-size="9.00" fill="#1a1a2e">resolve_timeout → connect</text>
</g>
<!-- runtime&#45;&gt;happy_eyeballs -->
<g id="edge29" class="edge">
<title>runtime&#45;&gt;happy_eyeballs</title>
<path fill="none" stroke="#5f6368" d="M61.49,-219.95C135.11,-199.01 326.83,-157.03 438.25,-248.31 453.64,-260.92 442.79,-274.65 456.25,-289.31 459.27,-292.59 462.67,-295.62 466.3,-298.41"/>
<polygon fill="#5f6368" stroke="#5f6368" points="464.21,-301.22 474.44,-303.99 468.17,-295.45 464.21,-301.22"/>
<text xml:space="preserve" text-anchor="start" x="199.38" y="-198.33" font-family="Helvetica,sans-Serif" font-size="9.00" fill="#1a1a2e">resolve_retries → connect</text>
</g>
<!-- runtime&#45;&gt;happy_eyeballs -->
<g id="edge30" class="edge">
<title>runtime&#45;&gt;happy_eyeballs</title>
<path fill="none" stroke="#5f6368" d="M50.33,-210.89C58.51,-203.95 68.59,-196.68 79,-192.31 226.22,-130.49 322.63,-85.18 438.25,-195.31 469.05,-224.65 431.16,-254.96 456.25,-289.31 458.58,-292.5 461.3,-295.42 464.28,-298.09"/>
<polygon fill="#5f6368" stroke="#5f6368" points="461.99,-300.75 472.05,-304.06 466.25,-295.19 461.99,-300.75"/>
<text xml:space="preserve" text-anchor="start" x="202" y="-148.92" font-family="Helvetica,sans-Serif" font-size="9.00" fill="#1a1a2e">timer_interval → connect</text>
</g>
<!-- runtime&#45;&gt;dns_client -->
<g id="edge21" class="edge">
<title>runtime&#45;&gt;dns_client</title>
<path fill="none" stroke="#5f6368" d="M33.65,-247.4C37.68,-272.17 48.87,-315.79 79,-335.31 111.65,-356.45 155.44,-353.14 190.74,-344.7"/>
<polygon fill="#5f6368" stroke="#5f6368" points="191.61,-348.09 200.41,-342.18 189.85,-341.31 191.61,-348.09"/>
<text xml:space="preserve" text-anchor="start" x="79" y="-353.92" font-family="Helvetica,sans-Serif" font-size="9.00" fill="#1a1a2e">nameservers → connect</text>
</g>
<!-- runtime&#45;&gt;dns_client -->
<g id="edge22" class="edge">
<title>runtime&#45;&gt;dns_client</title>
<path fill="none" stroke="#5f6368" d="M38.36,-247.7C45.7,-264.61 59.05,-288.87 79,-301.31 97.09,-312.58 147.66,-318.11 189.42,-320.8"/>
<polygon fill="#5f6368" stroke="#5f6368" points="188.95,-324.28 199.14,-321.38 189.37,-317.29 188.95,-324.28"/>
<text xml:space="preserve" text-anchor="start" x="90.62" y="-322.68" font-family="Helvetica,sans-Serif" font-size="9.00" fill="#1a1a2e">timeout → connect</text>
</g>
<!-- runtime&#45;&gt;dns_client -->
<g id="edge23" class="edge">
<title>runtime&#45;&gt;dns_client</title>
<path fill="none" stroke="#5f6368" d="M49.97,-247.45C58.25,-254.64 68.49,-262.35 79,-267.31 119.66,-286.48 135.42,-273.64 178,-288.06 187.65,-291.33 197.7,-295.54 207.15,-299.91"/>
<polygon fill="#5f6368" stroke="#5f6368" points="205.61,-303.06 216.14,-304.22 208.63,-296.75 205.61,-303.06"/>
<text xml:space="preserve" text-anchor="start" x="82.38" y="-290.76" font-family="Helvetica,sans-Serif" font-size="9.00" fill="#1a1a2e">cache_size → connect</text>
</g>
<!-- data -->
<g id="node15" class="node">
<title>data</title>
<path fill="#dcedc8" stroke="#558b2f" d="M747.25,-280.31C747.25,-280.31 717.25,-280.31 717.25,-280.31 711.25,-280.31 705.25,-274.31 705.25,-268.31 705.25,-268.31 705.25,-256.31 705.25,-256.31 705.25,-250.31 711.25,-244.31 717.25,-244.31 717.25,-244.31 747.25,-244.31 747.25,-244.31 753.25,-244.31 759.25,-250.31 759.25,-256.31 759.25,-256.31 759.25,-268.31 759.25,-268.31 759.25,-274.31 753.25,-280.31 747.25,-280.31"/>
<text xml:space="preserve" text-anchor="start" x="721.75" y="-262.86" font-family="Helvetica,sans-Serif" font-size="11.00" fill="#1a1a2e">data</text>
<text xml:space="preserve" text-anchor="start" x="721.75" y="-253.76" font-family="Helvetica,sans-Serif" font-size="9.00" fill="#1a1a2e">&lt;Kv&gt;</text>
</g>
<!-- certs -->
<g id="node16" class="node">
<title>certs</title>
<path fill="#dcedc8" stroke="#558b2f" d="M747.25,-226.31C747.25,-226.31 717.25,-226.31 717.25,-226.31 711.25,-226.31 705.25,-220.31 705.25,-214.31 705.25,-214.31 705.25,-202.31 705.25,-202.31 705.25,-196.31 711.25,-190.31 717.25,-190.31 717.25,-190.31 747.25,-190.31 747.25,-190.31 753.25,-190.31 759.25,-196.31 759.25,-202.31 759.25,-202.31 759.25,-214.31 759.25,-214.31 759.25,-220.31 753.25,-226.31 747.25,-226.31"/>
<text xml:space="preserve" text-anchor="start" x="720.62" y="-208.86" font-family="Helvetica,sans-Serif" font-size="11.00" fill="#1a1a2e">certs</text>
<text xml:space="preserve" text-anchor="start" x="721.75" y="-199.76" font-family="Helvetica,sans-Serif" font-size="9.00" fill="#1a1a2e">&lt;Kv&gt;</text>
</g>
<!-- dispatch -->
<g id="node17" class="node">
<title>dispatch</title>
<path fill="#dcedc8" stroke="#558b2f" d="M539,-280.31C539,-280.31 500.5,-280.31 500.5,-280.31 494.5,-280.31 488.5,-274.31 488.5,-268.31 488.5,-268.31 488.5,-256.31 488.5,-256.31 488.5,-250.31 494.5,-244.31 500.5,-244.31 500.5,-244.31 539,-244.31 539,-244.31 545,-244.31 551,-250.31 551,-256.31 551,-256.31 551,-268.31 551,-268.31 551,-274.31 545,-280.31 539,-280.31"/>
<text xml:space="preserve" text-anchor="start" x="499.88" y="-262.86" font-family="Helvetica,sans-Serif" font-size="11.00" fill="#1a1a2e">dispatch</text>
<text xml:space="preserve" text-anchor="start" x="496.5" y="-253.76" font-family="Helvetica,sans-Serif" font-size="9.00" fill="#1a1a2e">&lt;Dispatch&gt;</text>
</g>
<!-- dispatch&#45;&gt;stack -->
<g id="edge34" class="edge">
<title>dispatch&#45;&gt;stack</title>
<path fill="none" stroke="#5f6368" d="M551.3,-272.58C581.75,-283.35 629.42,-301.67 668,-323.06 678.54,-328.9 689.42,-336.17 699.12,-343.16"/>
<polygon fill="#5f6368" stroke="#5f6368" points="697.03,-345.97 707.15,-349.09 701.19,-340.34 697.03,-345.97"/>
<text xml:space="preserve" text-anchor="start" x="601.25" y="-325.76" font-family="Helvetica,sans-Serif" font-size="9.00" fill="#1a1a2e">stack → connect</text>
</g>
<!-- dispatch&#45;&gt;data -->
<g id="edge32" class="edge">
<title>dispatch&#45;&gt;data</title>
<path fill="none" stroke="#5f6368" d="M551.36,-262.31C589.03,-262.31 652.99,-262.31 693.62,-262.31"/>
<polygon fill="#5f6368" stroke="#5f6368" points="693.42,-265.81 703.42,-262.31 693.42,-258.81 693.42,-265.81"/>
<text xml:space="preserve" text-anchor="start" x="602.75" y="-265.01" font-family="Helvetica,sans-Serif" font-size="9.00" fill="#1a1a2e">data → connect</text>
</g>
<!-- dispatch&#45;&gt;certs -->
<g id="edge33" class="edge">
<title>dispatch&#45;&gt;certs</title>
<path fill="none" stroke="#5f6368" d="M551.36,-254.46C589.11,-244.77 653.27,-228.31 693.89,-217.89"/>
<polygon fill="#5f6368" stroke="#5f6368" points="694.65,-221.31 703.46,-215.44 692.91,-214.53 694.65,-221.31"/>
<text xml:space="preserve" text-anchor="start" x="602" y="-242.84" font-family="Helvetica,sans-Serif" font-size="9.00" fill="#1a1a2e">certs → connect</text>
</g>
</g>
</svg>
