<?xml version="1.0" encoding="UTF-8" standalone="no"?>
<!DOCTYPE svg PUBLIC "-//W3C//DTD SVG 1.1//EN"
 "http://www.w3.org/Graphics/SVG/1.1/DTD/svg11.dtd">
<!-- Generated by graphviz version 14.1.2 (20260124.0452)
 -->
<!-- Title: TarWebsite Pages: 1 -->
<svg width="2027pt" height="531pt"
 viewBox="0.00 0.00 2027.00 531.00" xmlns="http://www.w3.org/2000/svg" xmlns:xlink="http://www.w3.org/1999/xlink">
<g id="graph0" class="graph" transform="scale(1 1) rotate(0) translate(28.8 502.15)">
<title>TarWebsite</title>
<polygon fill="white" stroke="none" points="-28.8,28.8 -28.8,-502.15 1998.05,-502.15 1998.05,28.8 -28.8,28.8"/>
<g id="clust1" class="cluster">
<title>cluster_TcpipStack</title>
<path fill="#f8f9fa" stroke="#5f6368" d="M690,-209.35C690,-209.35 1949.25,-209.35 1949.25,-209.35 1955.25,-209.35 1961.25,-215.35 1961.25,-221.35 1961.25,-221.35 1961.25,-453.35 1961.25,-453.35 1961.25,-459.35 1955.25,-465.35 1949.25,-465.35 1949.25,-465.35 690,-465.35 690,-465.35 684,-465.35 678,-459.35 678,-453.35 678,-453.35 678,-221.35 678,-221.35 678,-215.35 684,-209.35 690,-209.35"/>
<text xml:space="preserve" text-anchor="middle" x="1319.62" y="-448.05" font-family="Helvetica,sans-Serif" font-size="14.00">TcpipStack</text>
</g>
<g id="clust2" class="cluster">
<title>cluster_DnsStack</title>
<path fill="#f8f9fa" stroke="#5f6368" d="M204.75,-295.35C204.75,-295.35 579.25,-295.35 579.25,-295.35 585.25,-295.35 591.25,-301.35 591.25,-307.35 591.25,-307.35 591.25,-358.35 591.25,-358.35 591.25,-364.35 585.25,-370.35 579.25,-370.35 579.25,-370.35 204.75,-370.35 204.75,-370.35 198.75,-370.35 192.75,-364.35 192.75,-358.35 192.75,-358.35 192.75,-307.35 192.75,-307.35 192.75,-301.35 198.75,-295.35 204.75,-295.35"/>
<text xml:space="preserve" text-anchor="middle" x="392" y="-353.05" font-family="Helvetica,sans-Serif" font-size="14.00">DnsStack</text>
</g>
<!-- backend -->
<g id="node1" class="node">
<title>backend</title>
<path fill="#dcedc8" stroke="#558b2f" d="M1941.25,-339.35C1941.25,-339.35 1902.75,-339.35 1902.75,-339.35 1896.75,-339.35 1890.75,-333.35 1890.75,-327.35 1890.75,-327.35 1890.75,-315.35 1890.75,-315.35 1890.75,-309.35 1896.75,-303.35 1902.75,-303.35 1902.75,-303.35 1941.25,-303.35 1941.25,-303.35 1947.25,-303.35 1953.25,-309.35 1953.25,-315.35 1953.25,-315.35 1953.25,-327.35 1953.25,-327.35 1953.25,-333.35 1947.25,-339.35 1941.25,-339.35"/>
<text xml:space="preserve" text-anchor="start" x="1901.75" y="-321.9" font-family="Helvetica,sans-Serif" font-size="11.00" fill="#1a1a2e">backend</text>
<text xml:space="preserve" text-anchor="start" x="1898.75" y="-312.8" font-family="Helvetica,sans-Serif" font-size="9.00" fill="#1a1a2e">&lt;Backend&gt;</text>
</g>
<!-- net -->
<g id="node2" class="node">
<title>net</title>
<path fill="#dcedc8" stroke="#558b2f" d="M1761.75,-339.35C1761.75,-339.35 1731.75,-339.35 1731.75,-339.35 1725.75,-339.35 1719.75,-333.35 1719.75,-327.35 1719.75,-327.35 1719.75,-315.35 1719.75,-315.35 1719.75,-309.35 1725.75,-303.35 1731.75,-303.35 1731.75,-303.35 1761.75,-303.35 1761.75,-303.35 1767.75,-303.35 1773.75,-309.35 1773.75,-315.35 1773.75,-315.35 1773.75,-327.35 1773.75,-327.35 1773.75,-333.35 1767.75,-339.35 1761.75,-339.35"/>
<text xml:space="preserve" text-anchor="start" x="1739.25" y="-321.9" font-family="Helvetica,sans-Serif" font-size="11.00" fill="#1a1a2e">net</text>
<text xml:space="preserve" text-anchor="start" x="1729.88" y="-312.8" font-family="Helvetica,sans-Serif" font-size="9.00" fill="#1a1a2e">&lt;Vnetif&gt;</text>
</g>
<!-- net&#45;&gt;backend -->
<g id="edge1" class="edge">
<title>net&#45;&gt;backend</title>
<path fill="none" stroke="#5f6368" d="M1774.06,-321.35C1801.88,-321.35 1846.18,-321.35 1878.87,-321.35"/>
<polygon fill="#5f6368" stroke="#5f6368" points="1878.83,-324.85 1888.83,-321.35 1878.83,-317.85 1878.83,-324.85"/>
<text xml:space="preserve" text-anchor="start" x="1791.75" y="-324.05" font-family="Helvetica,sans-Serif" font-size="9.00" fill="#1a1a2e">backend → connect</text>
</g>
<!-- eth -->
<g id="node3" class="node">
<title>eth</title>
<path fill="#dcedc8" stroke="#558b2f" d="M1613.25,-339.35C1613.25,-339.35 1576.25,-339.35 1576.25,-339.35 1570.25,-339.35 1564.25,-333.35 1564.25,-327.35 1564.25,-327.35 1564.25,-315.35 1564.25,-315.35 1564.25,-309.35 1570.25,-303.35 1576.25,-303.35 1576.25,-303.35 1613.25,-303.35 1613.25,-303.35 1619.25,-303.35 1625.25,-309.35 1625.25,-315.35 1625.25,-315.35 1625.25,-327.35 1625.25,-327.35 1625.25,-333.35 1619.25,-339.35 1613.25,-339.35"/>
<text xml:space="preserve" text-anchor="start" x="1587.25" y="-321.9" font-family="Helvetica,sans-Serif" font-size="11.00" fill="#1a1a2e">eth</text>
<text xml:space="preserve" text-anchor="start" x="1572.25" y="-312.8" font-family="Helvetica,sans-Serif" font-size="9.00" fill="#1a1a2e">&lt;Ethernet&gt;</text>
</g>
<!-- eth&#45;&gt;net -->
<g id="edge2" class="edge">
<title>eth&#45;&gt;net</title>
<path fill="none" stroke="#5f6368" d="M1625.74,-321.35C1649.36,-321.35 1682.43,-321.35 1707.87,-321.35"/>
<polygon fill="#5f6368" stroke="#5f6368" points="1707.81,-324.85 1717.81,-321.35 1707.81,-317.85 1707.81,-324.85"/>
<text xml:space="preserve" text-anchor="start" x="1643.25" y="-324.05" font-family="Helvetica,sans-Serif" font-size="9.00" fill="#1a1a2e">net → connect</text>
</g>
<!-- arp -->
<g id="node4" class="node">
<title>arp</title>
<path fill="#dcedc8" stroke="#558b2f" d="M1455.5,-367.35C1455.5,-367.35 1425.5,-367.35 1425.5,-367.35 1419.5,-367.35 1413.5,-361.35 1413.5,-355.35 1413.5,-355.35 1413.5,-343.35 1413.5,-343.35 1413.5,-337.35 1419.5,-331.35 1425.5,-331.35 1425.5,-331.35 1455.5,-331.35 1455.5,-331.35 1461.5,-331.35 1467.5,-337.35 1467.5,-343.35 1467.5,-343.35 1467.5,-355.35 1467.5,-355.35 1467.5,-361.35 1461.5,-367.35 1455.5,-367.35"/>
<text xml:space="preserve" text-anchor="start" x="1432.62" y="-349.9" font-family="Helvetica,sans-Serif" font-size="11.00" fill="#1a1a2e">arp</text>
<text xml:space="preserve" text-anchor="start" x="1428.12" y="-340.8" font-family="Helvetica,sans-Serif" font-size="9.00" fill="#1a1a2e">&lt;Arp&gt;</text>
</g>
<!-- arp&#45;&gt;eth -->
<g id="edge3" class="edge">
<title>arp&#45;&gt;eth</title>
<path fill="none" stroke="#5f6368" d="M1467.67,-344.54C1491.11,-340.23 1525.85,-333.84 1552.93,-328.86"/>
<polygon fill="#5f6368" stroke="#5f6368" points="1553.32,-332.35 1562.52,-327.1 1552.06,-325.46 1553.32,-332.35"/>
<text xml:space="preserve" text-anchor="start" x="1487.75" y="-343" font-family="Helvetica,sans-Serif" font-size="9.00" fill="#1a1a2e">eth → connect</text>
</g>
<!-- ipv4 -->
<g id="node5" class="node">
<title>ipv4</title>
<path fill="#dcedc8" stroke="#558b2f" d="M1304,-346.35C1304,-346.35 1256.5,-346.35 1256.5,-346.35 1250.5,-346.35 1244.5,-340.35 1244.5,-334.35 1244.5,-334.35 1244.5,-322.35 1244.5,-322.35 1244.5,-316.35 1250.5,-310.35 1256.5,-310.35 1256.5,-310.35 1304,-310.35 1304,-310.35 1310,-310.35 1316,-316.35 1316,-322.35 1316,-322.35 1316,-334.35 1316,-334.35 1316,-340.35 1310,-346.35 1304,-346.35"/>
<text xml:space="preserve" text-anchor="start" x="1270.5" y="-328.9" font-family="Helvetica,sans-Serif" font-size="11.00" fill="#1a1a2e">ipv4</text>
<text xml:space="preserve" text-anchor="start" x="1252.5" y="-319.8" font-family="Helvetica,sans-Serif" font-size="9.00" fill="#1a1a2e">&lt;Static_ipv4&gt;</text>
</g>
<!-- ipv4&#45;&gt;eth -->
<g id="edge4" class="edge">
<title>ipv4&#45;&gt;eth</title>
<path fill="none" stroke="#5f6368" d="M1316.44,-322.4C1342.52,-318.31 1378.99,-313.23 1411.25,-311.1 1437.19,-309.39 1443.77,-310.03 1469.75,-311.1 1497.48,-312.25 1528.61,-314.82 1552.74,-317.11"/>
<polygon fill="#5f6368" stroke="#5f6368" points="1552.18,-320.57 1562.47,-318.05 1552.86,-313.6 1552.18,-320.57"/>
<text xml:space="preserve" text-anchor="start" x="1411.25" y="-313.8" font-family="Helvetica,sans-Serif" font-size="9.00" fill="#1a1a2e">eth → connect</text>
</g>
<!-- ipv4&#45;&gt;arp -->
<g id="edge5" class="edge">
<title>ipv4&#45;&gt;arp</title>
<path fill="none" stroke="#5f6368" d="M1316.37,-333.01C1341.8,-336.39 1376.11,-340.94 1402.06,-344.38"/>
<polygon fill="#5f6368" stroke="#5f6368" points="1401.46,-347.83 1411.83,-345.68 1402.38,-340.9 1401.46,-347.83"/>
<text xml:space="preserve" text-anchor="start" x="1334" y="-345.85" font-family="Helvetica,sans-Serif" font-size="9.00" fill="#1a1a2e">arp → connect</text>
</g>
<!-- ipv6 -->
<g id="node6" class="node">
<title>ipv6</title>
<path fill="#dcedc8" stroke="#558b2f" d="M1455.5,-266.35C1455.5,-266.35 1425.5,-266.35 1425.5,-266.35 1419.5,-266.35 1413.5,-260.35 1413.5,-254.35 1413.5,-254.35 1413.5,-242.35 1413.5,-242.35 1413.5,-236.35 1419.5,-230.35 1425.5,-230.35 1425.5,-230.35 1455.5,-230.35 1455.5,-230.35 1461.5,-230.35 1467.5,-236.35 1467.5,-242.35 1467.5,-242.35 1467.5,-254.35 1467.5,-254.35 1467.5,-260.35 1461.5,-266.35 1455.5,-266.35"/>
<text xml:space="preserve" text-anchor="start" x="1430.75" y="-248.9" font-family="Helvetica,sans-Serif" font-size="11.00" fill="#1a1a2e">ipv6</text>
<text xml:space="preserve" text-anchor="start" x="1426.62" y="-239.8" font-family="Helvetica,sans-Serif" font-size="9.00" fill="#1a1a2e">&lt;Ipv6&gt;</text>
</g>
<!-- ipv6&#45;&gt;net -->
<g id="edge6" class="edge">
<title>ipv6&#45;&gt;net</title>
<path fill="none" stroke="#5f6368" d="M1467.91,-250.97C1489.18,-253.29 1519.79,-257.13 1546.25,-262.35 1603.94,-273.74 1668.94,-294.51 1708.62,-308.12"/>
<polygon fill="#5f6368" stroke="#5f6368" points="1707.33,-311.37 1717.93,-311.34 1709.63,-304.76 1707.33,-311.37"/>
<text xml:space="preserve" text-anchor="start" x="1565.5" y="-283.96" font-family="Helvetica,sans-Serif" font-size="9.00" fill="#1a1a2e">net → connect</text>
</g>
<!-- ipv6&#45;&gt;eth -->
<g id="edge7" class="edge">
<title>ipv6&#45;&gt;eth</title>
<path fill="none" stroke="#5f6368" d="M1467.92,-256.89C1494.17,-265.55 1532.45,-278.7 1546.25,-286.1 1551.79,-289.07 1557.4,-292.64 1562.73,-296.35"/>
<polygon fill="#5f6368" stroke="#5f6368" points="1560.58,-299.11 1570.72,-302.19 1564.71,-293.46 1560.58,-299.11"/>
<text xml:space="preserve" text-anchor="start" x="1487.75" y="-288.8" font-family="Helvetica,sans-Serif" font-size="9.00" fill="#1a1a2e">eth → connect</text>
</g>
<!-- ip -->
<g id="node7" class="node">
<title>ip</title>
<path fill="#dcedc8" stroke="#558b2f" d="M1109.5,-300.35C1109.5,-300.35 1079.5,-300.35 1079.5,-300.35 1073.5,-300.35 1067.5,-294.35 1067.5,-288.35 1067.5,-288.35 1067.5,-276.35 1067.5,-276.35 1067.5,-270.35 1073.5,-264.35 1079.5,-264.35 1079.5,-264.35 1109.5,-264.35 1109.5,-264.35 1115.5,-264.35 1121.5,-270.35 1121.5,-276.35 1121.5,-276.35 1121.5,-288.35 1121.5,-288.35 1121.5,-294.35 1115.5,-300.35 1109.5,-300.35"/>
<text xml:space="preserve" text-anchor="start" x="1090.38" y="-282.9" font-family="Helvetica,sans-Serif" font-size="11.00" fill="#1a1a2e">ip</text>
<text xml:space="preserve" text-anchor="start" x="1085.5" y="-273.8" font-family="Helvetica,sans-Serif" font-size="9.00" fill="#1a1a2e">&lt;Ip&gt;</text>
</g>
<!-- ip&#45;&gt;ipv4 -->
<g id="edge8" class="edge">
<title>ip&#45;&gt;ipv4</title>
<path fill="none" stroke="#5f6368" d="M1121.83,-288.94C1150.84,-296.21 1198.05,-308.02 1233.21,-316.83"/>
<polygon fill="#5f6368" stroke="#5f6368" points="1232.15,-320.17 1242.7,-319.2 1233.85,-313.38 1232.15,-320.17"/>
<text xml:space="preserve" text-anchor="start" x="1155.25" y="-317.46" font-family="Helvetica,sans-Serif" font-size="9.00" fill="#1a1a2e">ipv4 → connect</text>
</g>
<!-- ip&#45;&gt;ipv6 -->
<g id="edge9" class="edge">
<title>ip&#45;&gt;ipv6</title>
<path fill="none" stroke="#5f6368" d="M1121.92,-279.74C1182.6,-273.74 1332.07,-258.97 1402.13,-252.05"/>
<polygon fill="#5f6368" stroke="#5f6368" points="1402.35,-255.54 1411.95,-251.08 1401.66,-248.58 1402.35,-255.54"/>
<text xml:space="preserve" text-anchor="start" x="1248.75" y="-270.31" font-family="Helvetica,sans-Serif" font-size="9.00" fill="#1a1a2e">ipv6 → connect</text>
</g>
<!-- icmp -->
<g id="node8" class="node">
<title>icmp</title>
<path fill="#dcedc8" stroke="#558b2f" d="M1030,-379.35C1030,-379.35 998.25,-379.35 998.25,-379.35 992.25,-379.35 986.25,-373.35 986.25,-367.35 986.25,-367.35 986.25,-355.35 986.25,-355.35 986.25,-349.35 992.25,-343.35 998.25,-343.35 998.25,-343.35 1030,-343.35 1030,-343.35 1036,-343.35 1042,-349.35 1042,-355.35 1042,-355.35 1042,-367.35 1042,-367.35 1042,-373.35 1036,-379.35 1030,-379.35"/>
<text xml:space="preserve" text-anchor="start" x="1002.88" y="-361.9" font-family="Helvetica,sans-Serif" font-size="11.00" fill="#1a1a2e">icmp</text>
<text xml:space="preserve" text-anchor="start" x="994.25" y="-352.8" font-family="Helvetica,sans-Serif" font-size="9.00" fill="#1a1a2e">&lt;Icmpv4&gt;</text>
</g>
<!-- icmp&#45;&gt;ipv4 -->
<g id="edge10" class="edge">
<title>icmp&#45;&gt;ipv4</title>
<path fill="none" stroke="#5f6368" d="M1042.04,-353.92C1047.92,-352.49 1054.14,-351.12 1060,-350.1 1119.16,-339.81 1188.2,-333.96 1232.76,-330.98"/>
<polygon fill="#5f6368" stroke="#5f6368" points="1232.84,-334.48 1242.59,-330.34 1232.39,-327.5 1232.84,-334.48"/>
<text xml:space="preserve" text-anchor="start" x="1067.88" y="-352.8" font-family="Helvetica,sans-Serif" font-size="9.00" fill="#1a1a2e">ip → connect</text>
</g>
<!-- udp -->
<g id="node9" class="node">
<title>udp</title>
<path fill="#dcedc8" stroke="#558b2f" d="M946.88,-354.35C946.88,-354.35 916.88,-354.35 916.88,-354.35 910.88,-354.35 904.88,-348.35 904.88,-342.35 904.88,-342.35 904.88,-330.35 904.88,-330.35 904.88,-324.35 910.88,-318.35 916.88,-318.35 916.88,-318.35 946.88,-318.35 946.88,-318.35 952.88,-318.35 958.88,-324.35 958.88,-330.35 958.88,-330.35 958.88,-342.35 958.88,-342.35 958.88,-348.35 952.88,-354.35 946.88,-354.35"/>
<text xml:space="preserve" text-anchor="start" x="922.88" y="-336.9" font-family="Helvetica,sans-Serif" font-size="11.00" fill="#1a1a2e">udp</text>
<text xml:space="preserve" text-anchor="start" x="918" y="-327.8" font-family="Helvetica,sans-Serif" font-size="9.00" fill="#1a1a2e">&lt;Udp&gt;</text>
</g>
<!-- udp&#45;&gt;ip -->
<g id="edge11" class="edge">
<title>udp&#45;&gt;ip</title>
<path fill="none" stroke="#5f6368" d="M959.04,-327.56C985.45,-318.68 1026.47,-304.89 1056.26,-294.87"/>
<polygon fill="#5f6368" stroke="#5f6368" points="1057.28,-298.22 1065.64,-291.72 1055.05,-291.59 1057.28,-298.22"/>
<text xml:space="preserve" text-anchor="start" x="987.5" y="-320.04" font-family="Helvetica,sans-Serif" font-size="9.00" fill="#1a1a2e">ip → connect</text>
</g>
<!-- tcp -->
<g id="node10" class="node">
<title>tcp</title>
<path fill="#dcedc8" stroke="#558b2f" d="M946.88,-253.35C946.88,-253.35 916.88,-253.35 916.88,-253.35 910.88,-253.35 904.88,-247.35 904.88,-241.35 904.88,-241.35 904.88,-229.35 904.88,-229.35 904.88,-223.35 910.88,-217.35 916.88,-217.35 916.88,-217.35 946.88,-217.35 946.88,-217.35 952.88,-217.35 958.88,-223.35 958.88,-229.35 958.88,-229.35 958.88,-241.35 958.88,-241.35 958.88,-247.35 952.88,-253.35 946.88,-253.35"/>
<text xml:space="preserve" text-anchor="start" x="924.75" y="-235.9" font-family="Helvetica,sans-Serif" font-size="11.00" fill="#1a1a2e">tcp</text>
<text xml:space="preserve" text-anchor="start" x="916.88" y="-226.8" font-family="Helvetica,sans-Serif" font-size="9.00" fill="#1a1a2e">&lt;Flow&gt;</text>
</g>
<!-- tcp&#45;&gt;ip -->
<g id="edge12" class="edge">
<title>tcp&#45;&gt;ip</title>
<path fill="none" stroke="#5f6368" d="M959.04,-243.01C985.45,-250.74 1026.47,-262.74 1056.26,-271.46"/>
<polygon fill="#5f6368" stroke="#5f6368" points="1055.05,-274.75 1065.63,-274.2 1057.01,-268.03 1055.05,-274.75"/>
<text xml:space="preserve" text-anchor="start" x="987.5" y="-269.85" font-family="Helvetica,sans-Serif" font-size="9.00" fill="#1a1a2e">ip → connect</text>
</g>
<!-- stack -->
<g id="node11" class="node">
<title>stack</title>
<path fill="#dcedc8" stroke="#558b2f" d="M766.5,-373.35C766.5,-373.35 698,-373.35 698,-373.35 692,-373.35 686,-367.35 686,-361.35 686,-361.35 686,-349.35 686,-349.35 686,-343.35 692,-337.35 698,-337.35 698,-337.35 766.5,-337.35 766.5,-337.35 772.5,-337.35 778.5,-343.35 778.5,-349.35 778.5,-349.35 778.5,-361.35 778.5,-361.35 778.5,-367.35 772.5,-373.35 766.5,-373.35"/>
<text xml:space="preserve" text-anchor="start" x="719.88" y="-355.9" font-family="Helvetica,sans-Serif" font-size="11.00" fill="#1a1a2e">stack</text>
<text xml:space="preserve" text-anchor="start" x="694" y="-346.8" font-family="Helvetica,sans-Serif" font-size="9.00" fill="#1a1a2e">&lt;DirectStackv4v6&gt;</text>
</g>
<!-- stack&#45;&gt;net -->
<g id="edge13" class="edge">
<title>stack&#45;&gt;net</title>
<path fill="none" stroke="#5f6368" d="M753.95,-373.79C765.62,-383.1 780.94,-393.6 796.5,-399.35 837.98,-414.69 851.39,-406.16 895.5,-409.35 1102.66,-424.33 1154.92,-423.35 1362.62,-423.35 1362.62,-423.35 1362.62,-423.35 1595.75,-423.35 1649.35,-423.35 1697.98,-378.27 1724.56,-348.05"/>
<polygon fill="#5f6368" stroke="#5f6368" points="1726.96,-350.62 1730.79,-340.74 1721.63,-346.08 1726.96,-350.62"/>
<text xml:space="preserve" text-anchor="start" x="1248.75" y="-426.07" font-family="Helvetica,sans-Serif" font-size="9.00" fill="#1a1a2e">netif → connect</text>
</g>
<!-- stack&#45;&gt;eth -->
<g id="edge14" class="edge">
<title>stack&#45;&gt;eth</title>
<path fill="none" stroke="#5f6368" d="M763.1,-373.71C773.32,-379.1 785.07,-384.35 796.5,-387.35 941.22,-425.38 1322.22,-401.32 1469.75,-376.35 1504.51,-370.47 1514.42,-370.52 1546.25,-355.35 1551.74,-352.74 1557.27,-349.48 1562.51,-346.02"/>
<polygon fill="#5f6368" stroke="#5f6368" points="1564.15,-349.15 1570.34,-340.56 1560.14,-343.41 1564.15,-349.15"/>
<text xml:space="preserve" text-anchor="start" x="1147" y="-407.64" font-family="Helvetica,sans-Serif" font-size="9.00" fill="#1a1a2e">ethernet → connect</text>
</g>
<!-- stack&#45;&gt;arp -->
<g id="edge15" class="edge">
<title>stack&#45;&gt;arp</title>
<path fill="none" stroke="#5f6368" d="M778.71,-373.84C784.61,-375.66 790.65,-377.24 796.5,-378.35 879.38,-394.08 901.89,-382.24 986.25,-383.35 1167.46,-385.74 1213.59,-382.14 1393.25,-358.35 1396.09,-357.98 1399.01,-357.54 1401.95,-357.05"/>
<polygon fill="#5f6368" stroke="#5f6368" points="1402.46,-360.52 1411.69,-355.31 1401.23,-353.63 1402.46,-360.52"/>
<text xml:space="preserve" text-anchor="start" x="1060" y="-386.68" font-family="Helvetica,sans-Serif" font-size="9.00" fill="#1a1a2e">arpv4 → connect</text>
</g>
<!-- stack&#45;&gt;ip -->
<g id="edge16" class="edge">
<title>stack&#45;&gt;ip</title>
<path fill="none" stroke="#5f6368" d="M778.78,-337.84C784.72,-335.62 790.75,-333.41 796.5,-331.35 840.21,-315.73 850.03,-307.4 895.5,-298.1 950.58,-286.84 1015.8,-283.54 1055.91,-282.62"/>
<polygon fill="#5f6368" stroke="#5f6368" points="1055.82,-286.12 1065.76,-282.44 1055.69,-279.12 1055.82,-286.12"/>
<text xml:space="preserve" text-anchor="start" x="895.5" y="-300.8" font-family="Helvetica,sans-Serif" font-size="9.00" fill="#1a1a2e">ipv4v6 → connect</text>
</g>
<!-- stack&#45;&gt;icmp -->
<g id="edge17" class="edge">
<title>stack&#45;&gt;icmp</title>
<path fill="none" stroke="#5f6368" d="M778.69,-358.19C811.2,-360.08 856.03,-362.38 895.5,-363.35 927.82,-364.15 935.92,-364.07 968.25,-363.35 970.32,-363.31 972.45,-363.25 974.6,-363.18"/>
<polygon fill="#5f6368" stroke="#5f6368" points="974.7,-366.68 984.57,-362.81 974.44,-359.68 974.7,-366.68"/>
<text xml:space="preserve" text-anchor="start" x="799.5" y="-365.5" font-family="Helvetica,sans-Serif" font-size="9.00" fill="#1a1a2e">icmpv4 → connect</text>
</g>
<!-- stack&#45;&gt;udp -->
<g id="edge18" class="edge">
<title>stack&#45;&gt;udp</title>
<path fill="none" stroke="#5f6368" d="M778.98,-343.14C784.84,-341.92 790.79,-340.86 796.5,-340.1 828.94,-335.79 866.17,-335.07 893.2,-335.31"/>
<polygon fill="#5f6368" stroke="#5f6368" points="892.92,-338.81 902.97,-335.45 893.02,-331.81 892.92,-338.81"/>
<text xml:space="preserve" text-anchor="start" x="796.5" y="-342.8" font-family="Helvetica,sans-Serif" font-size="9.00" fill="#1a1a2e">udpv4v6 → connect</text>
</g>
<!-- stack&#45;&gt;tcp -->
<g id="edge19" class="edge">
<title>stack&#45;&gt;tcp</title>
<path fill="none" stroke="#5f6368" d="M742.6,-337.19C753.19,-318.4 772.18,-289.55 796.5,-273.1 825.61,-253.42 864.86,-243.92 893.42,-239.39"/>
<polygon fill="#5f6368" stroke="#5f6368" points="893.67,-242.89 903.07,-238 892.67,-235.96 893.67,-242.89"/>
<text xml:space="preserve" text-anchor="start" x="798.38" y="-275.8" font-family="Helvetica,sans-Serif" font-size="9.00" fill="#1a1a2e">tcpv4v6 → connect</text>
</g>
<!-- happy_eyeballs -->
<g id="node12" class="node">
<title>happy_eyeballs</title>
<path fill="#dcedc8" stroke="#558b2f" d="M571.25,-339.35C571.25,-339.35 468.25,-339.35 468.25,-339.35 462.25,-339.35 456.25,-333.35 456.25,-327.35 456.25,-327.35 456.25,-315.35 456.25,-315.35 456.25,-309.35 462.25,-303.35 468.25,-303.35 468.25,-303.35 571.25,-303.35 571.25,-303.35 577.25,-303.35 583.25,-309.35 583.25,-315.35 583.25,-315.35 583.25,-327.35 583.25,-327.35 583.25,-333.35 577.25,-339.35 571.25,-339.35"/>
<text xml:space="preserve" text-anchor="start" x="482.62" y="-321.9" font-family="Helvetica,sans-Serif" font-size="11.00" fill="#1a1a2e">happy_eyeballs</text>
<text xml:space="preserve" text-anchor="start" x="464.25" y="-312.8" font-family="Helvetica,sans-Serif" font-size="9.00" fill="#1a1a2e">&lt;Happy_eyeballs_mirage&gt;</text>
</g>
<!-- happy_eyeballs&#45;&gt;stack -->
<g id="edge33" class="edge">
<title>happy_eyeballs&#45;&gt;stack</title>
<path fill="none" stroke="#5f6368" d="M583.62,-331.51C612.48,-336.17 646.43,-341.65 674.5,-346.19"/>
<polygon fill="#5f6368" stroke="#5f6368" points="673.81,-349.62 684.24,-347.76 674.93,-342.71 673.81,-349.62"/>
<text xml:space="preserve" text-anchor="start" x="601.25" y="-347.06" font-family="Helvetica,sans-Serif" font-size="9.00" fill="#1a1a2e">stack → connect</text>
</g>
<!-- dns_client -->
<g id="node13" class="node">
<title>dns_client</title>
<path fill="#dcedc8" stroke="#558b2f" d="M292.5,-339.35C292.5,-339.35 212.75,-339.35 212.75,-339.35 206.75,-339.35 200.75,-333.35 200.75,-327.35 200.75,-327.35 200.75,-315.35 200.75,-315.35 200.75,-309.35 206.75,-303.35 212.75,-303.35 212.75,-303.35 292.5,-303.35 292.5,-303.35 298.5,-303.35 304.5,-309.35 304.5,-315.35 304.5,-315.35 304.5,-327.35 304.5,-327.35 304.5,-333.35 298.5,-339.35 292.5,-339.35"/>
<text xml:space="preserve" text-anchor="start" x="228.62" y="-321.9" font-family="Helvetica,sans-Serif" font-size="11.00" fill="#1a1a2e">dns_client</text>
<text xml:space="preserve" text-anchor="start" x="208.75" y="-312.8" font-family="Helvetica,sans-Serif" font-size="9.00" fill="#1a1a2e">&lt;Dns_client_mirage&gt;</text>
</g>
<!-- dns_client&#45;&gt;stack -->
<g id="edge24" class="edge">
<title>dns_client&#45;&gt;stack</title>
<path fill="none" stroke="#5f6368" d="M304.99,-332.56C312.44,-333.96 320.02,-335.28 327.25,-336.35 448.14,-354.24 479.13,-354.73 601.25,-359.35 630.9,-360.48 638.35,-360.29 668,-359.35 670.06,-359.29 672.15,-359.21 674.26,-359.12"/>
<polygon fill="#5f6368" stroke="#5f6368" points="674.33,-362.63 684.15,-358.65 674,-355.63 674.33,-362.63"/>
<text xml:space="preserve" text-anchor="start" x="486.38" y="-361.6" font-family="Helvetica,sans-Serif" font-size="9.00" fill="#1a1a2e">stack → connect</text>
</g>
<!-- dns_client&#45;&gt;happy_eyeballs -->
<g id="edge20" class="edge">
<title>dns_client&#45;&gt;happy_eyeballs</title>
<path fill="none" stroke="#5f6368" d="M304.74,-321.35C344.47,-321.35 400.13,-321.35 444.73,-321.35"/>
<polygon fill="#5f6368" stroke="#5f6368" points="444.59,-324.85 454.59,-321.35 444.59,-317.85 444.59,-324.85"/>
<text xml:space="preserve" text-anchor="start" x="327.25" y="-324.05" font-family="Helvetica,sans-Serif" font-size="9.00" fill="#1a1a2e">happy_eyeballs → connect</text>
</g>
<!-- runtime -->
<g id="node14" class="node">
<title>runtime</title>
<path fill="#e8f0fe" stroke="#4285f4" d="M49,-245.35C49,-245.35 12,-245.35 12,-245.35 6,-245.35 0,-239.35 0,-233.35 0,-233.35 0,-221.35 0,-221.35 0,-215.35 6,-209.35 12,-209.35 12,-209.35 49,-209.35 49,-209.35 55,-209.35 61,-215.35 61,-221.35 61,-221.35 61,-233.35 61,-233.35 61,-239.35 55,-245.35 49,-245.35"/>
<text xml:space="preserve" text-anchor="start" x="12.5" y="-227.9" font-family="Helvetica,sans-Serif" font-size="11.00" fill="#1a1a2e">runtime</text>
<text xml:space="preserve" text-anchor="start" x="8" y="-218.8" font-family="Helvetica,sans-Serif" font-size="9.00" fill="#1a1a2e">&lt;Runtime&gt;</text>
</g>
<!-- runtime&#45;&gt;happy_eyeballs -->
<g id="edge27" class="edge">
<title>runtime&#45;&gt;happy_eyeballs</title>
<path fill="none" stroke="#5f6368" d="M34.11,-209.21C38.64,-184.74 50.4,-141.64 79,-119.35 141.97,-70.28 380.37,-64.37 438.25,-119.35 467.51,-147.15 442.32,-170.48 456.25,-208.35 467.52,-239.01 486.21,-271.37 500.22,-293.57"/>
<polygon fill="#5f6368" stroke="#5f6368" points="497.11,-295.21 505.46,-301.73 503,-291.43 497.11,-295.21"/>
<text xml:space="preserve" text-anchor="start" x="201.62" y="-86.87" font-family="Helvetica,sans-Serif" font-size="9.00" fill="#1a1a2e">aaaa_timeout → connect</text>
</g>
<!-- runtime&#45;&gt;happy_eyeballs -->
<g id="edge28" class="edge">
<title>runtime&#45;&gt;happy_eyeballs</title>
<path fill="none" stroke="#5f6368" d="M31.73,-208.91C33.19,-177.64 40.99,-114.53 79,-82.35 200.88,20.8 323.74,31.93 438.25,-79.35 459.01,-99.52 447.09,-180.9 456.25,-208.35 466.58,-239.34 485.4,-271.65 499.69,-293.75"/>
<polygon fill="#5f6368" stroke="#5f6368" points="496.63,-295.46 505.06,-301.88 502.47,-291.6 496.63,-295.46"/>
<text xml:space="preserve" text-anchor="start" x="199.75" y="-16.41" font-family="Helvetica,sans-Serif" font-size="9.00" fill="#1a1a2e">connect_delay → connect</text>
</g>
<!-- runtime&#45;&gt;happy_eyeballs -->
<g id="edge29" class="edge">
<title>runtime&#45;&gt;happy_eyeballs</title>
<path fill="none" stroke="#5f6368" d="M61.3,-235.92C67.15,-237.49 73.25,-239.04 79,-240.35 87.91,-242.39 321.8,-285.28 444.76,-307.81"/>
<polygon fill="#5f6368" stroke="#5f6368" points="443.98,-311.22 454.45,-309.58 445.24,-304.34 443.98,-311.22"/>
<text xml:space="preserve" text-anchor="start" x="196" y="-284.59" font-family="Helvetica,sans-Serif" font-size="9.00" fill="#1a1a2e">connect_timeout → connect</text>
</g>
<!-- runtime&#45;&gt;happy_eyeballs -->
<g id="edge30" class="edge">
<title>runtime&#45;&gt;happy_eyeballs</title>
<path fill="none" stroke="#5f6368" d="M61.34,-227.5C112.47,-228.18 219.95,-231.55 309.25,-247.1 367.92,-257.32 382.46,-262.51 438.25,-283.35 449.78,-287.66 461.92,-292.96 473.18,-298.23"/>
<polygon fill="#5f6368" stroke="#5f6368" points="471.34,-301.22 481.87,-302.37 474.35,-294.9 471.34,-301.22"/>
<text xml:space="preserve" text-anchor="start" x="197.12" y="-249.8" font-family="Helvetica,sans-Serif" font-size="9.00" fill="#1a1a2e">resolve_timeout → connect</text>
</g>
<!-- runtime&#45;&gt;happy_eyeballs -->
<g id="edge31" class="edge">
<title>runtime&#45;&gt;happy_eyeballs</title>
<path fill="none" stroke="#5f6368" d="M61.28,-220.68C131.64,-206.55 311.77,-180.05 438.25,-246.35 460.8,-258.18 481.7,-278.02 496.54,-294.33"/>
<polygon fill="#5f6368" stroke="#5f6368" points="493.91,-296.63 503.14,-301.82 499.16,-292 493.91,-296.63"/>
<text xml:space="preserve" text-anchor="start" x="199.38" y="-210.26" font-family="Helvetica,sans-Serif" font-size="9.00" fill="#1a1a2e">resolve_retries → connect</text>
</g>
<!-- runtime&#45;&gt;happy_eyeballs -->
<g id="edge32" class="edge">
<title>runtime&#45;&gt;happy_eyeballs</title>
<path fill="none" stroke="#5f6368" d="M61.13,-208.89C66.88,-205.96 73,-203.26 79,-201.35 231.16,-152.88 302.28,-123.61 438.25,-207.35 470.89,-227.45 493.93,-266.25 506.77,-292.95"/>
<polygon fill="#5f6368" stroke="#5f6368" points="503.5,-294.23 510.86,-301.85 509.86,-291.3 503.5,-294.23"/>
<text xml:space="preserve" text-anchor="start" x="202" y="-169.11" font-family="Helvetica,sans-Serif" font-size="9.00" fill="#1a1a2e">timer_interval → connect</text>
</g>
<!-- runtime&#45;&gt;dns_client -->
<g id="edge21" class="edge">
<title>runtime&#45;&gt;dns_client</title>
<path fill="none" stroke="#5f6368" d="M33.65,-245.44C37.68,-270.21 48.87,-313.84 79,-333.35 111.65,-354.5 155.44,-351.18 190.74,-342.74"/>
<polygon fill="#5f6368" stroke="#5f6368" points="191.61,-346.13 200.41,-340.23 189.85,-339.36 191.61,-346.13"/>
<text xml:space="preserve" text-anchor="start" x="79" y="-351.96" font-family="Helvetica,sans-Serif" font-size="9.00" fill="#1a1a2e">nameservers → connect</text>
</g>
<!-- runtime&#45;&gt;dns_client -->
<g id="edge22" class="edge">
<title>runtime&#45;&gt;dns_client</title>
<path fill="none" stroke="#5f6368" d="M38.36,-245.75C45.7,-262.66 59.05,-286.92 79,-299.35 97.09,-310.62 147.66,-316.15 189.42,-318.85"/>
<polygon fill="#5f6368" stroke="#5f6368" points="188.95,-322.32 199.14,-319.43 189.37,-315.34 188.95,-322.32"/>
<text xml:space="preserve" text-anchor="start" x="90.62" y="-320.72" font-family="Helvetica,sans-Serif" font-size="9.00" fill="#1a1a2e">timeout → connect</text>
</g>
<!-- runtime&#45;&gt;dns_client -->
<g id="edge23" class="edge">
<title>runtime&#45;&gt;dns_client</title>
<path fill="none" stroke="#5f6368" d="M49.97,-245.5C58.25,-252.68 68.49,-260.4 79,-265.35 119.66,-284.53 135.42,-271.68 178,-286.1 187.65,-289.37 197.7,-293.59 207.15,-297.96"/>
<polygon fill="#5f6368" stroke="#5f6368" points="205.61,-301.11 216.14,-302.27 208.63,-294.79 205.61,-301.11"/>
<text xml:space="preserve" text-anchor="start" x="82.38" y="-288.8" font-family="Helvetica,sans-Serif" font-size="9.00" fill="#1a1a2e">cache_size → connect</text>
</g>
<!-- data_block -->
<g id="node15" class="node">
<title>data_block</title>
<path fill="#dcedc8" stroke="#558b2f" d="M953.75,-199.35C953.75,-199.35 910,-199.35 910,-199.35 904,-199.35 898,-193.35 898,-187.35 898,-187.35 898,-175.35 898,-175.35 898,-169.35 904,-163.35 910,-163.35 910,-163.35 953.75,-163.35 953.75,-163.35 959.75,-163.35 965.75,-169.35 965.75,-175.35 965.75,-175.35 965.75,-187.35 965.75,-187.35 965.75,-193.35 959.75,-199.35 953.75,-199.35"/>
<text xml:space="preserve" text-anchor="start" x="906" y="-181.9" font-family="Helvetica,sans-Serif" font-size="11.00" fill="#1a1a2e">data_block</text>
<text xml:space="preserve" text-anchor="start" x="915.38" y="-172.8" font-family="Helvetica,sans-Serif" font-size="9.00" fill="#1a1a2e">&lt;Block&gt;</text>
</g>
<!-- certs_block -->
<g id="node16" class="node">
<title>certs_block</title>
<path fill="#dcedc8" stroke="#558b2f" d="M954.88,-145.35C954.88,-145.35 908.88,-145.35 908.88,-145.35 902.88,-145.35 896.88,-139.35 896.88,-133.35 896.88,-133.35 896.88,-121.35 896.88,-121.35 896.88,-115.35 902.88,-109.35 908.88,-109.35 908.88,-109.35 954.88,-109.35 954.88,-109.35 960.88,-109.35 966.88,-115.35 966.88,-121.35 966.88,-121.35 966.88,-133.35 966.88,-133.35 966.88,-139.35 960.88,-145.35 954.88,-145.35"/>
<text xml:space="preserve" text-anchor="start" x="904.88" y="-127.9" font-family="Helvetica,sans-Serif" font-size="11.00" fill="#1a1a2e">certs_block</text>
<text xml:space="preserve" text-anchor="start" x="915.38" y="-118.8" font-family="Helvetica,sans-Serif" font-size="9.00" fill="#1a1a2e">&lt;Block&gt;</text>
</g>
<!-- tar_data -->
<g id="node17" class="node">
<title>tar_data</title>
<path fill="#dcedc8" stroke="#558b2f" d="M753.75,-199.35C753.75,-199.35 710.75,-199.35 710.75,-199.35 704.75,-199.35 698.75,-193.35 698.75,-187.35 698.75,-187.35 698.75,-175.35 698.75,-175.35 698.75,-169.35 704.75,-163.35 710.75,-163.35 710.75,-163.35 753.75,-163.35 753.75,-163.35 759.75,-163.35 765.75,-169.35 765.75,-175.35 765.75,-175.35 765.75,-187.35 765.75,-187.35 765.75,-193.35 759.75,-199.35 753.75,-199.35"/>
<text xml:space="preserve" text-anchor="start" x="712.38" y="-181.9" font-family="Helvetica,sans-Serif" font-size="11.00" fill="#1a1a2e">tar_data</text>
<text xml:space="preserve" text-anchor="start" x="706.75" y="-172.8" font-family="Helvetica,sans-Serif" font-size="9.00" fill="#1a1a2e">&lt;Tar_kv_ro&gt;</text>
</g>
<!-- tar_data&#45;&gt;data_block -->
<g id="edge25" class="edge">
<title>tar_data&#45;&gt;data_block</title>
<path fill="none" stroke="#5f6368" d="M765.88,-181.35C798.73,-181.35 849.62,-181.35 886.2,-181.35"/>
<polygon fill="#5f6368" stroke="#5f6368" points="886.02,-184.85 896.02,-181.35 886.02,-177.85 886.02,-184.85"/>
<text xml:space="preserve" text-anchor="start" x="803.25" y="-184.05" font-family="Helvetica,sans-Serif" font-size="9.00" fill="#1a1a2e">block → connect</text>
</g>
<!-- tar_certs -->
<g id="node18" class="node">
<title>tar_certs</title>
<path fill="#dcedc8" stroke="#558b2f" d="M753.75,-145.35C753.75,-145.35 710.75,-145.35 710.75,-145.35 704.75,-145.35 698.75,-139.35 698.75,-133.35 698.75,-133.35 698.75,-121.35 698.75,-121.35 698.75,-115.35 704.75,-109.35 710.75,-109.35 710.75,-109.35 753.75,-109.35 753.75,-109.35 759.75,-109.35 765.75,-115.35 765.75,-121.35 765.75,-121.35 765.75,-133.35 765.75,-133.35 765.75,-139.35 759.75,-145.35 753.75,-145.35"/>
<text xml:space="preserve" text-anchor="start" x="711.25" y="-127.9" font-family="Helvetica,sans-Serif" font-size="11.00" fill="#1a1a2e">tar_certs</text>
<text xml:space="preserve" text-anchor="start" x="706.75" y="-118.8" font-family="Helvetica,sans-Serif" font-size="9.00" fill="#1a1a2e">&lt;Tar_kv_ro&gt;</text>
</g>
<!-- tar_certs&#45;&gt;certs_block -->
<g id="edge26" class="edge">
<title>tar_certs&#45;&gt;certs_block</title>
<path fill="none" stroke="#5f6368" d="M765.88,-127.35C798.43,-127.35 848.7,-127.35 885.21,-127.35"/>
<polygon fill="#5f6368" stroke="#5f6368" points="885.02,-130.85 895.02,-127.35 885.02,-123.85 885.02,-130.85"/>
<text xml:space="preserve" text-anchor="start" x="803.25" y="-130.05" font-family="Helvetica,sans-Serif" font-size="9.00" fill="#1a1a2e">block → connect</text>
</g>
<!-- dispatch -->
<g id="node19" class="node">
<title>dispatch</title>
<path fill="#dcedc8" stroke="#558b2f" d="M539,-199.35C539,-199.35 500.5,-199.35 500.5,-199.35 494.5,-199.35 488.5,-193.35 488.5,-187.35 488.5,-187.35 488.5,-175.35 488.5,-175.35 488.5,-169.35 494.5,-163.35 500.5,-163.35 500.5,-163.35 539,-163.35 539,-163.35 545,-163.35 551,-169.35 551,-175.35 551,-175.35 551,-187.35 551,-187.35 551,-193.35 545,-199.35 539,-199.35"/>
<text xml:space="preserve" text-anchor="start" x="499.88" y="-181.9" font-family="Helvetica,sans-Serif" font-size="11.00" fill="#1a1a2e">dispatch</text>
<text xml:space="preserve" text-anchor="start" x="496.5" y="-172.8" font-family="Helvetica,sans-Serif" font-size="9.00" fill="#1a1a2e">&lt;Dispatch&gt;</text>
</g>
<!-- dispatch&#45;&gt;stack -->
<g id="edge36" class="edge">
<title>dispatch&#45;&gt;stack</title>
<path fill="none" stroke="#5f6368" d="M542.88,-199.64C580.62,-230.84 657.52,-294.41 700.48,-329.92"/>
<polygon fill="#5f6368" stroke="#5f6368" points="698,-332.41 707.93,-336.08 702.46,-327.01 698,-332.41"/>
<text xml:space="preserve" text-anchor="start" x="601.25" y="-301.77" font-family="Helvetica,sans-Serif" font-size="9.00" fill="#1a1a2e">stack → connect</text>
</g>
<!-- dispatch&#45;&gt;tar_data -->
<g id="edge34" class="edge">
<title>dispatch&#45;&gt;tar_data</title>
<path fill="none" stroke="#5f6368" d="M551.36,-181.35C587.06,-181.35 646.37,-181.35 687.06,-181.35"/>
<polygon fill="#5f6368" stroke="#5f6368" points="687.01,-184.85 697.01,-181.35 687.01,-177.85 687.01,-184.85"/>
<text xml:space="preserve" text-anchor="start" x="602.75" y="-184.05" font-family="Helvetica,sans-Serif" font-size="9.00" fill="#1a1a2e">data → connect</text>
</g>
<!-- dispatch&#45;&gt;tar_certs -->
<g id="edge35" class="edge">
<title>dispatch&#45;&gt;tar_certs</title>
<path fill="none" stroke="#5f6368" d="M551.36,-173.5C587.21,-164.3 646.88,-149 687.58,-138.55"/>
<polygon fill="#5f6368" stroke="#5f6368" points="688.24,-142 697.06,-136.12 686.5,-135.22 688.24,-142"/>
<text xml:space="preserve" text-anchor="start" x="602" y="-161.89" font-family="Helvetica,sans-Serif" font-size="9.00" fill="#1a1a2e">certs → connect</text>
</g>
</g>
</svg>
