<?xml version="1.0" encoding="UTF-8" standalone="no"?>
<!DOCTYPE svg PUBLIC "-//W3C//DTD SVG 1.1//EN"
 "http://www.w3.org/Graphics/SVG/1.1/DTD/svg11.dtd">
<!-- Generated by graphviz version 14.1.2 (20260124.0452)
 -->
<!-- Title: TcpipStack Pages: 1 -->
<svg width="1374pt" height="426pt"
 viewBox="0.00 0.00 1374.00 426.00" xmlns="http://www.w3.org/2000/svg" xmlns:xlink="http://www.w3.org/1999/xlink">
<g id="graph0" class="graph" transform="scale(1 1) rotate(0) translate(28.8 397.05)">
<title>TcpipStack</title>
<polygon fill="white" stroke="none" points="-28.8,28.8 -28.8,-397.05 1344.8,-397.05 1344.8,28.8 -28.8,28.8"/>
<!-- tcpip_runtime -->
<g id="node1" class="node">
<title>tcpip_runtime</title>
<path fill="#e8f0fe" stroke="#4285f4" d="M278,-219C278,-219 221.5,-219 221.5,-219 215.5,-219 209.5,-213 209.5,-207 209.5,-207 209.5,-195 209.5,-195 209.5,-189 215.5,-183 221.5,-183 221.5,-183 278,-183 278,-183 284,-183 290,-189 290,-195 290,-195 290,-207 290,-207 290,-213 284,-219 278,-219"/>
<text xml:space="preserve" text-anchor="start" x="217.5" y="-201.55" font-family="Helvetica,sans-Serif" font-size="11.00" fill="#1a1a2e">tcpip_runtime</text>
<text xml:space="preserve" text-anchor="start" x="227.25" y="-192.45" font-family="Helvetica,sans-Serif" font-size="9.00" fill="#1a1a2e">&lt;Runtime&gt;</text>
</g>
<!-- ipv4 -->
<g id="node6" class="node">
<title>ipv4</title>
<path fill="#e8f0fe" stroke="#4285f4" d="M666.75,-216C666.75,-216 619.25,-216 619.25,-216 613.25,-216 607.25,-210 607.25,-204 607.25,-204 607.25,-192 607.25,-192 607.25,-186 613.25,-180 619.25,-180 619.25,-180 666.75,-180 666.75,-180 672.75,-180 678.75,-186 678.75,-192 678.75,-192 678.75,-204 678.75,-204 678.75,-210 672.75,-216 666.75,-216"/>
<text xml:space="preserve" text-anchor="start" x="633.25" y="-198.55" font-family="Helvetica,sans-Serif" font-size="11.00" fill="#1a1a2e">ipv4</text>
<text xml:space="preserve" text-anchor="start" x="615.25" y="-189.45" font-family="Helvetica,sans-Serif" font-size="9.00" fill="#1a1a2e">&lt;Static_ipv4&gt;</text>
</g>
<!-- tcpip_runtime&#45;&gt;ipv4 -->
<g id="edge1" class="edge">
<title>tcpip_runtime&#45;&gt;ipv4</title>
<path fill="none" stroke="#5f6368" d="M290.36,-208.83C296.25,-209.73 302.27,-210.5 308,-211 410.32,-219.87 530.8,-210.26 595.43,-203.49"/>
<polygon fill="#5f6368" stroke="#5f6368" points="595.76,-206.97 605.32,-202.42 595.01,-200.01 595.76,-206.97"/>
<text xml:space="preserve" text-anchor="start" x="421.25" y="-217.19" font-family="Helvetica,sans-Serif" font-size="9.00" fill="#1a1a2e">cidr → connect</text>
</g>
<!-- tcpip_runtime&#45;&gt;ipv4 -->
<g id="edge2" class="edge">
<title>tcpip_runtime&#45;&gt;ipv4</title>
<path fill="none" stroke="#5f6368" d="M290.38,-199.66C322.91,-198.63 370.19,-197.3 411.5,-196.75 447.16,-196.28 456.08,-196.6 491.75,-196.75 526.52,-196.89 565.82,-197.23 595.51,-197.51"/>
<polygon fill="#5f6368" stroke="#5f6368" points="595.24,-201.01 605.27,-197.61 595.31,-194.01 595.24,-201.01"/>
<text xml:space="preserve" text-anchor="start" x="411.5" y="-199.45" font-family="Helvetica,sans-Serif" font-size="9.00" fill="#1a1a2e">gateway → connect</text>
</g>
<!-- ip -->
<g id="node8" class="node">
<title>ip</title>
<path fill="#e8f0fe" stroke="#4285f4" d="M466.62,-124C466.62,-124 436.62,-124 436.62,-124 430.62,-124 424.62,-118 424.62,-112 424.62,-112 424.62,-100 424.62,-100 424.62,-94 430.62,-88 436.62,-88 436.62,-88 466.62,-88 466.62,-88 472.62,-88 478.62,-94 478.62,-100 478.62,-100 478.62,-112 478.62,-112 478.62,-118 472.62,-124 466.62,-124"/>
<text xml:space="preserve" text-anchor="start" x="447.5" y="-106.55" font-family="Helvetica,sans-Serif" font-size="11.00" fill="#1a1a2e">ip</text>
<text xml:space="preserve" text-anchor="start" x="442.62" y="-97.45" font-family="Helvetica,sans-Serif" font-size="9.00" fill="#1a1a2e">&lt;Ip&gt;</text>
</g>
<!-- tcpip_runtime&#45;&gt;ip -->
<g id="edge3" class="edge">
<title>tcpip_runtime&#45;&gt;ip</title>
<path fill="none" stroke="#5f6368" d="M288.56,-182.57C294.97,-179.76 301.62,-177.04 308,-174.75 345.01,-161.45 358.42,-169.77 393.5,-152 404.06,-146.65 414.49,-139.11 423.49,-131.69"/>
<polygon fill="#5f6368" stroke="#5f6368" points="425.52,-134.55 430.81,-125.37 420.95,-129.25 425.52,-134.55"/>
<text xml:space="preserve" text-anchor="start" x="308" y="-177.45" font-family="Helvetica,sans-Serif" font-size="9.00" fill="#1a1a2e">ipv4_only → connect</text>
</g>
<!-- tcpip_runtime&#45;&gt;ip -->
<g id="edge4" class="edge">
<title>tcpip_runtime&#45;&gt;ip</title>
<path fill="none" stroke="#5f6368" d="M280.79,-182.73C284.11,-180.03 287.27,-177.11 290,-174 301.6,-160.78 294.13,-149.57 308,-138.75 310.12,-137.1 371.67,-123.34 413.21,-114.19"/>
<polygon fill="#5f6368" stroke="#5f6368" points="413.84,-117.63 422.85,-112.07 412.34,-110.8 413.84,-117.63"/>
<text xml:space="preserve" text-anchor="start" x="308" y="-141.45" font-family="Helvetica,sans-Serif" font-size="9.00" fill="#1a1a2e">ipv6_only → connect</text>
</g>
<!-- backend -->
<g id="node2" class="node">
<title>backend</title>
<path fill="#e8f0fe" stroke="#4285f4" d="M1304,-215C1304,-215 1265.5,-215 1265.5,-215 1259.5,-215 1253.5,-209 1253.5,-203 1253.5,-203 1253.5,-191 1253.5,-191 1253.5,-185 1259.5,-179 1265.5,-179 1265.5,-179 1304,-179 1304,-179 1310,-179 1316,-185 1316,-191 1316,-191 1316,-203 1316,-203 1316,-209 1310,-215 1304,-215"/>
<text xml:space="preserve" text-anchor="start" x="1264.5" y="-197.55" font-family="Helvetica,sans-Serif" font-size="11.00" fill="#1a1a2e">backend</text>
<text xml:space="preserve" text-anchor="start" x="1261.5" y="-188.45" font-family="Helvetica,sans-Serif" font-size="9.00" fill="#1a1a2e">&lt;Backend&gt;</text>
</g>
<!-- net -->
<g id="node3" class="node">
<title>net</title>
<path fill="#e8f0fe" stroke="#4285f4" d="M1124.5,-215C1124.5,-215 1094.5,-215 1094.5,-215 1088.5,-215 1082.5,-209 1082.5,-203 1082.5,-203 1082.5,-191 1082.5,-191 1082.5,-185 1088.5,-179 1094.5,-179 1094.5,-179 1124.5,-179 1124.5,-179 1130.5,-179 1136.5,-185 1136.5,-191 1136.5,-191 1136.5,-203 1136.5,-203 1136.5,-209 1130.5,-215 1124.5,-215"/>
<text xml:space="preserve" text-anchor="start" x="1102" y="-197.55" font-family="Helvetica,sans-Serif" font-size="11.00" fill="#1a1a2e">net</text>
<text xml:space="preserve" text-anchor="start" x="1092.62" y="-188.45" font-family="Helvetica,sans-Serif" font-size="9.00" fill="#1a1a2e">&lt;Vnetif&gt;</text>
</g>
<!-- net&#45;&gt;backend -->
<g id="edge5" class="edge">
<title>net&#45;&gt;backend</title>
<path fill="none" stroke="#5f6368" d="M1136.81,-197C1164.63,-197 1208.93,-197 1241.62,-197"/>
<polygon fill="#5f6368" stroke="#5f6368" points="1241.58,-200.5 1251.58,-197 1241.58,-193.5 1241.58,-200.5"/>
<text xml:space="preserve" text-anchor="start" x="1154.5" y="-199.7" font-family="Helvetica,sans-Serif" font-size="9.00" fill="#1a1a2e">backend → connect</text>
</g>
<!-- ethernet -->
<g id="node4" class="node">
<title>ethernet</title>
<path fill="#e8f0fe" stroke="#4285f4" d="M976,-215C976,-215 939,-215 939,-215 933,-215 927,-209 927,-203 927,-203 927,-191 927,-191 927,-185 933,-179 939,-179 939,-179 976,-179 976,-179 982,-179 988,-185 988,-191 988,-191 988,-203 988,-203 988,-209 982,-215 976,-215"/>
<text xml:space="preserve" text-anchor="start" x="937.62" y="-197.55" font-family="Helvetica,sans-Serif" font-size="11.00" fill="#1a1a2e">ethernet</text>
<text xml:space="preserve" text-anchor="start" x="935" y="-188.45" font-family="Helvetica,sans-Serif" font-size="9.00" fill="#1a1a2e">&lt;Ethernet&gt;</text>
</g>
<!-- ethernet&#45;&gt;net -->
<g id="edge6" class="edge">
<title>ethernet&#45;&gt;net</title>
<path fill="none" stroke="#5f6368" d="M988.49,-197C1012.11,-197 1045.18,-197 1070.62,-197"/>
<polygon fill="#5f6368" stroke="#5f6368" points="1070.56,-200.5 1080.56,-197 1070.56,-193.5 1070.56,-200.5"/>
<text xml:space="preserve" text-anchor="start" x="1006" y="-199.7" font-family="Helvetica,sans-Serif" font-size="9.00" fill="#1a1a2e">net → connect</text>
</g>
<!-- arp -->
<g id="node5" class="node">
<title>arp</title>
<path fill="#e8f0fe" stroke="#4285f4" d="M818.25,-176C818.25,-176 788.25,-176 788.25,-176 782.25,-176 776.25,-170 776.25,-164 776.25,-164 776.25,-152 776.25,-152 776.25,-146 782.25,-140 788.25,-140 788.25,-140 818.25,-140 818.25,-140 824.25,-140 830.25,-146 830.25,-152 830.25,-152 830.25,-164 830.25,-164 830.25,-170 824.25,-176 818.25,-176"/>
<text xml:space="preserve" text-anchor="start" x="795.38" y="-158.55" font-family="Helvetica,sans-Serif" font-size="11.00" fill="#1a1a2e">arp</text>
<text xml:space="preserve" text-anchor="start" x="790.88" y="-149.45" font-family="Helvetica,sans-Serif" font-size="9.00" fill="#1a1a2e">&lt;Arp&gt;</text>
</g>
<!-- arp&#45;&gt;ethernet -->
<g id="edge7" class="edge">
<title>arp&#45;&gt;ethernet</title>
<path fill="none" stroke="#5f6368" d="M830.42,-164.7C853.86,-170.71 888.6,-179.61 915.68,-186.54"/>
<polygon fill="#5f6368" stroke="#5f6368" points="914.74,-189.92 925.3,-189.01 916.48,-183.13 914.74,-189.92"/>
<text xml:space="preserve" text-anchor="start" x="850.5" y="-187.09" font-family="Helvetica,sans-Serif" font-size="9.00" fill="#1a1a2e">eth → connect</text>
</g>
<!-- ipv4&#45;&gt;ethernet -->
<g id="edge8" class="edge">
<title>ipv4&#45;&gt;ethernet</title>
<path fill="none" stroke="#5f6368" d="M679.15,-198.24C729.9,-198.52 826.65,-198.87 909,-198 911.05,-197.98 913.14,-197.95 915.26,-197.92"/>
<polygon fill="#5f6368" stroke="#5f6368" points="915.15,-201.42 925.09,-197.75 915.03,-194.42 915.15,-201.42"/>
<text xml:space="preserve" text-anchor="start" x="774" y="-201.25" font-family="Helvetica,sans-Serif" font-size="9.00" fill="#1a1a2e">eth → connect</text>
</g>
<!-- ipv4&#45;&gt;arp -->
<g id="edge9" class="edge">
<title>ipv4&#45;&gt;arp</title>
<path fill="none" stroke="#5f6368" d="M679.12,-189.12C704.66,-182.67 739.17,-173.94 765.16,-167.38"/>
<polygon fill="#5f6368" stroke="#5f6368" points="765.77,-170.83 774.61,-164.99 764.06,-164.04 765.77,-170.83"/>
<text xml:space="preserve" text-anchor="start" x="696.75" y="-186.62" font-family="Helvetica,sans-Serif" font-size="9.00" fill="#1a1a2e">arp → connect</text>
</g>
<!-- ipv6 -->
<g id="node7" class="node">
<title>ipv6</title>
<path fill="#e8f0fe" stroke="#4285f4" d="M818.25,-122C818.25,-122 788.25,-122 788.25,-122 782.25,-122 776.25,-116 776.25,-110 776.25,-110 776.25,-98 776.25,-98 776.25,-92 782.25,-86 788.25,-86 788.25,-86 818.25,-86 818.25,-86 824.25,-86 830.25,-92 830.25,-98 830.25,-98 830.25,-110 830.25,-110 830.25,-116 824.25,-122 818.25,-122"/>
<text xml:space="preserve" text-anchor="start" x="793.5" y="-104.55" font-family="Helvetica,sans-Serif" font-size="11.00" fill="#1a1a2e">ipv6</text>
<text xml:space="preserve" text-anchor="start" x="789.38" y="-95.45" font-family="Helvetica,sans-Serif" font-size="9.00" fill="#1a1a2e">&lt;Ipv6&gt;</text>
</g>
<!-- ipv6&#45;&gt;net -->
<g id="edge10" class="edge">
<title>ipv6&#45;&gt;net</title>
<path fill="none" stroke="#5f6368" d="M830.4,-106.4C851.79,-108.75 882.69,-113 909,-120 967.38,-135.53 1032.13,-162.42 1071.58,-179.96"/>
<polygon fill="#5f6368" stroke="#5f6368" points="1070.07,-183.12 1080.63,-184.02 1072.94,-176.73 1070.07,-183.12"/>
<text xml:space="preserve" text-anchor="start" x="928.25" y="-147.84" font-family="Helvetica,sans-Serif" font-size="9.00" fill="#1a1a2e">net → connect</text>
</g>
<!-- ipv6&#45;&gt;ethernet -->
<g id="edge11" class="edge">
<title>ipv6&#45;&gt;ethernet</title>
<path fill="none" stroke="#5f6368" d="M830.66,-114.79C852.48,-124.23 883.84,-139.01 909,-155.75 915.88,-160.32 922.84,-165.8 929.23,-171.24"/>
<polygon fill="#5f6368" stroke="#5f6368" points="926.58,-173.57 936.4,-177.55 931.2,-168.31 926.58,-173.57"/>
<text xml:space="preserve" text-anchor="start" x="850.5" y="-158.45" font-family="Helvetica,sans-Serif" font-size="9.00" fill="#1a1a2e">eth → connect</text>
</g>
<!-- ip&#45;&gt;ipv4 -->
<g id="edge12" class="edge">
<title>ip&#45;&gt;ipv4</title>
<path fill="none" stroke="#5f6368" d="M479.05,-111.87C507.52,-118.9 553.56,-132.34 589.25,-152.75 598.53,-158.06 607.71,-165.12 615.75,-172.07"/>
<polygon fill="#5f6368" stroke="#5f6368" points="613.39,-174.66 623.15,-178.78 618.09,-169.47 613.39,-174.66"/>
<text xml:space="preserve" text-anchor="start" x="518" y="-155.45" font-family="Helvetica,sans-Serif" font-size="9.00" fill="#1a1a2e">ipv4 → connect</text>
</g>
<!-- ip&#45;&gt;ipv6 -->
<g id="edge13" class="edge">
<title>ip&#45;&gt;ipv6</title>
<path fill="none" stroke="#5f6368" d="M478.9,-105.85C540.43,-105.5 693.99,-104.62 765.07,-104.21"/>
<polygon fill="#5f6368" stroke="#5f6368" points="764.65,-107.72 774.63,-104.16 764.61,-100.72 764.65,-107.72"/>
<text xml:space="preserve" text-anchor="start" x="611.5" y="-107.8" font-family="Helvetica,sans-Serif" font-size="9.00" fill="#1a1a2e">ipv6 → connect</text>
</g>
<!-- icmp -->
<g id="node9" class="node">
<title>icmp</title>
<path fill="#e8f0fe" stroke="#4285f4" d="M366.62,-284C366.62,-284 334.88,-284 334.88,-284 328.88,-284 322.88,-278 322.88,-272 322.88,-272 322.88,-260 322.88,-260 322.88,-254 328.88,-248 334.88,-248 334.88,-248 366.62,-248 366.62,-248 372.62,-248 378.62,-254 378.62,-260 378.62,-260 378.62,-272 378.62,-272 378.62,-278 372.62,-284 366.62,-284"/>
<text xml:space="preserve" text-anchor="start" x="339.5" y="-266.55" font-family="Helvetica,sans-Serif" font-size="11.00" fill="#1a1a2e">icmp</text>
<text xml:space="preserve" text-anchor="start" x="330.88" y="-257.45" font-family="Helvetica,sans-Serif" font-size="9.00" fill="#1a1a2e">&lt;Icmpv4&gt;</text>
</g>
<!-- icmp&#45;&gt;ipv4 -->
<g id="edge14" class="edge">
<title>icmp&#45;&gt;ipv4</title>
<path fill="none" stroke="#5f6368" d="M378.91,-267.57C424.28,-269.19 517.58,-268.21 589.25,-239 598.26,-235.33 607.03,-229.66 614.75,-223.7"/>
<polygon fill="#5f6368" stroke="#5f6368" points="616.94,-226.43 622.42,-217.36 612.48,-221.03 616.94,-226.43"/>
<text xml:space="preserve" text-anchor="start" x="425" y="-270.7" font-family="Helvetica,sans-Serif" font-size="9.00" fill="#1a1a2e">ip → connect</text>
</g>
<!-- udp -->
<g id="node10" class="node">
<title>udp</title>
<path fill="#e8f0fe" stroke="#4285f4" d="M264.75,-64C264.75,-64 234.75,-64 234.75,-64 228.75,-64 222.75,-58 222.75,-52 222.75,-52 222.75,-40 222.75,-40 222.75,-34 228.75,-28 234.75,-28 234.75,-28 264.75,-28 264.75,-28 270.75,-28 276.75,-34 276.75,-40 276.75,-40 276.75,-52 276.75,-52 276.75,-58 270.75,-64 264.75,-64"/>
<text xml:space="preserve" text-anchor="start" x="240.75" y="-46.55" font-family="Helvetica,sans-Serif" font-size="11.00" fill="#1a1a2e">udp</text>
<text xml:space="preserve" text-anchor="start" x="235.88" y="-37.45" font-family="Helvetica,sans-Serif" font-size="9.00" fill="#1a1a2e">&lt;Udp&gt;</text>
</g>
<!-- udp&#45;&gt;ip -->
<g id="edge15" class="edge">
<title>udp&#45;&gt;ip</title>
<path fill="none" stroke="#5f6368" d="M277.25,-40.5C306.87,-35.65 355.66,-31.59 393.5,-47.75 408.76,-54.27 422.01,-67.02 431.9,-78.93"/>
<polygon fill="#5f6368" stroke="#5f6368" points="428.95,-80.83 437.86,-86.57 434.47,-76.53 428.95,-80.83"/>
<text xml:space="preserve" text-anchor="start" x="324.12" y="-50.45" font-family="Helvetica,sans-Serif" font-size="9.00" fill="#1a1a2e">ip → connect</text>
</g>
<!-- tcp -->
<g id="node11" class="node">
<title>tcp</title>
<path fill="#e8f0fe" stroke="#4285f4" d="M264.75,-165C264.75,-165 234.75,-165 234.75,-165 228.75,-165 222.75,-159 222.75,-153 222.75,-153 222.75,-141 222.75,-141 222.75,-135 228.75,-129 234.75,-129 234.75,-129 264.75,-129 264.75,-129 270.75,-129 276.75,-135 276.75,-141 276.75,-141 276.75,-153 276.75,-153 276.75,-159 270.75,-165 264.75,-165"/>
<text xml:space="preserve" text-anchor="start" x="242.62" y="-147.55" font-family="Helvetica,sans-Serif" font-size="11.00" fill="#1a1a2e">tcp</text>
<text xml:space="preserve" text-anchor="start" x="234.75" y="-138.45" font-family="Helvetica,sans-Serif" font-size="9.00" fill="#1a1a2e">&lt;Flow&gt;</text>
</g>
<!-- tcp&#45;&gt;ip -->
<g id="edge16" class="edge">
<title>tcp&#45;&gt;ip</title>
<path fill="none" stroke="#5f6368" d="M273.82,-128.65C286.28,-119.18 300.59,-109.11 308,-106.75 342.21,-95.83 383.43,-97.04 412.74,-100.14"/>
<polygon fill="#5f6368" stroke="#5f6368" points="412.28,-103.61 422.62,-101.33 413.11,-96.66 412.28,-103.61"/>
<text xml:space="preserve" text-anchor="start" x="324.12" y="-109.45" font-family="Helvetica,sans-Serif" font-size="9.00" fill="#1a1a2e">ip → connect</text>
</g>
<!-- stack -->
<g id="node12" class="node">
<title>stack</title>
<path fill="#e8f0fe" stroke="#4285f4" d="M80.5,-165C80.5,-165 12,-165 12,-165 6,-165 0,-159 0,-153 0,-153 0,-141 0,-141 0,-135 6,-129 12,-129 12,-129 80.5,-129 80.5,-129 86.5,-129 92.5,-135 92.5,-141 92.5,-141 92.5,-153 92.5,-153 92.5,-159 86.5,-165 80.5,-165"/>
<text xml:space="preserve" text-anchor="start" x="33.88" y="-147.55" font-family="Helvetica,sans-Serif" font-size="11.00" fill="#1a1a2e">stack</text>
<text xml:space="preserve" text-anchor="start" x="8" y="-138.45" font-family="Helvetica,sans-Serif" font-size="9.00" fill="#1a1a2e">&lt;DirectStackv4v6&gt;</text>
</g>
<!-- stack&#45;&gt;net -->
<g id="edge17" class="edge">
<title>stack&#45;&gt;net</title>
<path fill="none" stroke="#5f6368" d="M51.82,-165.26C59.65,-193.36 78.01,-247.54 110.5,-282 158.45,-332.86 178.85,-357 248.75,-357 248.75,-357 248.75,-357 958.5,-357 1029.55,-357 1076.72,-271.98 1097.07,-225.89"/>
<polygon fill="#5f6368" stroke="#5f6368" points="1100.27,-227.32 1100.97,-216.75 1093.83,-224.58 1100.27,-227.32"/>
<text xml:space="preserve" text-anchor="start" x="611.5" y="-359.7" font-family="Helvetica,sans-Serif" font-size="9.00" fill="#1a1a2e">netif → connect</text>
</g>
<!-- stack&#45;&gt;ethernet -->
<g id="edge18" class="edge">
<title>stack&#45;&gt;ethernet</title>
<path fill="none" stroke="#5f6368" d="M58.01,-165.49C84.49,-208.38 157.41,-311 248.75,-311 248.75,-311 248.75,-311 804.25,-311 861.9,-311 911.73,-257.98 937.59,-224.26"/>
<polygon fill="#5f6368" stroke="#5f6368" points="940.18,-226.64 943.33,-216.53 934.56,-222.47 940.18,-226.64"/>
<text xml:space="preserve" text-anchor="start" x="509.75" y="-313.7" font-family="Helvetica,sans-Serif" font-size="9.00" fill="#1a1a2e">ethernet → connect</text>
</g>
<!-- stack&#45;&gt;arp -->
<g id="edge19" class="edge">
<title>stack&#45;&gt;arp</title>
<path fill="none" stroke="#5f6368" d="M54.17,-128.62C63.59,-106.03 82.52,-67.99 110.5,-46 161.41,-5.98 183.99,0 248.75,0 248.75,0 248.75,0 550.5,0 599.75,0 715.51,-87.84 771.22,-132.53"/>
<polygon fill="#5f6368" stroke="#5f6368" points="768.79,-135.06 778.77,-138.62 773.18,-129.61 768.79,-135.06"/>
<text xml:space="preserve" text-anchor="start" x="417.12" y="-2.7" font-family="Helvetica,sans-Serif" font-size="9.00" fill="#1a1a2e">arpv4 → connect</text>
</g>
<!-- stack&#45;&gt;ip -->
<g id="edge20" class="edge">
<title>stack&#45;&gt;ip</title>
<path fill="none" stroke="#5f6368" d="M93,-132.45C159.08,-113.14 285.23,-82.75 393.5,-94 400.02,-94.68 406.9,-95.78 413.53,-97.05"/>
<polygon fill="#5f6368" stroke="#5f6368" points="412.37,-100.38 422.87,-98.99 413.79,-93.53 412.37,-100.38"/>
<text xml:space="preserve" text-anchor="start" x="213.38" y="-107.5" font-family="Helvetica,sans-Serif" font-size="9.00" fill="#1a1a2e">ipv4v6 → connect</text>
</g>
<!-- stack&#45;&gt;icmp -->
<g id="edge21" class="edge">
<title>stack&#45;&gt;icmp</title>
<path fill="none" stroke="#5f6368" d="M79.33,-165.4C111.46,-183.25 162.72,-210.19 209.5,-228 243.17,-240.82 282.93,-251.16 311.49,-257.8"/>
<polygon fill="#5f6368" stroke="#5f6368" points="310.62,-261.19 321.15,-260 312.17,-254.37 310.62,-261.19"/>
<text xml:space="preserve" text-anchor="start" x="113.5" y="-222.85" font-family="Helvetica,sans-Serif" font-size="9.00" fill="#1a1a2e">icmpv4 → connect</text>
</g>
<!-- stack&#45;&gt;udp -->
<g id="edge22" class="edge">
<title>stack&#45;&gt;udp</title>
<path fill="none" stroke="#5f6368" d="M58.38,-128.54C69.47,-111.82 88.04,-87.86 110.5,-74.75 141.3,-56.77 181.73,-49.94 210.91,-47.4"/>
<polygon fill="#5f6368" stroke="#5f6368" points="211.04,-50.9 220.76,-46.68 210.53,-43.91 211.04,-50.9"/>
<text xml:space="preserve" text-anchor="start" x="110.5" y="-77.45" font-family="Helvetica,sans-Serif" font-size="9.00" fill="#1a1a2e">udpv4v6 → connect</text>
</g>
<!-- stack&#45;&gt;tcp -->
<g id="edge23" class="edge">
<title>stack&#45;&gt;tcp</title>
<path fill="none" stroke="#5f6368" d="M92.97,-147C128.7,-147 177.75,-147 211.21,-147"/>
<polygon fill="#5f6368" stroke="#5f6368" points="210.83,-150.5 220.83,-147 210.83,-143.5 210.83,-150.5"/>
<text xml:space="preserve" text-anchor="start" x="112.38" y="-149.7" font-family="Helvetica,sans-Serif" font-size="9.00" fill="#1a1a2e">tcpv4v6 → connect</text>
</g>
</g>
</svg>
