<?xml version="1.0" encoding="UTF-8" standalone="no"?>
<!DOCTYPE svg PUBLIC "-//W3C//DTD SVG 1.1//EN"
 "http://www.w3.org/Graphics/SVG/1.1/DTD/svg11.dtd">
<!-- Generated by graphviz version 14.1.2 (20260124.0452)
 -->
<!-- Title: TcpipStack Pages: 1 -->
<svg width="1325pt" height="346pt"
 viewBox="0.00 0.00 1325.00 346.00" xmlns="http://www.w3.org/2000/svg" xmlns:xlink="http://www.w3.org/1999/xlink">
<g id="graph0" class="graph" transform="scale(1 1) rotate(0) translate(28.8 316.8)">
<title>TcpipStack</title>
<polygon fill="white" stroke="none" points="-28.8,28.8 -28.8,-316.8 1296.05,-316.8 1296.05,28.8 -28.8,28.8"/>
<!-- backend -->
<g id="node1" class="node">
<title>backend</title>
<path fill="#e8f0fe" stroke="#4285f4" d="M1255.25,-148C1255.25,-148 1216.75,-148 1216.75,-148 1210.75,-148 1204.75,-142 1204.75,-136 1204.75,-136 1204.75,-124 1204.75,-124 1204.75,-118 1210.75,-112 1216.75,-112 1216.75,-112 1255.25,-112 1255.25,-112 1261.25,-112 1267.25,-118 1267.25,-124 1267.25,-124 1267.25,-136 1267.25,-136 1267.25,-142 1261.25,-148 1255.25,-148"/>
<text xml:space="preserve" text-anchor="start" x="1215.75" y="-130.55" font-family="Helvetica,sans-Serif" font-size="11.00" fill="#1a1a2e">backend</text>
<text xml:space="preserve" text-anchor="start" x="1212.75" y="-121.45" font-family="Helvetica,sans-Serif" font-size="9.00" fill="#1a1a2e">&lt;Backend&gt;</text>
</g>
<!-- net -->
<g id="node2" class="node">
<title>net</title>
<path fill="#e8f0fe" stroke="#4285f4" d="M1075.75,-148C1075.75,-148 1045.75,-148 1045.75,-148 1039.75,-148 1033.75,-142 1033.75,-136 1033.75,-136 1033.75,-124 1033.75,-124 1033.75,-118 1039.75,-112 1045.75,-112 1045.75,-112 1075.75,-112 1075.75,-112 1081.75,-112 1087.75,-118 1087.75,-124 1087.75,-124 1087.75,-136 1087.75,-136 1087.75,-142 1081.75,-148 1075.75,-148"/>
<text xml:space="preserve" text-anchor="start" x="1053.25" y="-130.55" font-family="Helvetica,sans-Serif" font-size="11.00" fill="#1a1a2e">net</text>
<text xml:space="preserve" text-anchor="start" x="1043.88" y="-121.45" font-family="Helvetica,sans-Serif" font-size="9.00" fill="#1a1a2e">&lt;Vnetif&gt;</text>
</g>
<!-- net&#45;&gt;backend -->
<g id="edge1" class="edge">
<title>net&#45;&gt;backend</title>
<path fill="none" stroke="#5f6368" d="M1088.06,-130C1115.88,-130 1160.18,-130 1192.87,-130"/>
<polygon fill="#5f6368" stroke="#5f6368" points="1192.83,-133.5 1202.83,-130 1192.83,-126.5 1192.83,-133.5"/>
<text xml:space="preserve" text-anchor="start" x="1105.75" y="-132.7" font-family="Helvetica,sans-Serif" font-size="9.00" fill="#1a1a2e">backend → connect</text>
</g>
<!-- ethernet -->
<g id="node3" class="node">
<title>ethernet</title>
<path fill="#e8f0fe" stroke="#4285f4" d="M927.25,-148C927.25,-148 890.25,-148 890.25,-148 884.25,-148 878.25,-142 878.25,-136 878.25,-136 878.25,-124 878.25,-124 878.25,-118 884.25,-112 890.25,-112 890.25,-112 927.25,-112 927.25,-112 933.25,-112 939.25,-118 939.25,-124 939.25,-124 939.25,-136 939.25,-136 939.25,-142 933.25,-148 927.25,-148"/>
<text xml:space="preserve" text-anchor="start" x="888.88" y="-130.55" font-family="Helvetica,sans-Serif" font-size="11.00" fill="#1a1a2e">ethernet</text>
<text xml:space="preserve" text-anchor="start" x="886.25" y="-121.45" font-family="Helvetica,sans-Serif" font-size="9.00" fill="#1a1a2e">&lt;Ethernet&gt;</text>
</g>
<!-- ethernet&#45;&gt;net -->
<g id="edge2" class="edge">
<title>ethernet&#45;&gt;net</title>
<path fill="none" stroke="#5f6368" d="M939.74,-130C963.36,-130 996.43,-130 1021.87,-130"/>
<polygon fill="#5f6368" stroke="#5f6368" points="1021.81,-133.5 1031.81,-130 1021.81,-126.5 1021.81,-133.5"/>
<text xml:space="preserve" text-anchor="start" x="957.25" y="-132.7" font-family="Helvetica,sans-Serif" font-size="9.00" fill="#1a1a2e">net → connect</text>
</g>
<!-- arp -->
<g id="node4" class="node">
<title>arp</title>
<path fill="#e8f0fe" stroke="#4285f4" d="M769.5,-108C769.5,-108 739.5,-108 739.5,-108 733.5,-108 727.5,-102 727.5,-96 727.5,-96 727.5,-84 727.5,-84 727.5,-78 733.5,-72 739.5,-72 739.5,-72 769.5,-72 769.5,-72 775.5,-72 781.5,-78 781.5,-84 781.5,-84 781.5,-96 781.5,-96 781.5,-102 775.5,-108 769.5,-108"/>
<text xml:space="preserve" text-anchor="start" x="746.62" y="-90.55" font-family="Helvetica,sans-Serif" font-size="11.00" fill="#1a1a2e">arp</text>
<text xml:space="preserve" text-anchor="start" x="742.12" y="-81.45" font-family="Helvetica,sans-Serif" font-size="9.00" fill="#1a1a2e">&lt;Arp&gt;</text>
</g>
<!-- arp&#45;&gt;ethernet -->
<g id="edge3" class="edge">
<title>arp&#45;&gt;ethernet</title>
<path fill="none" stroke="#5f6368" d="M781.67,-96.88C805.11,-103.03 839.85,-112.16 866.93,-119.28"/>
<polygon fill="#5f6368" stroke="#5f6368" points="865.99,-122.65 876.55,-121.8 867.77,-115.88 865.99,-122.65"/>
<text xml:space="preserve" text-anchor="start" x="801.75" y="-119.76" font-family="Helvetica,sans-Serif" font-size="9.00" fill="#1a1a2e">eth → connect</text>
</g>
<!-- ipv4 -->
<g id="node5" class="node">
<title>ipv4</title>
<path fill="#e8f0fe" stroke="#4285f4" d="M618,-160C618,-160 570.5,-160 570.5,-160 564.5,-160 558.5,-154 558.5,-148 558.5,-148 558.5,-136 558.5,-136 558.5,-130 564.5,-124 570.5,-124 570.5,-124 618,-124 618,-124 624,-124 630,-130 630,-136 630,-136 630,-148 630,-148 630,-154 624,-160 618,-160"/>
<text xml:space="preserve" text-anchor="start" x="584.5" y="-142.55" font-family="Helvetica,sans-Serif" font-size="11.00" fill="#1a1a2e">ipv4</text>
<text xml:space="preserve" text-anchor="start" x="566.5" y="-133.45" font-family="Helvetica,sans-Serif" font-size="9.00" fill="#1a1a2e">&lt;Static_ipv4&gt;</text>
</g>
<!-- ipv4&#45;&gt;ethernet -->
<g id="edge4" class="edge">
<title>ipv4&#45;&gt;ethernet</title>
<path fill="none" stroke="#5f6368" d="M630.49,-140.65C688.82,-138.41 805.14,-133.94 866.94,-131.57"/>
<polygon fill="#5f6368" stroke="#5f6368" points="866.81,-135.07 876.67,-131.19 866.55,-128.08 866.81,-135.07"/>
<text xml:space="preserve" text-anchor="start" x="725.25" y="-139.7" font-family="Helvetica,sans-Serif" font-size="9.00" fill="#1a1a2e">eth → connect</text>
</g>
<!-- ipv4&#45;&gt;arp -->
<g id="edge5" class="edge">
<title>ipv4&#45;&gt;arp</title>
<path fill="none" stroke="#5f6368" d="M630.43,-125.63C636.24,-123.18 642.25,-120.79 648,-118.75 670.24,-110.87 695.76,-103.86 716.12,-98.74"/>
<polygon fill="#5f6368" stroke="#5f6368" points="716.81,-102.17 725.68,-96.38 715.14,-95.38 716.81,-102.17"/>
<text xml:space="preserve" text-anchor="start" x="648" y="-121.45" font-family="Helvetica,sans-Serif" font-size="9.00" fill="#1a1a2e">arp → connect</text>
</g>
<!-- ipv6 -->
<g id="node6" class="node">
<title>ipv6</title>
<path fill="#e8f0fe" stroke="#4285f4" d="M769.5,-216C769.5,-216 739.5,-216 739.5,-216 733.5,-216 727.5,-210 727.5,-204 727.5,-204 727.5,-192 727.5,-192 727.5,-186 733.5,-180 739.5,-180 739.5,-180 769.5,-180 769.5,-180 775.5,-180 781.5,-186 781.5,-192 781.5,-192 781.5,-204 781.5,-204 781.5,-210 775.5,-216 769.5,-216"/>
<text xml:space="preserve" text-anchor="start" x="744.75" y="-198.55" font-family="Helvetica,sans-Serif" font-size="11.00" fill="#1a1a2e">ipv6</text>
<text xml:space="preserve" text-anchor="start" x="740.62" y="-189.45" font-family="Helvetica,sans-Serif" font-size="9.00" fill="#1a1a2e">&lt;Ipv6&gt;</text>
</g>
<!-- ipv6&#45;&gt;net -->
<g id="edge6" class="edge">
<title>ipv6&#45;&gt;net</title>
<path fill="none" stroke="#5f6368" d="M781.94,-197.12C803.23,-196.07 833.86,-193.82 860.25,-189 930.9,-176.09 947.18,-166.37 1015.75,-145 1017.98,-144.31 1020.26,-143.58 1022.56,-142.83"/>
<polygon fill="#5f6368" stroke="#5f6368" points="1023.47,-146.22 1031.86,-139.75 1021.27,-139.57 1023.47,-146.22"/>
<text xml:space="preserve" text-anchor="start" x="879.5" y="-187.91" font-family="Helvetica,sans-Serif" font-size="9.00" fill="#1a1a2e">net → connect</text>
</g>
<!-- ipv6&#45;&gt;ethernet -->
<g id="edge7" class="edge">
<title>ipv6&#45;&gt;ethernet</title>
<path fill="none" stroke="#5f6368" d="M781.83,-186.24C788.32,-183.41 795.27,-180.43 801.75,-177.75 827.53,-167.1 834.87,-166.57 860.25,-155 862.68,-153.89 865.17,-152.72 867.66,-151.51"/>
<polygon fill="#5f6368" stroke="#5f6368" points="869.13,-154.68 876.5,-147.07 865.99,-148.43 869.13,-154.68"/>
<text xml:space="preserve" text-anchor="start" x="801.75" y="-180.45" font-family="Helvetica,sans-Serif" font-size="9.00" fill="#1a1a2e">eth → connect</text>
</g>
<!-- ip -->
<g id="node7" class="node">
<title>ip</title>
<path fill="#e8f0fe" stroke="#4285f4" d="M423.5,-216C423.5,-216 393.5,-216 393.5,-216 387.5,-216 381.5,-210 381.5,-204 381.5,-204 381.5,-192 381.5,-192 381.5,-186 387.5,-180 393.5,-180 393.5,-180 423.5,-180 423.5,-180 429.5,-180 435.5,-186 435.5,-192 435.5,-192 435.5,-204 435.5,-204 435.5,-210 429.5,-216 423.5,-216"/>
<text xml:space="preserve" text-anchor="start" x="404.38" y="-198.55" font-family="Helvetica,sans-Serif" font-size="11.00" fill="#1a1a2e">ip</text>
<text xml:space="preserve" text-anchor="start" x="399.5" y="-189.45" font-family="Helvetica,sans-Serif" font-size="9.00" fill="#1a1a2e">&lt;Ip&gt;</text>
</g>
<!-- ip&#45;&gt;ipv4 -->
<g id="edge8" class="edge">
<title>ip&#45;&gt;ipv4</title>
<path fill="none" stroke="#5f6368" d="M436,-183.58C443.88,-179.68 452.65,-175.72 461,-172.75 488.95,-162.79 521.39,-155.2 547.14,-150.04"/>
<polygon fill="#5f6368" stroke="#5f6368" points="547.47,-153.54 556.62,-148.2 546.13,-146.67 547.47,-153.54"/>
<text xml:space="preserve" text-anchor="start" x="469.25" y="-175.45" font-family="Helvetica,sans-Serif" font-size="9.00" fill="#1a1a2e">ipv4 → connect</text>
</g>
<!-- ip&#45;&gt;ipv6 -->
<g id="edge9" class="edge">
<title>ip&#45;&gt;ipv6</title>
<path fill="none" stroke="#5f6368" d="M435.92,-198C496.6,-198 646.07,-198 716.13,-198"/>
<polygon fill="#5f6368" stroke="#5f6368" points="715.95,-201.5 725.95,-198 715.95,-194.5 715.95,-201.5"/>
<text xml:space="preserve" text-anchor="start" x="562.75" y="-200.7" font-family="Helvetica,sans-Serif" font-size="9.00" fill="#1a1a2e">ipv6 → connect</text>
</g>
<!-- icmp -->
<g id="node8" class="node">
<title>icmp</title>
<path fill="#e8f0fe" stroke="#4285f4" d="M344,-145C344,-145 312.25,-145 312.25,-145 306.25,-145 300.25,-139 300.25,-133 300.25,-133 300.25,-121 300.25,-121 300.25,-115 306.25,-109 312.25,-109 312.25,-109 344,-109 344,-109 350,-109 356,-115 356,-121 356,-121 356,-133 356,-133 356,-139 350,-145 344,-145"/>
<text xml:space="preserve" text-anchor="start" x="316.88" y="-127.55" font-family="Helvetica,sans-Serif" font-size="11.00" fill="#1a1a2e">icmp</text>
<text xml:space="preserve" text-anchor="start" x="308.25" y="-118.45" font-family="Helvetica,sans-Serif" font-size="9.00" fill="#1a1a2e">&lt;Icmpv4&gt;</text>
</g>
<!-- icmp&#45;&gt;ipv4 -->
<g id="edge10" class="edge">
<title>icmp&#45;&gt;ipv4</title>
<path fill="none" stroke="#5f6368" d="M356.4,-128.55C401.43,-131.11 491.85,-136.24 547.02,-139.37"/>
<polygon fill="#5f6368" stroke="#5f6368" points="546.53,-142.85 556.71,-139.92 546.93,-135.86 546.53,-142.85"/>
<text xml:space="preserve" text-anchor="start" x="381.88" y="-135.92" font-family="Helvetica,sans-Serif" font-size="9.00" fill="#1a1a2e">ip → connect</text>
</g>
<!-- udp -->
<g id="node9" class="node">
<title>udp</title>
<path fill="#e8f0fe" stroke="#4285f4" d="M260.88,-288C260.88,-288 230.88,-288 230.88,-288 224.88,-288 218.88,-282 218.88,-276 218.88,-276 218.88,-264 218.88,-264 218.88,-258 224.88,-252 230.88,-252 230.88,-252 260.88,-252 260.88,-252 266.88,-252 272.88,-258 272.88,-264 272.88,-264 272.88,-276 272.88,-276 272.88,-282 266.88,-288 260.88,-288"/>
<text xml:space="preserve" text-anchor="start" x="236.88" y="-270.55" font-family="Helvetica,sans-Serif" font-size="11.00" fill="#1a1a2e">udp</text>
<text xml:space="preserve" text-anchor="start" x="232" y="-261.45" font-family="Helvetica,sans-Serif" font-size="9.00" fill="#1a1a2e">&lt;Udp&gt;</text>
</g>
<!-- udp&#45;&gt;ip -->
<g id="edge11" class="edge">
<title>udp&#45;&gt;ip</title>
<path fill="none" stroke="#5f6368" d="M273.18,-259.94C295.47,-251.22 328.15,-238.01 356,-225 360.89,-222.72 365.98,-220.21 370.98,-217.67"/>
<polygon fill="#5f6368" stroke="#5f6368" points="372.39,-220.88 379.66,-213.18 369.17,-214.67 372.39,-220.88"/>
<text xml:space="preserve" text-anchor="start" x="301.5" y="-250.82" font-family="Helvetica,sans-Serif" font-size="9.00" fill="#1a1a2e">ip → connect</text>
</g>
<!-- tcp -->
<g id="node10" class="node">
<title>tcp</title>
<path fill="#e8f0fe" stroke="#4285f4" d="M260.88,-234C260.88,-234 230.88,-234 230.88,-234 224.88,-234 218.88,-228 218.88,-222 218.88,-222 218.88,-210 218.88,-210 218.88,-204 224.88,-198 230.88,-198 230.88,-198 260.88,-198 260.88,-198 266.88,-198 272.88,-204 272.88,-210 272.88,-210 272.88,-222 272.88,-222 272.88,-228 266.88,-234 260.88,-234"/>
<text xml:space="preserve" text-anchor="start" x="238.75" y="-216.55" font-family="Helvetica,sans-Serif" font-size="11.00" fill="#1a1a2e">tcp</text>
<text xml:space="preserve" text-anchor="start" x="230.88" y="-207.45" font-family="Helvetica,sans-Serif" font-size="9.00" fill="#1a1a2e">&lt;Flow&gt;</text>
</g>
<!-- tcp&#45;&gt;ip -->
<g id="edge12" class="edge">
<title>tcp&#45;&gt;ip</title>
<path fill="none" stroke="#5f6368" d="M273.04,-213.07C299.33,-210.12 340.11,-205.55 369.87,-202.22"/>
<polygon fill="#5f6368" stroke="#5f6368" points="370.03,-205.72 379.58,-201.13 369.25,-198.76 370.03,-205.72"/>
<text xml:space="preserve" text-anchor="start" x="301.5" y="-212.36" font-family="Helvetica,sans-Serif" font-size="9.00" fill="#1a1a2e">ip → connect</text>
</g>
<!-- stack -->
<g id="node11" class="node">
<title>stack</title>
<path fill="#e8f0fe" stroke="#4285f4" d="M80.5,-141C80.5,-141 12,-141 12,-141 6,-141 0,-135 0,-129 0,-129 0,-117 0,-117 0,-111 6,-105 12,-105 12,-105 80.5,-105 80.5,-105 86.5,-105 92.5,-111 92.5,-117 92.5,-117 92.5,-129 92.5,-129 92.5,-135 86.5,-141 80.5,-141"/>
<text xml:space="preserve" text-anchor="start" x="33.88" y="-123.55" font-family="Helvetica,sans-Serif" font-size="11.00" fill="#1a1a2e">stack</text>
<text xml:space="preserve" text-anchor="start" x="8" y="-114.45" font-family="Helvetica,sans-Serif" font-size="9.00" fill="#1a1a2e">&lt;DirectStackv4v6&gt;</text>
</g>
<!-- stack&#45;&gt;net -->
<g id="edge13" class="edge">
<title>stack&#45;&gt;net</title>
<path fill="none" stroke="#5f6368" d="M57.52,-104.76C68.46,-86.87 87.4,-60.01 110.5,-44 162.15,-8.2 182.03,0 244.88,0 244.88,0 244.88,0 909.75,0 971.59,0 1020.45,-63.89 1044.13,-102.09"/>
<polygon fill="#5f6368" stroke="#5f6368" points="1040.94,-103.58 1049.09,-110.35 1046.94,-99.98 1040.94,-103.58"/>
<text xml:space="preserve" text-anchor="start" x="562.75" y="-2.7" font-family="Helvetica,sans-Serif" font-size="9.00" fill="#1a1a2e">netif → connect</text>
</g>
<!-- stack&#45;&gt;ethernet -->
<g id="edge14" class="edge">
<title>stack&#45;&gt;ethernet</title>
<path fill="none" stroke="#5f6368" d="M72.32,-104.57C108.5,-79.84 178.33,-39 244.88,-39 244.88,-39 244.88,-39 755.5,-39 806.29,-39 854.83,-76.77 882.94,-103.65"/>
<polygon fill="#5f6368" stroke="#5f6368" points="880.33,-105.99 889.91,-110.52 885.25,-101.01 880.33,-105.99"/>
<text xml:space="preserve" text-anchor="start" x="461" y="-41.7" font-family="Helvetica,sans-Serif" font-size="9.00" fill="#1a1a2e">ethernet → connect</text>
</g>
<!-- stack&#45;&gt;arp -->
<g id="edge15" class="edge">
<title>stack&#45;&gt;arp</title>
<path fill="none" stroke="#5f6368" d="M92.7,-109.17C132.45,-98.31 191.94,-85 244.88,-85 244.88,-85 244.88,-85 595.25,-85 636.44,-85 683.63,-86.71 715.69,-88.13"/>
<polygon fill="#5f6368" stroke="#5f6368" points="715.53,-91.63 725.68,-88.59 715.85,-84.64 715.53,-91.63"/>
<text xml:space="preserve" text-anchor="start" x="374" y="-87.7" font-family="Helvetica,sans-Serif" font-size="9.00" fill="#1a1a2e">arpv4 → connect</text>
</g>
<!-- stack&#45;&gt;ip -->
<g id="edge16" class="edge">
<title>stack&#45;&gt;ip</title>
<path fill="none" stroke="#5f6368" d="M92.76,-135.64C98.71,-137.17 104.74,-138.67 110.5,-140 203.2,-161.48 313.39,-181.6 369.92,-191.53"/>
<polygon fill="#5f6368" stroke="#5f6368" points="369.2,-194.96 379.66,-193.23 370.41,-188.06 369.2,-194.96"/>
<text xml:space="preserve" text-anchor="start" x="209.5" y="-177.83" font-family="Helvetica,sans-Serif" font-size="9.00" fill="#1a1a2e">ipv4v6 → connect</text>
</g>
<!-- stack&#45;&gt;icmp -->
<g id="edge17" class="edge">
<title>stack&#45;&gt;icmp</title>
<path fill="none" stroke="#5f6368" d="M92.84,-123.65C147.3,-124.43 237.45,-125.72 288.59,-126.45"/>
<polygon fill="#5f6368" stroke="#5f6368" points="288.23,-129.94 298.28,-126.59 288.33,-122.95 288.23,-129.94"/>
<text xml:space="preserve" text-anchor="start" x="113.5" y="-127.7" font-family="Helvetica,sans-Serif" font-size="9.00" fill="#1a1a2e">icmpv4 → connect</text>
</g>
<!-- stack&#45;&gt;udp -->
<g id="edge18" class="edge">
<title>stack&#45;&gt;udp</title>
<path fill="none" stroke="#5f6368" d="M53.97,-141.16C63.29,-163.91 82.23,-202.63 110.5,-225 138.65,-247.27 178.36,-258.78 207.31,-264.55"/>
<polygon fill="#5f6368" stroke="#5f6368" points="206.65,-267.99 217.11,-266.35 207.91,-261.1 206.65,-267.99"/>
<text xml:space="preserve" text-anchor="start" x="110.5" y="-263.23" font-family="Helvetica,sans-Serif" font-size="9.00" fill="#1a1a2e">udpv4v6 → connect</text>
</g>
<!-- stack&#45;&gt;tcp -->
<g id="edge19" class="edge">
<title>stack&#45;&gt;tcp</title>
<path fill="none" stroke="#5f6368" d="M61.99,-141.4C73.75,-154.87 91.37,-172.55 110.5,-183 140.66,-199.47 179.08,-207.84 207.1,-212.02"/>
<polygon fill="#5f6368" stroke="#5f6368" points="206.54,-215.47 216.92,-213.36 207.49,-208.54 206.54,-215.47"/>
<text xml:space="preserve" text-anchor="start" x="112.38" y="-212.09" font-family="Helvetica,sans-Serif" font-size="9.00" fill="#1a1a2e">tcpv4v6 → connect</text>
</g>
</g>
</svg>
