<?xml version="1.0" encoding="UTF-8" standalone="no"?>
<!DOCTYPE svg PUBLIC "-//W3C//DTD SVG 1.1//EN"
 "http://www.w3.org/Graphics/SVG/1.1/DTD/svg11.dtd">
<!-- Generated by graphviz version 14.1.2 (20260124.0452)
 -->
<!-- Title: UnixWebsiteWithDns Pages: 1 -->
<svg width="836pt" height="726pt"
 viewBox="0.00 0.00 836.00 726.00" xmlns="http://www.w3.org/2000/svg" xmlns:xlink="http://www.w3.org/1999/xlink">
<g id="graph0" class="graph" transform="scale(1 1) rotate(0) translate(28.8 697.47)">
<title>UnixWebsiteWithDns</title>
<polygon fill="white" stroke="none" points="-28.8,28.8 -28.8,-697.47 806.8,-697.47 806.8,28.8 -28.8,28.8"/>
<g id="clust1" class="cluster">
<title>cluster_SocketStack</title>
<path fill="#f8f9fa" stroke="#5f6368" d="M172.25,-422.67C172.25,-422.67 474.75,-422.67 474.75,-422.67 480.75,-422.67 486.75,-428.67 486.75,-434.67 486.75,-434.67 486.75,-648.67 486.75,-648.67 486.75,-654.67 480.75,-660.67 474.75,-660.67 474.75,-660.67 172.25,-660.67 172.25,-660.67 166.25,-660.67 160.25,-654.67 160.25,-648.67 160.25,-648.67 160.25,-434.67 160.25,-434.67 160.25,-428.67 166.25,-422.67 172.25,-422.67"/>
<text xml:space="preserve" text-anchor="middle" x="323.5" y="-643.37" font-family="Helvetica,sans-Serif" font-size="14.00">SocketStack</text>
</g>
<g id="clust2" class="cluster">
<title>cluster_DnsStack</title>
<path fill="#f8f9fa" stroke="#5f6368" d="M383.5,-339.67C383.5,-339.67 758,-339.67 758,-339.67 764,-339.67 770,-345.67 770,-351.67 770,-351.67 770,-402.67 770,-402.67 770,-408.67 764,-414.67 758,-414.67 758,-414.67 383.5,-414.67 383.5,-414.67 377.5,-414.67 371.5,-408.67 371.5,-402.67 371.5,-402.67 371.5,-351.67 371.5,-351.67 371.5,-345.67 377.5,-339.67 383.5,-339.67"/>
<text xml:space="preserve" text-anchor="middle" x="570.75" y="-397.37" font-family="Helvetica,sans-Serif" font-size="14.00">DnsStack</text>
</g>
<!-- runtime -->
<g id="node1" class="node">
<title>runtime</title>
<path fill="#e8f0fe" stroke="#4285f4" d="M221,-466.67C221,-466.67 184,-466.67 184,-466.67 178,-466.67 172,-460.67 172,-454.67 172,-454.67 172,-442.67 172,-442.67 172,-436.67 178,-430.67 184,-430.67 184,-430.67 221,-430.67 221,-430.67 227,-430.67 233,-436.67 233,-442.67 233,-442.67 233,-454.67 233,-454.67 233,-460.67 227,-466.67 221,-466.67"/>
<text xml:space="preserve" text-anchor="start" x="184.5" y="-449.22" font-family="Helvetica,sans-Serif" font-size="11.00" fill="#1a1a2e">runtime</text>
<text xml:space="preserve" text-anchor="start" x="180" y="-440.12" font-family="Helvetica,sans-Serif" font-size="9.00" fill="#1a1a2e">&lt;Runtime&gt;</text>
</g>
<!-- udpv4v6_socket -->
<g id="node2" class="node">
<title>udpv4v6_socket</title>
<path fill="#dcedc8" stroke="#558b2f" d="M466.75,-568.67C466.75,-568.67 396,-568.67 396,-568.67 390,-568.67 384,-562.67 384,-556.67 384,-556.67 384,-544.67 384,-544.67 384,-538.67 390,-532.67 396,-532.67 396,-532.67 466.75,-532.67 466.75,-532.67 472.75,-532.67 478.75,-538.67 478.75,-544.67 478.75,-544.67 478.75,-556.67 478.75,-556.67 478.75,-562.67 472.75,-568.67 466.75,-568.67"/>
<text xml:space="preserve" text-anchor="start" x="392.75" y="-551.22" font-family="Helvetica,sans-Serif" font-size="11.00" fill="#1a1a2e">udpv4v6_socket</text>
<text xml:space="preserve" text-anchor="start" x="392" y="-542.12" font-family="Helvetica,sans-Serif" font-size="9.00" fill="#1a1a2e">&lt;Udpv4v6_socket&gt;</text>
</g>
<!-- runtime&#45;&gt;udpv4v6_socket -->
<g id="edge1" class="edge">
<title>runtime&#45;&gt;udpv4v6_socket</title>
<path fill="none" stroke="#5f6368" d="M232.02,-467.15C234.87,-469.77 237.53,-472.62 239.75,-475.67 254.39,-495.79 238.49,-512.93 257.75,-528.67 274.93,-542.71 329.22,-547.88 372.38,-549.74"/>
<polygon fill="#5f6368" stroke="#5f6368" points="372.01,-553.23 382.14,-550.1 372.28,-546.23 372.01,-553.23"/>
<text xml:space="preserve" text-anchor="start" x="264.5" y="-551.55" font-family="Helvetica,sans-Serif" font-size="9.00" fill="#1a1a2e">ipv4_only → connect</text>
</g>
<!-- runtime&#45;&gt;udpv4v6_socket -->
<g id="edge2" class="edge">
<title>runtime&#45;&gt;udpv4v6_socket</title>
<path fill="none" stroke="#5f6368" d="M228.12,-466.9C232.02,-469.82 236,-472.82 239.75,-475.67 247.81,-481.81 248.66,-485.19 257.75,-489.67 298.53,-509.76 314.05,-499.81 356.75,-515.42 366.13,-518.85 375.93,-523.06 385.2,-527.37"/>
<polygon fill="#5f6368" stroke="#5f6368" points="383.49,-530.43 394.03,-531.58 386.51,-524.11 383.49,-530.43"/>
<text xml:space="preserve" text-anchor="start" x="264.5" y="-518.12" font-family="Helvetica,sans-Serif" font-size="9.00" fill="#1a1a2e">ipv6_only → connect</text>
</g>
<!-- tcpv4v6_socket -->
<g id="node3" class="node">
<title>tcpv4v6_socket</title>
<path fill="#dcedc8" stroke="#558b2f" d="M465.25,-500.67C465.25,-500.67 397.5,-500.67 397.5,-500.67 391.5,-500.67 385.5,-494.67 385.5,-488.67 385.5,-488.67 385.5,-476.67 385.5,-476.67 385.5,-470.67 391.5,-464.67 397.5,-464.67 397.5,-464.67 465.25,-464.67 465.25,-464.67 471.25,-464.67 477.25,-470.67 477.25,-476.67 477.25,-476.67 477.25,-488.67 477.25,-488.67 477.25,-494.67 471.25,-500.67 465.25,-500.67"/>
<text xml:space="preserve" text-anchor="start" x="394.62" y="-483.22" font-family="Helvetica,sans-Serif" font-size="11.00" fill="#1a1a2e">tcpv4v6_socket</text>
<text xml:space="preserve" text-anchor="start" x="393.5" y="-474.12" font-family="Helvetica,sans-Serif" font-size="9.00" fill="#1a1a2e">&lt;Tcpv4v6_socket&gt;</text>
</g>
<!-- runtime&#45;&gt;tcpv4v6_socket -->
<g id="edge3" class="edge">
<title>runtime&#45;&gt;tcpv4v6_socket</title>
<path fill="none" stroke="#5f6368" d="M233.28,-445.19C264.45,-442.38 314.64,-440.24 356.75,-449.42 366.91,-451.63 377.37,-455.36 387.09,-459.53"/>
<polygon fill="#5f6368" stroke="#5f6368" points="385.38,-462.59 395.93,-463.55 388.28,-456.22 385.38,-462.59"/>
<text xml:space="preserve" text-anchor="start" x="264.5" y="-452.12" font-family="Helvetica,sans-Serif" font-size="9.00" fill="#1a1a2e">ipv4_only → connect</text>
</g>
<!-- runtime&#45;&gt;tcpv4v6_socket -->
<g id="edge4" class="edge">
<title>runtime&#45;&gt;tcpv4v6_socket</title>
<path fill="none" stroke="#5f6368" d="M233.25,-455.76C241.18,-457.51 249.77,-459.28 257.75,-460.67 296.39,-467.39 340.24,-472.95 374.07,-476.8"/>
<polygon fill="#5f6368" stroke="#5f6368" points="373.31,-480.24 383.63,-477.87 374.08,-473.28 373.31,-480.24"/>
<text xml:space="preserve" text-anchor="start" x="264.5" y="-477.37" font-family="Helvetica,sans-Serif" font-size="9.00" fill="#1a1a2e">ipv6_only → connect</text>
</g>
<!-- happy_eyeballs -->
<g id="node5" class="node">
<title>happy_eyeballs</title>
<path fill="#dcedc8" stroke="#558b2f" d="M750,-383.67C750,-383.67 647,-383.67 647,-383.67 641,-383.67 635,-377.67 635,-371.67 635,-371.67 635,-359.67 635,-359.67 635,-353.67 641,-347.67 647,-347.67 647,-347.67 750,-347.67 750,-347.67 756,-347.67 762,-353.67 762,-359.67 762,-359.67 762,-371.67 762,-371.67 762,-377.67 756,-383.67 750,-383.67"/>
<text xml:space="preserve" text-anchor="start" x="661.38" y="-366.22" font-family="Helvetica,sans-Serif" font-size="11.00" fill="#1a1a2e">happy_eyeballs</text>
<text xml:space="preserve" text-anchor="start" x="643" y="-357.12" font-family="Helvetica,sans-Serif" font-size="9.00" fill="#1a1a2e">&lt;Happy_eyeballs_mirage&gt;</text>
</g>
<!-- runtime&#45;&gt;happy_eyeballs -->
<g id="edge12" class="edge">
<title>runtime&#45;&gt;happy_eyeballs</title>
<path fill="none" stroke="#5f6368" d="M233.16,-430.37C235.74,-427.74 238.02,-424.84 239.75,-421.67 267.31,-371.24 219.15,-206.25 257.75,-163.67 311.37,-104.52 554.42,-114.1 617,-163.67 671.08,-206.5 688.97,-291.12 694.78,-336.04"/>
<polygon fill="#5f6368" stroke="#5f6368" points="691.29,-336.29 695.92,-345.82 698.24,-335.49 691.29,-336.29"/>
<text xml:space="preserve" text-anchor="start" x="380.38" y="-128.37" font-family="Helvetica,sans-Serif" font-size="9.00" fill="#1a1a2e">aaaa_timeout → connect</text>
</g>
<!-- runtime&#45;&gt;happy_eyeballs -->
<g id="edge13" class="edge">
<title>runtime&#45;&gt;happy_eyeballs</title>
<path fill="none" stroke="#5f6368" d="M233.2,-430.38C235.76,-427.75 238.03,-424.85 239.75,-421.67 271.39,-363.11 212.43,-171.43 257.75,-122.67 312.1,-64.19 555.46,-73.81 617,-124.67 681.37,-177.87 694.56,-284.19 697.06,-335.97"/>
<polygon fill="#5f6368" stroke="#5f6368" points="693.56,-335.93 697.42,-345.8 700.55,-335.68 693.56,-335.93"/>
<text xml:space="preserve" text-anchor="start" x="378.5" y="-88.32" font-family="Helvetica,sans-Serif" font-size="9.00" fill="#1a1a2e">connect_delay → connect</text>
</g>
<!-- runtime&#45;&gt;happy_eyeballs -->
<g id="edge14" class="edge">
<title>runtime&#45;&gt;happy_eyeballs</title>
<path fill="none" stroke="#5f6368" d="M233.22,-430.39C235.78,-427.76 238.05,-424.85 239.75,-421.67 257.56,-388.42 232.17,-110.39 257.75,-82.67 366.03,34.67 496.16,19.69 617,-84.67 655.51,-117.92 683.08,-271.48 693.22,-336.48"/>
<polygon fill="#5f6368" stroke="#5f6368" points="689.71,-336.69 694.68,-346.04 696.63,-335.63 689.71,-336.69"/>
<text xml:space="preserve" text-anchor="start" x="374.75" y="-11.88" font-family="Helvetica,sans-Serif" font-size="9.00" fill="#1a1a2e">connect_timeout → connect</text>
</g>
<!-- runtime&#45;&gt;happy_eyeballs -->
<g id="edge15" class="edge">
<title>runtime&#45;&gt;happy_eyeballs</title>
<path fill="none" stroke="#5f6368" d="M232.97,-430.25C235.58,-427.65 237.92,-424.78 239.75,-421.67 255.09,-395.58 235.09,-306.73 257.75,-286.67 317.6,-233.69 543.32,-273.67 617,-304.67 636.68,-312.95 655.84,-327.15 670.53,-339.76"/>
<polygon fill="#5f6368" stroke="#5f6368" points="668.14,-342.32 677.94,-346.34 672.79,-337.08 668.14,-342.32"/>
<text xml:space="preserve" text-anchor="start" x="375.88" y="-273.89" font-family="Helvetica,sans-Serif" font-size="9.00" fill="#1a1a2e">resolve_timeout → connect</text>
</g>
<!-- runtime&#45;&gt;happy_eyeballs -->
<g id="edge16" class="edge">
<title>runtime&#45;&gt;happy_eyeballs</title>
<path fill="none" stroke="#5f6368" d="M233.04,-430.3C235.64,-427.68 237.96,-424.8 239.75,-421.67 258.07,-389.65 231.54,-282.62 257.75,-256.67 314.53,-200.45 548.13,-231.16 617,-271.67 644.18,-287.66 666.65,-316.21 680.88,-337.66"/>
<polygon fill="#5f6368" stroke="#5f6368" points="677.86,-339.43 686.19,-345.97 683.76,-335.66 677.86,-339.43"/>
<text xml:space="preserve" text-anchor="start" x="378.12" y="-236.81" font-family="Helvetica,sans-Serif" font-size="9.00" fill="#1a1a2e">resolve_retries → connect</text>
</g>
<!-- runtime&#45;&gt;happy_eyeballs -->
<g id="edge17" class="edge">
<title>runtime&#45;&gt;happy_eyeballs</title>
<path fill="none" stroke="#5f6368" d="M233.1,-430.33C235.69,-427.71 237.99,-424.82 239.75,-421.67 261.44,-382.93 226.62,-254.33 257.75,-222.67 313.74,-165.71 551.11,-188.52 617,-233.67 653.48,-258.67 676.35,-306.17 688.02,-336.85"/>
<polygon fill="#5f6368" stroke="#5f6368" points="684.6,-337.69 691.3,-345.9 691.18,-335.3 684.6,-337.69"/>
<text xml:space="preserve" text-anchor="start" x="380.75" y="-197.86" font-family="Helvetica,sans-Serif" font-size="9.00" fill="#1a1a2e">timer_interval → connect</text>
</g>
<!-- dns_client -->
<g id="node6" class="node">
<title>dns_client</title>
<path fill="#dcedc8" stroke="#558b2f" d="M471.25,-383.67C471.25,-383.67 391.5,-383.67 391.5,-383.67 385.5,-383.67 379.5,-377.67 379.5,-371.67 379.5,-371.67 379.5,-359.67 379.5,-359.67 379.5,-353.67 385.5,-347.67 391.5,-347.67 391.5,-347.67 471.25,-347.67 471.25,-347.67 477.25,-347.67 483.25,-353.67 483.25,-359.67 483.25,-359.67 483.25,-371.67 483.25,-371.67 483.25,-377.67 477.25,-383.67 471.25,-383.67"/>
<text xml:space="preserve" text-anchor="start" x="407.38" y="-366.22" font-family="Helvetica,sans-Serif" font-size="11.00" fill="#1a1a2e">dns_client</text>
<text xml:space="preserve" text-anchor="start" x="387.5" y="-357.12" font-family="Helvetica,sans-Serif" font-size="9.00" fill="#1a1a2e">&lt;Dns_client_mirage&gt;</text>
</g>
<!-- runtime&#45;&gt;dns_client -->
<g id="edge8" class="edge">
<title>runtime&#45;&gt;dns_client</title>
<path fill="none" stroke="#5f6368" d="M231.38,-430.3C234.42,-427.63 237.3,-424.73 239.75,-421.67 252,-406.38 241.81,-392.82 257.75,-381.42 289.23,-358.92 332.64,-355.04 368.05,-356.77"/>
<polygon fill="#5f6368" stroke="#5f6368" points="367.52,-360.24 377.73,-357.41 367.98,-353.25 367.52,-360.24"/>
<text xml:space="preserve" text-anchor="start" x="257.75" y="-384.12" font-family="Helvetica,sans-Serif" font-size="9.00" fill="#1a1a2e">nameservers → connect</text>
</g>
<!-- runtime&#45;&gt;dns_client -->
<g id="edge9" class="edge">
<title>runtime&#45;&gt;dns_client</title>
<path fill="none" stroke="#5f6368" d="M232.34,-430.42C235.14,-427.75 237.7,-424.83 239.75,-421.67 259.65,-391.01 229.21,-364.26 257.75,-341.42 293.71,-312.63 347.92,-326.65 385.98,-342.74"/>
<polygon fill="#5f6368" stroke="#5f6368" points="384.31,-345.83 394.87,-346.69 387.15,-339.43 384.31,-345.83"/>
<text xml:space="preserve" text-anchor="start" x="269.38" y="-344.12" font-family="Helvetica,sans-Serif" font-size="9.00" fill="#1a1a2e">timeout → connect</text>
</g>
<!-- runtime&#45;&gt;dns_client -->
<g id="edge10" class="edge">
<title>runtime&#45;&gt;dns_client</title>
<path fill="none" stroke="#5f6368" d="M232.88,-430.2C235.51,-427.61 237.88,-424.76 239.75,-421.67 265.94,-378.46 219.3,-342.2 257.75,-309.42 291.24,-280.88 318.4,-287.86 356.75,-309.42 367.75,-315.6 362.37,-324.97 371.5,-333.67 374.28,-336.32 377.32,-338.81 380.51,-341.16"/>
<polygon fill="#5f6368" stroke="#5f6368" points="378.27,-343.87 388.54,-346.5 382.15,-338.04 378.27,-343.87"/>
<text xml:space="preserve" text-anchor="start" x="261.12" y="-312.12" font-family="Helvetica,sans-Serif" font-size="9.00" fill="#1a1a2e">cache_size → connect</text>
</g>
<!-- stackv4v6 -->
<g id="node4" class="node">
<title>stackv4v6</title>
<path fill="#dcedc8" stroke="#558b2f" d="M224.75,-520.67C224.75,-520.67 180.25,-520.67 180.25,-520.67 174.25,-520.67 168.25,-514.67 168.25,-508.67 168.25,-508.67 168.25,-496.67 168.25,-496.67 168.25,-490.67 174.25,-484.67 180.25,-484.67 180.25,-484.67 224.75,-484.67 224.75,-484.67 230.75,-484.67 236.75,-490.67 236.75,-496.67 236.75,-496.67 236.75,-508.67 236.75,-508.67 236.75,-514.67 230.75,-520.67 224.75,-520.67"/>
<text xml:space="preserve" text-anchor="start" x="178.88" y="-503.22" font-family="Helvetica,sans-Serif" font-size="11.00" fill="#1a1a2e">stackv4v6</text>
<text xml:space="preserve" text-anchor="start" x="176.25" y="-494.12" font-family="Helvetica,sans-Serif" font-size="9.00" fill="#1a1a2e">&lt;Stackv4v6&gt;</text>
</g>
<!-- stackv4v6&#45;&gt;udpv4v6_socket -->
<g id="edge5" class="edge">
<title>stackv4v6&#45;&gt;udpv4v6_socket</title>
<path fill="none" stroke="#5f6368" d="M208.43,-520.97C215.38,-542.75 230.4,-578.13 257.75,-593.67 296.01,-615.4 314.28,-605.16 356.75,-593.67 370.7,-589.89 384.73,-582.74 396.73,-575.34"/>
<polygon fill="#5f6368" stroke="#5f6368" points="398.55,-578.33 405.03,-569.95 394.74,-572.46 398.55,-578.33"/>
<text xml:space="preserve" text-anchor="start" x="276.5" y="-609.11" font-family="Helvetica,sans-Serif" font-size="9.00" fill="#1a1a2e">udp → connect</text>
</g>
<!-- stackv4v6&#45;&gt;tcpv4v6_socket -->
<g id="edge6" class="edge">
<title>stackv4v6&#45;&gt;tcpv4v6_socket</title>
<path fill="none" stroke="#5f6368" d="M213.99,-520.9C223.39,-535.25 238.63,-554.18 257.75,-562.67 297.96,-580.52 320.55,-587.68 356.75,-562.67 372,-552.14 360.11,-538.29 371.5,-523.67 376.08,-517.79 381.73,-512.43 387.7,-507.65"/>
<polygon fill="#5f6368" stroke="#5f6368" points="389.41,-510.74 395.38,-501.98 385.26,-505.11 389.41,-510.74"/>
<text xml:space="preserve" text-anchor="start" x="278.38" y="-581.55" font-family="Helvetica,sans-Serif" font-size="9.00" fill="#1a1a2e">tcp → connect</text>
</g>
<!-- happy_eyeballs&#45;&gt;stackv4v6 -->
<g id="edge18" class="edge">
<title>happy_eyeballs&#45;&gt;stackv4v6</title>
<path fill="none" stroke="#5f6368" d="M634.64,-348.56C552.07,-327.71 412.73,-298.62 371.5,-327.42 355.88,-338.33 370.72,-354.72 356.75,-367.67 323.22,-398.76 289.19,-362.47 257.75,-395.67 234.84,-419.86 255.36,-441.13 238.24,-474.63"/>
<polygon fill="#5f6368" stroke="#5f6368" points="235.28,-472.75 233.12,-483.12 241.28,-476.36 235.28,-472.75"/>
<text xml:space="preserve" text-anchor="start" x="398" y="-330.12" font-family="Helvetica,sans-Serif" font-size="9.00" fill="#1a1a2e">stack → connect</text>
</g>
<!-- dns_client&#45;&gt;stackv4v6 -->
<g id="edge11" class="edge">
<title>dns_client&#45;&gt;stackv4v6</title>
<path fill="none" stroke="#5f6368" d="M380.51,-384.06C372.57,-386.96 364.44,-389.91 356.75,-392.67 312.86,-408.42 291.04,-394.77 257.75,-427.42 241.41,-443.45 253.49,-457.36 239.75,-475.67 239.6,-475.87 239.45,-476.06 239.3,-476.26"/>
<polygon fill="#5f6368" stroke="#5f6368" points="236.92,-473.68 232.61,-483.35 242.01,-478.48 236.92,-473.68"/>
<text xml:space="preserve" text-anchor="start" x="273.88" y="-430.12" font-family="Helvetica,sans-Serif" font-size="9.00" fill="#1a1a2e">stack → connect</text>
</g>
<!-- dns_client&#45;&gt;happy_eyeballs -->
<g id="edge7" class="edge">
<title>dns_client&#45;&gt;happy_eyeballs</title>
<path fill="none" stroke="#5f6368" d="M483.49,-365.67C523.22,-365.67 578.88,-365.67 623.48,-365.67"/>
<polygon fill="#5f6368" stroke="#5f6368" points="623.34,-369.17 633.34,-365.67 623.34,-362.17 623.34,-369.17"/>
<text xml:space="preserve" text-anchor="start" x="506" y="-368.37" font-family="Helvetica,sans-Serif" font-size="9.00" fill="#1a1a2e">happy_eyeballs → connect</text>
</g>
<!-- htdocs_data -->
<g id="node7" class="node">
<title>htdocs_data</title>
<path fill="#dcedc8" stroke="#558b2f" d="M227.75,-412.67C227.75,-412.67 177.25,-412.67 177.25,-412.67 171.25,-412.67 165.25,-406.67 165.25,-400.67 165.25,-400.67 165.25,-388.67 165.25,-388.67 165.25,-382.67 171.25,-376.67 177.25,-376.67 177.25,-376.67 227.75,-376.67 227.75,-376.67 233.75,-376.67 239.75,-382.67 239.75,-388.67 239.75,-388.67 239.75,-400.67 239.75,-400.67 239.75,-406.67 233.75,-412.67 227.75,-412.67"/>
<text xml:space="preserve" text-anchor="start" x="173.25" y="-395.22" font-family="Helvetica,sans-Serif" font-size="11.00" fill="#1a1a2e">htdocs_data</text>
<text xml:space="preserve" text-anchor="start" x="192" y="-386.12" font-family="Helvetica,sans-Serif" font-size="9.00" fill="#1a1a2e">&lt;Kv&gt;</text>
</g>
<!-- tls_data -->
<g id="node8" class="node">
<title>tls_data</title>
<path fill="#dcedc8" stroke="#558b2f" d="M217.5,-358.67C217.5,-358.67 187.5,-358.67 187.5,-358.67 181.5,-358.67 175.5,-352.67 175.5,-346.67 175.5,-346.67 175.5,-334.67 175.5,-334.67 175.5,-328.67 181.5,-322.67 187.5,-322.67 187.5,-322.67 217.5,-322.67 217.5,-322.67 223.5,-322.67 229.5,-328.67 229.5,-334.67 229.5,-334.67 229.5,-346.67 229.5,-346.67 229.5,-352.67 223.5,-358.67 217.5,-358.67"/>
<text xml:space="preserve" text-anchor="start" x="183.75" y="-341.22" font-family="Helvetica,sans-Serif" font-size="11.00" fill="#1a1a2e">tls_data</text>
<text xml:space="preserve" text-anchor="start" x="192" y="-332.12" font-family="Helvetica,sans-Serif" font-size="9.00" fill="#1a1a2e">&lt;Kv&gt;</text>
</g>
<!-- dispatch -->
<g id="node9" class="node">
<title>dispatch</title>
<path fill="#dcedc8" stroke="#558b2f" d="M50.5,-412.67C50.5,-412.67 12,-412.67 12,-412.67 6,-412.67 0,-406.67 0,-400.67 0,-400.67 0,-388.67 0,-388.67 0,-382.67 6,-376.67 12,-376.67 12,-376.67 50.5,-376.67 50.5,-376.67 56.5,-376.67 62.5,-382.67 62.5,-388.67 62.5,-388.67 62.5,-400.67 62.5,-400.67 62.5,-406.67 56.5,-412.67 50.5,-412.67"/>
<text xml:space="preserve" text-anchor="start" x="11.38" y="-395.22" font-family="Helvetica,sans-Serif" font-size="11.00" fill="#1a1a2e">dispatch</text>
<text xml:space="preserve" text-anchor="start" x="8" y="-386.12" font-family="Helvetica,sans-Serif" font-size="9.00" fill="#1a1a2e">&lt;Dispatch&gt;</text>
</g>
<!-- dispatch&#45;&gt;stackv4v6 -->
<g id="edge21" class="edge">
<title>dispatch&#45;&gt;stackv4v6</title>
<path fill="none" stroke="#5f6368" d="M60.96,-412.99C89.04,-430.91 132,-458.32 163.03,-478.12"/>
<polygon fill="#5f6368" stroke="#5f6368" points="161.06,-481.02 171.37,-483.44 164.83,-475.11 161.06,-481.02"/>
<text xml:space="preserve" text-anchor="start" x="80.5" y="-470.44" font-family="Helvetica,sans-Serif" font-size="9.00" fill="#1a1a2e">stack → connect</text>
</g>
<!-- dispatch&#45;&gt;htdocs_data -->
<g id="edge19" class="edge">
<title>dispatch&#45;&gt;htdocs_data</title>
<path fill="none" stroke="#5f6368" d="M62.9,-394.67C88.21,-394.67 124.58,-394.67 153.72,-394.67"/>
<polygon fill="#5f6368" stroke="#5f6368" points="153.38,-398.17 163.38,-394.67 153.38,-391.17 153.38,-398.17"/>
<text xml:space="preserve" text-anchor="start" x="82" y="-397.37" font-family="Helvetica,sans-Serif" font-size="9.00" fill="#1a1a2e">data → connect</text>
</g>
<!-- dispatch&#45;&gt;tls_data -->
<g id="edge20" class="edge">
<title>dispatch&#45;&gt;tls_data</title>
<path fill="none" stroke="#5f6368" d="M62.9,-384.89C91.49,-375.77 134.19,-362.14 164.63,-352.43"/>
<polygon fill="#5f6368" stroke="#5f6368" points="165.34,-355.88 173.8,-349.51 163.21,-349.21 165.34,-355.88"/>
<text xml:space="preserve" text-anchor="start" x="81.25" y="-381.41" font-family="Helvetica,sans-Serif" font-size="9.00" fill="#1a1a2e">certs → connect</text>
</g>
</g>
</svg>
