<?xml version="1.0" encoding="UTF-8" standalone="no"?>
<!DOCTYPE svg PUBLIC "-//W3C//DTD SVG 1.1//EN"
 "http://www.w3.org/Graphics/SVG/1.1/DTD/svg11.dtd">
<!-- Generated by graphviz version 14.1.2 (20260124.0452)
 -->
<!-- Title: UnixNetwork Pages: 1 -->
<svg width="503pt" height="203pt"
 viewBox="0.00 0.00 503.00 203.00" xmlns="http://www.w3.org/2000/svg" xmlns:xlink="http://www.w3.org/1999/xlink">
<g id="graph0" class="graph" transform="scale(1 1) rotate(0) translate(28.8 173.8)">
<title>UnixNetwork</title>
<polygon fill="white" stroke="none" points="-28.8,28.8 -28.8,-173.8 473.8,-173.8 473.8,28.8 -28.8,28.8"/>
<g id="clust1" class="cluster">
<title>cluster_SocketStack</title>
<path fill="#f8f9fa" stroke="#5f6368" d="M172.25,-8C172.25,-8 425,-8 425,-8 431,-8 437,-14 437,-20 437,-20 437,-125 437,-125 437,-131 431,-137 425,-137 425,-137 172.25,-137 172.25,-137 166.25,-137 160.25,-131 160.25,-125 160.25,-125 160.25,-20 160.25,-20 160.25,-14 166.25,-8 172.25,-8"/>
<text xml:space="preserve" text-anchor="middle" x="298.62" y="-119.7" font-family="Helvetica,sans-Serif" font-size="14.00">SocketStack</text>
</g>
<!-- udpv4v6_socket -->
<g id="node1" class="node">
<title>udpv4v6_socket</title>
<path fill="#e8f0fe" stroke="#4285f4" d="M417,-52C417,-52 346.25,-52 346.25,-52 340.25,-52 334.25,-46 334.25,-40 334.25,-40 334.25,-28 334.25,-28 334.25,-22 340.25,-16 346.25,-16 346.25,-16 417,-16 417,-16 423,-16 429,-22 429,-28 429,-28 429,-40 429,-40 429,-46 423,-52 417,-52"/>
<text xml:space="preserve" text-anchor="start" x="343" y="-34.55" font-family="Helvetica,sans-Serif" font-size="11.00" fill="#1a1a2e">udpv4v6_socket</text>
<text xml:space="preserve" text-anchor="start" x="342.25" y="-25.45" font-family="Helvetica,sans-Serif" font-size="9.00" fill="#1a1a2e">&lt;Udpv4v6_socket&gt;</text>
</g>
<!-- tcpv4v6_socket -->
<g id="node2" class="node">
<title>tcpv4v6_socket</title>
<path fill="#e8f0fe" stroke="#4285f4" d="M415.5,-106C415.5,-106 347.75,-106 347.75,-106 341.75,-106 335.75,-100 335.75,-94 335.75,-94 335.75,-82 335.75,-82 335.75,-76 341.75,-70 347.75,-70 347.75,-70 415.5,-70 415.5,-70 421.5,-70 427.5,-76 427.5,-82 427.5,-82 427.5,-94 427.5,-94 427.5,-100 421.5,-106 415.5,-106"/>
<text xml:space="preserve" text-anchor="start" x="344.88" y="-88.55" font-family="Helvetica,sans-Serif" font-size="11.00" fill="#1a1a2e">tcpv4v6_socket</text>
<text xml:space="preserve" text-anchor="start" x="343.75" y="-79.45" font-family="Helvetica,sans-Serif" font-size="9.00" fill="#1a1a2e">&lt;Tcpv4v6_socket&gt;</text>
</g>
<!-- stackv4v6 -->
<g id="node3" class="node">
<title>stackv4v6</title>
<path fill="#e8f0fe" stroke="#4285f4" d="M224.75,-79C224.75,-79 180.25,-79 180.25,-79 174.25,-79 168.25,-73 168.25,-67 168.25,-67 168.25,-55 168.25,-55 168.25,-49 174.25,-43 180.25,-43 180.25,-43 224.75,-43 224.75,-43 230.75,-43 236.75,-49 236.75,-55 236.75,-55 236.75,-67 236.75,-67 236.75,-73 230.75,-79 224.75,-79"/>
<text xml:space="preserve" text-anchor="start" x="178.88" y="-61.55" font-family="Helvetica,sans-Serif" font-size="11.00" fill="#1a1a2e">stackv4v6</text>
<text xml:space="preserve" text-anchor="start" x="176.25" y="-52.45" font-family="Helvetica,sans-Serif" font-size="9.00" fill="#1a1a2e">&lt;Stackv4v6&gt;</text>
</g>
<!-- stackv4v6&#45;&gt;udpv4v6_socket -->
<g id="edge1" class="edge">
<title>stackv4v6&#45;&gt;udpv4v6_socket</title>
<path fill="none" stroke="#5f6368" d="M237.05,-53.17C242.93,-51.94 249,-50.74 254.75,-49.75 276.83,-45.95 301.23,-42.69 322.63,-40.13"/>
<polygon fill="#5f6368" stroke="#5f6368" points="322.82,-43.63 332.34,-39 322.01,-36.68 322.82,-43.63"/>
<text xml:space="preserve" text-anchor="start" x="254.75" y="-52.45" font-family="Helvetica,sans-Serif" font-size="9.00" fill="#1a1a2e">udp → connect</text>
</g>
<!-- stackv4v6&#45;&gt;tcpv4v6_socket -->
<g id="edge2" class="edge">
<title>stackv4v6&#45;&gt;tcpv4v6_socket</title>
<path fill="none" stroke="#5f6368" d="M237.23,-66.14C261.78,-69.88 295.59,-75.04 324.21,-79.4"/>
<polygon fill="#5f6368" stroke="#5f6368" points="323.39,-82.82 333.81,-80.86 324.45,-75.9 323.39,-82.82"/>
<text xml:space="preserve" text-anchor="start" x="256.62" y="-80.41" font-family="Helvetica,sans-Serif" font-size="9.00" fill="#1a1a2e">tcp → connect</text>
</g>
<!-- stack_app -->
<g id="node4" class="node">
<title>stack_app</title>
<path fill="#e8f0fe" stroke="#4285f4" d="M53.5,-79C53.5,-79 12,-79 12,-79 6,-79 0,-73 0,-67 0,-67 0,-55 0,-55 0,-49 6,-43 12,-43 12,-43 53.5,-43 53.5,-43 59.5,-43 65.5,-49 65.5,-55 65.5,-55 65.5,-67 65.5,-67 65.5,-73 59.5,-79 53.5,-79"/>
<text xml:space="preserve" text-anchor="start" x="8.38" y="-61.55" font-family="Helvetica,sans-Serif" font-size="11.00" fill="#1a1a2e">stack_app</text>
<text xml:space="preserve" text-anchor="start" x="8" y="-52.45" font-family="Helvetica,sans-Serif" font-size="9.00" fill="#1a1a2e">&lt;StackApp&gt;</text>
</g>
<!-- stack_app&#45;&gt;stackv4v6 -->
<g id="edge3" class="edge">
<title>stack_app&#45;&gt;stackv4v6</title>
<path fill="none" stroke="#5f6368" d="M65.7,-61C91.43,-61 127.92,-61 156.59,-61"/>
<polygon fill="#5f6368" stroke="#5f6368" points="156.43,-64.5 166.43,-61 156.43,-57.5 156.43,-64.5"/>
<text xml:space="preserve" text-anchor="start" x="83.5" y="-63.7" font-family="Helvetica,sans-Serif" font-size="9.00" fill="#1a1a2e">stack → connect</text>
</g>
</g>
</svg>
