<?xml version="1.0" encoding="UTF-8" standalone="no"?>
<!DOCTYPE svg PUBLIC "-//W3C//DTD SVG 1.1//EN"
 "http://www.w3.org/Graphics/SVG/1.1/DTD/svg11.dtd">
<!-- Generated by graphviz version 14.1.2 (20260124.0452)
 -->
<!-- Title: UnixConduit Pages: 1 -->
<svg width="682pt" height="203pt"
 viewBox="0.00 0.00 682.00 203.00" xmlns="http://www.w3.org/2000/svg" xmlns:xlink="http://www.w3.org/1999/xlink">
<g id="graph0" class="graph" transform="scale(1 1) rotate(0) translate(28.8 173.8)">
<title>UnixConduit</title>
<polygon fill="white" stroke="none" points="-28.8,28.8 -28.8,-173.8 653.3,-173.8 653.3,28.8 -28.8,28.8"/>
<g id="clust1" class="cluster">
<title>cluster_SocketStack</title>
<path fill="#f8f9fa" stroke="#5f6368" d="M351.75,-8C351.75,-8 604.5,-8 604.5,-8 610.5,-8 616.5,-14 616.5,-20 616.5,-20 616.5,-125 616.5,-125 616.5,-131 610.5,-137 604.5,-137 604.5,-137 351.75,-137 351.75,-137 345.75,-137 339.75,-131 339.75,-125 339.75,-125 339.75,-20 339.75,-20 339.75,-14 345.75,-8 351.75,-8"/>
<text xml:space="preserve" text-anchor="middle" x="478.12" y="-119.7" font-family="Helvetica,sans-Serif" font-size="14.00">SocketStack</text>
</g>
<!-- udpv4v6_socket -->
<g id="node1" class="node">
<title>udpv4v6_socket</title>
<path fill="#e8f0fe" stroke="#4285f4" d="M596.5,-52C596.5,-52 525.75,-52 525.75,-52 519.75,-52 513.75,-46 513.75,-40 513.75,-40 513.75,-28 513.75,-28 513.75,-22 519.75,-16 525.75,-16 525.75,-16 596.5,-16 596.5,-16 602.5,-16 608.5,-22 608.5,-28 608.5,-28 608.5,-40 608.5,-40 608.5,-46 602.5,-52 596.5,-52"/>
<text xml:space="preserve" text-anchor="start" x="522.5" y="-34.55" font-family="Helvetica,sans-Serif" font-size="11.00" fill="#1a1a2e">udpv4v6_socket</text>
<text xml:space="preserve" text-anchor="start" x="521.75" y="-25.45" font-family="Helvetica,sans-Serif" font-size="9.00" fill="#1a1a2e">&lt;Udpv4v6_socket&gt;</text>
</g>
<!-- tcpv4v6_socket -->
<g id="node2" class="node">
<title>tcpv4v6_socket</title>
<path fill="#e8f0fe" stroke="#4285f4" d="M595,-106C595,-106 527.25,-106 527.25,-106 521.25,-106 515.25,-100 515.25,-94 515.25,-94 515.25,-82 515.25,-82 515.25,-76 521.25,-70 527.25,-70 527.25,-70 595,-70 595,-70 601,-70 607,-76 607,-82 607,-82 607,-94 607,-94 607,-100 601,-106 595,-106"/>
<text xml:space="preserve" text-anchor="start" x="524.38" y="-88.55" font-family="Helvetica,sans-Serif" font-size="11.00" fill="#1a1a2e">tcpv4v6_socket</text>
<text xml:space="preserve" text-anchor="start" x="523.25" y="-79.45" font-family="Helvetica,sans-Serif" font-size="9.00" fill="#1a1a2e">&lt;Tcpv4v6_socket&gt;</text>
</g>
<!-- stackv4v6 -->
<g id="node3" class="node">
<title>stackv4v6</title>
<path fill="#e8f0fe" stroke="#4285f4" d="M404.25,-79C404.25,-79 359.75,-79 359.75,-79 353.75,-79 347.75,-73 347.75,-67 347.75,-67 347.75,-55 347.75,-55 347.75,-49 353.75,-43 359.75,-43 359.75,-43 404.25,-43 404.25,-43 410.25,-43 416.25,-49 416.25,-55 416.25,-55 416.25,-67 416.25,-67 416.25,-73 410.25,-79 404.25,-79"/>
<text xml:space="preserve" text-anchor="start" x="358.38" y="-61.55" font-family="Helvetica,sans-Serif" font-size="11.00" fill="#1a1a2e">stackv4v6</text>
<text xml:space="preserve" text-anchor="start" x="355.75" y="-52.45" font-family="Helvetica,sans-Serif" font-size="9.00" fill="#1a1a2e">&lt;Stackv4v6&gt;</text>
</g>
<!-- stackv4v6&#45;&gt;udpv4v6_socket -->
<g id="edge1" class="edge">
<title>stackv4v6&#45;&gt;udpv4v6_socket</title>
<path fill="none" stroke="#5f6368" d="M416.55,-53.17C422.43,-51.94 428.5,-50.74 434.25,-49.75 456.33,-45.95 480.73,-42.69 502.13,-40.13"/>
<polygon fill="#5f6368" stroke="#5f6368" points="502.32,-43.63 511.84,-39 501.51,-36.68 502.32,-43.63"/>
<text xml:space="preserve" text-anchor="start" x="434.25" y="-52.45" font-family="Helvetica,sans-Serif" font-size="9.00" fill="#1a1a2e">udp → connect</text>
</g>
<!-- stackv4v6&#45;&gt;tcpv4v6_socket -->
<g id="edge2" class="edge">
<title>stackv4v6&#45;&gt;tcpv4v6_socket</title>
<path fill="none" stroke="#5f6368" d="M416.73,-66.14C441.28,-69.88 475.09,-75.04 503.71,-79.4"/>
<polygon fill="#5f6368" stroke="#5f6368" points="502.89,-82.82 513.31,-80.86 503.95,-75.9 502.89,-82.82"/>
<text xml:space="preserve" text-anchor="start" x="436.12" y="-80.41" font-family="Helvetica,sans-Serif" font-size="9.00" fill="#1a1a2e">tcp → connect</text>
</g>
<!-- conduit_tcp -->
<g id="node4" class="node">
<title>conduit_tcp</title>
<path fill="#e8f0fe" stroke="#4285f4" d="M233,-79C233,-79 184,-79 184,-79 178,-79 172,-73 172,-67 172,-67 172,-55 172,-55 172,-49 178,-43 184,-43 184,-43 233,-43 233,-43 239,-43 245,-49 245,-55 245,-55 245,-67 245,-67 245,-73 239,-79 233,-79"/>
<text xml:space="preserve" text-anchor="start" x="181.12" y="-61.55" font-family="Helvetica,sans-Serif" font-size="11.00" fill="#1a1a2e">conduit_tcp</text>
<text xml:space="preserve" text-anchor="start" x="180" y="-52.45" font-family="Helvetica,sans-Serif" font-size="9.00" fill="#1a1a2e">&lt;ConduitTcp&gt;</text>
</g>
<!-- conduit_tcp&#45;&gt;stackv4v6 -->
<g id="edge3" class="edge">
<title>conduit_tcp&#45;&gt;stackv4v6</title>
<path fill="none" stroke="#5f6368" d="M245.45,-61C271.87,-61 307.93,-61 336.22,-61"/>
<polygon fill="#5f6368" stroke="#5f6368" points="335.91,-64.5 345.91,-61 335.91,-57.5 335.91,-64.5"/>
<text xml:space="preserve" text-anchor="start" x="263" y="-63.7" font-family="Helvetica,sans-Serif" font-size="9.00" fill="#1a1a2e">stack → connect</text>
</g>
<!-- conduit_app -->
<g id="node5" class="node">
<title>conduit_app</title>
<path fill="#e8f0fe" stroke="#4285f4" d="M63.25,-79C63.25,-79 12,-79 12,-79 6,-79 0,-73 0,-67 0,-67 0,-55 0,-55 0,-49 6,-43 12,-43 12,-43 63.25,-43 63.25,-43 69.25,-43 75.25,-49 75.25,-55 75.25,-55 75.25,-67 75.25,-67 75.25,-73 69.25,-79 63.25,-79"/>
<text xml:space="preserve" text-anchor="start" x="8.38" y="-61.55" font-family="Helvetica,sans-Serif" font-size="11.00" fill="#1a1a2e">conduit_app</text>
<text xml:space="preserve" text-anchor="start" x="8" y="-52.45" font-family="Helvetica,sans-Serif" font-size="9.00" fill="#1a1a2e">&lt;ConduitApp&gt;</text>
</g>
<!-- conduit_app&#45;&gt;conduit_tcp -->
<g id="edge4" class="edge">
<title>conduit_app&#45;&gt;conduit_tcp</title>
<path fill="none" stroke="#5f6368" d="M75.69,-61C100.55,-61 133.52,-61 160.27,-61"/>
<polygon fill="#5f6368" stroke="#5f6368" points="160.17,-64.5 170.17,-61 160.17,-57.5 160.17,-64.5"/>
<text xml:space="preserve" text-anchor="start" x="93.25" y="-63.7" font-family="Helvetica,sans-Serif" font-size="9.00" fill="#1a1a2e">conduit → start</text>
</g>
</g>
</svg>
