<?xml version="1.0" encoding="UTF-8" standalone="no"?>
<!DOCTYPE svg PUBLIC "-//W3C//DTD SVG 1.1//EN"
 "http://www.w3.org/Graphics/SVG/1.1/DTD/svg11.dtd">
<!-- Generated by graphviz version 14.1.2 (20260124.0452)
 -->
<!-- Title: UnixDns Pages: 1 -->
<svg width="987pt" height="203pt"
 viewBox="0.00 0.00 987.00 203.00" xmlns="http://www.w3.org/2000/svg" xmlns:xlink="http://www.w3.org/1999/xlink">
<g id="graph0" class="graph" transform="scale(1 1) rotate(0) translate(28.8 173.8)">
<title>UnixDns</title>
<polygon fill="white" stroke="none" points="-28.8,28.8 -28.8,-173.8 958.05,-173.8 958.05,28.8 -28.8,28.8"/>
<g id="clust1" class="cluster">
<title>cluster_SocketStack</title>
<path fill="#f8f9fa" stroke="#5f6368" d="M656.5,-8C656.5,-8 909.25,-8 909.25,-8 915.25,-8 921.25,-14 921.25,-20 921.25,-20 921.25,-125 921.25,-125 921.25,-131 915.25,-137 909.25,-137 909.25,-137 656.5,-137 656.5,-137 650.5,-137 644.5,-131 644.5,-125 644.5,-125 644.5,-20 644.5,-20 644.5,-14 650.5,-8 656.5,-8"/>
<text xml:space="preserve" text-anchor="middle" x="782.88" y="-119.7" font-family="Helvetica,sans-Serif" font-size="14.00">SocketStack</text>
</g>
<!-- udpv4v6_socket -->
<g id="node1" class="node">
<title>udpv4v6_socket</title>
<path fill="#e8f0fe" stroke="#4285f4" d="M901.25,-52C901.25,-52 830.5,-52 830.5,-52 824.5,-52 818.5,-46 818.5,-40 818.5,-40 818.5,-28 818.5,-28 818.5,-22 824.5,-16 830.5,-16 830.5,-16 901.25,-16 901.25,-16 907.25,-16 913.25,-22 913.25,-28 913.25,-28 913.25,-40 913.25,-40 913.25,-46 907.25,-52 901.25,-52"/>
<text xml:space="preserve" text-anchor="start" x="827.25" y="-34.55" font-family="Helvetica,sans-Serif" font-size="11.00" fill="#1a1a2e">udpv4v6_socket</text>
<text xml:space="preserve" text-anchor="start" x="826.5" y="-25.45" font-family="Helvetica,sans-Serif" font-size="9.00" fill="#1a1a2e">&lt;Udpv4v6_socket&gt;</text>
</g>
<!-- tcpv4v6_socket -->
<g id="node2" class="node">
<title>tcpv4v6_socket</title>
<path fill="#e8f0fe" stroke="#4285f4" d="M899.75,-106C899.75,-106 832,-106 832,-106 826,-106 820,-100 820,-94 820,-94 820,-82 820,-82 820,-76 826,-70 832,-70 832,-70 899.75,-70 899.75,-70 905.75,-70 911.75,-76 911.75,-82 911.75,-82 911.75,-94 911.75,-94 911.75,-100 905.75,-106 899.75,-106"/>
<text xml:space="preserve" text-anchor="start" x="829.12" y="-88.55" font-family="Helvetica,sans-Serif" font-size="11.00" fill="#1a1a2e">tcpv4v6_socket</text>
<text xml:space="preserve" text-anchor="start" x="828" y="-79.45" font-family="Helvetica,sans-Serif" font-size="9.00" fill="#1a1a2e">&lt;Tcpv4v6_socket&gt;</text>
</g>
<!-- stackv4v6 -->
<g id="node3" class="node">
<title>stackv4v6</title>
<path fill="#e8f0fe" stroke="#4285f4" d="M709,-79C709,-79 664.5,-79 664.5,-79 658.5,-79 652.5,-73 652.5,-67 652.5,-67 652.5,-55 652.5,-55 652.5,-49 658.5,-43 664.5,-43 664.5,-43 709,-43 709,-43 715,-43 721,-49 721,-55 721,-55 721,-67 721,-67 721,-73 715,-79 709,-79"/>
<text xml:space="preserve" text-anchor="start" x="663.12" y="-61.55" font-family="Helvetica,sans-Serif" font-size="11.00" fill="#1a1a2e">stackv4v6</text>
<text xml:space="preserve" text-anchor="start" x="660.5" y="-52.45" font-family="Helvetica,sans-Serif" font-size="9.00" fill="#1a1a2e">&lt;Stackv4v6&gt;</text>
</g>
<!-- stackv4v6&#45;&gt;udpv4v6_socket -->
<g id="edge1" class="edge">
<title>stackv4v6&#45;&gt;udpv4v6_socket</title>
<path fill="none" stroke="#5f6368" d="M721.3,-53.17C727.18,-51.94 733.25,-50.74 739,-49.75 761.08,-45.95 785.48,-42.69 806.88,-40.13"/>
<polygon fill="#5f6368" stroke="#5f6368" points="807.07,-43.63 816.59,-39 806.26,-36.68 807.07,-43.63"/>
<text xml:space="preserve" text-anchor="start" x="739" y="-52.45" font-family="Helvetica,sans-Serif" font-size="9.00" fill="#1a1a2e">udp → connect</text>
</g>
<!-- stackv4v6&#45;&gt;tcpv4v6_socket -->
<g id="edge2" class="edge">
<title>stackv4v6&#45;&gt;tcpv4v6_socket</title>
<path fill="none" stroke="#5f6368" d="M721.48,-66.14C746.03,-69.88 779.84,-75.04 808.46,-79.4"/>
<polygon fill="#5f6368" stroke="#5f6368" points="807.64,-82.82 818.06,-80.86 808.7,-75.9 807.64,-82.82"/>
<text xml:space="preserve" text-anchor="start" x="740.88" y="-80.41" font-family="Helvetica,sans-Serif" font-size="9.00" fill="#1a1a2e">tcp → connect</text>
</g>
<!-- happy_eyeballs_mirage -->
<g id="node4" class="node">
<title>happy_eyeballs_mirage</title>
<path fill="#e8f0fe" stroke="#4285f4" d="M537.75,-45C537.75,-45 432.5,-45 432.5,-45 426.5,-45 420.5,-39 420.5,-33 420.5,-33 420.5,-21 420.5,-21 420.5,-15 426.5,-9 432.5,-9 432.5,-9 537.75,-9 537.75,-9 543.75,-9 549.75,-15 549.75,-21 549.75,-21 549.75,-33 549.75,-33 549.75,-39 543.75,-45 537.75,-45"/>
<text xml:space="preserve" text-anchor="start" x="428.5" y="-27.55" font-family="Helvetica,sans-Serif" font-size="11.00" fill="#1a1a2e">happy_eyeballs_mirage</text>
<text xml:space="preserve" text-anchor="start" x="429.62" y="-18.45" font-family="Helvetica,sans-Serif" font-size="9.00" fill="#1a1a2e">&lt;Happy_eyeballs_mirage&gt;</text>
</g>
<!-- happy_eyeballs_mirage&#45;&gt;stackv4v6 -->
<g id="edge3" class="edge">
<title>happy_eyeballs_mirage&#45;&gt;stackv4v6</title>
<path fill="none" stroke="#5f6368" d="M550.11,-37.9C579.62,-42.92 613.94,-48.77 640.67,-53.32"/>
<polygon fill="#5f6368" stroke="#5f6368" points="640.06,-56.77 650.51,-55 641.24,-49.87 640.06,-56.77"/>
<text xml:space="preserve" text-anchor="start" x="567.75" y="-54.58" font-family="Helvetica,sans-Serif" font-size="9.00" fill="#1a1a2e">stack → connect</text>
</g>
<!-- dns_client -->
<g id="node5" class="node">
<title>dns_client</title>
<path fill="#e8f0fe" stroke="#4285f4" d="M261.5,-72C261.5,-72 181.75,-72 181.75,-72 175.75,-72 169.75,-66 169.75,-60 169.75,-60 169.75,-48 169.75,-48 169.75,-42 175.75,-36 181.75,-36 181.75,-36 261.5,-36 261.5,-36 267.5,-36 273.5,-42 273.5,-48 273.5,-48 273.5,-60 273.5,-60 273.5,-66 267.5,-72 261.5,-72"/>
<text xml:space="preserve" text-anchor="start" x="197.62" y="-54.55" font-family="Helvetica,sans-Serif" font-size="11.00" fill="#1a1a2e">dns_client</text>
<text xml:space="preserve" text-anchor="start" x="177.75" y="-45.45" font-family="Helvetica,sans-Serif" font-size="9.00" fill="#1a1a2e">&lt;Dns_client_mirage&gt;</text>
</g>
<!-- dns_client&#45;&gt;stackv4v6 -->
<g id="edge4" class="edge">
<title>dns_client&#45;&gt;stackv4v6</title>
<path fill="none" stroke="#5f6368" d="M273.73,-60.5C279.71,-61.09 285.73,-61.61 291.5,-62 414.02,-70.2 444.96,-65.89 567.75,-67 597.42,-67.27 604.88,-68.73 634.5,-67 636.56,-66.88 638.66,-66.73 640.78,-66.57"/>
<polygon fill="#5f6368" stroke="#5f6368" points="641.03,-70.06 650.66,-65.64 640.38,-63.09 641.03,-70.06"/>
<text xml:space="preserve" text-anchor="start" x="451.75" y="-69.87" font-family="Helvetica,sans-Serif" font-size="9.00" fill="#1a1a2e">stack → connect</text>
</g>
<!-- dns_client&#45;&gt;happy_eyeballs_mirage -->
<g id="edge5" class="edge">
<title>dns_client&#45;&gt;happy_eyeballs_mirage</title>
<path fill="none" stroke="#5f6368" d="M273.98,-48.7C312.48,-44.72 365.77,-39.22 409.05,-34.75"/>
<polygon fill="#5f6368" stroke="#5f6368" points="409.3,-38.24 418.89,-33.74 408.58,-31.28 409.3,-38.24"/>
<text xml:space="preserve" text-anchor="start" x="291.5" y="-49.46" font-family="Helvetica,sans-Serif" font-size="9.00" fill="#1a1a2e">happy_eyeballs → connect</text>
</g>
<!-- dns_client_app -->
<g id="node6" class="node">
<title>dns_client_app</title>
<path fill="#e8f0fe" stroke="#4285f4" d="M76,-72C76,-72 12,-72 12,-72 6,-72 0,-66 0,-60 0,-60 0,-48 0,-48 0,-42 6,-36 12,-36 12,-36 76,-36 76,-36 82,-36 88,-42 88,-48 88,-48 88,-60 88,-60 88,-66 82,-72 76,-72"/>
<text xml:space="preserve" text-anchor="start" x="8" y="-54.55" font-family="Helvetica,sans-Serif" font-size="11.00" fill="#1a1a2e">dns_client_app</text>
<text xml:space="preserve" text-anchor="start" x="10.25" y="-45.45" font-family="Helvetica,sans-Serif" font-size="9.00" fill="#1a1a2e">&lt;DnsClientApp&gt;</text>
</g>
<!-- dns_client_app&#45;&gt;dns_client -->
<g id="edge6" class="edge">
<title>dns_client_app&#45;&gt;dns_client</title>
<path fill="none" stroke="#5f6368" d="M88.41,-54C109.35,-54 134.87,-54 157.88,-54"/>
<polygon fill="#5f6368" stroke="#5f6368" points="157.78,-57.5 167.78,-54 157.78,-50.5 157.78,-57.5"/>
<text xml:space="preserve" text-anchor="start" x="106" y="-56.7" font-family="Helvetica,sans-Serif" font-size="9.00" fill="#1a1a2e">dns → start</text>
</g>
</g>
</svg>
