<?xml version="1.0" encoding="UTF-8" standalone="no"?>
<!DOCTYPE svg PUBLIC "-//W3C//DTD SVG 1.1//EN"
 "http://www.w3.org/Graphics/SVG/1.1/DTD/svg11.dtd">
<!-- Generated by graphviz version 14.1.2 (20260124.0452)
 -->
<!-- Title: UnixKvRo Pages: 1 -->
<svg width="270pt" height="94pt"
 viewBox="0.00 0.00 270.00 94.00" xmlns="http://www.w3.org/2000/svg" xmlns:xlink="http://www.w3.org/1999/xlink">
<g id="graph0" class="graph" transform="scale(1 1) rotate(0) translate(28.8 64.8)">
<title>UnixKvRo</title>
<polygon fill="white" stroke="none" points="-28.8,28.8 -28.8,-64.8 241.55,-64.8 241.55,28.8 -28.8,28.8"/>
<!-- kv_store -->
<g id="node1" class="node">
<title>kv_store</title>
<path fill="#e8f0fe" stroke="#4285f4" d="M200.75,-36C200.75,-36 168.25,-36 168.25,-36 162.25,-36 156.25,-30 156.25,-24 156.25,-24 156.25,-12 156.25,-12 156.25,-6 162.25,0 168.25,0 168.25,0 200.75,0 200.75,0 206.75,0 212.75,-6 212.75,-12 212.75,-12 212.75,-24 212.75,-24 212.75,-30 206.75,-36 200.75,-36"/>
<text xml:space="preserve" text-anchor="start" x="164.25" y="-18.55" font-family="Helvetica,sans-Serif" font-size="11.00" fill="#1a1a2e">kv_store</text>
<text xml:space="preserve" text-anchor="start" x="174" y="-9.45" font-family="Helvetica,sans-Serif" font-size="9.00" fill="#1a1a2e">&lt;Kv&gt;</text>
</g>
<!-- kv_app -->
<g id="node2" class="node">
<title>kv_app</title>
<path fill="#e8f0fe" stroke="#4285f4" d="M53.5,-36C53.5,-36 12,-36 12,-36 6,-36 0,-30 0,-24 0,-24 0,-12 0,-12 0,-6 6,0 12,0 12,0 53.5,0 53.5,0 59.5,0 65.5,-6 65.5,-12 65.5,-12 65.5,-24 65.5,-24 65.5,-30 59.5,-36 53.5,-36"/>
<text xml:space="preserve" text-anchor="start" x="15.5" y="-18.55" font-family="Helvetica,sans-Serif" font-size="11.00" fill="#1a1a2e">kv_app</text>
<text xml:space="preserve" text-anchor="start" x="8" y="-9.45" font-family="Helvetica,sans-Serif" font-size="9.00" fill="#1a1a2e">&lt;KvRoApp&gt;</text>
</g>
<!-- kv_app&#45;&gt;kv_store -->
<g id="edge1" class="edge">
<title>kv_app&#45;&gt;kv_store</title>
<path fill="none" stroke="#5f6368" d="M65.88,-18C88.92,-18 120.08,-18 144.55,-18"/>
<polygon fill="#5f6368" stroke="#5f6368" points="144.44,-21.5 154.44,-18 144.44,-14.5 144.44,-21.5"/>
<text xml:space="preserve" text-anchor="start" x="83.5" y="-20.7" font-family="Helvetica,sans-Serif" font-size="9.00" fill="#1a1a2e">kv → connect</text>
</g>
</g>
</svg>
