<?xml version="1.0" encoding="UTF-8" standalone="no"?>
<!DOCTYPE svg PUBLIC "-//W3C//DTD SVG 1.1//EN"
 "http://www.w3.org/Graphics/SVG/1.1/DTD/svg11.dtd">
<!-- Generated by graphviz version 14.1.2 (20260124.0452)
 -->
<!-- Title: UnixNetwork Pages: 1 -->
<svg width="487pt" height="148pt"
 viewBox="0.00 0.00 487.00 148.00" xmlns="http://www.w3.org/2000/svg" xmlns:xlink="http://www.w3.org/1999/xlink">
<g id="graph0" class="graph" transform="scale(1 1) rotate(0) translate(28.8 118.8)">
<title>UnixNetwork</title>
<polygon fill="white" stroke="none" points="-28.8,28.8 -28.8,-118.8 457.8,-118.8 457.8,28.8 -28.8,28.8"/>
<!-- udpv4v6_socket -->
<g id="node1" class="node">
<title>udpv4v6_socket</title>
<path fill="#e8f0fe" stroke="#4285f4" d="M417,-90C417,-90 346.25,-90 346.25,-90 340.25,-90 334.25,-84 334.25,-78 334.25,-78 334.25,-66 334.25,-66 334.25,-60 340.25,-54 346.25,-54 346.25,-54 417,-54 417,-54 423,-54 429,-60 429,-66 429,-66 429,-78 429,-78 429,-84 423,-90 417,-90"/>
<text xml:space="preserve" text-anchor="start" x="343" y="-72.55" font-family="Helvetica,sans-Serif" font-size="11.00" fill="#1a1a2e">udpv4v6_socket</text>
<text xml:space="preserve" text-anchor="start" x="342.25" y="-63.45" font-family="Helvetica,sans-Serif" font-size="9.00" fill="#1a1a2e">&lt;Udpv4v6_socket&gt;</text>
</g>
<!-- tcpv4v6_socket -->
<g id="node2" class="node">
<title>tcpv4v6_socket</title>
<path fill="#e8f0fe" stroke="#4285f4" d="M415.5,-36C415.5,-36 347.75,-36 347.75,-36 341.75,-36 335.75,-30 335.75,-24 335.75,-24 335.75,-12 335.75,-12 335.75,-6 341.75,0 347.75,0 347.75,0 415.5,0 415.5,0 421.5,0 427.5,-6 427.5,-12 427.5,-12 427.5,-24 427.5,-24 427.5,-30 421.5,-36 415.5,-36"/>
<text xml:space="preserve" text-anchor="start" x="344.88" y="-18.55" font-family="Helvetica,sans-Serif" font-size="11.00" fill="#1a1a2e">tcpv4v6_socket</text>
<text xml:space="preserve" text-anchor="start" x="343.75" y="-9.45" font-family="Helvetica,sans-Serif" font-size="9.00" fill="#1a1a2e">&lt;Tcpv4v6_socket&gt;</text>
</g>
<!-- stackv4v6 -->
<g id="node3" class="node">
<title>stackv4v6</title>
<path fill="#e8f0fe" stroke="#4285f4" d="M224.75,-63C224.75,-63 180.25,-63 180.25,-63 174.25,-63 168.25,-57 168.25,-51 168.25,-51 168.25,-39 168.25,-39 168.25,-33 174.25,-27 180.25,-27 180.25,-27 224.75,-27 224.75,-27 230.75,-27 236.75,-33 236.75,-39 236.75,-39 236.75,-51 236.75,-51 236.75,-57 230.75,-63 224.75,-63"/>
<text xml:space="preserve" text-anchor="start" x="178.88" y="-45.55" font-family="Helvetica,sans-Serif" font-size="11.00" fill="#1a1a2e">stackv4v6</text>
<text xml:space="preserve" text-anchor="start" x="176.25" y="-36.45" font-family="Helvetica,sans-Serif" font-size="9.00" fill="#1a1a2e">&lt;Stackv4v6&gt;</text>
</g>
<!-- stackv4v6&#45;&gt;udpv4v6_socket -->
<g id="edge1" class="edge">
<title>stackv4v6&#45;&gt;udpv4v6_socket</title>
<path fill="none" stroke="#5f6368" d="M237.23,-50.14C261.32,-53.81 294.32,-58.84 322.59,-63.15"/>
<polygon fill="#5f6368" stroke="#5f6368" points="322.06,-66.61 332.48,-64.66 323.12,-59.69 322.06,-66.61"/>
<text xml:space="preserve" text-anchor="start" x="254.75" y="-64.41" font-family="Helvetica,sans-Serif" font-size="9.00" fill="#1a1a2e">udp → connect</text>
</g>
<!-- stackv4v6&#45;&gt;tcpv4v6_socket -->
<g id="edge2" class="edge">
<title>stackv4v6&#45;&gt;tcpv4v6_socket</title>
<path fill="none" stroke="#5f6368" d="M237.23,-39.86C261.78,-36.12 295.59,-30.96 324.21,-26.6"/>
<polygon fill="#5f6368" stroke="#5f6368" points="324.45,-30.1 333.81,-25.14 323.39,-23.18 324.45,-30.1"/>
<text xml:space="preserve" text-anchor="start" x="256.62" y="-39.72" font-family="Helvetica,sans-Serif" font-size="9.00" fill="#1a1a2e">tcp → connect</text>
</g>
<!-- stack_app -->
<g id="node4" class="node">
<title>stack_app</title>
<path fill="#e8f0fe" stroke="#4285f4" d="M53.5,-63C53.5,-63 12,-63 12,-63 6,-63 0,-57 0,-51 0,-51 0,-39 0,-39 0,-33 6,-27 12,-27 12,-27 53.5,-27 53.5,-27 59.5,-27 65.5,-33 65.5,-39 65.5,-39 65.5,-51 65.5,-51 65.5,-57 59.5,-63 53.5,-63"/>
<text xml:space="preserve" text-anchor="start" x="8.38" y="-45.55" font-family="Helvetica,sans-Serif" font-size="11.00" fill="#1a1a2e">stack_app</text>
<text xml:space="preserve" text-anchor="start" x="8" y="-36.45" font-family="Helvetica,sans-Serif" font-size="9.00" fill="#1a1a2e">&lt;StackApp&gt;</text>
</g>
<!-- stack_app&#45;&gt;stackv4v6 -->
<g id="edge3" class="edge">
<title>stack_app&#45;&gt;stackv4v6</title>
<path fill="none" stroke="#5f6368" d="M65.7,-45C91.43,-45 127.92,-45 156.59,-45"/>
<polygon fill="#5f6368" stroke="#5f6368" points="156.43,-48.5 166.43,-45 156.43,-41.5 156.43,-48.5"/>
<text xml:space="preserve" text-anchor="start" x="83.5" y="-47.7" font-family="Helvetica,sans-Serif" font-size="9.00" fill="#1a1a2e">stack → connect</text>
</g>
</g>
</svg>
