<?xml version="1.0" encoding="UTF-8" standalone="no"?>
<!DOCTYPE svg PUBLIC "-//W3C//DTD SVG 1.1//EN"
 "http://www.w3.org/Graphics/SVG/1.1/DTD/svg11.dtd">
<!-- Generated by graphviz version 14.1.2 (20260124.0452)
 -->
<!-- Title: UnixDhcp Pages: 1 -->
<svg width="263pt" height="94pt"
 viewBox="0.00 0.00 263.00 94.00" xmlns="http://www.w3.org/2000/svg" xmlns:xlink="http://www.w3.org/1999/xlink">
<g id="graph0" class="graph" transform="scale(1 1) rotate(0) translate(28.8 64.8)">
<title>UnixDhcp</title>
<polygon fill="white" stroke="none" points="-28.8,28.8 -28.8,-64.8 234.55,-64.8 234.55,28.8 -28.8,28.8"/>
<!-- netif -->
<g id="node1" class="node">
<title>netif</title>
<path fill="#e8f0fe" stroke="#4285f4" d="M193.75,-36C193.75,-36 163.75,-36 163.75,-36 157.75,-36 151.75,-30 151.75,-24 151.75,-24 151.75,-12 151.75,-12 151.75,-6 157.75,0 163.75,0 163.75,0 193.75,0 193.75,0 199.75,0 205.75,-6 205.75,-12 205.75,-12 205.75,-24 205.75,-24 205.75,-30 199.75,-36 193.75,-36"/>
<text xml:space="preserve" text-anchor="start" x="168.62" y="-18.55" font-family="Helvetica,sans-Serif" font-size="11.00" fill="#1a1a2e">netif</text>
<text xml:space="preserve" text-anchor="start" x="164.12" y="-9.45" font-family="Helvetica,sans-Serif" font-size="9.00" fill="#1a1a2e">&lt;Netif&gt;</text>
</g>
<!-- net_app -->
<g id="node2" class="node">
<title>net_app</title>
<path fill="#e8f0fe" stroke="#4285f4" d="M45.25,-36C45.25,-36 12,-36 12,-36 6,-36 0,-30 0,-24 0,-24 0,-12 0,-12 0,-6 6,0 12,0 12,0 45.25,0 45.25,0 51.25,0 57.25,-6 57.25,-12 57.25,-12 57.25,-24 57.25,-24 57.25,-30 51.25,-36 45.25,-36"/>
<text xml:space="preserve" text-anchor="start" x="9.12" y="-18.55" font-family="Helvetica,sans-Serif" font-size="11.00" fill="#1a1a2e">net_app</text>
<text xml:space="preserve" text-anchor="start" x="8" y="-9.45" font-family="Helvetica,sans-Serif" font-size="9.00" fill="#1a1a2e">&lt;NetApp&gt;</text>
</g>
<!-- net_app&#45;&gt;netif -->
<g id="edge1" class="edge">
<title>net_app&#45;&gt;netif</title>
<path fill="none" stroke="#5f6368" d="M57.49,-18C80.89,-18 114.53,-18 140.29,-18"/>
<polygon fill="#5f6368" stroke="#5f6368" points="139.99,-21.5 149.99,-18 139.99,-14.5 139.99,-21.5"/>
<text xml:space="preserve" text-anchor="start" x="75.25" y="-20.7" font-family="Helvetica,sans-Serif" font-size="9.00" fill="#1a1a2e">net → connect</text>
</g>
</g>
</svg>
