<?xml version="1.0" encoding="UTF-8" standalone="no"?>
<!DOCTYPE svg PUBLIC "-//W3C//DTD SVG 1.1//EN"
 "http://www.w3.org/Graphics/SVG/1.1/DTD/svg11.dtd">
<!-- Generated by graphviz version 14.1.2 (20260124.0452)
 -->
<!-- Title: UnixTestWebsite Pages: 1 -->
<svg width="530pt" height="402pt"
 viewBox="0.00 0.00 530.00 402.00" xmlns="http://www.w3.org/2000/svg" xmlns:xlink="http://www.w3.org/1999/xlink">
<g id="graph0" class="graph" transform="scale(1 1) rotate(0) translate(28.8 372.8)">
<title>UnixTestWebsite</title>
<polygon fill="white" stroke="none" points="-28.8,28.8 -28.8,-372.8 500.8,-372.8 500.8,28.8 -28.8,28.8"/>
<g id="clust1" class="cluster">
<title>cluster_SocketStack</title>
<path fill="#f8f9fa" stroke="#5f6368" d="M172.25,-98C172.25,-98 452,-98 452,-98 458,-98 464,-104 464,-110 464,-110 464,-324 464,-324 464,-330 458,-336 452,-336 452,-336 172.25,-336 172.25,-336 166.25,-336 160.25,-330 160.25,-324 160.25,-324 160.25,-110 160.25,-110 160.25,-104 166.25,-98 172.25,-98"/>
<text xml:space="preserve" text-anchor="middle" x="312.12" y="-318.7" font-family="Helvetica,sans-Serif" font-size="14.00">SocketStack</text>
</g>
<!-- runtime -->
<g id="node1" class="node">
<title>runtime</title>
<path fill="#e8f0fe" stroke="#4285f4" d="M221,-193C221,-193 184,-193 184,-193 178,-193 172,-187 172,-181 172,-181 172,-169 172,-169 172,-163 178,-157 184,-157 184,-157 221,-157 221,-157 227,-157 233,-163 233,-169 233,-169 233,-181 233,-181 233,-187 227,-193 221,-193"/>
<text xml:space="preserve" text-anchor="start" x="184.5" y="-175.55" font-family="Helvetica,sans-Serif" font-size="11.00" fill="#1a1a2e">runtime</text>
<text xml:space="preserve" text-anchor="start" x="180" y="-166.45" font-family="Helvetica,sans-Serif" font-size="9.00" fill="#1a1a2e">&lt;Runtime&gt;</text>
</g>
<!-- udpv4v6_socket -->
<g id="node2" class="node">
<title>udpv4v6_socket</title>
<path fill="#dcedc8" stroke="#558b2f" d="M444,-176C444,-176 373.25,-176 373.25,-176 367.25,-176 361.25,-170 361.25,-164 361.25,-164 361.25,-152 361.25,-152 361.25,-146 367.25,-140 373.25,-140 373.25,-140 444,-140 444,-140 450,-140 456,-146 456,-152 456,-152 456,-164 456,-164 456,-170 450,-176 444,-176"/>
<text xml:space="preserve" text-anchor="start" x="370" y="-158.55" font-family="Helvetica,sans-Serif" font-size="11.00" fill="#1a1a2e">udpv4v6_socket</text>
<text xml:space="preserve" text-anchor="start" x="369.25" y="-149.45" font-family="Helvetica,sans-Serif" font-size="9.00" fill="#1a1a2e">&lt;Udpv4v6_socket&gt;</text>
</g>
<!-- runtime&#45;&gt;udpv4v6_socket -->
<g id="edge1" class="edge">
<title>runtime&#45;&gt;udpv4v6_socket</title>
<path fill="none" stroke="#5f6368" d="M217.15,-156.68C226.99,-145.11 241.38,-131.17 257.75,-124.75 293.13,-110.88 306.32,-115.78 343.25,-124.75 352.02,-126.88 360.92,-130.43 369.2,-134.43"/>
<polygon fill="#5f6368" stroke="#5f6368" points="367.47,-137.47 377.96,-138.97 370.69,-131.26 367.47,-137.47"/>
<text xml:space="preserve" text-anchor="start" x="257.75" y="-127.45" font-family="Helvetica,sans-Serif" font-size="9.00" fill="#1a1a2e">ipv4_only → connect</text>
</g>
<!-- runtime&#45;&gt;udpv4v6_socket -->
<g id="edge2" class="edge">
<title>runtime&#45;&gt;udpv4v6_socket</title>
<path fill="none" stroke="#5f6368" d="M233.28,-164.42C241.14,-162.08 249.68,-159.95 257.75,-158.75 287.83,-154.26 321.69,-153.72 349.61,-154.45"/>
<polygon fill="#5f6368" stroke="#5f6368" points="349.16,-157.94 359.27,-154.77 349.39,-150.94 349.16,-157.94"/>
<text xml:space="preserve" text-anchor="start" x="257.75" y="-161.45" font-family="Helvetica,sans-Serif" font-size="9.00" fill="#1a1a2e">ipv6_only → connect</text>
</g>
<!-- tcpv4v6_socket -->
<g id="node3" class="node">
<title>tcpv4v6_socket</title>
<path fill="#dcedc8" stroke="#558b2f" d="M442.5,-244C442.5,-244 374.75,-244 374.75,-244 368.75,-244 362.75,-238 362.75,-232 362.75,-232 362.75,-220 362.75,-220 362.75,-214 368.75,-208 374.75,-208 374.75,-208 442.5,-208 442.5,-208 448.5,-208 454.5,-214 454.5,-220 454.5,-220 454.5,-232 454.5,-232 454.5,-238 448.5,-244 442.5,-244"/>
<text xml:space="preserve" text-anchor="start" x="371.88" y="-226.55" font-family="Helvetica,sans-Serif" font-size="11.00" fill="#1a1a2e">tcpv4v6_socket</text>
<text xml:space="preserve" text-anchor="start" x="370.75" y="-217.45" font-family="Helvetica,sans-Serif" font-size="9.00" fill="#1a1a2e">&lt;Tcpv4v6_socket&gt;</text>
</g>
<!-- runtime&#45;&gt;tcpv4v6_socket -->
<g id="edge3" class="edge">
<title>runtime&#45;&gt;tcpv4v6_socket</title>
<path fill="none" stroke="#5f6368" d="M233.31,-175.78C262.05,-177.23 306.47,-181.31 343.25,-192.75 351.26,-195.24 359.47,-198.69 367.22,-202.43"/>
<polygon fill="#5f6368" stroke="#5f6368" points="365.61,-205.54 376.11,-206.96 368.79,-199.3 365.61,-205.54"/>
<text xml:space="preserve" text-anchor="start" x="257.75" y="-195.45" font-family="Helvetica,sans-Serif" font-size="9.00" fill="#1a1a2e">ipv4_only → connect</text>
</g>
<!-- runtime&#45;&gt;tcpv4v6_socket -->
<g id="edge4" class="edge">
<title>runtime&#45;&gt;tcpv4v6_socket</title>
<path fill="none" stroke="#5f6368" d="M233.38,-193.33C241.09,-197.4 249.53,-201.29 257.75,-204 287.72,-213.87 322.51,-219.33 351.03,-222.33"/>
<polygon fill="#5f6368" stroke="#5f6368" points="350.63,-225.81 360.92,-223.29 351.31,-218.84 350.63,-225.81"/>
<text xml:space="preserve" text-anchor="start" x="257.75" y="-224.01" font-family="Helvetica,sans-Serif" font-size="9.00" fill="#1a1a2e">ipv6_only → connect</text>
</g>
<!-- stackv4v6 -->
<g id="node4" class="node">
<title>stackv4v6</title>
<path fill="#dcedc8" stroke="#558b2f" d="M224.75,-278C224.75,-278 180.25,-278 180.25,-278 174.25,-278 168.25,-272 168.25,-266 168.25,-266 168.25,-254 168.25,-254 168.25,-248 174.25,-242 180.25,-242 180.25,-242 224.75,-242 224.75,-242 230.75,-242 236.75,-248 236.75,-254 236.75,-254 236.75,-266 236.75,-266 236.75,-272 230.75,-278 224.75,-278"/>
<text xml:space="preserve" text-anchor="start" x="178.88" y="-260.55" font-family="Helvetica,sans-Serif" font-size="11.00" fill="#1a1a2e">stackv4v6</text>
<text xml:space="preserve" text-anchor="start" x="176.25" y="-251.45" font-family="Helvetica,sans-Serif" font-size="9.00" fill="#1a1a2e">&lt;Stackv4v6&gt;</text>
</g>
<!-- stackv4v6&#45;&gt;udpv4v6_socket -->
<g id="edge5" class="edge">
<title>stackv4v6&#45;&gt;udpv4v6_socket</title>
<path fill="none" stroke="#5f6368" d="M237.13,-258.02C273.03,-255.31 326.95,-249.28 343.25,-237 358.17,-225.75 350.02,-213.94 361.25,-199 365.22,-193.72 369.96,-188.61 374.87,-183.89"/>
<polygon fill="#5f6368" stroke="#5f6368" points="377,-186.68 382.07,-177.38 372.3,-181.49 377,-186.68"/>
<text xml:space="preserve" text-anchor="start" x="269.75" y="-258.7" font-family="Helvetica,sans-Serif" font-size="9.00" fill="#1a1a2e">udp → connect</text>
</g>
<!-- stackv4v6&#45;&gt;tcpv4v6_socket -->
<g id="edge6" class="edge">
<title>stackv4v6&#45;&gt;tcpv4v6_socket</title>
<path fill="none" stroke="#5f6368" d="M237.07,-270.07C265.91,-277.03 308.23,-283.22 343.25,-272 356.4,-267.78 369.15,-259.78 379.79,-251.62"/>
<polygon fill="#5f6368" stroke="#5f6368" points="381.82,-254.48 387.38,-245.45 377.41,-249.05 381.82,-254.48"/>
<text xml:space="preserve" text-anchor="start" x="271.62" y="-280.87" font-family="Helvetica,sans-Serif" font-size="9.00" fill="#1a1a2e">tcp → connect</text>
</g>
<!-- htdocs_data -->
<g id="node5" class="node">
<title>htdocs_data</title>
<path fill="#dcedc8" stroke="#558b2f" d="M227.75,-90C227.75,-90 177.25,-90 177.25,-90 171.25,-90 165.25,-84 165.25,-78 165.25,-78 165.25,-66 165.25,-66 165.25,-60 171.25,-54 177.25,-54 177.25,-54 227.75,-54 227.75,-54 233.75,-54 239.75,-60 239.75,-66 239.75,-66 239.75,-78 239.75,-78 239.75,-84 233.75,-90 227.75,-90"/>
<text xml:space="preserve" text-anchor="start" x="173.25" y="-72.55" font-family="Helvetica,sans-Serif" font-size="11.00" fill="#1a1a2e">htdocs_data</text>
<text xml:space="preserve" text-anchor="start" x="192" y="-63.45" font-family="Helvetica,sans-Serif" font-size="9.00" fill="#1a1a2e">&lt;Kv&gt;</text>
</g>
<!-- tls_data -->
<g id="node6" class="node">
<title>tls_data</title>
<path fill="#dcedc8" stroke="#558b2f" d="M217.5,-36C217.5,-36 187.5,-36 187.5,-36 181.5,-36 175.5,-30 175.5,-24 175.5,-24 175.5,-12 175.5,-12 175.5,-6 181.5,0 187.5,0 187.5,0 217.5,0 217.5,0 223.5,0 229.5,-6 229.5,-12 229.5,-12 229.5,-24 229.5,-24 229.5,-30 223.5,-36 217.5,-36"/>
<text xml:space="preserve" text-anchor="start" x="183.75" y="-18.55" font-family="Helvetica,sans-Serif" font-size="11.00" fill="#1a1a2e">tls_data</text>
<text xml:space="preserve" text-anchor="start" x="192" y="-9.45" font-family="Helvetica,sans-Serif" font-size="9.00" fill="#1a1a2e">&lt;Kv&gt;</text>
</g>
<!-- dispatch -->
<g id="node7" class="node">
<title>dispatch</title>
<path fill="#dcedc8" stroke="#558b2f" d="M50.5,-90C50.5,-90 12,-90 12,-90 6,-90 0,-84 0,-78 0,-78 0,-66 0,-66 0,-60 6,-54 12,-54 12,-54 50.5,-54 50.5,-54 56.5,-54 62.5,-60 62.5,-66 62.5,-66 62.5,-78 62.5,-78 62.5,-84 56.5,-90 50.5,-90"/>
<text xml:space="preserve" text-anchor="start" x="11.38" y="-72.55" font-family="Helvetica,sans-Serif" font-size="11.00" fill="#1a1a2e">dispatch</text>
<text xml:space="preserve" text-anchor="start" x="8" y="-63.45" font-family="Helvetica,sans-Serif" font-size="9.00" fill="#1a1a2e">&lt;Dispatch&gt;</text>
</g>
<!-- dispatch&#45;&gt;stackv4v6 -->
<g id="edge9" class="edge">
<title>dispatch&#45;&gt;stackv4v6</title>
<path fill="none" stroke="#5f6368" d="M48.79,-90.37C78.87,-123.78 142.65,-194.63 177.51,-233.35"/>
<polygon fill="#5f6368" stroke="#5f6368" points="174.59,-235.34 183.88,-240.43 179.79,-230.66 174.59,-235.34"/>
<text xml:space="preserve" text-anchor="start" x="80.5" y="-201.89" font-family="Helvetica,sans-Serif" font-size="9.00" fill="#1a1a2e">stack → connect</text>
</g>
<!-- dispatch&#45;&gt;htdocs_data -->
<g id="edge7" class="edge">
<title>dispatch&#45;&gt;htdocs_data</title>
<path fill="none" stroke="#5f6368" d="M62.9,-72C88.21,-72 124.58,-72 153.72,-72"/>
<polygon fill="#5f6368" stroke="#5f6368" points="153.38,-75.5 163.38,-72 153.38,-68.5 153.38,-75.5"/>
<text xml:space="preserve" text-anchor="start" x="82" y="-74.7" font-family="Helvetica,sans-Serif" font-size="9.00" fill="#1a1a2e">data → connect</text>
</g>
<!-- dispatch&#45;&gt;tls_data -->
<g id="edge8" class="edge">
<title>dispatch&#45;&gt;tls_data</title>
<path fill="none" stroke="#5f6368" d="M62.9,-62.22C91.49,-53.1 134.19,-39.48 164.63,-29.76"/>
<polygon fill="#5f6368" stroke="#5f6368" points="165.34,-33.21 173.8,-26.84 163.21,-26.54 165.34,-33.21"/>
<text xml:space="preserve" text-anchor="start" x="81.25" y="-58.74" font-family="Helvetica,sans-Serif" font-size="9.00" fill="#1a1a2e">certs → connect</text>
</g>
</g>
</svg>
