<?xml version="1.0" encoding="UTF-8" standalone="no"?>
<!DOCTYPE svg PUBLIC "-//W3C//DTD SVG 1.1//EN"
 "http://www.w3.org/Graphics/SVG/1.1/DTD/svg11.dtd">
<!-- Generated by graphviz version 14.1.2 (20260124.0452)
 -->
<!-- Title: UnixDiskLottery Pages: 1 -->
<svg width="281pt" height="94pt"
 viewBox="0.00 0.00 281.00 94.00" xmlns="http://www.w3.org/2000/svg" xmlns:xlink="http://www.w3.org/1999/xlink">
<g id="graph0" class="graph" transform="scale(1 1) rotate(0) translate(28.8 64.8)">
<title>UnixDiskLottery</title>
<polygon fill="white" stroke="none" points="-28.8,28.8 -28.8,-64.8 251.8,-64.8 251.8,28.8 -28.8,28.8"/>
<!-- ramdisk -->
<g id="node1" class="node">
<title>ramdisk</title>
<path fill="#e8f0fe" stroke="#4285f4" d="M211,-36C211,-36 181,-36 181,-36 175,-36 169,-30 169,-24 169,-24 169,-12 169,-12 169,-6 175,0 181,0 181,0 211,0 211,0 217,0 223,-6 223,-12 223,-12 223,-24 223,-24 223,-30 217,-36 211,-36"/>
<text xml:space="preserve" text-anchor="start" x="177.25" y="-18.55" font-family="Helvetica,sans-Serif" font-size="11.00" fill="#1a1a2e">ramdisk</text>
<text xml:space="preserve" text-anchor="start" x="179.5" y="-9.45" font-family="Helvetica,sans-Serif" font-size="9.00" fill="#1a1a2e">&lt;Block&gt;</text>
</g>
<!-- block_app -->
<g id="node2" class="node">
<title>block_app</title>
<path fill="#e8f0fe" stroke="#4285f4" d="M53.5,-36C53.5,-36 12,-36 12,-36 6,-36 0,-30 0,-24 0,-24 0,-12 0,-12 0,-6 6,0 12,0 12,0 53.5,0 53.5,0 59.5,0 65.5,-6 65.5,-12 65.5,-12 65.5,-24 65.5,-24 65.5,-30 59.5,-36 53.5,-36"/>
<text xml:space="preserve" text-anchor="start" x="8.38" y="-18.55" font-family="Helvetica,sans-Serif" font-size="11.00" fill="#1a1a2e">block_app</text>
<text xml:space="preserve" text-anchor="start" x="8" y="-9.45" font-family="Helvetica,sans-Serif" font-size="9.00" fill="#1a1a2e">&lt;BlockApp&gt;</text>
</g>
<!-- block_app&#45;&gt;ramdisk -->
<g id="edge1" class="edge">
<title>block_app&#45;&gt;ramdisk</title>
<path fill="none" stroke="#5f6368" d="M65.99,-18C92.37,-18 129.71,-18 157.44,-18"/>
<polygon fill="#5f6368" stroke="#5f6368" points="157.16,-21.5 167.16,-18 157.16,-14.5 157.16,-21.5"/>
<text xml:space="preserve" text-anchor="start" x="83.5" y="-20.7" font-family="Helvetica,sans-Serif" font-size="9.00" fill="#1a1a2e">block → connect</text>
</g>
</g>
</svg>
