<?xml version="1.0" encoding="UTF-8" standalone="no"?>
<!DOCTYPE svg PUBLIC "-//W3C//DTD SVG 1.1//EN"
 "http://www.w3.org/Graphics/SVG/1.1/DTD/svg11.dtd">
<!-- Generated by graphviz version 14.1.2 (20260124.0452)
 -->
<!-- Title: UnixDns Pages: 1 -->
<svg width="971pt" height="148pt"
 viewBox="0.00 0.00 971.00 148.00" xmlns="http://www.w3.org/2000/svg" xmlns:xlink="http://www.w3.org/1999/xlink">
<g id="graph0" class="graph" transform="scale(1 1) rotate(0) translate(28.8 118.8)">
<title>UnixDns</title>
<polygon fill="white" stroke="none" points="-28.8,28.8 -28.8,-118.8 942.05,-118.8 942.05,28.8 -28.8,28.8"/>
<!-- udpv4v6_socket -->
<g id="node1" class="node">
<title>udpv4v6_socket</title>
<path fill="#e8f0fe" stroke="#4285f4" d="M901.25,-90C901.25,-90 830.5,-90 830.5,-90 824.5,-90 818.5,-84 818.5,-78 818.5,-78 818.5,-66 818.5,-66 818.5,-60 824.5,-54 830.5,-54 830.5,-54 901.25,-54 901.25,-54 907.25,-54 913.25,-60 913.25,-66 913.25,-66 913.25,-78 913.25,-78 913.25,-84 907.25,-90 901.25,-90"/>
<text xml:space="preserve" text-anchor="start" x="827.25" y="-72.55" font-family="Helvetica,sans-Serif" font-size="11.00" fill="#1a1a2e">udpv4v6_socket</text>
<text xml:space="preserve" text-anchor="start" x="826.5" y="-63.45" font-family="Helvetica,sans-Serif" font-size="9.00" fill="#1a1a2e">&lt;Udpv4v6_socket&gt;</text>
</g>
<!-- tcpv4v6_socket -->
<g id="node2" class="node">
<title>tcpv4v6_socket</title>
<path fill="#e8f0fe" stroke="#4285f4" d="M899.75,-36C899.75,-36 832,-36 832,-36 826,-36 820,-30 820,-24 820,-24 820,-12 820,-12 820,-6 826,0 832,0 832,0 899.75,0 899.75,0 905.75,0 911.75,-6 911.75,-12 911.75,-12 911.75,-24 911.75,-24 911.75,-30 905.75,-36 899.75,-36"/>
<text xml:space="preserve" text-anchor="start" x="829.12" y="-18.55" font-family="Helvetica,sans-Serif" font-size="11.00" fill="#1a1a2e">tcpv4v6_socket</text>
<text xml:space="preserve" text-anchor="start" x="828" y="-9.45" font-family="Helvetica,sans-Serif" font-size="9.00" fill="#1a1a2e">&lt;Tcpv4v6_socket&gt;</text>
</g>
<!-- stackv4v6 -->
<g id="node3" class="node">
<title>stackv4v6</title>
<path fill="#e8f0fe" stroke="#4285f4" d="M709,-63C709,-63 664.5,-63 664.5,-63 658.5,-63 652.5,-57 652.5,-51 652.5,-51 652.5,-39 652.5,-39 652.5,-33 658.5,-27 664.5,-27 664.5,-27 709,-27 709,-27 715,-27 721,-33 721,-39 721,-39 721,-51 721,-51 721,-57 715,-63 709,-63"/>
<text xml:space="preserve" text-anchor="start" x="663.12" y="-45.55" font-family="Helvetica,sans-Serif" font-size="11.00" fill="#1a1a2e">stackv4v6</text>
<text xml:space="preserve" text-anchor="start" x="660.5" y="-36.45" font-family="Helvetica,sans-Serif" font-size="9.00" fill="#1a1a2e">&lt;Stackv4v6&gt;</text>
</g>
<!-- stackv4v6&#45;&gt;udpv4v6_socket -->
<g id="edge2" class="edge">
<title>stackv4v6&#45;&gt;udpv4v6_socket</title>
<path fill="none" stroke="#5f6368" d="M721.48,-50.14C745.57,-53.81 778.57,-58.84 806.84,-63.15"/>
<polygon fill="#5f6368" stroke="#5f6368" points="806.31,-66.61 816.73,-64.66 807.37,-59.69 806.31,-66.61"/>
<text xml:space="preserve" text-anchor="start" x="739" y="-64.41" font-family="Helvetica,sans-Serif" font-size="9.00" fill="#1a1a2e">udp → connect</text>
</g>
<!-- stackv4v6&#45;&gt;tcpv4v6_socket -->
<g id="edge3" class="edge">
<title>stackv4v6&#45;&gt;tcpv4v6_socket</title>
<path fill="none" stroke="#5f6368" d="M721.48,-39.86C746.03,-36.12 779.84,-30.96 808.46,-26.6"/>
<polygon fill="#5f6368" stroke="#5f6368" points="808.7,-30.1 818.06,-25.14 807.64,-23.18 808.7,-30.1"/>
<text xml:space="preserve" text-anchor="start" x="740.88" y="-39.72" font-family="Helvetica,sans-Serif" font-size="9.00" fill="#1a1a2e">tcp → connect</text>
</g>
<!-- happy_eyeballs_mirage -->
<g id="node4" class="node">
<title>happy_eyeballs_mirage</title>
<path fill="#e8f0fe" stroke="#4285f4" d="M537.75,-36C537.75,-36 432.5,-36 432.5,-36 426.5,-36 420.5,-30 420.5,-24 420.5,-24 420.5,-12 420.5,-12 420.5,-6 426.5,0 432.5,0 432.5,0 537.75,0 537.75,0 543.75,0 549.75,-6 549.75,-12 549.75,-12 549.75,-24 549.75,-24 549.75,-30 543.75,-36 537.75,-36"/>
<text xml:space="preserve" text-anchor="start" x="428.5" y="-18.55" font-family="Helvetica,sans-Serif" font-size="11.00" fill="#1a1a2e">happy_eyeballs_mirage</text>
<text xml:space="preserve" text-anchor="start" x="429.62" y="-9.45" font-family="Helvetica,sans-Serif" font-size="9.00" fill="#1a1a2e">&lt;Happy_eyeballs_mirage&gt;</text>
</g>
<!-- happy_eyeballs_mirage&#45;&gt;stackv4v6 -->
<g id="edge1" class="edge">
<title>happy_eyeballs_mirage&#45;&gt;stackv4v6</title>
<path fill="none" stroke="#5f6368" d="M550.11,-26.65C579.62,-30.64 613.94,-35.29 640.67,-38.9"/>
<polygon fill="#5f6368" stroke="#5f6368" points="640.12,-42.36 650.5,-40.23 641.06,-35.42 640.12,-42.36"/>
<text xml:space="preserve" text-anchor="start" x="567.75" y="-40.46" font-family="Helvetica,sans-Serif" font-size="9.00" fill="#1a1a2e">stack → connect</text>
</g>
<!-- dns_client -->
<g id="node5" class="node">
<title>dns_client</title>
<path fill="#e8f0fe" stroke="#4285f4" d="M261.5,-63C261.5,-63 181.75,-63 181.75,-63 175.75,-63 169.75,-57 169.75,-51 169.75,-51 169.75,-39 169.75,-39 169.75,-33 175.75,-27 181.75,-27 181.75,-27 261.5,-27 261.5,-27 267.5,-27 273.5,-33 273.5,-39 273.5,-39 273.5,-51 273.5,-51 273.5,-57 267.5,-63 261.5,-63"/>
<text xml:space="preserve" text-anchor="start" x="197.62" y="-45.55" font-family="Helvetica,sans-Serif" font-size="11.00" fill="#1a1a2e">dns_client</text>
<text xml:space="preserve" text-anchor="start" x="177.75" y="-36.45" font-family="Helvetica,sans-Serif" font-size="9.00" fill="#1a1a2e">&lt;Dns_client_mirage&gt;</text>
</g>
<!-- dns_client&#45;&gt;stackv4v6 -->
<g id="edge4" class="edge">
<title>dns_client&#45;&gt;stackv4v6</title>
<path fill="none" stroke="#5f6368" d="M273.72,-51.6C279.7,-52.18 285.73,-52.67 291.5,-53 443.69,-61.81 482.51,-64.79 634.5,-53 636.57,-52.84 638.67,-52.64 640.8,-52.42"/>
<polygon fill="#5f6368" stroke="#5f6368" points="641.21,-55.9 650.7,-51.19 640.35,-48.95 641.21,-55.9"/>
<text xml:space="preserve" text-anchor="start" x="451.75" y="-63.46" font-family="Helvetica,sans-Serif" font-size="9.00" fill="#1a1a2e">stack → connect</text>
</g>
<!-- dns_client&#45;&gt;happy_eyeballs_mirage -->
<g id="edge5" class="edge">
<title>dns_client&#45;&gt;happy_eyeballs_mirage</title>
<path fill="none" stroke="#5f6368" d="M273.98,-39.7C312.48,-35.72 365.77,-30.22 409.05,-25.75"/>
<polygon fill="#5f6368" stroke="#5f6368" points="409.3,-29.24 418.89,-24.74 408.58,-22.28 409.3,-29.24"/>
<text xml:space="preserve" text-anchor="start" x="291.5" y="-40.46" font-family="Helvetica,sans-Serif" font-size="9.00" fill="#1a1a2e">happy_eyeballs → connect</text>
</g>
<!-- dns_client_app -->
<g id="node6" class="node">
<title>dns_client_app</title>
<path fill="#e8f0fe" stroke="#4285f4" d="M76,-63C76,-63 12,-63 12,-63 6,-63 0,-57 0,-51 0,-51 0,-39 0,-39 0,-33 6,-27 12,-27 12,-27 76,-27 76,-27 82,-27 88,-33 88,-39 88,-39 88,-51 88,-51 88,-57 82,-63 76,-63"/>
<text xml:space="preserve" text-anchor="start" x="8" y="-45.55" font-family="Helvetica,sans-Serif" font-size="11.00" fill="#1a1a2e">dns_client_app</text>
<text xml:space="preserve" text-anchor="start" x="10.25" y="-36.45" font-family="Helvetica,sans-Serif" font-size="9.00" fill="#1a1a2e">&lt;DnsClientApp&gt;</text>
</g>
<!-- dns_client_app&#45;&gt;dns_client -->
<g id="edge6" class="edge">
<title>dns_client_app&#45;&gt;dns_client</title>
<path fill="none" stroke="#5f6368" d="M88.41,-45C109.35,-45 134.87,-45 157.88,-45"/>
<polygon fill="#5f6368" stroke="#5f6368" points="157.78,-48.5 167.78,-45 157.78,-41.5 157.78,-48.5"/>
<text xml:space="preserve" text-anchor="start" x="106" y="-47.7" font-family="Helvetica,sans-Serif" font-size="9.00" fill="#1a1a2e">dns → start</text>
</g>
</g>
</svg>
