<?xml version="1.0" encoding="UTF-8" standalone="no"?>
<!DOCTYPE svg PUBLIC "-//W3C//DTD SVG 1.1//EN"
 "http://www.w3.org/Graphics/SVG/1.1/DTD/svg11.dtd">
<!-- Generated by graphviz version 14.1.2 (20260124.0452)
 -->
<!-- Title: UnixConduit Pages: 1 -->
<svg width="666pt" height="148pt"
 viewBox="0.00 0.00 666.00 148.00" xmlns="http://www.w3.org/2000/svg" xmlns:xlink="http://www.w3.org/1999/xlink">
<g id="graph0" class="graph" transform="scale(1 1) rotate(0) translate(28.8 118.8)">
<title>UnixConduit</title>
<polygon fill="white" stroke="none" points="-28.8,28.8 -28.8,-118.8 637.3,-118.8 637.3,28.8 -28.8,28.8"/>
<!-- udpv4v6_socket -->
<g id="node1" class="node">
<title>udpv4v6_socket</title>
<path fill="#e8f0fe" stroke="#4285f4" d="M596.5,-90C596.5,-90 525.75,-90 525.75,-90 519.75,-90 513.75,-84 513.75,-78 513.75,-78 513.75,-66 513.75,-66 513.75,-60 519.75,-54 525.75,-54 525.75,-54 596.5,-54 596.5,-54 602.5,-54 608.5,-60 608.5,-66 608.5,-66 608.5,-78 608.5,-78 608.5,-84 602.5,-90 596.5,-90"/>
<text xml:space="preserve" text-anchor="start" x="522.5" y="-72.55" font-family="Helvetica,sans-Serif" font-size="11.00" fill="#1a1a2e">udpv4v6_socket</text>
<text xml:space="preserve" text-anchor="start" x="521.75" y="-63.45" font-family="Helvetica,sans-Serif" font-size="9.00" fill="#1a1a2e">&lt;Udpv4v6_socket&gt;</text>
</g>
<!-- tcpv4v6_socket -->
<g id="node2" class="node">
<title>tcpv4v6_socket</title>
<path fill="#e8f0fe" stroke="#4285f4" d="M595,-36C595,-36 527.25,-36 527.25,-36 521.25,-36 515.25,-30 515.25,-24 515.25,-24 515.25,-12 515.25,-12 515.25,-6 521.25,0 527.25,0 527.25,0 595,0 595,0 601,0 607,-6 607,-12 607,-12 607,-24 607,-24 607,-30 601,-36 595,-36"/>
<text xml:space="preserve" text-anchor="start" x="524.38" y="-18.55" font-family="Helvetica,sans-Serif" font-size="11.00" fill="#1a1a2e">tcpv4v6_socket</text>
<text xml:space="preserve" text-anchor="start" x="523.25" y="-9.45" font-family="Helvetica,sans-Serif" font-size="9.00" fill="#1a1a2e">&lt;Tcpv4v6_socket&gt;</text>
</g>
<!-- stackv4v6 -->
<g id="node3" class="node">
<title>stackv4v6</title>
<path fill="#e8f0fe" stroke="#4285f4" d="M404.25,-63C404.25,-63 359.75,-63 359.75,-63 353.75,-63 347.75,-57 347.75,-51 347.75,-51 347.75,-39 347.75,-39 347.75,-33 353.75,-27 359.75,-27 359.75,-27 404.25,-27 404.25,-27 410.25,-27 416.25,-33 416.25,-39 416.25,-39 416.25,-51 416.25,-51 416.25,-57 410.25,-63 404.25,-63"/>
<text xml:space="preserve" text-anchor="start" x="358.38" y="-45.55" font-family="Helvetica,sans-Serif" font-size="11.00" fill="#1a1a2e">stackv4v6</text>
<text xml:space="preserve" text-anchor="start" x="355.75" y="-36.45" font-family="Helvetica,sans-Serif" font-size="9.00" fill="#1a1a2e">&lt;Stackv4v6&gt;</text>
</g>
<!-- stackv4v6&#45;&gt;udpv4v6_socket -->
<g id="edge1" class="edge">
<title>stackv4v6&#45;&gt;udpv4v6_socket</title>
<path fill="none" stroke="#5f6368" d="M416.73,-50.14C440.82,-53.81 473.82,-58.84 502.09,-63.15"/>
<polygon fill="#5f6368" stroke="#5f6368" points="501.56,-66.61 511.98,-64.66 502.62,-59.69 501.56,-66.61"/>
<text xml:space="preserve" text-anchor="start" x="434.25" y="-64.41" font-family="Helvetica,sans-Serif" font-size="9.00" fill="#1a1a2e">udp → connect</text>
</g>
<!-- stackv4v6&#45;&gt;tcpv4v6_socket -->
<g id="edge2" class="edge">
<title>stackv4v6&#45;&gt;tcpv4v6_socket</title>
<path fill="none" stroke="#5f6368" d="M416.73,-39.86C441.28,-36.12 475.09,-30.96 503.71,-26.6"/>
<polygon fill="#5f6368" stroke="#5f6368" points="503.95,-30.1 513.31,-25.14 502.89,-23.18 503.95,-30.1"/>
<text xml:space="preserve" text-anchor="start" x="436.12" y="-39.72" font-family="Helvetica,sans-Serif" font-size="9.00" fill="#1a1a2e">tcp → connect</text>
</g>
<!-- conduit_tcp -->
<g id="node4" class="node">
<title>conduit_tcp</title>
<path fill="#e8f0fe" stroke="#4285f4" d="M233,-63C233,-63 184,-63 184,-63 178,-63 172,-57 172,-51 172,-51 172,-39 172,-39 172,-33 178,-27 184,-27 184,-27 233,-27 233,-27 239,-27 245,-33 245,-39 245,-39 245,-51 245,-51 245,-57 239,-63 233,-63"/>
<text xml:space="preserve" text-anchor="start" x="181.12" y="-45.55" font-family="Helvetica,sans-Serif" font-size="11.00" fill="#1a1a2e">conduit_tcp</text>
<text xml:space="preserve" text-anchor="start" x="180" y="-36.45" font-family="Helvetica,sans-Serif" font-size="9.00" fill="#1a1a2e">&lt;ConduitTcp&gt;</text>
</g>
<!-- conduit_tcp&#45;&gt;stackv4v6 -->
<g id="edge3" class="edge">
<title>conduit_tcp&#45;&gt;stackv4v6</title>
<path fill="none" stroke="#5f6368" d="M245.45,-45C271.87,-45 307.93,-45 336.22,-45"/>
<polygon fill="#5f6368" stroke="#5f6368" points="335.91,-48.5 345.91,-45 335.91,-41.5 335.91,-48.5"/>
<text xml:space="preserve" text-anchor="start" x="263" y="-47.7" font-family="Helvetica,sans-Serif" font-size="9.00" fill="#1a1a2e">stack → connect</text>
</g>
<!-- conduit_app -->
<g id="node5" class="node">
<title>conduit_app</title>
<path fill="#e8f0fe" stroke="#4285f4" d="M63.25,-63C63.25,-63 12,-63 12,-63 6,-63 0,-57 0,-51 0,-51 0,-39 0,-39 0,-33 6,-27 12,-27 12,-27 63.25,-27 63.25,-27 69.25,-27 75.25,-33 75.25,-39 75.25,-39 75.25,-51 75.25,-51 75.25,-57 69.25,-63 63.25,-63"/>
<text xml:space="preserve" text-anchor="start" x="8.38" y="-45.55" font-family="Helvetica,sans-Serif" font-size="11.00" fill="#1a1a2e">conduit_app</text>
<text xml:space="preserve" text-anchor="start" x="8" y="-36.45" font-family="Helvetica,sans-Serif" font-size="9.00" fill="#1a1a2e">&lt;ConduitApp&gt;</text>
</g>
<!-- conduit_app&#45;&gt;conduit_tcp -->
<g id="edge4" class="edge">
<title>conduit_app&#45;&gt;conduit_tcp</title>
<path fill="none" stroke="#5f6368" d="M75.69,-45C100.55,-45 133.52,-45 160.27,-45"/>
<polygon fill="#5f6368" stroke="#5f6368" points="160.17,-48.5 170.17,-45 160.17,-41.5 160.17,-48.5"/>
<text xml:space="preserve" text-anchor="start" x="93.25" y="-47.7" font-family="Helvetica,sans-Serif" font-size="9.00" fill="#1a1a2e">conduit → start</text>
</g>
</g>
</svg>
