<?xml version="1.0" encoding="UTF-8" standalone="no"?>
<!DOCTYPE svg PUBLIC "-//W3C//DTD SVG 1.1//EN"
 "http://www.w3.org/Graphics/SVG/1.1/DTD/svg11.dtd">
<!-- Generated by graphviz version 14.1.2 (20260124.0452)
 -->
<!-- Title: UnixPing6 Pages: 1 -->
<svg width="586pt" height="165pt"
 viewBox="0.00 0.00 586.00 165.00" xmlns="http://www.w3.org/2000/svg" xmlns:xlink="http://www.w3.org/1999/xlink">
<g id="graph0" class="graph" transform="scale(1 1) rotate(0) translate(28.8 135.91)">
<title>UnixPing6</title>
<polygon fill="white" stroke="none" points="-28.8,28.8 -28.8,-135.91 557.3,-135.91 557.3,28.8 -28.8,28.8"/>
<!-- netif -->
<g id="node1" class="node">
<title>netif</title>
<path fill="#e8f0fe" stroke="#4285f4" d="M516.5,-80C516.5,-80 486.5,-80 486.5,-80 480.5,-80 474.5,-74 474.5,-68 474.5,-68 474.5,-56 474.5,-56 474.5,-50 480.5,-44 486.5,-44 486.5,-44 516.5,-44 516.5,-44 522.5,-44 528.5,-50 528.5,-56 528.5,-56 528.5,-68 528.5,-68 528.5,-74 522.5,-80 516.5,-80"/>
<text xml:space="preserve" text-anchor="start" x="491.38" y="-62.55" font-family="Helvetica,sans-Serif" font-size="11.00" fill="#1a1a2e">netif</text>
<text xml:space="preserve" text-anchor="start" x="486.88" y="-53.45" font-family="Helvetica,sans-Serif" font-size="9.00" fill="#1a1a2e">&lt;Netif&gt;</text>
</g>
<!-- ethernet -->
<g id="node2" class="node">
<title>ethernet</title>
<path fill="#e8f0fe" stroke="#4285f4" d="M368,-80C368,-80 331,-80 331,-80 325,-80 319,-74 319,-68 319,-68 319,-56 319,-56 319,-50 325,-44 331,-44 331,-44 368,-44 368,-44 374,-44 380,-50 380,-56 380,-56 380,-68 380,-68 380,-74 374,-80 368,-80"/>
<text xml:space="preserve" text-anchor="start" x="329.62" y="-62.55" font-family="Helvetica,sans-Serif" font-size="11.00" fill="#1a1a2e">ethernet</text>
<text xml:space="preserve" text-anchor="start" x="327" y="-53.45" font-family="Helvetica,sans-Serif" font-size="9.00" fill="#1a1a2e">&lt;Ethernet&gt;</text>
</g>
<!-- ethernet&#45;&gt;netif -->
<g id="edge1" class="edge">
<title>ethernet&#45;&gt;netif</title>
<path fill="none" stroke="#5f6368" d="M380.49,-62C404.11,-62 437.18,-62 462.62,-62"/>
<polygon fill="#5f6368" stroke="#5f6368" points="462.56,-65.5 472.56,-62 462.56,-58.5 462.56,-65.5"/>
<text xml:space="preserve" text-anchor="start" x="398" y="-64.7" font-family="Helvetica,sans-Serif" font-size="9.00" fill="#1a1a2e">net → connect</text>
</g>
<!-- ipv6 -->
<g id="node3" class="node">
<title>ipv6</title>
<path fill="#e8f0fe" stroke="#4285f4" d="M210.25,-36C210.25,-36 180.25,-36 180.25,-36 174.25,-36 168.25,-30 168.25,-24 168.25,-24 168.25,-12 168.25,-12 168.25,-6 174.25,0 180.25,0 180.25,0 210.25,0 210.25,0 216.25,0 222.25,-6 222.25,-12 222.25,-12 222.25,-24 222.25,-24 222.25,-30 216.25,-36 210.25,-36"/>
<text xml:space="preserve" text-anchor="start" x="185.5" y="-18.55" font-family="Helvetica,sans-Serif" font-size="11.00" fill="#1a1a2e">ipv6</text>
<text xml:space="preserve" text-anchor="start" x="181.38" y="-9.45" font-family="Helvetica,sans-Serif" font-size="9.00" fill="#1a1a2e">&lt;Ipv6&gt;</text>
</g>
<!-- ipv6&#45;&gt;netif -->
<g id="edge2" class="edge">
<title>ipv6&#45;&gt;netif</title>
<path fill="none" stroke="#5f6368" d="M222.65,-16.56C258.54,-15.12 324.63,-14.28 380,-23.75 408.76,-28.67 440.15,-38.79 463.68,-47.39"/>
<polygon fill="#5f6368" stroke="#5f6368" points="462.21,-50.58 472.81,-50.8 464.66,-44.02 462.21,-50.58"/>
<text xml:space="preserve" text-anchor="start" x="320.25" y="-26.45" font-family="Helvetica,sans-Serif" font-size="9.00" fill="#1a1a2e">net → connect</text>
</g>
<!-- ipv6&#45;&gt;ethernet -->
<g id="edge3" class="edge">
<title>ipv6&#45;&gt;ethernet</title>
<path fill="none" stroke="#5f6368" d="M222.6,-24.9C243.84,-30.54 274.43,-38.84 301,-46.75 303.24,-47.42 305.53,-48.11 307.84,-48.82"/>
<polygon fill="#5f6368" stroke="#5f6368" points="306.63,-52.11 317.22,-51.75 308.72,-45.43 306.63,-52.11"/>
<text xml:space="preserve" text-anchor="start" x="242.5" y="-49.45" font-family="Helvetica,sans-Serif" font-size="9.00" fill="#1a1a2e">eth → connect</text>
</g>
<!-- ping6_app -->
<g id="node4" class="node">
<title>ping6_app</title>
<path fill="#e8f0fe" stroke="#4285f4" d="M55,-90C55,-90 12,-90 12,-90 6,-90 0,-84 0,-78 0,-78 0,-66 0,-66 0,-60 6,-54 12,-54 12,-54 55,-54 55,-54 61,-54 67,-60 67,-66 67,-66 67,-78 67,-78 67,-84 61,-90 55,-90"/>
<text xml:space="preserve" text-anchor="start" x="8.38" y="-72.55" font-family="Helvetica,sans-Serif" font-size="11.00" fill="#1a1a2e">ping6_app</text>
<text xml:space="preserve" text-anchor="start" x="8" y="-63.45" font-family="Helvetica,sans-Serif" font-size="9.00" fill="#1a1a2e">&lt;Ping6App&gt;</text>
</g>
<!-- ping6_app&#45;&gt;netif -->
<g id="edge4" class="edge">
<title>ping6_app&#45;&gt;netif</title>
<path fill="none" stroke="#5f6368" d="M67.49,-80.12C73.29,-81.28 79.3,-82.31 85,-83 215.19,-98.71 249.26,-99.19 380,-89 414.31,-86.33 423.09,-85.25 456.5,-77 458.76,-76.44 461.08,-75.82 463.4,-75.15"/>
<polygon fill="#5f6368" stroke="#5f6368" points="464.24,-78.55 472.75,-72.24 462.16,-71.87 464.24,-78.55"/>
<text xml:space="preserve" text-anchor="start" x="242.5" y="-98.56" font-family="Helvetica,sans-Serif" font-size="9.00" fill="#1a1a2e">net → connect</text>
</g>
<!-- ping6_app&#45;&gt;ethernet -->
<g id="edge5" class="edge">
<title>ping6_app&#45;&gt;ethernet</title>
<path fill="none" stroke="#5f6368" d="M67.21,-70.96C124.77,-69.13 243.99,-65.33 307.15,-63.32"/>
<polygon fill="#5f6368" stroke="#5f6368" points="307.24,-66.82 317.12,-63 307.01,-59.82 307.24,-66.82"/>
<text xml:space="preserve" text-anchor="start" x="166" y="-70.36" font-family="Helvetica,sans-Serif" font-size="9.00" fill="#1a1a2e">eth → connect</text>
</g>
<!-- ping6_app&#45;&gt;ipv6 -->
<g id="edge6" class="edge">
<title>ping6_app&#45;&gt;ipv6</title>
<path fill="none" stroke="#5f6368" d="M67.48,-54.3C73.23,-51.56 79.22,-48.93 85,-46.75 108.38,-37.94 135.55,-30.77 156.94,-25.8"/>
<polygon fill="#5f6368" stroke="#5f6368" points="157.71,-29.22 166.7,-23.6 156.17,-22.39 157.71,-29.22"/>
<text xml:space="preserve" text-anchor="start" x="85" y="-49.45" font-family="Helvetica,sans-Serif" font-size="9.00" fill="#1a1a2e">ipv6 → connect</text>
</g>
</g>
</svg>
